G04 #@! TF.GenerationSoftware,KiCad,Pcbnew,8.0.8*
G04 #@! TF.CreationDate,2025-03-13T20:56:52-04:00*
G04 #@! TF.ProjectId,h_bridge_driver,685f6272-6964-4676-955f-647269766572,rev?*
G04 #@! TF.SameCoordinates,Original*
G04 #@! TF.FileFunction,Copper,L1,Top*
G04 #@! TF.FilePolarity,Positive*
%FSLAX46Y46*%
G04 Gerber Fmt 4.6, Leading zero omitted, Abs format (unit mm)*
G04 Created by KiCad (PCBNEW 8.0.8) date 2025-03-13 20:56:52*
%MOMM*%
%LPD*%
G01*
G04 APERTURE LIST*
G04 Aperture macros list*
%AMRoundRect*
0 Rectangle with rounded corners*
0 $1 Rounding radius*
0 $2 $3 $4 $5 $6 $7 $8 $9 X,Y pos of 4 corners*
0 Add a 4 corners polygon primitive as box body*
4,1,4,$2,$3,$4,$5,$6,$7,$8,$9,$2,$3,0*
0 Add four circle primitives for the rounded corners*
1,1,$1+$1,$2,$3*
1,1,$1+$1,$4,$5*
1,1,$1+$1,$6,$7*
1,1,$1+$1,$8,$9*
0 Add four rect primitives between the rounded corners*
20,1,$1+$1,$2,$3,$4,$5,0*
20,1,$1+$1,$4,$5,$6,$7,0*
20,1,$1+$1,$6,$7,$8,$9,0*
20,1,$1+$1,$8,$9,$2,$3,0*%
G04 Aperture macros list end*
G04 #@! TA.AperFunction,ComponentPad*
%ADD10O,2.500000X2.200000*%
G04 #@! TD*
G04 #@! TA.AperFunction,ComponentPad*
%ADD11O,1.800000X1.200000*%
G04 #@! TD*
G04 #@! TA.AperFunction,SMDPad,CuDef*
%ADD12RoundRect,0.250000X0.850000X0.350000X-0.850000X0.350000X-0.850000X-0.350000X0.850000X-0.350000X0*%
G04 #@! TD*
G04 #@! TA.AperFunction,SMDPad,CuDef*
%ADD13RoundRect,0.250000X1.275000X1.125000X-1.275000X1.125000X-1.275000X-1.125000X1.275000X-1.125000X0*%
G04 #@! TD*
G04 #@! TA.AperFunction,SMDPad,CuDef*
%ADD14RoundRect,0.249997X2.950003X2.650003X-2.950003X2.650003X-2.950003X-2.650003X2.950003X-2.650003X0*%
G04 #@! TD*
G04 #@! TA.AperFunction,SMDPad,CuDef*
%ADD15RoundRect,0.250000X0.350000X0.450000X-0.350000X0.450000X-0.350000X-0.450000X0.350000X-0.450000X0*%
G04 #@! TD*
G04 #@! TA.AperFunction,SMDPad,CuDef*
%ADD16RoundRect,0.100000X0.225000X0.100000X-0.225000X0.100000X-0.225000X-0.100000X0.225000X-0.100000X0*%
G04 #@! TD*
G04 #@! TA.AperFunction,ComponentPad*
%ADD17C,2.200000*%
G04 #@! TD*
G04 #@! TA.AperFunction,ComponentPad*
%ADD18C,2.600000*%
G04 #@! TD*
G04 #@! TA.AperFunction,ConnectorPad*
%ADD19C,3.800000*%
G04 #@! TD*
G04 #@! TA.AperFunction,SMDPad,CuDef*
%ADD20C,1.500000*%
G04 #@! TD*
G04 #@! TA.AperFunction,ComponentPad*
%ADD21R,2.400000X2.400000*%
G04 #@! TD*
G04 #@! TA.AperFunction,ComponentPad*
%ADD22C,2.400000*%
G04 #@! TD*
G04 #@! TA.AperFunction,ComponentPad*
%ADD23C,3.600000*%
G04 #@! TD*
G04 #@! TA.AperFunction,ConnectorPad*
%ADD24C,5.600000*%
G04 #@! TD*
G04 #@! TA.AperFunction,SMDPad,CuDef*
%ADD25RoundRect,0.250000X-0.850000X-0.350000X0.850000X-0.350000X0.850000X0.350000X-0.850000X0.350000X0*%
G04 #@! TD*
G04 #@! TA.AperFunction,SMDPad,CuDef*
%ADD26RoundRect,0.250000X-1.275000X-1.125000X1.275000X-1.125000X1.275000X1.125000X-1.275000X1.125000X0*%
G04 #@! TD*
G04 #@! TA.AperFunction,SMDPad,CuDef*
%ADD27RoundRect,0.249997X-2.950003X-2.650003X2.950003X-2.650003X2.950003X2.650003X-2.950003X2.650003X0*%
G04 #@! TD*
G04 #@! TA.AperFunction,SMDPad,CuDef*
%ADD28RoundRect,0.250000X0.325000X0.450000X-0.325000X0.450000X-0.325000X-0.450000X0.325000X-0.450000X0*%
G04 #@! TD*
G04 #@! TA.AperFunction,SMDPad,CuDef*
%ADD29RoundRect,0.249999X-1.075001X0.450001X-1.075001X-0.450001X1.075001X-0.450001X1.075001X0.450001X0*%
G04 #@! TD*
G04 #@! TA.AperFunction,SMDPad,CuDef*
%ADD30RoundRect,0.250000X-0.350000X-0.450000X0.350000X-0.450000X0.350000X0.450000X-0.350000X0.450000X0*%
G04 #@! TD*
G04 #@! TA.AperFunction,ViaPad*
%ADD31C,0.600000*%
G04 #@! TD*
G04 #@! TA.AperFunction,Conductor*
%ADD32C,0.300000*%
G04 #@! TD*
G04 APERTURE END LIST*
D10*
X99500000Y-79000000D03*
X115000000Y-79000000D03*
X99500000Y-111000000D03*
X115000000Y-111000000D03*
X99500000Y-95000000D03*
X115000000Y-95000000D03*
X99500000Y-63000000D03*
X115000000Y-63000000D03*
X191000000Y-91500000D03*
X175500000Y-91500000D03*
X191000000Y-75500000D03*
X175500000Y-75500000D03*
D11*
X132000000Y-107000000D03*
X132000000Y-105000000D03*
X132000000Y-103000000D03*
D12*
X167500000Y-69060000D03*
D13*
X162875000Y-68305000D03*
X162875000Y-65255000D03*
D14*
X161200000Y-66780000D03*
D13*
X159525000Y-68305000D03*
X159525000Y-65255000D03*
D12*
X167500000Y-64500000D03*
D15*
X125975000Y-65200000D03*
X123975000Y-65200000D03*
D16*
X174450000Y-104650000D03*
X174450000Y-104000000D03*
X174450000Y-103350000D03*
X172550000Y-103350000D03*
X172550000Y-104000000D03*
X172550000Y-104650000D03*
D17*
X154540000Y-110920000D03*
X148190000Y-113460000D03*
D18*
X90000000Y-87000000D03*
D19*
X90000000Y-87000000D03*
D20*
X145000000Y-106000000D03*
D21*
X150823959Y-93000000D03*
D22*
X145823959Y-93000000D03*
D18*
X90000000Y-71000000D03*
D19*
X90000000Y-71000000D03*
D23*
X100000000Y-55000000D03*
D24*
X100000000Y-55000000D03*
D20*
X143000000Y-74000000D03*
D18*
X200000000Y-99500000D03*
D19*
X200000000Y-99500000D03*
D25*
X159250000Y-82500000D03*
D26*
X163875000Y-83255000D03*
X163875000Y-86305000D03*
D27*
X165550000Y-84780000D03*
D26*
X167225000Y-83255000D03*
X167225000Y-86305000D03*
D25*
X159250000Y-87060000D03*
D18*
X200000000Y-83500000D03*
D19*
X200000000Y-83500000D03*
D23*
X190000000Y-125000000D03*
D24*
X190000000Y-125000000D03*
D20*
X167500000Y-98500000D03*
D23*
X190000000Y-55000000D03*
D24*
X190000000Y-55000000D03*
D25*
X159260000Y-73520000D03*
D26*
X163885000Y-74275000D03*
X163885000Y-77325000D03*
D27*
X165560000Y-75800000D03*
D26*
X167235000Y-74275000D03*
X167235000Y-77325000D03*
D25*
X159260000Y-78080000D03*
D21*
X150823959Y-66500000D03*
D22*
X145823959Y-66500000D03*
D12*
X167575000Y-95110000D03*
D13*
X162950000Y-94355000D03*
X162950000Y-91305000D03*
D14*
X161275000Y-92830000D03*
D13*
X159600000Y-94355000D03*
X159600000Y-91305000D03*
D12*
X167575000Y-90550000D03*
D16*
X153000000Y-104650000D03*
X153000000Y-104000000D03*
X153000000Y-103350000D03*
X151100000Y-103350000D03*
X151100000Y-104000000D03*
X151100000Y-104650000D03*
D17*
X176500000Y-111000000D03*
X170150000Y-113540000D03*
D20*
X140500000Y-71000000D03*
X141000000Y-86000000D03*
D28*
X136025000Y-59000000D03*
X133975000Y-59000000D03*
D29*
X145875000Y-76905000D03*
X145875000Y-81705000D03*
D30*
X124000000Y-59000000D03*
X126000000Y-59000000D03*
D23*
X100000000Y-125000000D03*
D24*
X100000000Y-125000000D03*
D28*
X136025000Y-65000000D03*
X133975000Y-65000000D03*
D31*
X144000000Y-86000000D03*
X147000000Y-86000000D03*
X145500000Y-86000000D03*
X144000000Y-90500000D03*
X147000000Y-90500000D03*
X145500000Y-90500000D03*
X157000000Y-96000000D03*
X157000000Y-92000000D03*
X157000000Y-94000000D03*
X157000000Y-90000000D03*
X157000000Y-70000000D03*
X157000000Y-66000000D03*
X157000000Y-68000000D03*
X157000000Y-64000000D03*
X174500000Y-106000000D03*
X113500000Y-115000000D03*
X111000000Y-115000000D03*
X113500000Y-117000000D03*
X111000000Y-117000000D03*
X111500000Y-112500000D03*
X111500000Y-110000000D03*
X108500000Y-112500000D03*
X108500000Y-110000000D03*
X105500000Y-112500000D03*
X105500000Y-110000000D03*
X102500000Y-112500000D03*
X102500000Y-110000000D03*
X169800000Y-86000000D03*
X171300000Y-85000000D03*
X172800000Y-86000000D03*
X172800000Y-84200000D03*
X171300000Y-83400000D03*
X169800000Y-84400000D03*
X169800000Y-89400000D03*
X172800000Y-92600000D03*
X172800000Y-91000000D03*
X169800000Y-92600000D03*
X171300000Y-92000000D03*
X171300000Y-90200000D03*
X169800000Y-91000000D03*
X171300000Y-88400000D03*
X172800000Y-89400000D03*
X172800000Y-87600000D03*
X171300000Y-86800000D03*
X169800000Y-87800000D03*
X173100000Y-66600000D03*
X170100000Y-63400000D03*
X170100000Y-65000000D03*
X173100000Y-63400000D03*
X171600000Y-64000000D03*
X171600000Y-65800000D03*
X173100000Y-65000000D03*
X171600000Y-67600000D03*
X170100000Y-66600000D03*
X170100000Y-68400000D03*
X171600000Y-69200000D03*
X173100000Y-68200000D03*
X86100000Y-69800000D03*
X93600000Y-69300000D03*
X94600000Y-68900000D03*
X91600000Y-69300000D03*
X87100000Y-69300000D03*
X86100000Y-72100000D03*
X88100000Y-69300000D03*
X94600000Y-73100000D03*
X85900000Y-70900000D03*
X92600000Y-69300000D03*
X88100000Y-72700000D03*
X91600000Y-72700000D03*
X87100000Y-72700000D03*
X92600000Y-72700000D03*
X93600000Y-72700000D03*
X86100000Y-85800000D03*
X94600000Y-84900000D03*
X93600000Y-85300000D03*
X91600000Y-85300000D03*
X85900000Y-86900000D03*
X92600000Y-85300000D03*
X88100000Y-88700000D03*
X91600000Y-88700000D03*
X87100000Y-88700000D03*
X86100000Y-88100000D03*
X87100000Y-85300000D03*
X88100000Y-85300000D03*
X94600000Y-89100000D03*
X92600000Y-88700000D03*
X93600000Y-88700000D03*
X203900000Y-100700000D03*
X195400000Y-101600000D03*
X196400000Y-101200000D03*
X198400000Y-101200000D03*
X204100000Y-99600000D03*
X197400000Y-101200000D03*
X201900000Y-97800000D03*
X198400000Y-97800000D03*
X202900000Y-97900000D03*
X203900000Y-98500000D03*
X202900000Y-101100000D03*
X201900000Y-101200000D03*
X195400000Y-97400000D03*
X197400000Y-97800000D03*
X196400000Y-97800000D03*
X195400000Y-85600000D03*
X196400000Y-85200000D03*
X197400000Y-85200000D03*
X198400000Y-85200000D03*
X201900000Y-85200000D03*
X202900000Y-85100000D03*
X203900000Y-84700000D03*
X204100000Y-83600000D03*
X203900000Y-82500000D03*
X202900000Y-81900000D03*
X201900000Y-81800000D03*
X198400000Y-81800000D03*
X197400000Y-81800000D03*
X196400000Y-81800000D03*
X195400000Y-81400000D03*
X124150000Y-75500000D03*
X173000000Y-79200000D03*
X171500000Y-78600000D03*
X170000000Y-79200000D03*
X173000000Y-77600000D03*
X171500000Y-76800000D03*
X170000000Y-77600000D03*
X170000000Y-76000000D03*
X171500000Y-75000000D03*
X173000000Y-76000000D03*
X173000000Y-74200000D03*
X171500000Y-73400000D03*
X170000000Y-74400000D03*
X134250000Y-96250000D03*
X127000000Y-115500000D03*
X155000000Y-68000000D03*
X133000000Y-96250000D03*
X155000000Y-64000000D03*
X123000000Y-113500000D03*
X141000000Y-99000000D03*
X133000000Y-97750000D03*
X119000000Y-107500000D03*
X119000000Y-115500000D03*
X121000000Y-115500000D03*
X121000000Y-113500000D03*
X119000000Y-113500000D03*
X153000000Y-94000000D03*
X125000000Y-113500000D03*
X133500000Y-97000000D03*
X153000000Y-96000000D03*
X153000000Y-90000000D03*
X123000000Y-107500000D03*
X155000000Y-96000000D03*
X133500000Y-95500000D03*
X121000000Y-111500000D03*
X135000000Y-95500000D03*
X125000000Y-107500000D03*
X127000000Y-107500000D03*
X153000000Y-64000000D03*
X123000000Y-115500000D03*
X119000000Y-109500000D03*
X155000000Y-92000000D03*
X155000000Y-90000000D03*
X155000000Y-94000000D03*
X134250000Y-97750000D03*
X155000000Y-66000000D03*
X155000000Y-70000000D03*
X127000000Y-111500000D03*
X119000000Y-111500000D03*
X135000000Y-97000000D03*
X125000000Y-111500000D03*
X135500000Y-97750000D03*
X153000000Y-68000000D03*
X123000000Y-111500000D03*
X153000000Y-66000000D03*
X135500000Y-96250000D03*
X127000000Y-109500000D03*
X123000000Y-109500000D03*
X121000000Y-109500000D03*
X121000000Y-107500000D03*
X153000000Y-70000000D03*
X127000000Y-113500000D03*
X153000000Y-92000000D03*
X125000000Y-109500000D03*
X103000000Y-97500000D03*
X124500000Y-91000000D03*
X115000000Y-127500000D03*
X104500000Y-96000000D03*
X107500000Y-96000000D03*
X106000000Y-99500000D03*
X147000000Y-87000000D03*
X145500000Y-87000000D03*
X160000000Y-127500000D03*
X103000000Y-90000000D03*
X104500000Y-97500000D03*
X146500000Y-64000000D03*
X110500000Y-92000000D03*
X103000000Y-92000000D03*
X142500000Y-65500000D03*
X122500000Y-52500000D03*
X131200000Y-72500000D03*
X110500000Y-90000000D03*
X126000000Y-91000000D03*
X142500000Y-67500000D03*
X144000000Y-85000000D03*
X130000000Y-52500000D03*
X127800000Y-75200000D03*
X110500000Y-97500000D03*
X109000000Y-96000000D03*
X104500000Y-94000000D03*
X144000000Y-87000000D03*
X104500000Y-99500000D03*
X145000000Y-127500000D03*
X137500000Y-127500000D03*
X106000000Y-97500000D03*
X107500000Y-97500000D03*
X107500000Y-127500000D03*
X107500000Y-94000000D03*
X109000000Y-90000000D03*
X145000000Y-52500000D03*
X144500000Y-64000000D03*
X109000000Y-94000000D03*
X104500000Y-92000000D03*
X107500000Y-92000000D03*
X110500000Y-94000000D03*
X144000000Y-83500000D03*
X106000000Y-94000000D03*
X160000000Y-52500000D03*
X115000000Y-52500000D03*
X109000000Y-92000000D03*
X137500000Y-52500000D03*
X106000000Y-90000000D03*
X104500000Y-90000000D03*
X167500000Y-52500000D03*
X107500000Y-52500000D03*
X110500000Y-99500000D03*
X175000000Y-52500000D03*
X167500000Y-127500000D03*
X130000000Y-127500000D03*
X127750000Y-74000000D03*
X127500000Y-91000000D03*
X175000000Y-127500000D03*
X127500000Y-93000000D03*
X146500000Y-69000000D03*
X121500000Y-75000000D03*
X109000000Y-99500000D03*
X109000000Y-97500000D03*
X107500000Y-99500000D03*
X130000000Y-73500000D03*
X106000000Y-92000000D03*
X152500000Y-52500000D03*
X142500000Y-69000000D03*
X103000000Y-94000000D03*
X106000000Y-96000000D03*
X145500000Y-85000000D03*
X125100000Y-77919485D03*
X124500000Y-93000000D03*
X110500000Y-96000000D03*
X125750000Y-80000000D03*
X107500000Y-90000000D03*
X122500000Y-127500000D03*
X103000000Y-99500000D03*
X126000000Y-93000000D03*
X144500000Y-69000000D03*
X147000000Y-85000000D03*
X152500000Y-127500000D03*
X142500000Y-64000000D03*
X103000000Y-96000000D03*
X127000000Y-89500000D03*
X97500000Y-88500000D03*
X124250000Y-71000000D03*
X170250000Y-103500000D03*
X138500000Y-114250000D03*
X148250000Y-103250000D03*
X135750000Y-114250000D03*
X129241051Y-73752983D03*
X123500000Y-79750000D03*
X125900000Y-74700000D03*
X140950000Y-74950000D03*
X124600000Y-76400000D03*
X132750000Y-68000000D03*
X142000000Y-100000000D03*
X125600000Y-76500000D03*
X127600000Y-71800000D03*
X139500000Y-74400000D03*
X143500000Y-76000000D03*
X149500000Y-84000000D03*
X149315687Y-88600000D03*
X137000000Y-75000000D03*
X157000000Y-88000000D03*
X157000000Y-82500000D03*
X141875000Y-87625000D03*
X148500000Y-88250000D03*
X122000000Y-85500000D03*
X140250000Y-100750000D03*
X137000000Y-87750000D03*
X139250000Y-101250000D03*
X136750000Y-88750000D03*
X155000000Y-103500000D03*
X120500000Y-84750000D03*
X176500000Y-104000000D03*
D32*
X134900000Y-66500000D02*
X135200000Y-66200000D01*
X132000000Y-67000000D02*
X132500000Y-66500000D01*
X132500000Y-66500000D02*
X134900000Y-66500000D01*
X135200000Y-66200000D02*
X135200000Y-65825000D01*
X129241051Y-72758949D02*
X132000000Y-70000000D01*
X132000000Y-70000000D02*
X132000000Y-67000000D01*
X129241051Y-73752983D02*
X129241051Y-72758949D01*
X135200000Y-65825000D02*
X136025000Y-65000000D01*
X133975000Y-65000000D02*
X133775000Y-65200000D01*
X133775000Y-65200000D02*
X125975000Y-65200000D01*
X126000000Y-59000000D02*
X133975000Y-59000000D01*
X174450000Y-105950000D02*
X174500000Y-106000000D01*
X123500000Y-73750000D02*
X122800000Y-73050000D01*
X122800000Y-73050000D02*
X122800000Y-60200000D01*
X122800000Y-60200000D02*
X124000000Y-59000000D01*
X162950000Y-97800000D02*
X162950000Y-94355000D01*
X141000000Y-99000000D02*
X161750000Y-99000000D01*
X161750000Y-99000000D02*
X162950000Y-97800000D01*
X174450000Y-104650000D02*
X174450000Y-105950000D01*
X97500000Y-88500000D02*
X122500000Y-88500000D01*
X123500000Y-89500000D02*
X127000000Y-89500000D01*
X122500000Y-88500000D02*
X123500000Y-89500000D01*
X124250000Y-71000000D02*
X123975000Y-70725000D01*
X123975000Y-70725000D02*
X123975000Y-65200000D01*
X170400000Y-103350000D02*
X170250000Y-103500000D01*
X151100000Y-103350000D02*
X148350000Y-103350000D01*
X145000000Y-111500000D02*
X147000000Y-113500000D01*
X145000000Y-106000000D02*
X145000000Y-111500000D01*
X148150000Y-113500000D02*
X148190000Y-113460000D01*
X170070000Y-113460000D02*
X170150000Y-113540000D01*
X148350000Y-103350000D02*
X148250000Y-103250000D01*
X147000000Y-113500000D02*
X148150000Y-113500000D01*
X172550000Y-103350000D02*
X170400000Y-103350000D01*
X125600000Y-75000000D02*
X125900000Y-74700000D01*
X123500000Y-77000000D02*
X123500000Y-79750000D01*
X123500000Y-73750000D02*
X124750000Y-75000000D01*
X123500000Y-77000000D02*
X123500000Y-73750000D01*
X124750000Y-75000000D02*
X125600000Y-75000000D01*
X142375000Y-73525000D02*
X159075000Y-73525000D01*
X140950000Y-74950000D02*
X142375000Y-73525000D01*
X124600000Y-76400000D02*
X124600000Y-76600000D01*
X127706250Y-77293750D02*
X132750000Y-72250000D01*
X124600000Y-76600000D02*
X125293750Y-77293750D01*
X132750000Y-72250000D02*
X132750000Y-68000000D01*
X125293750Y-77293750D02*
X127706250Y-77293750D01*
X167575000Y-97925000D02*
X167575000Y-95110000D01*
X165500000Y-100000000D02*
X167575000Y-97925000D01*
X142000000Y-100000000D02*
X165500000Y-100000000D01*
X127600000Y-71800000D02*
X127000000Y-72400000D01*
X127000000Y-75100000D02*
X125600000Y-76500000D01*
X127000000Y-72400000D02*
X127000000Y-75100000D01*
X163885000Y-73885000D02*
X163885000Y-74095000D01*
X162250000Y-72250000D02*
X163885000Y-73885000D01*
X139500000Y-74400000D02*
X141650000Y-72250000D01*
X141650000Y-72250000D02*
X162250000Y-72250000D01*
X163885000Y-74095000D02*
X163700000Y-74280000D01*
X157924264Y-88500000D02*
X161680000Y-88500000D01*
X157824264Y-88600000D02*
X157924264Y-88500000D01*
X149315687Y-88600000D02*
X157824264Y-88600000D01*
X161680000Y-88500000D02*
X163875000Y-86305000D01*
X141000000Y-71000000D02*
X137000000Y-75000000D01*
X167000000Y-71000000D02*
X141000000Y-71000000D01*
X167500000Y-70500000D02*
X167000000Y-71000000D01*
X167500000Y-69060000D02*
X167500000Y-70500000D01*
X157000000Y-88000000D02*
X148750000Y-88000000D01*
X141875000Y-87625000D02*
X141000000Y-86750000D01*
X159250000Y-82500000D02*
X157000000Y-82500000D01*
X141000000Y-86750000D02*
X141000000Y-86000000D01*
X148750000Y-88000000D02*
X148500000Y-88250000D01*
X171850000Y-100750000D02*
X140250000Y-100750000D01*
X136950000Y-87700000D02*
X137000000Y-87750000D01*
X122000000Y-85500000D02*
X124200000Y-87700000D01*
X124200000Y-87700000D02*
X136950000Y-87700000D01*
X174450000Y-103350000D02*
X171850000Y-100750000D01*
X139500000Y-101500000D02*
X139250000Y-101250000D01*
X152250000Y-101500000D02*
X139500000Y-101500000D01*
X120500000Y-85250000D02*
X124000000Y-88750000D01*
X153000000Y-103350000D02*
X153000000Y-102250000D01*
X124000000Y-88750000D02*
X136750000Y-88750000D01*
X153000000Y-103350000D02*
X154850000Y-103350000D01*
X154850000Y-103350000D02*
X155000000Y-103500000D01*
X153000000Y-102250000D02*
X152250000Y-101500000D01*
X120500000Y-84750000D02*
X120500000Y-85250000D01*
X149000000Y-104500000D02*
X149000000Y-106000000D01*
X171750000Y-106250000D02*
X172500000Y-105500000D01*
X172500000Y-104700000D02*
X172550000Y-104650000D01*
X149250000Y-106250000D02*
X171750000Y-106250000D01*
X172550000Y-104000000D02*
X172550000Y-104650000D01*
X149000000Y-106000000D02*
X149250000Y-106250000D01*
X149500000Y-104000000D02*
X149000000Y-104500000D01*
X151100000Y-104000000D02*
X149500000Y-104000000D01*
X172500000Y-105500000D02*
X172500000Y-104700000D01*
X174450000Y-104000000D02*
X176500000Y-104000000D01*
G04 #@! TA.AperFunction,Conductor*
G36*
X194442539Y-62519685D02*
G01*
X194488294Y-62572489D01*
X194499500Y-62624000D01*
X194499500Y-78934108D01*
X194499500Y-79000000D01*
X194499500Y-79151252D01*
X194535963Y-79451551D01*
X194578200Y-79622915D01*
X194608358Y-79745272D01*
X194715628Y-80028117D01*
X194770805Y-80133246D01*
X194856208Y-80295967D01*
X194978050Y-80472487D01*
X194999933Y-80538840D01*
X195000000Y-80542925D01*
X195000000Y-81000000D01*
X195457074Y-81000000D01*
X195524113Y-81019685D01*
X195527507Y-81021945D01*
X195704033Y-81143792D01*
X195832408Y-81211168D01*
X195971882Y-81284371D01*
X196254727Y-81391641D01*
X196254731Y-81391642D01*
X196254734Y-81391643D01*
X196548449Y-81464037D01*
X196799661Y-81494539D01*
X196848746Y-81500500D01*
X196848748Y-81500500D01*
X196934108Y-81500500D01*
X202934108Y-81500500D01*
X202995572Y-81500500D01*
X203004418Y-81500816D01*
X203204561Y-81515130D01*
X203222063Y-81517647D01*
X203413797Y-81559355D01*
X203430755Y-81564334D01*
X203614609Y-81632909D01*
X203630701Y-81640259D01*
X203802904Y-81734288D01*
X203817784Y-81743849D01*
X203974867Y-81861441D01*
X203988237Y-81873027D01*
X204126972Y-82011762D01*
X204138558Y-82025132D01*
X204244334Y-82166432D01*
X204256146Y-82182210D01*
X204265711Y-82197095D01*
X204359740Y-82369298D01*
X204367090Y-82385390D01*
X204435662Y-82569236D01*
X204440646Y-82586212D01*
X204482351Y-82777931D01*
X204484869Y-82795442D01*
X204499184Y-82995580D01*
X204499500Y-83004427D01*
X204499500Y-83995572D01*
X204499184Y-84004419D01*
X204484869Y-84204557D01*
X204482351Y-84222068D01*
X204440646Y-84413787D01*
X204435662Y-84430763D01*
X204367090Y-84614609D01*
X204359740Y-84630701D01*
X204265711Y-84802904D01*
X204256146Y-84817789D01*
X204138558Y-84974867D01*
X204126972Y-84988237D01*
X203988237Y-85126972D01*
X203974867Y-85138558D01*
X203817789Y-85256146D01*
X203802904Y-85265711D01*
X203630701Y-85359740D01*
X203614609Y-85367090D01*
X203430763Y-85435662D01*
X203413787Y-85440646D01*
X203222068Y-85482351D01*
X203204557Y-85484869D01*
X203023779Y-85497799D01*
X203004417Y-85499184D01*
X202995572Y-85499500D01*
X196848746Y-85499500D01*
X196698598Y-85517731D01*
X196548449Y-85535963D01*
X196429602Y-85565255D01*
X196254727Y-85608358D01*
X195971882Y-85715628D01*
X195704036Y-85856206D01*
X195527514Y-85978050D01*
X195461159Y-85999933D01*
X195457074Y-86000000D01*
X195112822Y-86000000D01*
X195053205Y-85984728D01*
X195026378Y-85970018D01*
X195026376Y-85970017D01*
X195026374Y-85970016D01*
X195026372Y-85970015D01*
X180781329Y-80628124D01*
X179198538Y-80034578D01*
X179111250Y-80010507D01*
X179111228Y-80010502D01*
X179067715Y-80002612D01*
X179067706Y-80002611D01*
X179067702Y-80002610D01*
X179067696Y-80002610D01*
X178977517Y-79994500D01*
X178977514Y-79994500D01*
X161629500Y-79994500D01*
X161562461Y-79974815D01*
X161516706Y-79922011D01*
X161505500Y-79870500D01*
X161505500Y-75124010D01*
X161505500Y-75124000D01*
X161500710Y-75079446D01*
X161500000Y-75066193D01*
X161500000Y-71874000D01*
X161519685Y-71806961D01*
X161572489Y-71761206D01*
X161624000Y-71750000D01*
X169500000Y-71750000D01*
X169500000Y-67500000D01*
X165629500Y-67500000D01*
X165562461Y-67480315D01*
X165516706Y-67427511D01*
X165505500Y-67376000D01*
X165505500Y-62624000D01*
X165525185Y-62556961D01*
X165577989Y-62511206D01*
X165629500Y-62500000D01*
X194375500Y-62500000D01*
X194442539Y-62519685D01*
G37*
G04 #@! TD.AperFunction*
G04 #@! TA.AperFunction,Conductor*
G36*
X94550914Y-84506703D02*
G01*
X94613228Y-84514906D01*
X94644491Y-84523284D01*
X94734918Y-84560740D01*
X94762952Y-84576925D01*
X94840602Y-84636509D01*
X94863491Y-84659398D01*
X94923074Y-84737048D01*
X94939259Y-84765081D01*
X94976715Y-84855508D01*
X94985093Y-84886775D01*
X94998939Y-84991939D01*
X95000000Y-85008125D01*
X95000000Y-88991874D01*
X94998939Y-89008060D01*
X94985093Y-89113224D01*
X94976715Y-89144491D01*
X94939259Y-89234918D01*
X94923074Y-89262951D01*
X94863491Y-89340601D01*
X94840601Y-89363491D01*
X94762951Y-89423074D01*
X94734918Y-89439259D01*
X94644491Y-89476715D01*
X94613224Y-89485093D01*
X94550933Y-89493294D01*
X94481897Y-89482529D01*
X94464313Y-89472408D01*
X94295967Y-89356208D01*
X94266230Y-89340601D01*
X94028117Y-89215628D01*
X93745272Y-89108358D01*
X93629820Y-89079902D01*
X93451551Y-89035963D01*
X93271371Y-89014085D01*
X93151254Y-88999500D01*
X93151252Y-88999500D01*
X93065892Y-88999500D01*
X87004428Y-88999500D01*
X86995582Y-88999184D01*
X86973622Y-88997613D01*
X86795442Y-88984869D01*
X86777931Y-88982351D01*
X86586212Y-88940646D01*
X86569236Y-88935662D01*
X86385390Y-88867090D01*
X86369298Y-88859740D01*
X86197095Y-88765711D01*
X86182210Y-88756146D01*
X86025132Y-88638558D01*
X86011762Y-88626972D01*
X85873027Y-88488237D01*
X85861441Y-88474867D01*
X85743849Y-88317784D01*
X85734288Y-88302904D01*
X85640259Y-88130701D01*
X85632909Y-88114609D01*
X85572091Y-87951551D01*
X85564334Y-87930755D01*
X85559355Y-87913797D01*
X85517647Y-87722063D01*
X85515130Y-87704556D01*
X85500816Y-87504418D01*
X85500500Y-87495572D01*
X85500500Y-86504427D01*
X85500816Y-86495581D01*
X85515130Y-86295443D01*
X85517646Y-86277938D01*
X85559356Y-86086199D01*
X85564333Y-86069248D01*
X85632911Y-85885385D01*
X85640259Y-85869298D01*
X85702815Y-85754734D01*
X85734291Y-85697089D01*
X85743845Y-85682221D01*
X85861448Y-85525123D01*
X85873020Y-85511769D01*
X86011769Y-85373020D01*
X86025123Y-85361448D01*
X86182221Y-85243845D01*
X86197089Y-85234291D01*
X86369298Y-85140258D01*
X86385385Y-85132911D01*
X86569248Y-85064333D01*
X86586199Y-85059356D01*
X86777938Y-85017646D01*
X86795436Y-85015130D01*
X86995582Y-85000816D01*
X87004428Y-85000500D01*
X93151254Y-85000500D01*
X93196630Y-84994990D01*
X93451551Y-84964037D01*
X93745266Y-84891643D01*
X93745269Y-84891641D01*
X93745272Y-84891641D01*
X93848007Y-84852678D01*
X94028113Y-84784373D01*
X94295967Y-84643792D01*
X94464312Y-84527591D01*
X94530660Y-84505710D01*
X94550914Y-84506703D01*
G37*
G04 #@! TD.AperFunction*
G04 #@! TA.AperFunction,Conductor*
G36*
X164943039Y-62519685D02*
G01*
X164988794Y-62572489D01*
X165000000Y-62624000D01*
X165000000Y-70225500D01*
X164980315Y-70292539D01*
X164927511Y-70338294D01*
X164876000Y-70349500D01*
X148624000Y-70349500D01*
X148556961Y-70329815D01*
X148511206Y-70277011D01*
X148500000Y-70225500D01*
X148500000Y-62624000D01*
X148519685Y-62556961D01*
X148572489Y-62511206D01*
X148624000Y-62500000D01*
X164876000Y-62500000D01*
X164943039Y-62519685D01*
G37*
G04 #@! TD.AperFunction*
G04 #@! TA.AperFunction,Conductor*
G36*
X148000000Y-87618762D02*
G01*
X147997737Y-87620184D01*
X147870184Y-87747737D01*
X147774211Y-87900476D01*
X147714631Y-88070745D01*
X147714630Y-88070750D01*
X147694435Y-88249996D01*
X147694435Y-88250003D01*
X147714630Y-88429249D01*
X147714631Y-88429254D01*
X147774211Y-88599523D01*
X147870184Y-88752262D01*
X147997738Y-88879816D01*
X148000000Y-88881237D01*
X148000000Y-94500000D01*
X147500000Y-94500000D01*
X143500000Y-94500000D01*
X143000000Y-94500000D01*
X143000000Y-80000000D01*
X148000000Y-80000000D01*
X148000000Y-87618762D01*
G37*
G04 #@! TD.AperFunction*
G04 #@! TA.AperFunction,Conductor*
G36*
X160943039Y-75019685D02*
G01*
X160988794Y-75072489D01*
X161000000Y-75124000D01*
X161000000Y-81742299D01*
X160980315Y-81809338D01*
X160927511Y-81855093D01*
X160858353Y-81865037D01*
X160794797Y-81836012D01*
X160770461Y-81807396D01*
X160730309Y-81742299D01*
X160692712Y-81681344D01*
X160568656Y-81557288D01*
X160419334Y-81465186D01*
X160252797Y-81410001D01*
X160252795Y-81410000D01*
X160150010Y-81399500D01*
X158349998Y-81399500D01*
X158349981Y-81399501D01*
X158247203Y-81410000D01*
X158247200Y-81410001D01*
X158080668Y-81465185D01*
X158080663Y-81465187D01*
X157931342Y-81557289D01*
X157807289Y-81681342D01*
X157739901Y-81790597D01*
X157687953Y-81837321D01*
X157634362Y-81849500D01*
X157505068Y-81849500D01*
X157439096Y-81830494D01*
X157349522Y-81774210D01*
X157349518Y-81774209D01*
X157179262Y-81714633D01*
X157179249Y-81714630D01*
X157000004Y-81694435D01*
X156999996Y-81694435D01*
X156820750Y-81714630D01*
X156820745Y-81714631D01*
X156650476Y-81774211D01*
X156497737Y-81870184D01*
X156370184Y-81997737D01*
X156274211Y-82150476D01*
X156214631Y-82320745D01*
X156214630Y-82320750D01*
X156194435Y-82499996D01*
X156194435Y-82500003D01*
X156214630Y-82679249D01*
X156214631Y-82679254D01*
X156274211Y-82849523D01*
X156302786Y-82894999D01*
X156370184Y-83002262D01*
X156497738Y-83129816D01*
X156560904Y-83169506D01*
X156642168Y-83220568D01*
X156650478Y-83225789D01*
X156820739Y-83285366D01*
X156820745Y-83285368D01*
X156820750Y-83285369D01*
X156999996Y-83305565D01*
X157000000Y-83305565D01*
X157000004Y-83305565D01*
X157179249Y-83285369D01*
X157179251Y-83285368D01*
X157179255Y-83285368D01*
X157179258Y-83285366D01*
X157179262Y-83285366D01*
X157269377Y-83253832D01*
X157349522Y-83225789D01*
X157439096Y-83169505D01*
X157505068Y-83150500D01*
X157634362Y-83150500D01*
X157701401Y-83170185D01*
X157739899Y-83209401D01*
X157807288Y-83318656D01*
X157931344Y-83442712D01*
X158080666Y-83534814D01*
X158247203Y-83589999D01*
X158349991Y-83600500D01*
X160150008Y-83600499D01*
X160252797Y-83589999D01*
X160419334Y-83534814D01*
X160568656Y-83442712D01*
X160692712Y-83318656D01*
X160770461Y-83192603D01*
X160822409Y-83145879D01*
X160891371Y-83134656D01*
X160955454Y-83162500D01*
X160994310Y-83220568D01*
X161000000Y-83257700D01*
X161000000Y-87725500D01*
X160980315Y-87792539D01*
X160927511Y-87838294D01*
X160876000Y-87849500D01*
X157883413Y-87849500D01*
X157816374Y-87829815D01*
X157770619Y-87777011D01*
X157766371Y-87766455D01*
X157725788Y-87650476D01*
X157646450Y-87524211D01*
X157629816Y-87497738D01*
X157502262Y-87370184D01*
X157403162Y-87307915D01*
X157349523Y-87274211D01*
X157179254Y-87214631D01*
X157179249Y-87214630D01*
X157000004Y-87194435D01*
X156999996Y-87194435D01*
X156820750Y-87214630D01*
X156820737Y-87214633D01*
X156650481Y-87274209D01*
X156650477Y-87274210D01*
X156560904Y-87330494D01*
X156494932Y-87349500D01*
X148685931Y-87349500D01*
X148664981Y-87353667D01*
X148648191Y-87357007D01*
X148578599Y-87350779D01*
X148523422Y-87307915D01*
X148500178Y-87242025D01*
X148500000Y-87235389D01*
X148500000Y-79500000D01*
X143124000Y-79500000D01*
X143056961Y-79480315D01*
X143011206Y-79427511D01*
X143000000Y-79376000D01*
X143000000Y-75368902D01*
X143019685Y-75301863D01*
X143072489Y-75256108D01*
X143113192Y-75245374D01*
X143217977Y-75236207D01*
X143429330Y-75179575D01*
X143627639Y-75087102D01*
X143651441Y-75070435D01*
X143720008Y-75022425D01*
X143786214Y-75000098D01*
X143791131Y-75000000D01*
X160876000Y-75000000D01*
X160943039Y-75019685D01*
G37*
G04 #@! TD.AperFunction*
G04 #@! TA.AperFunction,Conductor*
G36*
X94550914Y-68506703D02*
G01*
X94613228Y-68514906D01*
X94644491Y-68523284D01*
X94734918Y-68560740D01*
X94762952Y-68576925D01*
X94840602Y-68636509D01*
X94863491Y-68659398D01*
X94923074Y-68737048D01*
X94939259Y-68765081D01*
X94976715Y-68855508D01*
X94985093Y-68886775D01*
X94998939Y-68991939D01*
X95000000Y-69008125D01*
X95000000Y-72991874D01*
X94998939Y-73008060D01*
X94985093Y-73113224D01*
X94976715Y-73144491D01*
X94939259Y-73234918D01*
X94923074Y-73262951D01*
X94863491Y-73340601D01*
X94840601Y-73363491D01*
X94762951Y-73423074D01*
X94734918Y-73439259D01*
X94644491Y-73476715D01*
X94613224Y-73485093D01*
X94550933Y-73493294D01*
X94481897Y-73482529D01*
X94464313Y-73472408D01*
X94295967Y-73356208D01*
X94266230Y-73340601D01*
X94028117Y-73215628D01*
X93745272Y-73108358D01*
X93629820Y-73079902D01*
X93451551Y-73035963D01*
X93271371Y-73014085D01*
X93151254Y-72999500D01*
X93151252Y-72999500D01*
X93065892Y-72999500D01*
X87004428Y-72999500D01*
X86995582Y-72999184D01*
X86973622Y-72997613D01*
X86795442Y-72984869D01*
X86777931Y-72982351D01*
X86586212Y-72940646D01*
X86569236Y-72935662D01*
X86385390Y-72867090D01*
X86369298Y-72859740D01*
X86197095Y-72765711D01*
X86182210Y-72756146D01*
X86025132Y-72638558D01*
X86011762Y-72626972D01*
X85873027Y-72488237D01*
X85861441Y-72474867D01*
X85743849Y-72317784D01*
X85734288Y-72302904D01*
X85640259Y-72130701D01*
X85632909Y-72114609D01*
X85572091Y-71951551D01*
X85564334Y-71930755D01*
X85559355Y-71913797D01*
X85517647Y-71722063D01*
X85515130Y-71704556D01*
X85500816Y-71504418D01*
X85500500Y-71495572D01*
X85500500Y-70504427D01*
X85500816Y-70495581D01*
X85515130Y-70295443D01*
X85517646Y-70277938D01*
X85559356Y-70086199D01*
X85564333Y-70069248D01*
X85632911Y-69885385D01*
X85640259Y-69869298D01*
X85702815Y-69754734D01*
X85734291Y-69697089D01*
X85743845Y-69682221D01*
X85861448Y-69525123D01*
X85873020Y-69511769D01*
X86011769Y-69373020D01*
X86025123Y-69361448D01*
X86182221Y-69243845D01*
X86197089Y-69234291D01*
X86369298Y-69140258D01*
X86385385Y-69132911D01*
X86569248Y-69064333D01*
X86586199Y-69059356D01*
X86777938Y-69017646D01*
X86795436Y-69015130D01*
X86995582Y-69000816D01*
X87004428Y-69000500D01*
X93151254Y-69000500D01*
X93196630Y-68994990D01*
X93451551Y-68964037D01*
X93745266Y-68891643D01*
X93745269Y-68891641D01*
X93745272Y-68891641D01*
X93848007Y-68852678D01*
X94028113Y-68784373D01*
X94295967Y-68643792D01*
X94464312Y-68527591D01*
X94530660Y-68505710D01*
X94550914Y-68506703D01*
G37*
G04 #@! TD.AperFunction*
G04 #@! TA.AperFunction,Conductor*
G36*
X148742575Y-89019685D02*
G01*
X148777585Y-89053559D01*
X148787504Y-89067929D01*
X148829947Y-89105530D01*
X148914837Y-89180736D01*
X149022131Y-89237048D01*
X149065462Y-89259790D01*
X149230631Y-89300500D01*
X149400743Y-89300500D01*
X149565912Y-89259790D01*
X149655234Y-89212909D01*
X149716532Y-89180738D01*
X149716533Y-89180736D01*
X149716539Y-89180734D01*
X149716543Y-89180730D01*
X149722707Y-89176476D01*
X149723647Y-89177839D01*
X149778698Y-89151963D01*
X149797693Y-89150500D01*
X157896736Y-89150500D01*
X157896738Y-89150500D01*
X157896739Y-89150500D01*
X158036749Y-89112984D01*
X158114788Y-89067929D01*
X158116203Y-89067112D01*
X158178202Y-89050500D01*
X161752472Y-89050500D01*
X161752474Y-89050500D01*
X161752475Y-89050500D01*
X161892485Y-89012984D01*
X161892488Y-89012981D01*
X161899995Y-89009873D01*
X161901132Y-89012618D01*
X161948199Y-89000000D01*
X164691874Y-89000000D01*
X164708059Y-89001061D01*
X164813223Y-89014906D01*
X164844491Y-89023284D01*
X164934918Y-89060740D01*
X164962952Y-89076925D01*
X165040602Y-89136509D01*
X165063491Y-89159398D01*
X165123074Y-89237048D01*
X165139259Y-89265081D01*
X165176715Y-89355508D01*
X165185093Y-89386774D01*
X165189783Y-89422399D01*
X165193439Y-89450167D01*
X165194500Y-89466347D01*
X165194500Y-93376007D01*
X165199289Y-93420541D01*
X165200000Y-93433797D01*
X165200000Y-97991874D01*
X165198939Y-98008060D01*
X165185093Y-98113224D01*
X165176715Y-98144491D01*
X165139259Y-98234918D01*
X165123074Y-98262951D01*
X165063491Y-98340601D01*
X165040601Y-98363491D01*
X164962951Y-98423074D01*
X164934918Y-98439259D01*
X164844491Y-98476715D01*
X164813224Y-98485093D01*
X164719398Y-98497446D01*
X164708058Y-98498939D01*
X164691874Y-98500000D01*
X133317608Y-98500000D01*
X133300503Y-98498814D01*
X133273284Y-98495022D01*
X133189489Y-98483351D01*
X133156581Y-98474003D01*
X133061953Y-98432290D01*
X133032853Y-98414306D01*
X132953224Y-98348321D01*
X132930149Y-98323071D01*
X132866666Y-98230685D01*
X132857961Y-98215923D01*
X131615835Y-95731672D01*
X131608980Y-95715040D01*
X131572160Y-95603307D01*
X131565979Y-95567935D01*
X131562974Y-95459461D01*
X131567187Y-95423806D01*
X131595394Y-95319013D01*
X131609648Y-95286060D01*
X131666699Y-95193749D01*
X131689801Y-95166260D01*
X131770910Y-95094171D01*
X131800921Y-95074455D01*
X131899289Y-95028630D01*
X131933690Y-95018341D01*
X132050086Y-95001306D01*
X132068042Y-95000000D01*
X142952877Y-95000000D01*
X142970523Y-95001262D01*
X142973650Y-95001711D01*
X143000000Y-95005500D01*
X143000003Y-95005500D01*
X148000000Y-95005500D01*
X148071940Y-95000355D01*
X148209992Y-94959819D01*
X148331032Y-94882031D01*
X148425254Y-94773294D01*
X148485024Y-94642416D01*
X148505500Y-94500000D01*
X148505500Y-89124000D01*
X148525185Y-89056961D01*
X148577989Y-89011206D01*
X148629500Y-89000000D01*
X148675536Y-89000000D01*
X148742575Y-89019685D01*
G37*
G04 #@! TD.AperFunction*
G04 #@! TA.AperFunction,Conductor*
G36*
X179021053Y-80507895D02*
G01*
X180603836Y-81101438D01*
X194848885Y-86443332D01*
X194904743Y-86485301D01*
X194929044Y-86550808D01*
X194914071Y-86619055D01*
X194907395Y-86629874D01*
X194856210Y-86704029D01*
X194856206Y-86704035D01*
X194715628Y-86971882D01*
X194608358Y-87254727D01*
X194578200Y-87377085D01*
X194535963Y-87548449D01*
X194499500Y-87848748D01*
X194499500Y-87934108D01*
X194499500Y-94934108D01*
X194499500Y-95000000D01*
X194499500Y-95151252D01*
X194535963Y-95451551D01*
X194578200Y-95622915D01*
X194608358Y-95745272D01*
X194715628Y-96028117D01*
X194805840Y-96199999D01*
X194856208Y-96295967D01*
X194978050Y-96472487D01*
X194999933Y-96538840D01*
X195000000Y-96542925D01*
X195000000Y-97000000D01*
X195457074Y-97000000D01*
X195524113Y-97019685D01*
X195527507Y-97021945D01*
X195704033Y-97143792D01*
X195832408Y-97211168D01*
X195971882Y-97284371D01*
X196254727Y-97391641D01*
X196254731Y-97391642D01*
X196254734Y-97391643D01*
X196548449Y-97464037D01*
X196799661Y-97494539D01*
X196848746Y-97500500D01*
X196848748Y-97500500D01*
X196934108Y-97500500D01*
X202934108Y-97500500D01*
X202995572Y-97500500D01*
X203004418Y-97500816D01*
X203204561Y-97515130D01*
X203222063Y-97517647D01*
X203413797Y-97559355D01*
X203430755Y-97564334D01*
X203614609Y-97632909D01*
X203630701Y-97640259D01*
X203802904Y-97734288D01*
X203817784Y-97743849D01*
X203974867Y-97861441D01*
X203988237Y-97873027D01*
X204126972Y-98011762D01*
X204138558Y-98025132D01*
X204256146Y-98182210D01*
X204265711Y-98197095D01*
X204359740Y-98369298D01*
X204367090Y-98385390D01*
X204435662Y-98569236D01*
X204440646Y-98586212D01*
X204482351Y-98777931D01*
X204484869Y-98795442D01*
X204499184Y-98995580D01*
X204499500Y-99004427D01*
X204499500Y-99995572D01*
X204499184Y-100004419D01*
X204484869Y-100204557D01*
X204482351Y-100222068D01*
X204440646Y-100413787D01*
X204435662Y-100430763D01*
X204367090Y-100614609D01*
X204359740Y-100630701D01*
X204265711Y-100802904D01*
X204256146Y-100817789D01*
X204138558Y-100974867D01*
X204126972Y-100988237D01*
X203988237Y-101126972D01*
X203974867Y-101138558D01*
X203817789Y-101256146D01*
X203802904Y-101265711D01*
X203630701Y-101359740D01*
X203614609Y-101367090D01*
X203430763Y-101435662D01*
X203413787Y-101440646D01*
X203222068Y-101482351D01*
X203204557Y-101484869D01*
X203023779Y-101497799D01*
X203004417Y-101499184D01*
X202995572Y-101499500D01*
X196848746Y-101499500D01*
X196698598Y-101517731D01*
X196548449Y-101535963D01*
X196429602Y-101565255D01*
X196254727Y-101608358D01*
X195971882Y-101715628D01*
X195704036Y-101856206D01*
X195527514Y-101978050D01*
X195461159Y-101999933D01*
X195457074Y-102000000D01*
X195018925Y-102000000D01*
X194981939Y-101994356D01*
X194604137Y-101876293D01*
X179000000Y-97000000D01*
X170124000Y-97000000D01*
X170056961Y-96980315D01*
X170011206Y-96927511D01*
X170000000Y-96876000D01*
X170000000Y-93500000D01*
X165824000Y-93500000D01*
X165756961Y-93480315D01*
X165711206Y-93427511D01*
X165700000Y-93376000D01*
X165700000Y-88000000D01*
X161624000Y-88000000D01*
X161556961Y-87980315D01*
X161511206Y-87927511D01*
X161500000Y-87876000D01*
X161500000Y-80624000D01*
X161519685Y-80556961D01*
X161572489Y-80511206D01*
X161624000Y-80500000D01*
X178977514Y-80500000D01*
X179021053Y-80507895D01*
G37*
G04 #@! TD.AperFunction*
G04 #@! TA.AperFunction,Conductor*
G36*
X133108108Y-65619454D02*
G01*
X133188890Y-65673430D01*
X133212211Y-65700355D01*
X133212959Y-65701355D01*
X133254857Y-65789012D01*
X133260020Y-65886030D01*
X133227663Y-65977638D01*
X133162713Y-66049891D01*
X133075056Y-66091789D01*
X133013568Y-66099500D01*
X132447272Y-66099500D01*
X132345412Y-66126792D01*
X132311354Y-66146456D01*
X132306083Y-66149500D01*
X132254087Y-66179520D01*
X132179519Y-66254088D01*
X131679520Y-66754086D01*
X131626793Y-66845411D01*
X131612034Y-66900496D01*
X131612033Y-66900500D01*
X131599500Y-66947273D01*
X131599500Y-69730967D01*
X131580546Y-69826255D01*
X131526570Y-69907037D01*
X128920571Y-72513035D01*
X128867843Y-72604363D01*
X128850390Y-72669501D01*
X128850390Y-72669502D01*
X128840551Y-72706222D01*
X128840551Y-73286105D01*
X128821597Y-73381393D01*
X128789097Y-73437686D01*
X128760189Y-73475359D01*
X128760187Y-73475361D01*
X128704722Y-73609268D01*
X128704722Y-73609270D01*
X128704721Y-73609272D01*
X128704721Y-73609274D01*
X128685801Y-73752983D01*
X128704721Y-73896692D01*
X128704721Y-73896694D01*
X128704722Y-73896695D01*
X128704722Y-73896697D01*
X128760187Y-74030604D01*
X128760192Y-74030611D01*
X128848425Y-74145599D01*
X128848434Y-74145608D01*
X128963422Y-74233841D01*
X128963429Y-74233846D01*
X129097337Y-74289311D01*
X129097342Y-74289313D01*
X129241051Y-74308233D01*
X129384760Y-74289313D01*
X129518676Y-74233844D01*
X129518677Y-74233842D01*
X129524843Y-74231289D01*
X129620131Y-74212335D01*
X129715419Y-74231289D01*
X129727286Y-74239218D01*
X129719357Y-74227351D01*
X129700403Y-74132063D01*
X129719357Y-74036775D01*
X129721910Y-74030609D01*
X129721912Y-74030608D01*
X129777381Y-73896692D01*
X129796301Y-73752983D01*
X129777381Y-73609274D01*
X129777379Y-73609268D01*
X129721914Y-73475361D01*
X129721912Y-73475359D01*
X129721912Y-73475358D01*
X129693004Y-73437685D01*
X129650035Y-73350550D01*
X129641551Y-73286105D01*
X129641551Y-73027981D01*
X129660505Y-72932693D01*
X129714478Y-72851914D01*
X131924433Y-70641959D01*
X132005212Y-70587986D01*
X132100500Y-70569032D01*
X132195788Y-70587986D01*
X132276570Y-70641962D01*
X132330546Y-70722744D01*
X132349500Y-70818032D01*
X132349500Y-71980967D01*
X132330546Y-72076255D01*
X132276570Y-72157037D01*
X130125473Y-74308133D01*
X130044691Y-74362109D01*
X129949403Y-74381063D01*
X129854115Y-74362109D01*
X129842247Y-74354179D01*
X129850177Y-74366047D01*
X129869131Y-74461335D01*
X129850177Y-74556623D01*
X129796201Y-74637405D01*
X127613287Y-76820320D01*
X127532505Y-76874296D01*
X127437217Y-76893250D01*
X126387408Y-76893250D01*
X126292120Y-76874296D01*
X126211338Y-76820320D01*
X126157362Y-76739538D01*
X126138408Y-76644250D01*
X126140536Y-76611766D01*
X126142525Y-76596650D01*
X126173748Y-76504649D01*
X126213328Y-76453064D01*
X126747252Y-75919141D01*
X127320480Y-75345913D01*
X127373207Y-75254588D01*
X127400500Y-75152727D01*
X127400500Y-75047273D01*
X127400500Y-72669031D01*
X127419454Y-72573743D01*
X127473427Y-72492964D01*
X127553065Y-72413326D01*
X127633843Y-72359352D01*
X127696634Y-72342527D01*
X127743709Y-72336330D01*
X127877621Y-72280863D01*
X127877622Y-72280862D01*
X127877625Y-72280861D01*
X127977925Y-72203898D01*
X127992616Y-72192625D01*
X127992616Y-72192624D01*
X127992621Y-72192621D01*
X128080861Y-72077625D01*
X128081429Y-72076255D01*
X128136328Y-71943714D01*
X128136328Y-71943713D01*
X128136330Y-71943709D01*
X128155250Y-71800000D01*
X128136330Y-71656291D01*
X128123838Y-71626131D01*
X128080863Y-71522378D01*
X128080858Y-71522371D01*
X127992625Y-71407383D01*
X127992616Y-71407374D01*
X127877628Y-71319141D01*
X127877621Y-71319136D01*
X127743713Y-71263671D01*
X127743710Y-71263670D01*
X127743709Y-71263670D01*
X127600000Y-71244750D01*
X127456291Y-71263670D01*
X127456289Y-71263670D01*
X127456287Y-71263671D01*
X127456285Y-71263671D01*
X127322378Y-71319136D01*
X127322371Y-71319141D01*
X127207383Y-71407374D01*
X127207374Y-71407383D01*
X127119141Y-71522371D01*
X127119138Y-71522376D01*
X127063671Y-71656287D01*
X127063669Y-71656291D01*
X127057471Y-71703370D01*
X127026240Y-71795368D01*
X126986672Y-71846933D01*
X126679521Y-72154085D01*
X126679519Y-72154087D01*
X126626793Y-72245411D01*
X126626793Y-72245413D01*
X126599500Y-72347272D01*
X126599500Y-74037932D01*
X126580546Y-74133220D01*
X126526570Y-74214002D01*
X126445788Y-74267978D01*
X126350500Y-74286932D01*
X126255212Y-74267978D01*
X126198922Y-74235480D01*
X126182206Y-74222654D01*
X126177625Y-74219139D01*
X126177624Y-74219138D01*
X126177621Y-74219136D01*
X126043713Y-74163671D01*
X126043710Y-74163670D01*
X126043709Y-74163670D01*
X125900000Y-74144750D01*
X125756291Y-74163670D01*
X125756289Y-74163670D01*
X125756287Y-74163671D01*
X125756285Y-74163671D01*
X125622378Y-74219136D01*
X125622371Y-74219141D01*
X125507383Y-74307374D01*
X125507374Y-74307383D01*
X125419141Y-74422371D01*
X125419138Y-74422376D01*
X125409441Y-74445788D01*
X125355465Y-74526569D01*
X125274684Y-74580546D01*
X125179395Y-74599500D01*
X125019033Y-74599500D01*
X124923745Y-74580546D01*
X124842963Y-74526570D01*
X123273430Y-72957037D01*
X123219454Y-72876255D01*
X123200500Y-72780967D01*
X123200500Y-71112753D01*
X123219454Y-71017465D01*
X123273430Y-70936683D01*
X123354212Y-70882707D01*
X123449500Y-70863753D01*
X123544788Y-70882707D01*
X123625570Y-70936683D01*
X123647049Y-70961177D01*
X123657847Y-70975250D01*
X123700815Y-71062386D01*
X123707167Y-71094321D01*
X123713670Y-71143709D01*
X123713670Y-71143711D01*
X123769138Y-71277623D01*
X123769141Y-71277628D01*
X123857374Y-71392616D01*
X123857383Y-71392625D01*
X123972371Y-71480858D01*
X123972378Y-71480863D01*
X124106286Y-71536328D01*
X124106291Y-71536330D01*
X124250000Y-71555250D01*
X124393709Y-71536330D01*
X124393714Y-71536328D01*
X124527621Y-71480863D01*
X124527622Y-71480862D01*
X124527625Y-71480861D01*
X124642621Y-71392621D01*
X124730861Y-71277625D01*
X124736642Y-71263670D01*
X124786328Y-71143714D01*
X124786328Y-71143713D01*
X124786330Y-71143709D01*
X124805250Y-71000000D01*
X124786330Y-70856291D01*
X124786328Y-70856285D01*
X124730863Y-70722378D01*
X124730858Y-70722371D01*
X124642625Y-70607383D01*
X124642616Y-70607374D01*
X124527628Y-70519141D01*
X124513491Y-70510979D01*
X124514193Y-70509761D01*
X124448428Y-70465817D01*
X124394452Y-70385034D01*
X124375500Y-70289750D01*
X124375500Y-66338228D01*
X124394454Y-66242940D01*
X124448430Y-66162158D01*
X124529212Y-66108182D01*
X124537434Y-66104946D01*
X124567331Y-66093796D01*
X124682546Y-66007546D01*
X124768796Y-65892331D01*
X124768795Y-65892331D01*
X124775666Y-65883154D01*
X124847944Y-65818231D01*
X124939565Y-65785909D01*
X125036581Y-65791110D01*
X125124221Y-65833041D01*
X125174334Y-65883154D01*
X125254987Y-65990893D01*
X125267454Y-66007546D01*
X125382669Y-66093796D01*
X125517517Y-66144091D01*
X125577127Y-66150500D01*
X126372872Y-66150499D01*
X126432483Y-66144091D01*
X126567331Y-66093796D01*
X126682546Y-66007546D01*
X126768796Y-65892331D01*
X126791049Y-65832666D01*
X126817227Y-65762483D01*
X126868285Y-65679827D01*
X126947089Y-65623002D01*
X127041640Y-65600659D01*
X127050527Y-65600500D01*
X133012820Y-65600500D01*
X133108108Y-65619454D01*
G37*
G04 #@! TD.AperFunction*
G04 #@! TA.AperFunction,Conductor*
G36*
X193008863Y-50501134D02*
G01*
X193036639Y-50503120D01*
X193195645Y-50514493D01*
X193230793Y-50519546D01*
X193405064Y-50557456D01*
X193439143Y-50567463D01*
X193606228Y-50629783D01*
X193638542Y-50644540D01*
X193795062Y-50730006D01*
X193824947Y-50749212D01*
X193967703Y-50856078D01*
X193994553Y-50879343D01*
X194120656Y-51005446D01*
X194143921Y-51032296D01*
X194250787Y-51175052D01*
X194269995Y-51204940D01*
X194355459Y-51361457D01*
X194370216Y-51393771D01*
X194432534Y-51560850D01*
X194442544Y-51594939D01*
X194480451Y-51769195D01*
X194485507Y-51804360D01*
X194498866Y-51991135D01*
X194499500Y-52008899D01*
X194499500Y-61745500D01*
X194480546Y-61840788D01*
X194426570Y-61921570D01*
X194345788Y-61975546D01*
X194250500Y-61994500D01*
X165629496Y-61994500D01*
X165522038Y-62006053D01*
X165522037Y-62006053D01*
X165470539Y-62017256D01*
X165470536Y-62017257D01*
X165367996Y-62051386D01*
X165353944Y-62058110D01*
X165352240Y-62054548D01*
X165289704Y-62079122D01*
X165192565Y-62077345D01*
X165142161Y-62060557D01*
X165085458Y-62034661D01*
X165018424Y-62014977D01*
X164993807Y-62011437D01*
X164876000Y-61994500D01*
X148624000Y-61994500D01*
X148623996Y-61994500D01*
X148516538Y-62006053D01*
X148516537Y-62006053D01*
X148465039Y-62017256D01*
X148465036Y-62017257D01*
X148362498Y-62051386D01*
X148362493Y-62051388D01*
X148241458Y-62129173D01*
X148188660Y-62174923D01*
X148188646Y-62174937D01*
X148094433Y-62283662D01*
X148034661Y-62414540D01*
X148014977Y-62481575D01*
X148014976Y-62481584D01*
X147994500Y-62624000D01*
X147994500Y-70225500D01*
X148005077Y-70323884D01*
X147996419Y-70420649D01*
X147951388Y-70506738D01*
X147876840Y-70569041D01*
X147784124Y-70598073D01*
X147757505Y-70599500D01*
X141569628Y-70599500D01*
X141474340Y-70580546D01*
X141393558Y-70526570D01*
X141350030Y-70467878D01*
X141335911Y-70441463D01*
X141261259Y-70350500D01*
X141210883Y-70289117D01*
X141058538Y-70164090D01*
X141058539Y-70164090D01*
X141058536Y-70164088D01*
X140884733Y-70071188D01*
X140884725Y-70071185D01*
X140696131Y-70013975D01*
X140500000Y-69994659D01*
X140303868Y-70013975D01*
X140115274Y-70071185D01*
X140115266Y-70071188D01*
X139941463Y-70164088D01*
X139789120Y-70289114D01*
X139789114Y-70289120D01*
X139664088Y-70441463D01*
X139571188Y-70615266D01*
X139571185Y-70615274D01*
X139513975Y-70803868D01*
X139494659Y-71000000D01*
X139513975Y-71196131D01*
X139571185Y-71384725D01*
X139571188Y-71384733D01*
X139650525Y-71533160D01*
X139678728Y-71626131D01*
X139669205Y-71722818D01*
X139623407Y-71808501D01*
X139606997Y-71826608D01*
X137046933Y-74386672D01*
X136966151Y-74440648D01*
X136903369Y-74457471D01*
X136856291Y-74463669D01*
X136856287Y-74463671D01*
X136722376Y-74519138D01*
X136722371Y-74519141D01*
X136607383Y-74607374D01*
X136607374Y-74607383D01*
X136519141Y-74722371D01*
X136519136Y-74722378D01*
X136463671Y-74856285D01*
X136463671Y-74856287D01*
X136463670Y-74856289D01*
X136463670Y-74856291D01*
X136444750Y-75000000D01*
X136463670Y-75143709D01*
X136463670Y-75143711D01*
X136463671Y-75143712D01*
X136463671Y-75143714D01*
X136519136Y-75277621D01*
X136519141Y-75277628D01*
X136607374Y-75392616D01*
X136607383Y-75392625D01*
X136722371Y-75480858D01*
X136722378Y-75480863D01*
X136856286Y-75536328D01*
X136856291Y-75536330D01*
X137000000Y-75555250D01*
X137143709Y-75536330D01*
X137143714Y-75536328D01*
X137277621Y-75480863D01*
X137277622Y-75480862D01*
X137277625Y-75480861D01*
X137392621Y-75392621D01*
X137480861Y-75277625D01*
X137490405Y-75254585D01*
X137536330Y-75143709D01*
X137542527Y-75096636D01*
X137573755Y-75004637D01*
X137613323Y-74953068D01*
X138545794Y-74020597D01*
X138626573Y-73966624D01*
X138721861Y-73947670D01*
X138817149Y-73966624D01*
X138897931Y-74020600D01*
X138951907Y-74101382D01*
X138970861Y-74196670D01*
X138965155Y-74240026D01*
X138965801Y-74240111D01*
X138963671Y-74256288D01*
X138963670Y-74256291D01*
X138944750Y-74400000D01*
X138963670Y-74543709D01*
X138963670Y-74543711D01*
X138963671Y-74543712D01*
X138963671Y-74543714D01*
X139019136Y-74677621D01*
X139019141Y-74677628D01*
X139107374Y-74792616D01*
X139107383Y-74792625D01*
X139222371Y-74880858D01*
X139222378Y-74880863D01*
X139350924Y-74934107D01*
X139356291Y-74936330D01*
X139500000Y-74955250D01*
X139643709Y-74936330D01*
X139643714Y-74936328D01*
X139777621Y-74880863D01*
X139777622Y-74880862D01*
X139777625Y-74880861D01*
X139892621Y-74792621D01*
X139958044Y-74707359D01*
X140031087Y-74643302D01*
X140123086Y-74612071D01*
X140220033Y-74618425D01*
X140307169Y-74661395D01*
X140371228Y-74734439D01*
X140402459Y-74826438D01*
X140402459Y-74891441D01*
X140395465Y-74944570D01*
X140394750Y-74950000D01*
X140413670Y-75093709D01*
X140413670Y-75093711D01*
X140413671Y-75093712D01*
X140413671Y-75093714D01*
X140469136Y-75227621D01*
X140469141Y-75227628D01*
X140557374Y-75342616D01*
X140557383Y-75342625D01*
X140672371Y-75430858D01*
X140672378Y-75430863D01*
X140793080Y-75480858D01*
X140806291Y-75486330D01*
X140950000Y-75505250D01*
X141093709Y-75486330D01*
X141093714Y-75486328D01*
X141227621Y-75430863D01*
X141227622Y-75430862D01*
X141227625Y-75430861D01*
X141342621Y-75342621D01*
X141430861Y-75227625D01*
X141431335Y-75226482D01*
X141486330Y-75093709D01*
X141492527Y-75046636D01*
X141523755Y-74954637D01*
X141563323Y-74903068D01*
X141854330Y-74612061D01*
X141935109Y-74558088D01*
X142030397Y-74539134D01*
X142125685Y-74558088D01*
X142206467Y-74612064D01*
X142222875Y-74630169D01*
X142289108Y-74710873D01*
X142289112Y-74710877D01*
X142289117Y-74710883D01*
X142441461Y-74835909D01*
X142449890Y-74841541D01*
X142518589Y-74910240D01*
X142555769Y-74999999D01*
X142555770Y-75097154D01*
X142538058Y-75152004D01*
X142534663Y-75159438D01*
X142534662Y-75159441D01*
X142514977Y-75226477D01*
X142508050Y-75274656D01*
X142494500Y-75368902D01*
X142494500Y-75368906D01*
X142494500Y-79376003D01*
X142506053Y-79483461D01*
X142506053Y-79483462D01*
X142517256Y-79534960D01*
X142517257Y-79534963D01*
X142551386Y-79637501D01*
X142551388Y-79637506D01*
X142629173Y-79758541D01*
X142629175Y-79758543D01*
X142674930Y-79811347D01*
X142674937Y-79811353D01*
X142783662Y-79905566D01*
X142914540Y-79965338D01*
X142981575Y-79985022D01*
X142981578Y-79985022D01*
X142981580Y-79985023D01*
X142981584Y-79985024D01*
X143085746Y-80000000D01*
X143000000Y-80000000D01*
X143000000Y-94500000D01*
X148000000Y-94500000D01*
X148000000Y-88481421D01*
X148019136Y-88527621D01*
X148019141Y-88527628D01*
X148117314Y-88655570D01*
X148114685Y-88657587D01*
X148153237Y-88715285D01*
X148172191Y-88810573D01*
X148153237Y-88905861D01*
X148148190Y-88917234D01*
X148136111Y-88942713D01*
X148136108Y-88942720D01*
X148116428Y-89009743D01*
X148116426Y-89009754D01*
X148103524Y-89099495D01*
X148100000Y-89124003D01*
X148100000Y-94351000D01*
X148081046Y-94446288D01*
X148027070Y-94527070D01*
X147946288Y-94581046D01*
X147851000Y-94600000D01*
X143042620Y-94600000D01*
X143016031Y-94598576D01*
X142999450Y-94596795D01*
X142999445Y-94596794D01*
X142999430Y-94596793D01*
X142981799Y-94595532D01*
X142952890Y-94594500D01*
X142952877Y-94594500D01*
X132068042Y-94594500D01*
X132068040Y-94594500D01*
X132038616Y-94595568D01*
X132020681Y-94596872D01*
X131991357Y-94600080D01*
X131874973Y-94617114D01*
X131874961Y-94617116D01*
X131817509Y-94629841D01*
X131817490Y-94629846D01*
X131783100Y-94640131D01*
X131783097Y-94640132D01*
X131728067Y-94661053D01*
X131728054Y-94661058D01*
X131629674Y-94706889D01*
X131629672Y-94706890D01*
X131578303Y-94735530D01*
X131578279Y-94735544D01*
X131578273Y-94735548D01*
X131567667Y-94742515D01*
X131548258Y-94755266D01*
X131548247Y-94755274D01*
X131501536Y-94791073D01*
X131501532Y-94791077D01*
X131420421Y-94863167D01*
X131379367Y-94905374D01*
X131356263Y-94932865D01*
X131321766Y-94980557D01*
X131321753Y-94980577D01*
X131264709Y-95072877D01*
X131237474Y-95125074D01*
X131223221Y-95158023D01*
X131223219Y-95158028D01*
X131203836Y-95213597D01*
X131203833Y-95213607D01*
X131175625Y-95318403D01*
X131164487Y-95376228D01*
X131160274Y-95411881D01*
X131157630Y-95470671D01*
X131157629Y-95470710D01*
X131160634Y-95579162D01*
X131160635Y-95579175D01*
X131166532Y-95637736D01*
X131166534Y-95637752D01*
X131172711Y-95673102D01*
X131172711Y-95673104D01*
X131187028Y-95730206D01*
X131187041Y-95730249D01*
X131223847Y-95841940D01*
X131234073Y-95869557D01*
X131240929Y-95886190D01*
X131240930Y-95886192D01*
X131253145Y-95913017D01*
X132495271Y-98397268D01*
X132508669Y-98421897D01*
X132514407Y-98431628D01*
X132517376Y-98436663D01*
X132521933Y-98443812D01*
X132532462Y-98460333D01*
X132556472Y-98495274D01*
X132595928Y-98552695D01*
X132595935Y-98552705D01*
X132595945Y-98552719D01*
X132595953Y-98552729D01*
X132630824Y-98596632D01*
X132647957Y-98615379D01*
X132653890Y-98621871D01*
X132683650Y-98650223D01*
X132694492Y-98660552D01*
X132774131Y-98726545D01*
X132819675Y-98759249D01*
X132843213Y-98773795D01*
X132848776Y-98777233D01*
X132898391Y-98803339D01*
X132993019Y-98845052D01*
X133023166Y-98855919D01*
X133045768Y-98864067D01*
X133045771Y-98864067D01*
X133045777Y-98864070D01*
X133078685Y-98873418D01*
X133133551Y-98884974D01*
X133217344Y-98896644D01*
X133217345Y-98896645D01*
X133217346Y-98896645D01*
X133244551Y-98900435D01*
X133272454Y-98903343D01*
X133287546Y-98904389D01*
X133289557Y-98904529D01*
X133317607Y-98905500D01*
X133317608Y-98905500D01*
X140213942Y-98905500D01*
X140309230Y-98924454D01*
X140390012Y-98978430D01*
X140443988Y-99059212D01*
X140460811Y-99121995D01*
X140463669Y-99143706D01*
X140463671Y-99143714D01*
X140519136Y-99277621D01*
X140519141Y-99277628D01*
X140607374Y-99392616D01*
X140607383Y-99392625D01*
X140722371Y-99480858D01*
X140722378Y-99480863D01*
X140853114Y-99535014D01*
X140856291Y-99536330D01*
X141000000Y-99555250D01*
X141143709Y-99536330D01*
X141143717Y-99536326D01*
X141159477Y-99532105D01*
X141160256Y-99535014D01*
X141229800Y-99521175D01*
X141325090Y-99540120D01*
X141405877Y-99594089D01*
X141459861Y-99674865D01*
X141478824Y-99770151D01*
X141464988Y-99839744D01*
X141467895Y-99840523D01*
X141463671Y-99856287D01*
X141463670Y-99856289D01*
X141463670Y-99856291D01*
X141444750Y-100000000D01*
X141453702Y-100068001D01*
X141447349Y-100164944D01*
X141404379Y-100252080D01*
X141331335Y-100316139D01*
X141239336Y-100347370D01*
X141206833Y-100349500D01*
X140716878Y-100349500D01*
X140621590Y-100330546D01*
X140565297Y-100298046D01*
X140537309Y-100276570D01*
X140527625Y-100269139D01*
X140527623Y-100269138D01*
X140527621Y-100269136D01*
X140393713Y-100213671D01*
X140393710Y-100213670D01*
X140393709Y-100213670D01*
X140250000Y-100194750D01*
X140106291Y-100213670D01*
X140106289Y-100213670D01*
X140106287Y-100213671D01*
X140106285Y-100213671D01*
X139972378Y-100269136D01*
X139972371Y-100269141D01*
X139857383Y-100357374D01*
X139857374Y-100357383D01*
X139769141Y-100472371D01*
X139769139Y-100472374D01*
X139724136Y-100581022D01*
X139670159Y-100661803D01*
X139589378Y-100715779D01*
X139494090Y-100734733D01*
X139398807Y-100715781D01*
X139393713Y-100713671D01*
X139393710Y-100713670D01*
X139393709Y-100713670D01*
X139250000Y-100694750D01*
X139106291Y-100713670D01*
X139106289Y-100713670D01*
X139106287Y-100713671D01*
X139106285Y-100713671D01*
X138972378Y-100769136D01*
X138972371Y-100769141D01*
X138857383Y-100857374D01*
X138857374Y-100857383D01*
X138769141Y-100972371D01*
X138769136Y-100972378D01*
X138713671Y-101106285D01*
X138713671Y-101106287D01*
X138713670Y-101106289D01*
X138713670Y-101106291D01*
X138694750Y-101250000D01*
X138713670Y-101393709D01*
X138713670Y-101393711D01*
X138713671Y-101393712D01*
X138713671Y-101393714D01*
X138769136Y-101527621D01*
X138769141Y-101527628D01*
X138857374Y-101642616D01*
X138857383Y-101642625D01*
X138972371Y-101730858D01*
X138972378Y-101730863D01*
X139081554Y-101776084D01*
X139106291Y-101786330D01*
X139165259Y-101794093D01*
X139172017Y-101794983D01*
X139264013Y-101826211D01*
X139264016Y-101826212D01*
X139264016Y-101826213D01*
X139345411Y-101873206D01*
X139345412Y-101873206D01*
X139345413Y-101873207D01*
X139447273Y-101900500D01*
X151980967Y-101900500D01*
X152076255Y-101919454D01*
X152157037Y-101973430D01*
X152526570Y-102342963D01*
X152580546Y-102423745D01*
X152599500Y-102519033D01*
X152599500Y-102826680D01*
X152580546Y-102921968D01*
X152526572Y-103002746D01*
X152500310Y-103029009D01*
X152485799Y-103043520D01*
X152434427Y-103148603D01*
X152434427Y-103148606D01*
X152424500Y-103216740D01*
X152424500Y-103483259D01*
X152424499Y-103483259D01*
X152434426Y-103551392D01*
X152440100Y-103562998D01*
X152441389Y-103565635D01*
X152441392Y-103565640D01*
X152466214Y-103659571D01*
X152453200Y-103755851D01*
X152441392Y-103784358D01*
X152440666Y-103785844D01*
X152434426Y-103798607D01*
X152424500Y-103866740D01*
X152424500Y-104133259D01*
X152424499Y-104133259D01*
X152434426Y-104201392D01*
X152434428Y-104201396D01*
X152441389Y-104215635D01*
X152441392Y-104215640D01*
X152466214Y-104309571D01*
X152453200Y-104405851D01*
X152441392Y-104434358D01*
X152440666Y-104435844D01*
X152434426Y-104448607D01*
X152424500Y-104516740D01*
X152424500Y-104783259D01*
X152424499Y-104783259D01*
X152434427Y-104851393D01*
X152434427Y-104851396D01*
X152485799Y-104956479D01*
X152485801Y-104956481D01*
X152485802Y-104956483D01*
X152568517Y-105039198D01*
X152568518Y-105039198D01*
X152568520Y-105039200D01*
X152673604Y-105090572D01*
X152673605Y-105090572D01*
X152673607Y-105090573D01*
X152741740Y-105100500D01*
X153258259Y-105100500D01*
X153258260Y-105100500D01*
X153326393Y-105090573D01*
X153326395Y-105090572D01*
X153326396Y-105090572D01*
X153431479Y-105039200D01*
X153431479Y-105039199D01*
X153431483Y-105039198D01*
X153514198Y-104956483D01*
X153514200Y-104956479D01*
X153565572Y-104851396D01*
X153565572Y-104851395D01*
X153565573Y-104851393D01*
X153575500Y-104783260D01*
X153575500Y-104516740D01*
X153565573Y-104448607D01*
X153558609Y-104434362D01*
X153533786Y-104340435D01*
X153546797Y-104244155D01*
X153558608Y-104215640D01*
X153565573Y-104201393D01*
X153575500Y-104133260D01*
X153575500Y-103999500D01*
X153594454Y-103904212D01*
X153648430Y-103823430D01*
X153729212Y-103769454D01*
X153824500Y-103750500D01*
X154375532Y-103750500D01*
X154470820Y-103769454D01*
X154551602Y-103823430D01*
X154573077Y-103847919D01*
X154607374Y-103892616D01*
X154607383Y-103892625D01*
X154722371Y-103980858D01*
X154722378Y-103980863D01*
X154856286Y-104036328D01*
X154856291Y-104036330D01*
X155000000Y-104055250D01*
X155143709Y-104036330D01*
X155143714Y-104036328D01*
X155277621Y-103980863D01*
X155277622Y-103980862D01*
X155277625Y-103980861D01*
X155392621Y-103892621D01*
X155480861Y-103777625D01*
X155484039Y-103769954D01*
X155536328Y-103643714D01*
X155536328Y-103643713D01*
X155536330Y-103643709D01*
X155555250Y-103500000D01*
X155536330Y-103356291D01*
X155536328Y-103356285D01*
X155480863Y-103222378D01*
X155480858Y-103222371D01*
X155392625Y-103107383D01*
X155392616Y-103107374D01*
X155277628Y-103019141D01*
X155277621Y-103019136D01*
X155143713Y-102963671D01*
X155143710Y-102963670D01*
X155143709Y-102963670D01*
X155000000Y-102944750D01*
X154999998Y-102944750D01*
X154999997Y-102944750D01*
X154965821Y-102949249D01*
X154919047Y-102949249D01*
X154919047Y-102949500D01*
X153649500Y-102949500D01*
X153554212Y-102930546D01*
X153473430Y-102876570D01*
X153419454Y-102795788D01*
X153400500Y-102700500D01*
X153400500Y-102197273D01*
X153387967Y-102150500D01*
X153387966Y-102150496D01*
X153386648Y-102145579D01*
X153373207Y-102095412D01*
X153320480Y-102004087D01*
X153320478Y-102004085D01*
X153320477Y-102004083D01*
X152891963Y-101575570D01*
X152837986Y-101494788D01*
X152819032Y-101399500D01*
X152837986Y-101304212D01*
X152891962Y-101223431D01*
X152972744Y-101169454D01*
X153068032Y-101150500D01*
X171580967Y-101150500D01*
X171676255Y-101169454D01*
X171757037Y-101223430D01*
X173009185Y-102475578D01*
X173063161Y-102556360D01*
X173082115Y-102651648D01*
X173063161Y-102746936D01*
X173009185Y-102827718D01*
X172928403Y-102881694D01*
X172833115Y-102900648D01*
X172815122Y-102899997D01*
X172808262Y-102899500D01*
X172808260Y-102899500D01*
X172291740Y-102899500D01*
X172223608Y-102909426D01*
X172193386Y-102924201D01*
X172099455Y-102949022D01*
X172084029Y-102949500D01*
X170330954Y-102949500D01*
X170330954Y-102949249D01*
X170284178Y-102949249D01*
X170250002Y-102944750D01*
X170250001Y-102944750D01*
X170250000Y-102944750D01*
X170106291Y-102963670D01*
X170106289Y-102963670D01*
X170106287Y-102963671D01*
X170106285Y-102963671D01*
X169972378Y-103019136D01*
X169972371Y-103019141D01*
X169857383Y-103107374D01*
X169857374Y-103107383D01*
X169769141Y-103222371D01*
X169769136Y-103222378D01*
X169713671Y-103356285D01*
X169713671Y-103356287D01*
X169713670Y-103356289D01*
X169713670Y-103356291D01*
X169694750Y-103500000D01*
X169713670Y-103643709D01*
X169713670Y-103643711D01*
X169713671Y-103643712D01*
X169713671Y-103643714D01*
X169769136Y-103777621D01*
X169769141Y-103777628D01*
X169857374Y-103892616D01*
X169857383Y-103892625D01*
X169972371Y-103980858D01*
X169972378Y-103980863D01*
X170106286Y-104036328D01*
X170106291Y-104036330D01*
X170250000Y-104055250D01*
X170393709Y-104036330D01*
X170393714Y-104036328D01*
X170527621Y-103980863D01*
X170527622Y-103980862D01*
X170527625Y-103980861D01*
X170642621Y-103892621D01*
X170642625Y-103892616D01*
X170676923Y-103847919D01*
X170749968Y-103783860D01*
X170841967Y-103752630D01*
X170874468Y-103750500D01*
X171725500Y-103750500D01*
X171820788Y-103769454D01*
X171901570Y-103823430D01*
X171955546Y-103904212D01*
X171974500Y-103999500D01*
X171974500Y-104133259D01*
X171974499Y-104133259D01*
X171984426Y-104201392D01*
X171984428Y-104201396D01*
X171991389Y-104215635D01*
X171991392Y-104215640D01*
X172016214Y-104309571D01*
X172003200Y-104405851D01*
X171991392Y-104434358D01*
X171990666Y-104435844D01*
X171984426Y-104448607D01*
X171974500Y-104516740D01*
X171974500Y-104783259D01*
X171974499Y-104783259D01*
X171984427Y-104851393D01*
X171984427Y-104851396D01*
X172035800Y-104956480D01*
X172047790Y-104973273D01*
X172045195Y-104975125D01*
X172080546Y-105028032D01*
X172099500Y-105123320D01*
X172099500Y-105230967D01*
X172080546Y-105326255D01*
X172026570Y-105407037D01*
X171657037Y-105776570D01*
X171576255Y-105830546D01*
X171480967Y-105849500D01*
X149649500Y-105849500D01*
X149554212Y-105830546D01*
X149473430Y-105776570D01*
X149419454Y-105695788D01*
X149400500Y-105600500D01*
X149400500Y-104769032D01*
X149419454Y-104673744D01*
X149473430Y-104592962D01*
X149592962Y-104473430D01*
X149673744Y-104419454D01*
X149769032Y-104400500D01*
X150275500Y-104400500D01*
X150370788Y-104419454D01*
X150451570Y-104473430D01*
X150505546Y-104554212D01*
X150524500Y-104649500D01*
X150524500Y-104783259D01*
X150524499Y-104783259D01*
X150534427Y-104851393D01*
X150534427Y-104851396D01*
X150585799Y-104956479D01*
X150585801Y-104956481D01*
X150585802Y-104956483D01*
X150668517Y-105039198D01*
X150668518Y-105039198D01*
X150668520Y-105039200D01*
X150773604Y-105090572D01*
X150773605Y-105090572D01*
X150773607Y-105090573D01*
X150841740Y-105100500D01*
X151358259Y-105100500D01*
X151358260Y-105100500D01*
X151426393Y-105090573D01*
X151426395Y-105090572D01*
X151426396Y-105090572D01*
X151531479Y-105039200D01*
X151531479Y-105039199D01*
X151531483Y-105039198D01*
X151614198Y-104956483D01*
X151614200Y-104956479D01*
X151665572Y-104851396D01*
X151665572Y-104851395D01*
X151665573Y-104851393D01*
X151675500Y-104783260D01*
X151675500Y-104516740D01*
X151665573Y-104448607D01*
X151658609Y-104434362D01*
X151633786Y-104340435D01*
X151646797Y-104244155D01*
X151658608Y-104215640D01*
X151665573Y-104201393D01*
X151675500Y-104133260D01*
X151675500Y-103866740D01*
X151665573Y-103798607D01*
X151658609Y-103784362D01*
X151633786Y-103690435D01*
X151646797Y-103594155D01*
X151658608Y-103565640D01*
X151665573Y-103551393D01*
X151675500Y-103483260D01*
X151675500Y-103216740D01*
X151665573Y-103148607D01*
X151665572Y-103148604D01*
X151665572Y-103148603D01*
X151614200Y-103043520D01*
X151614198Y-103043518D01*
X151614198Y-103043517D01*
X151531483Y-102960802D01*
X151531481Y-102960801D01*
X151531479Y-102960799D01*
X151426395Y-102909427D01*
X151358260Y-102899500D01*
X150841740Y-102899500D01*
X150773608Y-102909426D01*
X150743386Y-102924201D01*
X150649455Y-102949022D01*
X150634029Y-102949500D01*
X148836101Y-102949500D01*
X148740813Y-102930546D01*
X148660031Y-102876570D01*
X148647343Y-102862102D01*
X148642624Y-102857383D01*
X148642621Y-102857379D01*
X148642616Y-102857375D01*
X148642614Y-102857373D01*
X148527629Y-102769141D01*
X148527621Y-102769136D01*
X148393713Y-102713671D01*
X148393710Y-102713670D01*
X148393709Y-102713670D01*
X148250000Y-102694750D01*
X148106291Y-102713670D01*
X148106289Y-102713670D01*
X148106287Y-102713671D01*
X148106285Y-102713671D01*
X147972378Y-102769136D01*
X147972371Y-102769141D01*
X147857383Y-102857374D01*
X147857374Y-102857383D01*
X147769141Y-102972371D01*
X147769136Y-102972378D01*
X147713671Y-103106285D01*
X147713671Y-103106287D01*
X147713670Y-103106289D01*
X147713670Y-103106291D01*
X147694750Y-103250000D01*
X147713670Y-103393709D01*
X147713670Y-103393711D01*
X147713671Y-103393712D01*
X147713671Y-103393714D01*
X147769136Y-103527621D01*
X147769141Y-103527628D01*
X147857374Y-103642616D01*
X147857383Y-103642625D01*
X147972371Y-103730858D01*
X147972378Y-103730863D01*
X148085265Y-103777621D01*
X148106291Y-103786330D01*
X148250000Y-103805250D01*
X148393709Y-103786330D01*
X148434455Y-103769453D01*
X148529741Y-103750500D01*
X148581967Y-103750500D01*
X148677255Y-103769454D01*
X148758037Y-103823430D01*
X148812013Y-103904212D01*
X148830967Y-103999500D01*
X148812013Y-104094788D01*
X148758037Y-104175570D01*
X148679520Y-104254086D01*
X148626792Y-104345413D01*
X148601295Y-104440569D01*
X148601295Y-104440573D01*
X148599500Y-104447273D01*
X148599500Y-105947273D01*
X148599500Y-106052727D01*
X148626793Y-106154588D01*
X148679520Y-106245913D01*
X148929519Y-106495912D01*
X148929520Y-106495913D01*
X149004087Y-106570480D01*
X149095413Y-106623207D01*
X149197273Y-106650500D01*
X171802727Y-106650500D01*
X171904588Y-106623207D01*
X171995913Y-106570480D01*
X172820480Y-105745913D01*
X172873207Y-105654588D01*
X172900500Y-105552727D01*
X172900500Y-105447273D01*
X172900500Y-105223320D01*
X172919454Y-105128032D01*
X172973430Y-105047250D01*
X172981480Y-105039199D01*
X172981483Y-105039198D01*
X173064198Y-104956483D01*
X173064200Y-104956479D01*
X173115572Y-104851396D01*
X173115572Y-104851395D01*
X173115573Y-104851393D01*
X173125500Y-104783260D01*
X173125500Y-104516740D01*
X173115573Y-104448607D01*
X173108609Y-104434362D01*
X173083786Y-104340435D01*
X173096797Y-104244155D01*
X173108608Y-104215640D01*
X173115573Y-104201393D01*
X173125500Y-104133260D01*
X173125500Y-103866740D01*
X173115573Y-103798607D01*
X173108609Y-103784362D01*
X173083786Y-103690435D01*
X173096797Y-103594155D01*
X173108608Y-103565640D01*
X173115573Y-103551393D01*
X173125500Y-103483260D01*
X173125500Y-103216740D01*
X173125499Y-103216734D01*
X173125003Y-103209892D01*
X173137016Y-103113482D01*
X173185009Y-103029009D01*
X173261675Y-102969332D01*
X173355343Y-102943536D01*
X173451753Y-102955549D01*
X173536226Y-103003542D01*
X173549421Y-103015814D01*
X173801570Y-103267963D01*
X173855546Y-103348745D01*
X173874500Y-103444033D01*
X173874500Y-103483259D01*
X173874499Y-103483259D01*
X173884426Y-103551392D01*
X173890100Y-103562998D01*
X173891389Y-103565635D01*
X173891392Y-103565640D01*
X173916214Y-103659571D01*
X173903200Y-103755851D01*
X173891392Y-103784358D01*
X173890666Y-103785844D01*
X173884426Y-103798607D01*
X173874500Y-103866740D01*
X173874500Y-104133259D01*
X173874499Y-104133259D01*
X173884427Y-104201393D01*
X173884427Y-104201396D01*
X173935799Y-104306479D01*
X173935801Y-104306481D01*
X173935802Y-104306483D01*
X174018517Y-104389198D01*
X174018518Y-104389198D01*
X174018520Y-104389200D01*
X174123604Y-104440572D01*
X174123605Y-104440572D01*
X174123607Y-104440573D01*
X174191740Y-104450500D01*
X174708259Y-104450500D01*
X174708260Y-104450500D01*
X174776393Y-104440573D01*
X174806614Y-104425799D01*
X174900545Y-104400978D01*
X174915971Y-104400500D01*
X176033122Y-104400500D01*
X176128410Y-104419454D01*
X176184702Y-104451953D01*
X176222375Y-104480861D01*
X176222376Y-104480861D01*
X176222378Y-104480863D01*
X176356286Y-104536328D01*
X176356291Y-104536330D01*
X176500000Y-104555250D01*
X176643709Y-104536330D01*
X176643714Y-104536328D01*
X176777621Y-104480863D01*
X176777622Y-104480862D01*
X176777625Y-104480861D01*
X176892621Y-104392621D01*
X176980861Y-104277625D01*
X176993837Y-104246299D01*
X177036328Y-104143714D01*
X177036328Y-104143713D01*
X177036330Y-104143709D01*
X177055250Y-104000000D01*
X177036330Y-103856291D01*
X177036328Y-103856285D01*
X176980863Y-103722378D01*
X176980858Y-103722371D01*
X176892625Y-103607383D01*
X176892616Y-103607374D01*
X176777628Y-103519141D01*
X176777621Y-103519136D01*
X176643713Y-103463671D01*
X176643710Y-103463670D01*
X176643709Y-103463670D01*
X176500000Y-103444750D01*
X176356291Y-103463670D01*
X176356289Y-103463670D01*
X176356287Y-103463671D01*
X176356285Y-103463671D01*
X176222378Y-103519136D01*
X176222376Y-103519138D01*
X176184703Y-103548046D01*
X176097567Y-103591016D01*
X176033122Y-103599500D01*
X175274500Y-103599500D01*
X175179212Y-103580546D01*
X175098430Y-103526570D01*
X175044454Y-103445788D01*
X175025500Y-103350500D01*
X175025500Y-103216740D01*
X175021503Y-103189309D01*
X175015573Y-103148607D01*
X175015572Y-103148604D01*
X175015572Y-103148603D01*
X174964200Y-103043520D01*
X174964198Y-103043518D01*
X174964198Y-103043517D01*
X174881483Y-102960802D01*
X174881481Y-102960801D01*
X174881479Y-102960799D01*
X174776395Y-102909427D01*
X174708260Y-102899500D01*
X174669033Y-102899500D01*
X174573745Y-102880546D01*
X174492963Y-102826570D01*
X172095913Y-100429520D01*
X172004588Y-100376793D01*
X172004585Y-100376792D01*
X171902727Y-100349500D01*
X166318032Y-100349500D01*
X166222744Y-100330546D01*
X166141962Y-100276570D01*
X166087986Y-100195788D01*
X166069032Y-100100500D01*
X166087986Y-100005212D01*
X166141962Y-99924431D01*
X166673389Y-99393003D01*
X166754171Y-99339026D01*
X166849459Y-99320072D01*
X166944747Y-99339026D01*
X166966837Y-99349474D01*
X167115266Y-99428811D01*
X167115270Y-99428812D01*
X167115273Y-99428814D01*
X167303868Y-99486024D01*
X167500000Y-99505341D01*
X167696132Y-99486024D01*
X167884727Y-99428814D01*
X168058538Y-99335910D01*
X168210883Y-99210883D01*
X168335910Y-99058538D01*
X168388838Y-98959516D01*
X168428811Y-98884733D01*
X168428811Y-98884731D01*
X168428814Y-98884727D01*
X168486024Y-98696132D01*
X168505341Y-98500000D01*
X168486024Y-98303868D01*
X168428814Y-98115273D01*
X168428812Y-98115270D01*
X168428811Y-98115266D01*
X168335911Y-97941463D01*
X168210885Y-97789120D01*
X168210883Y-97789117D01*
X168066535Y-97670653D01*
X168004901Y-97595551D01*
X167976699Y-97502579D01*
X167975500Y-97478174D01*
X167975500Y-96209499D01*
X167994454Y-96114211D01*
X168048430Y-96033429D01*
X168129212Y-95979453D01*
X168224500Y-95960499D01*
X168472866Y-95960499D01*
X168472872Y-95960499D01*
X168532483Y-95954091D01*
X168667331Y-95903796D01*
X168782546Y-95817546D01*
X168868796Y-95702331D01*
X168919091Y-95567483D01*
X168925500Y-95507873D01*
X168925499Y-94712128D01*
X168919091Y-94652517D01*
X168868796Y-94517669D01*
X168833857Y-94470996D01*
X168783495Y-94403721D01*
X168741564Y-94316080D01*
X168736363Y-94219065D01*
X168768685Y-94127444D01*
X168833608Y-94055166D01*
X168921249Y-94013235D01*
X168982829Y-94005500D01*
X169245500Y-94005500D01*
X169340788Y-94024454D01*
X169421570Y-94078430D01*
X169475546Y-94159212D01*
X169494500Y-94254500D01*
X169494500Y-96876003D01*
X169506053Y-96983461D01*
X169506053Y-96983462D01*
X169517256Y-97034960D01*
X169517257Y-97034963D01*
X169551386Y-97137501D01*
X169551388Y-97137506D01*
X169629173Y-97258541D01*
X169629175Y-97258543D01*
X169674930Y-97311347D01*
X169674937Y-97311353D01*
X169783662Y-97405566D01*
X169914540Y-97465338D01*
X169981575Y-97485022D01*
X169981578Y-97485022D01*
X169981580Y-97485023D01*
X169981584Y-97485024D01*
X170124000Y-97505500D01*
X178884853Y-97505500D01*
X178959122Y-97516833D01*
X194453359Y-102358783D01*
X194670173Y-102426537D01*
X194755468Y-102473049D01*
X194816473Y-102548664D01*
X194843897Y-102641868D01*
X194833567Y-102738472D01*
X194816380Y-102779918D01*
X194715626Y-102971888D01*
X194715624Y-102971892D01*
X194608357Y-103254732D01*
X194535962Y-103548453D01*
X194528807Y-103607383D01*
X194499500Y-103848748D01*
X194499500Y-103848754D01*
X194499500Y-127991100D01*
X194498866Y-128008864D01*
X194485507Y-128195639D01*
X194480451Y-128230804D01*
X194442544Y-128405060D01*
X194432534Y-128439149D01*
X194370216Y-128606228D01*
X194355459Y-128638542D01*
X194269995Y-128795059D01*
X194250787Y-128824947D01*
X194143921Y-128967703D01*
X194120656Y-128994553D01*
X193994553Y-129120656D01*
X193967703Y-129143921D01*
X193824947Y-129250787D01*
X193795059Y-129269995D01*
X193638542Y-129355459D01*
X193606228Y-129370216D01*
X193439149Y-129432534D01*
X193405060Y-129442544D01*
X193230804Y-129480451D01*
X193195639Y-129485507D01*
X193008864Y-129498866D01*
X192991100Y-129499500D01*
X97008900Y-129499500D01*
X96991136Y-129498866D01*
X96804360Y-129485507D01*
X96769195Y-129480451D01*
X96594939Y-129442544D01*
X96560850Y-129432534D01*
X96393771Y-129370216D01*
X96361457Y-129355459D01*
X96204940Y-129269995D01*
X96175052Y-129250787D01*
X96032296Y-129143921D01*
X96005446Y-129120656D01*
X95879343Y-128994553D01*
X95856078Y-128967703D01*
X95749212Y-128824947D01*
X95730004Y-128795059D01*
X95644540Y-128638542D01*
X95629783Y-128606228D01*
X95567465Y-128439149D01*
X95557455Y-128405060D01*
X95519546Y-128230793D01*
X95514493Y-128195645D01*
X95501134Y-128008863D01*
X95500500Y-127991100D01*
X95500500Y-117000000D01*
X110444750Y-117000000D01*
X110463670Y-117143709D01*
X110463670Y-117143711D01*
X110463671Y-117143712D01*
X110463671Y-117143714D01*
X110519136Y-117277621D01*
X110519141Y-117277628D01*
X110607374Y-117392616D01*
X110607383Y-117392625D01*
X110722371Y-117480858D01*
X110722378Y-117480863D01*
X110856286Y-117536328D01*
X110856291Y-117536330D01*
X111000000Y-117555250D01*
X111143709Y-117536330D01*
X111143714Y-117536328D01*
X111277621Y-117480863D01*
X111277622Y-117480862D01*
X111277625Y-117480861D01*
X111392621Y-117392621D01*
X111480861Y-117277625D01*
X111491064Y-117252994D01*
X111536328Y-117143714D01*
X111536328Y-117143713D01*
X111536330Y-117143709D01*
X111555250Y-117000000D01*
X112944750Y-117000000D01*
X112963670Y-117143709D01*
X112963670Y-117143711D01*
X112963671Y-117143712D01*
X112963671Y-117143714D01*
X113019136Y-117277621D01*
X113019141Y-117277628D01*
X113107374Y-117392616D01*
X113107383Y-117392625D01*
X113222371Y-117480858D01*
X113222378Y-117480863D01*
X113356286Y-117536328D01*
X113356291Y-117536330D01*
X113500000Y-117555250D01*
X113643709Y-117536330D01*
X113643714Y-117536328D01*
X113777621Y-117480863D01*
X113777622Y-117480862D01*
X113777625Y-117480861D01*
X113892621Y-117392621D01*
X113980861Y-117277625D01*
X113991064Y-117252994D01*
X114036328Y-117143714D01*
X114036328Y-117143713D01*
X114036330Y-117143709D01*
X114055250Y-117000000D01*
X114036330Y-116856291D01*
X114036328Y-116856285D01*
X113980863Y-116722378D01*
X113980858Y-116722371D01*
X113892625Y-116607383D01*
X113892616Y-116607374D01*
X113777628Y-116519141D01*
X113777621Y-116519136D01*
X113643713Y-116463671D01*
X113643710Y-116463670D01*
X113643709Y-116463670D01*
X113500000Y-116444750D01*
X113356291Y-116463670D01*
X113356289Y-116463670D01*
X113356287Y-116463671D01*
X113356285Y-116463671D01*
X113222378Y-116519136D01*
X113222371Y-116519141D01*
X113107383Y-116607374D01*
X113107374Y-116607383D01*
X113019141Y-116722371D01*
X113019136Y-116722378D01*
X112963671Y-116856285D01*
X112963671Y-116856287D01*
X112963670Y-116856289D01*
X112963670Y-116856291D01*
X112944750Y-117000000D01*
X111555250Y-117000000D01*
X111536330Y-116856291D01*
X111536328Y-116856285D01*
X111480863Y-116722378D01*
X111480858Y-116722371D01*
X111392625Y-116607383D01*
X111392616Y-116607374D01*
X111277628Y-116519141D01*
X111277621Y-116519136D01*
X111143713Y-116463671D01*
X111143710Y-116463670D01*
X111143709Y-116463670D01*
X111000000Y-116444750D01*
X110856291Y-116463670D01*
X110856289Y-116463670D01*
X110856287Y-116463671D01*
X110856285Y-116463671D01*
X110722378Y-116519136D01*
X110722371Y-116519141D01*
X110607383Y-116607374D01*
X110607374Y-116607383D01*
X110519141Y-116722371D01*
X110519136Y-116722378D01*
X110463671Y-116856285D01*
X110463671Y-116856287D01*
X110463670Y-116856289D01*
X110463670Y-116856291D01*
X110444750Y-117000000D01*
X95500500Y-117000000D01*
X95500500Y-115000000D01*
X110444750Y-115000000D01*
X110463670Y-115143709D01*
X110463670Y-115143711D01*
X110463671Y-115143712D01*
X110463671Y-115143714D01*
X110519136Y-115277621D01*
X110519141Y-115277628D01*
X110607374Y-115392616D01*
X110607383Y-115392625D01*
X110722371Y-115480858D01*
X110722378Y-115480863D01*
X110856286Y-115536328D01*
X110856291Y-115536330D01*
X111000000Y-115555250D01*
X111143709Y-115536330D01*
X111143714Y-115536328D01*
X111277621Y-115480863D01*
X111277622Y-115480862D01*
X111277625Y-115480861D01*
X111392621Y-115392621D01*
X111480861Y-115277625D01*
X111481929Y-115275048D01*
X111536328Y-115143714D01*
X111536328Y-115143713D01*
X111536330Y-115143709D01*
X111555250Y-115000000D01*
X112944750Y-115000000D01*
X112963670Y-115143709D01*
X112963670Y-115143711D01*
X112963671Y-115143712D01*
X112963671Y-115143714D01*
X113019136Y-115277621D01*
X113019141Y-115277628D01*
X113107374Y-115392616D01*
X113107383Y-115392625D01*
X113222371Y-115480858D01*
X113222378Y-115480863D01*
X113356286Y-115536328D01*
X113356291Y-115536330D01*
X113500000Y-115555250D01*
X113643709Y-115536330D01*
X113643714Y-115536328D01*
X113731419Y-115500000D01*
X118444750Y-115500000D01*
X118463670Y-115643709D01*
X118463670Y-115643711D01*
X118463671Y-115643712D01*
X118463671Y-115643714D01*
X118519136Y-115777621D01*
X118519141Y-115777628D01*
X118607374Y-115892616D01*
X118607383Y-115892625D01*
X118722371Y-115980858D01*
X118722378Y-115980863D01*
X118856286Y-116036328D01*
X118856291Y-116036330D01*
X119000000Y-116055250D01*
X119143709Y-116036330D01*
X119143714Y-116036328D01*
X119277621Y-115980863D01*
X119277622Y-115980862D01*
X119277625Y-115980861D01*
X119392621Y-115892621D01*
X119480861Y-115777625D01*
X119495494Y-115742299D01*
X119536328Y-115643714D01*
X119536328Y-115643713D01*
X119536330Y-115643709D01*
X119555250Y-115500000D01*
X120444750Y-115500000D01*
X120463670Y-115643709D01*
X120463670Y-115643711D01*
X120463671Y-115643712D01*
X120463671Y-115643714D01*
X120519136Y-115777621D01*
X120519141Y-115777628D01*
X120607374Y-115892616D01*
X120607383Y-115892625D01*
X120722371Y-115980858D01*
X120722378Y-115980863D01*
X120856286Y-116036328D01*
X120856291Y-116036330D01*
X121000000Y-116055250D01*
X121143709Y-116036330D01*
X121143714Y-116036328D01*
X121277621Y-115980863D01*
X121277622Y-115980862D01*
X121277625Y-115980861D01*
X121392621Y-115892621D01*
X121480861Y-115777625D01*
X121495494Y-115742299D01*
X121536328Y-115643714D01*
X121536328Y-115643713D01*
X121536330Y-115643709D01*
X121555250Y-115500000D01*
X122444750Y-115500000D01*
X122463670Y-115643709D01*
X122463670Y-115643711D01*
X122463671Y-115643712D01*
X122463671Y-115643714D01*
X122519136Y-115777621D01*
X122519141Y-115777628D01*
X122607374Y-115892616D01*
X122607383Y-115892625D01*
X122722371Y-115980858D01*
X122722378Y-115980863D01*
X122856286Y-116036328D01*
X122856291Y-116036330D01*
X123000000Y-116055250D01*
X123143709Y-116036330D01*
X123143714Y-116036328D01*
X123277621Y-115980863D01*
X123277622Y-115980862D01*
X123277625Y-115980861D01*
X123392621Y-115892621D01*
X123480861Y-115777625D01*
X123495494Y-115742299D01*
X123536328Y-115643714D01*
X123536328Y-115643713D01*
X123536330Y-115643709D01*
X123555250Y-115500000D01*
X126444750Y-115500000D01*
X126463670Y-115643709D01*
X126463670Y-115643711D01*
X126463671Y-115643712D01*
X126463671Y-115643714D01*
X126519136Y-115777621D01*
X126519141Y-115777628D01*
X126607374Y-115892616D01*
X126607383Y-115892625D01*
X126722371Y-115980858D01*
X126722378Y-115980863D01*
X126856286Y-116036328D01*
X126856291Y-116036330D01*
X127000000Y-116055250D01*
X127143709Y-116036330D01*
X127143714Y-116036328D01*
X127277621Y-115980863D01*
X127277622Y-115980862D01*
X127277625Y-115980861D01*
X127392621Y-115892621D01*
X127480861Y-115777625D01*
X127495494Y-115742299D01*
X127536328Y-115643714D01*
X127536328Y-115643713D01*
X127536330Y-115643709D01*
X127555250Y-115500000D01*
X127536330Y-115356291D01*
X127535816Y-115355049D01*
X127480863Y-115222378D01*
X127480858Y-115222371D01*
X127392625Y-115107383D01*
X127392616Y-115107374D01*
X127277628Y-115019141D01*
X127277621Y-115019136D01*
X127143713Y-114963671D01*
X127143710Y-114963670D01*
X127143709Y-114963670D01*
X127000000Y-114944750D01*
X126856291Y-114963670D01*
X126856289Y-114963670D01*
X126856287Y-114963671D01*
X126856285Y-114963671D01*
X126722378Y-115019136D01*
X126722371Y-115019141D01*
X126607383Y-115107374D01*
X126607374Y-115107383D01*
X126519141Y-115222371D01*
X126519136Y-115222378D01*
X126463671Y-115356285D01*
X126463671Y-115356287D01*
X126463670Y-115356289D01*
X126463670Y-115356291D01*
X126444750Y-115500000D01*
X123555250Y-115500000D01*
X123536330Y-115356291D01*
X123535816Y-115355049D01*
X123480863Y-115222378D01*
X123480858Y-115222371D01*
X123392625Y-115107383D01*
X123392616Y-115107374D01*
X123277628Y-115019141D01*
X123277621Y-115019136D01*
X123143713Y-114963671D01*
X123143710Y-114963670D01*
X123143709Y-114963670D01*
X123000000Y-114944750D01*
X122856291Y-114963670D01*
X122856289Y-114963670D01*
X122856287Y-114963671D01*
X122856285Y-114963671D01*
X122722378Y-115019136D01*
X122722371Y-115019141D01*
X122607383Y-115107374D01*
X122607374Y-115107383D01*
X122519141Y-115222371D01*
X122519136Y-115222378D01*
X122463671Y-115356285D01*
X122463671Y-115356287D01*
X122463670Y-115356289D01*
X122463670Y-115356291D01*
X122444750Y-115500000D01*
X121555250Y-115500000D01*
X121536330Y-115356291D01*
X121535816Y-115355049D01*
X121480863Y-115222378D01*
X121480858Y-115222371D01*
X121392625Y-115107383D01*
X121392616Y-115107374D01*
X121277628Y-115019141D01*
X121277621Y-115019136D01*
X121143713Y-114963671D01*
X121143710Y-114963670D01*
X121143709Y-114963670D01*
X121000000Y-114944750D01*
X120856291Y-114963670D01*
X120856289Y-114963670D01*
X120856287Y-114963671D01*
X120856285Y-114963671D01*
X120722378Y-115019136D01*
X120722371Y-115019141D01*
X120607383Y-115107374D01*
X120607374Y-115107383D01*
X120519141Y-115222371D01*
X120519136Y-115222378D01*
X120463671Y-115356285D01*
X120463671Y-115356287D01*
X120463670Y-115356289D01*
X120463670Y-115356291D01*
X120444750Y-115500000D01*
X119555250Y-115500000D01*
X119536330Y-115356291D01*
X119535816Y-115355049D01*
X119480863Y-115222378D01*
X119480858Y-115222371D01*
X119392625Y-115107383D01*
X119392616Y-115107374D01*
X119277628Y-115019141D01*
X119277621Y-115019136D01*
X119143713Y-114963671D01*
X119143710Y-114963670D01*
X119143709Y-114963670D01*
X119000000Y-114944750D01*
X118856291Y-114963670D01*
X118856289Y-114963670D01*
X118856287Y-114963671D01*
X118856285Y-114963671D01*
X118722378Y-115019136D01*
X118722371Y-115019141D01*
X118607383Y-115107374D01*
X118607374Y-115107383D01*
X118519141Y-115222371D01*
X118519136Y-115222378D01*
X118463671Y-115356285D01*
X118463671Y-115356287D01*
X118463670Y-115356289D01*
X118463670Y-115356291D01*
X118444750Y-115500000D01*
X113731419Y-115500000D01*
X113777621Y-115480863D01*
X113777622Y-115480862D01*
X113777625Y-115480861D01*
X113892621Y-115392621D01*
X113980861Y-115277625D01*
X113981929Y-115275048D01*
X114036328Y-115143714D01*
X114036328Y-115143713D01*
X114036330Y-115143709D01*
X114055250Y-115000000D01*
X114036330Y-114856291D01*
X114036328Y-114856285D01*
X113980863Y-114722378D01*
X113980858Y-114722371D01*
X113892625Y-114607383D01*
X113892616Y-114607374D01*
X113777628Y-114519141D01*
X113777621Y-114519136D01*
X113643713Y-114463671D01*
X113643710Y-114463670D01*
X113643709Y-114463670D01*
X113500000Y-114444750D01*
X113356291Y-114463670D01*
X113356289Y-114463670D01*
X113356287Y-114463671D01*
X113356285Y-114463671D01*
X113222378Y-114519136D01*
X113222371Y-114519141D01*
X113107383Y-114607374D01*
X113107374Y-114607383D01*
X113019141Y-114722371D01*
X113019136Y-114722378D01*
X112963671Y-114856285D01*
X112963671Y-114856287D01*
X112963670Y-114856289D01*
X112963670Y-114856291D01*
X112944750Y-115000000D01*
X111555250Y-115000000D01*
X111536330Y-114856291D01*
X111536328Y-114856285D01*
X111480863Y-114722378D01*
X111480858Y-114722371D01*
X111392625Y-114607383D01*
X111392616Y-114607374D01*
X111277628Y-114519141D01*
X111277621Y-114519136D01*
X111143713Y-114463671D01*
X111143710Y-114463670D01*
X111143709Y-114463670D01*
X111000000Y-114444750D01*
X110856291Y-114463670D01*
X110856289Y-114463670D01*
X110856287Y-114463671D01*
X110856285Y-114463671D01*
X110722378Y-114519136D01*
X110722371Y-114519141D01*
X110607383Y-114607374D01*
X110607374Y-114607383D01*
X110519141Y-114722371D01*
X110519136Y-114722378D01*
X110463671Y-114856285D01*
X110463671Y-114856287D01*
X110463670Y-114856289D01*
X110463670Y-114856291D01*
X110444750Y-115000000D01*
X95500500Y-115000000D01*
X95500500Y-114250000D01*
X135194750Y-114250000D01*
X135213670Y-114393709D01*
X135213670Y-114393711D01*
X135213671Y-114393712D01*
X135213671Y-114393714D01*
X135269136Y-114527621D01*
X135269141Y-114527628D01*
X135357374Y-114642616D01*
X135357383Y-114642625D01*
X135472371Y-114730858D01*
X135472378Y-114730863D01*
X135583836Y-114777029D01*
X135606291Y-114786330D01*
X135750000Y-114805250D01*
X135893709Y-114786330D01*
X135893714Y-114786328D01*
X136027621Y-114730863D01*
X136027622Y-114730862D01*
X136027625Y-114730861D01*
X136142621Y-114642621D01*
X136230861Y-114527625D01*
X136234378Y-114519136D01*
X136286328Y-114393714D01*
X136286328Y-114393713D01*
X136286330Y-114393709D01*
X136305250Y-114250000D01*
X137944750Y-114250000D01*
X137963670Y-114393709D01*
X137963670Y-114393711D01*
X137963671Y-114393712D01*
X137963671Y-114393714D01*
X138019136Y-114527621D01*
X138019141Y-114527628D01*
X138107374Y-114642616D01*
X138107383Y-114642625D01*
X138222371Y-114730858D01*
X138222378Y-114730863D01*
X138333836Y-114777029D01*
X138356291Y-114786330D01*
X138500000Y-114805250D01*
X138643709Y-114786330D01*
X138643714Y-114786328D01*
X138777621Y-114730863D01*
X138777622Y-114730862D01*
X138777625Y-114730861D01*
X138892621Y-114642621D01*
X138980861Y-114527625D01*
X138984378Y-114519136D01*
X139036328Y-114393714D01*
X139036328Y-114393713D01*
X139036330Y-114393709D01*
X139055250Y-114250000D01*
X139036330Y-114106291D01*
X139016020Y-114057257D01*
X138980863Y-113972378D01*
X138980858Y-113972371D01*
X138892625Y-113857383D01*
X138892616Y-113857374D01*
X138777628Y-113769141D01*
X138777621Y-113769136D01*
X138643713Y-113713671D01*
X138643710Y-113713670D01*
X138643709Y-113713670D01*
X138500000Y-113694750D01*
X138356291Y-113713670D01*
X138356289Y-113713670D01*
X138356287Y-113713671D01*
X138356285Y-113713671D01*
X138222378Y-113769136D01*
X138222371Y-113769141D01*
X138107383Y-113857374D01*
X138107374Y-113857383D01*
X138019141Y-113972371D01*
X138019136Y-113972378D01*
X137963671Y-114106285D01*
X137963671Y-114106287D01*
X137963670Y-114106289D01*
X137963670Y-114106291D01*
X137944750Y-114250000D01*
X136305250Y-114250000D01*
X136286330Y-114106291D01*
X136266020Y-114057257D01*
X136230863Y-113972378D01*
X136230858Y-113972371D01*
X136142625Y-113857383D01*
X136142616Y-113857374D01*
X136027628Y-113769141D01*
X136027621Y-113769136D01*
X135893713Y-113713671D01*
X135893710Y-113713670D01*
X135893709Y-113713670D01*
X135750000Y-113694750D01*
X135606291Y-113713670D01*
X135606289Y-113713670D01*
X135606287Y-113713671D01*
X135606285Y-113713671D01*
X135472378Y-113769136D01*
X135472371Y-113769141D01*
X135357383Y-113857374D01*
X135357374Y-113857383D01*
X135269141Y-113972371D01*
X135269136Y-113972378D01*
X135213671Y-114106285D01*
X135213671Y-114106287D01*
X135213670Y-114106289D01*
X135213670Y-114106291D01*
X135194750Y-114250000D01*
X95500500Y-114250000D01*
X95500500Y-113500000D01*
X118444750Y-113500000D01*
X118463670Y-113643709D01*
X118463670Y-113643711D01*
X118463671Y-113643712D01*
X118463671Y-113643714D01*
X118519136Y-113777621D01*
X118519141Y-113777628D01*
X118607374Y-113892616D01*
X118607383Y-113892625D01*
X118722371Y-113980858D01*
X118722378Y-113980863D01*
X118856286Y-114036328D01*
X118856291Y-114036330D01*
X119000000Y-114055250D01*
X119143709Y-114036330D01*
X119143714Y-114036328D01*
X119277621Y-113980863D01*
X119277622Y-113980862D01*
X119277625Y-113980861D01*
X119392621Y-113892621D01*
X119480861Y-113777625D01*
X119481780Y-113775408D01*
X119536328Y-113643714D01*
X119536328Y-113643713D01*
X119536330Y-113643709D01*
X119555250Y-113500000D01*
X120444750Y-113500000D01*
X120463670Y-113643709D01*
X120463670Y-113643711D01*
X120463671Y-113643712D01*
X120463671Y-113643714D01*
X120519136Y-113777621D01*
X120519141Y-113777628D01*
X120607374Y-113892616D01*
X120607383Y-113892625D01*
X120722371Y-113980858D01*
X120722378Y-113980863D01*
X120856286Y-114036328D01*
X120856291Y-114036330D01*
X121000000Y-114055250D01*
X121143709Y-114036330D01*
X121143714Y-114036328D01*
X121277621Y-113980863D01*
X121277622Y-113980862D01*
X121277625Y-113980861D01*
X121392621Y-113892621D01*
X121480861Y-113777625D01*
X121481780Y-113775408D01*
X121536328Y-113643714D01*
X121536328Y-113643713D01*
X121536330Y-113643709D01*
X121555250Y-113500000D01*
X122444750Y-113500000D01*
X122463670Y-113643709D01*
X122463670Y-113643711D01*
X122463671Y-113643712D01*
X122463671Y-113643714D01*
X122519136Y-113777621D01*
X122519141Y-113777628D01*
X122607374Y-113892616D01*
X122607383Y-113892625D01*
X122722371Y-113980858D01*
X122722378Y-113980863D01*
X122856286Y-114036328D01*
X122856291Y-114036330D01*
X123000000Y-114055250D01*
X123143709Y-114036330D01*
X123143714Y-114036328D01*
X123277621Y-113980863D01*
X123277622Y-113980862D01*
X123277625Y-113980861D01*
X123392621Y-113892621D01*
X123480861Y-113777625D01*
X123481780Y-113775408D01*
X123536328Y-113643714D01*
X123536328Y-113643713D01*
X123536330Y-113643709D01*
X123555250Y-113500000D01*
X124444750Y-113500000D01*
X124463670Y-113643709D01*
X124463670Y-113643711D01*
X124463671Y-113643712D01*
X124463671Y-113643714D01*
X124519136Y-113777621D01*
X124519141Y-113777628D01*
X124607374Y-113892616D01*
X124607383Y-113892625D01*
X124722371Y-113980858D01*
X124722378Y-113980863D01*
X124856286Y-114036328D01*
X124856291Y-114036330D01*
X125000000Y-114055250D01*
X125143709Y-114036330D01*
X125143714Y-114036328D01*
X125277621Y-113980863D01*
X125277622Y-113980862D01*
X125277625Y-113980861D01*
X125392621Y-113892621D01*
X125480861Y-113777625D01*
X125481780Y-113775408D01*
X125536328Y-113643714D01*
X125536328Y-113643713D01*
X125536330Y-113643709D01*
X125555250Y-113500000D01*
X126444750Y-113500000D01*
X126463670Y-113643709D01*
X126463670Y-113643711D01*
X126463671Y-113643712D01*
X126463671Y-113643714D01*
X126519136Y-113777621D01*
X126519141Y-113777628D01*
X126607374Y-113892616D01*
X126607383Y-113892625D01*
X126722371Y-113980858D01*
X126722378Y-113980863D01*
X126856286Y-114036328D01*
X126856291Y-114036330D01*
X127000000Y-114055250D01*
X127143709Y-114036330D01*
X127143714Y-114036328D01*
X127277621Y-113980863D01*
X127277622Y-113980862D01*
X127277625Y-113980861D01*
X127392621Y-113892621D01*
X127480861Y-113777625D01*
X127481780Y-113775408D01*
X127536328Y-113643714D01*
X127536328Y-113643713D01*
X127536330Y-113643709D01*
X127555250Y-113500000D01*
X127536330Y-113356291D01*
X127536328Y-113356285D01*
X127480863Y-113222378D01*
X127480858Y-113222371D01*
X127392625Y-113107383D01*
X127392616Y-113107374D01*
X127277628Y-113019141D01*
X127277621Y-113019136D01*
X127143713Y-112963671D01*
X127143710Y-112963670D01*
X127143709Y-112963670D01*
X127000000Y-112944750D01*
X126856291Y-112963670D01*
X126856289Y-112963670D01*
X126856287Y-112963671D01*
X126856285Y-112963671D01*
X126722378Y-113019136D01*
X126722371Y-113019141D01*
X126607383Y-113107374D01*
X126607374Y-113107383D01*
X126519141Y-113222371D01*
X126519136Y-113222378D01*
X126463671Y-113356285D01*
X126463671Y-113356287D01*
X126463670Y-113356289D01*
X126463670Y-113356291D01*
X126444750Y-113500000D01*
X125555250Y-113500000D01*
X125536330Y-113356291D01*
X125536328Y-113356285D01*
X125480863Y-113222378D01*
X125480858Y-113222371D01*
X125392625Y-113107383D01*
X125392616Y-113107374D01*
X125277628Y-113019141D01*
X125277621Y-113019136D01*
X125143713Y-112963671D01*
X125143710Y-112963670D01*
X125143709Y-112963670D01*
X125000000Y-112944750D01*
X124856291Y-112963670D01*
X124856289Y-112963670D01*
X124856287Y-112963671D01*
X124856285Y-112963671D01*
X124722378Y-113019136D01*
X124722371Y-113019141D01*
X124607383Y-113107374D01*
X124607374Y-113107383D01*
X124519141Y-113222371D01*
X124519136Y-113222378D01*
X124463671Y-113356285D01*
X124463671Y-113356287D01*
X124463670Y-113356289D01*
X124463670Y-113356291D01*
X124444750Y-113500000D01*
X123555250Y-113500000D01*
X123536330Y-113356291D01*
X123536328Y-113356285D01*
X123480863Y-113222378D01*
X123480858Y-113222371D01*
X123392625Y-113107383D01*
X123392616Y-113107374D01*
X123277628Y-113019141D01*
X123277621Y-113019136D01*
X123143713Y-112963671D01*
X123143710Y-112963670D01*
X123143709Y-112963670D01*
X123000000Y-112944750D01*
X122856291Y-112963670D01*
X122856289Y-112963670D01*
X122856287Y-112963671D01*
X122856285Y-112963671D01*
X122722378Y-113019136D01*
X122722371Y-113019141D01*
X122607383Y-113107374D01*
X122607374Y-113107383D01*
X122519141Y-113222371D01*
X122519136Y-113222378D01*
X122463671Y-113356285D01*
X122463671Y-113356287D01*
X122463670Y-113356289D01*
X122463670Y-113356291D01*
X122444750Y-113500000D01*
X121555250Y-113500000D01*
X121536330Y-113356291D01*
X121536328Y-113356285D01*
X121480863Y-113222378D01*
X121480858Y-113222371D01*
X121392625Y-113107383D01*
X121392616Y-113107374D01*
X121277628Y-113019141D01*
X121277621Y-113019136D01*
X121143713Y-112963671D01*
X121143710Y-112963670D01*
X121143709Y-112963670D01*
X121000000Y-112944750D01*
X120856291Y-112963670D01*
X120856289Y-112963670D01*
X120856287Y-112963671D01*
X120856285Y-112963671D01*
X120722378Y-113019136D01*
X120722371Y-113019141D01*
X120607383Y-113107374D01*
X120607374Y-113107383D01*
X120519141Y-113222371D01*
X120519136Y-113222378D01*
X120463671Y-113356285D01*
X120463671Y-113356287D01*
X120463670Y-113356289D01*
X120463670Y-113356291D01*
X120444750Y-113500000D01*
X119555250Y-113500000D01*
X119536330Y-113356291D01*
X119536328Y-113356285D01*
X119480863Y-113222378D01*
X119480858Y-113222371D01*
X119392625Y-113107383D01*
X119392616Y-113107374D01*
X119277628Y-113019141D01*
X119277621Y-113019136D01*
X119143713Y-112963671D01*
X119143710Y-112963670D01*
X119143709Y-112963670D01*
X119000000Y-112944750D01*
X118856291Y-112963670D01*
X118856289Y-112963670D01*
X118856287Y-112963671D01*
X118856285Y-112963671D01*
X118722378Y-113019136D01*
X118722371Y-113019141D01*
X118607383Y-113107374D01*
X118607374Y-113107383D01*
X118519141Y-113222371D01*
X118519136Y-113222378D01*
X118463671Y-113356285D01*
X118463671Y-113356287D01*
X118463670Y-113356289D01*
X118463670Y-113356291D01*
X118444750Y-113500000D01*
X95500500Y-113500000D01*
X95500500Y-112500000D01*
X101944750Y-112500000D01*
X101963670Y-112643709D01*
X101963670Y-112643711D01*
X101963671Y-112643712D01*
X101963671Y-112643714D01*
X102019136Y-112777621D01*
X102019141Y-112777628D01*
X102107374Y-112892616D01*
X102107383Y-112892625D01*
X102222371Y-112980858D01*
X102222378Y-112980863D01*
X102314792Y-113019141D01*
X102356291Y-113036330D01*
X102500000Y-113055250D01*
X102643709Y-113036330D01*
X102643714Y-113036328D01*
X102777621Y-112980863D01*
X102777622Y-112980862D01*
X102777625Y-112980861D01*
X102892621Y-112892621D01*
X102980861Y-112777625D01*
X102996469Y-112739945D01*
X103036328Y-112643714D01*
X103036328Y-112643713D01*
X103036330Y-112643709D01*
X103055250Y-112500000D01*
X104944750Y-112500000D01*
X104963670Y-112643709D01*
X104963670Y-112643711D01*
X104963671Y-112643712D01*
X104963671Y-112643714D01*
X105019136Y-112777621D01*
X105019141Y-112777628D01*
X105107374Y-112892616D01*
X105107383Y-112892625D01*
X105222371Y-112980858D01*
X105222378Y-112980863D01*
X105314792Y-113019141D01*
X105356291Y-113036330D01*
X105500000Y-113055250D01*
X105643709Y-113036330D01*
X105643714Y-113036328D01*
X105777621Y-112980863D01*
X105777622Y-112980862D01*
X105777625Y-112980861D01*
X105892621Y-112892621D01*
X105980861Y-112777625D01*
X105996469Y-112739945D01*
X106036328Y-112643714D01*
X106036328Y-112643713D01*
X106036330Y-112643709D01*
X106055250Y-112500000D01*
X107944750Y-112500000D01*
X107963670Y-112643709D01*
X107963670Y-112643711D01*
X107963671Y-112643712D01*
X107963671Y-112643714D01*
X108019136Y-112777621D01*
X108019141Y-112777628D01*
X108107374Y-112892616D01*
X108107383Y-112892625D01*
X108222371Y-112980858D01*
X108222378Y-112980863D01*
X108314792Y-113019141D01*
X108356291Y-113036330D01*
X108500000Y-113055250D01*
X108643709Y-113036330D01*
X108643714Y-113036328D01*
X108777621Y-112980863D01*
X108777622Y-112980862D01*
X108777625Y-112980861D01*
X108892621Y-112892621D01*
X108980861Y-112777625D01*
X108996469Y-112739945D01*
X109036328Y-112643714D01*
X109036328Y-112643713D01*
X109036330Y-112643709D01*
X109055250Y-112500000D01*
X110944750Y-112500000D01*
X110963670Y-112643709D01*
X110963670Y-112643711D01*
X110963671Y-112643712D01*
X110963671Y-112643714D01*
X111019136Y-112777621D01*
X111019141Y-112777628D01*
X111107374Y-112892616D01*
X111107383Y-112892625D01*
X111222371Y-112980858D01*
X111222378Y-112980863D01*
X111314792Y-113019141D01*
X111356291Y-113036330D01*
X111500000Y-113055250D01*
X111643709Y-113036330D01*
X111643714Y-113036328D01*
X111777621Y-112980863D01*
X111777622Y-112980862D01*
X111777625Y-112980861D01*
X111892621Y-112892621D01*
X111980861Y-112777625D01*
X111996469Y-112739945D01*
X112036328Y-112643714D01*
X112036328Y-112643713D01*
X112036330Y-112643709D01*
X112055250Y-112500000D01*
X112036330Y-112356291D01*
X112036328Y-112356285D01*
X111980863Y-112222378D01*
X111980858Y-112222371D01*
X111892625Y-112107383D01*
X111892616Y-112107374D01*
X111777628Y-112019141D01*
X111777621Y-112019136D01*
X111643713Y-111963671D01*
X111643710Y-111963670D01*
X111643709Y-111963670D01*
X111500000Y-111944750D01*
X111356291Y-111963670D01*
X111356289Y-111963670D01*
X111356287Y-111963671D01*
X111356285Y-111963671D01*
X111222378Y-112019136D01*
X111222371Y-112019141D01*
X111107383Y-112107374D01*
X111107374Y-112107383D01*
X111019141Y-112222371D01*
X111019136Y-112222378D01*
X110963671Y-112356285D01*
X110963671Y-112356287D01*
X110963670Y-112356289D01*
X110963670Y-112356291D01*
X110944750Y-112500000D01*
X109055250Y-112500000D01*
X109036330Y-112356291D01*
X109036328Y-112356285D01*
X108980863Y-112222378D01*
X108980858Y-112222371D01*
X108892625Y-112107383D01*
X108892616Y-112107374D01*
X108777628Y-112019141D01*
X108777621Y-112019136D01*
X108643713Y-111963671D01*
X108643710Y-111963670D01*
X108643709Y-111963670D01*
X108500000Y-111944750D01*
X108356291Y-111963670D01*
X108356289Y-111963670D01*
X108356287Y-111963671D01*
X108356285Y-111963671D01*
X108222378Y-112019136D01*
X108222371Y-112019141D01*
X108107383Y-112107374D01*
X108107374Y-112107383D01*
X108019141Y-112222371D01*
X108019136Y-112222378D01*
X107963671Y-112356285D01*
X107963671Y-112356287D01*
X107963670Y-112356289D01*
X107963670Y-112356291D01*
X107944750Y-112500000D01*
X106055250Y-112500000D01*
X106036330Y-112356291D01*
X106036328Y-112356285D01*
X105980863Y-112222378D01*
X105980858Y-112222371D01*
X105892625Y-112107383D01*
X105892616Y-112107374D01*
X105777628Y-112019141D01*
X105777621Y-112019136D01*
X105643713Y-111963671D01*
X105643710Y-111963670D01*
X105643709Y-111963670D01*
X105500000Y-111944750D01*
X105356291Y-111963670D01*
X105356289Y-111963670D01*
X105356287Y-111963671D01*
X105356285Y-111963671D01*
X105222378Y-112019136D01*
X105222371Y-112019141D01*
X105107383Y-112107374D01*
X105107374Y-112107383D01*
X105019141Y-112222371D01*
X105019136Y-112222378D01*
X104963671Y-112356285D01*
X104963671Y-112356287D01*
X104963670Y-112356289D01*
X104963670Y-112356291D01*
X104944750Y-112500000D01*
X103055250Y-112500000D01*
X103036330Y-112356291D01*
X103036328Y-112356285D01*
X102980863Y-112222378D01*
X102980858Y-112222371D01*
X102892625Y-112107383D01*
X102892616Y-112107374D01*
X102777628Y-112019141D01*
X102777621Y-112019136D01*
X102643713Y-111963671D01*
X102643710Y-111963670D01*
X102643709Y-111963670D01*
X102500000Y-111944750D01*
X102356291Y-111963670D01*
X102356289Y-111963670D01*
X102356287Y-111963671D01*
X102356285Y-111963671D01*
X102222378Y-112019136D01*
X102222371Y-112019141D01*
X102107383Y-112107374D01*
X102107374Y-112107383D01*
X102019141Y-112222371D01*
X102019136Y-112222378D01*
X101963671Y-112356285D01*
X101963671Y-112356287D01*
X101963670Y-112356289D01*
X101963670Y-112356291D01*
X101944750Y-112500000D01*
X95500500Y-112500000D01*
X95500500Y-110893703D01*
X97999500Y-110893703D01*
X97999500Y-111106296D01*
X98032753Y-111316240D01*
X98092460Y-111500000D01*
X98098443Y-111518412D01*
X98194949Y-111707816D01*
X98319896Y-111879792D01*
X98470208Y-112030104D01*
X98642184Y-112155051D01*
X98831588Y-112251557D01*
X99033757Y-112317246D01*
X99107601Y-112328941D01*
X99243703Y-112350499D01*
X99243710Y-112350499D01*
X99243713Y-112350500D01*
X99243716Y-112350500D01*
X99756284Y-112350500D01*
X99756287Y-112350500D01*
X99756290Y-112350499D01*
X99756296Y-112350499D01*
X99855476Y-112334789D01*
X99966243Y-112317246D01*
X100168412Y-112251557D01*
X100357816Y-112155051D01*
X100529792Y-112030104D01*
X100680104Y-111879792D01*
X100805051Y-111707816D01*
X100901557Y-111518412D01*
X100967246Y-111316243D01*
X100992721Y-111155401D01*
X101000499Y-111106296D01*
X101000500Y-111106284D01*
X101000500Y-110893715D01*
X101000499Y-110893703D01*
X113499500Y-110893703D01*
X113499500Y-111106296D01*
X113532753Y-111316240D01*
X113592460Y-111500000D01*
X113598443Y-111518412D01*
X113694949Y-111707816D01*
X113819896Y-111879792D01*
X113970208Y-112030104D01*
X114142184Y-112155051D01*
X114331588Y-112251557D01*
X114533757Y-112317246D01*
X114607601Y-112328941D01*
X114743703Y-112350499D01*
X114743710Y-112350499D01*
X114743713Y-112350500D01*
X114743716Y-112350500D01*
X115256284Y-112350500D01*
X115256287Y-112350500D01*
X115256290Y-112350499D01*
X115256296Y-112350499D01*
X115355476Y-112334789D01*
X115466243Y-112317246D01*
X115668412Y-112251557D01*
X115857816Y-112155051D01*
X116029792Y-112030104D01*
X116180104Y-111879792D01*
X116305051Y-111707816D01*
X116401557Y-111518412D01*
X116407539Y-111500000D01*
X118444750Y-111500000D01*
X118463670Y-111643709D01*
X118463670Y-111643711D01*
X118463671Y-111643712D01*
X118463671Y-111643714D01*
X118519136Y-111777621D01*
X118519141Y-111777628D01*
X118607374Y-111892616D01*
X118607383Y-111892625D01*
X118722371Y-111980858D01*
X118722378Y-111980863D01*
X118814792Y-112019141D01*
X118856291Y-112036330D01*
X119000000Y-112055250D01*
X119143709Y-112036330D01*
X119143714Y-112036328D01*
X119277621Y-111980863D01*
X119277622Y-111980862D01*
X119277625Y-111980861D01*
X119392621Y-111892621D01*
X119480861Y-111777625D01*
X119493997Y-111745913D01*
X119536328Y-111643714D01*
X119536328Y-111643713D01*
X119536330Y-111643709D01*
X119555250Y-111500000D01*
X120444750Y-111500000D01*
X120463670Y-111643709D01*
X120463670Y-111643711D01*
X120463671Y-111643712D01*
X120463671Y-111643714D01*
X120519136Y-111777621D01*
X120519141Y-111777628D01*
X120607374Y-111892616D01*
X120607383Y-111892625D01*
X120722371Y-111980858D01*
X120722378Y-111980863D01*
X120814792Y-112019141D01*
X120856291Y-112036330D01*
X121000000Y-112055250D01*
X121143709Y-112036330D01*
X121143714Y-112036328D01*
X121277621Y-111980863D01*
X121277622Y-111980862D01*
X121277625Y-111980861D01*
X121392621Y-111892621D01*
X121480861Y-111777625D01*
X121493997Y-111745913D01*
X121536328Y-111643714D01*
X121536328Y-111643713D01*
X121536330Y-111643709D01*
X121555250Y-111500000D01*
X122444750Y-111500000D01*
X122463670Y-111643709D01*
X122463670Y-111643711D01*
X122463671Y-111643712D01*
X122463671Y-111643714D01*
X122519136Y-111777621D01*
X122519141Y-111777628D01*
X122607374Y-111892616D01*
X122607383Y-111892625D01*
X122722371Y-111980858D01*
X122722378Y-111980863D01*
X122814792Y-112019141D01*
X122856291Y-112036330D01*
X123000000Y-112055250D01*
X123143709Y-112036330D01*
X123143714Y-112036328D01*
X123277621Y-111980863D01*
X123277622Y-111980862D01*
X123277625Y-111980861D01*
X123392621Y-111892621D01*
X123480861Y-111777625D01*
X123493997Y-111745913D01*
X123536328Y-111643714D01*
X123536328Y-111643713D01*
X123536330Y-111643709D01*
X123555250Y-111500000D01*
X124444750Y-111500000D01*
X124463670Y-111643709D01*
X124463670Y-111643711D01*
X124463671Y-111643712D01*
X124463671Y-111643714D01*
X124519136Y-111777621D01*
X124519141Y-111777628D01*
X124607374Y-111892616D01*
X124607383Y-111892625D01*
X124722371Y-111980858D01*
X124722378Y-111980863D01*
X124814792Y-112019141D01*
X124856291Y-112036330D01*
X125000000Y-112055250D01*
X125143709Y-112036330D01*
X125143714Y-112036328D01*
X125277621Y-111980863D01*
X125277622Y-111980862D01*
X125277625Y-111980861D01*
X125392621Y-111892621D01*
X125480861Y-111777625D01*
X125493997Y-111745913D01*
X125536328Y-111643714D01*
X125536328Y-111643713D01*
X125536330Y-111643709D01*
X125555250Y-111500000D01*
X126444750Y-111500000D01*
X126463670Y-111643709D01*
X126463670Y-111643711D01*
X126463671Y-111643712D01*
X126463671Y-111643714D01*
X126519136Y-111777621D01*
X126519141Y-111777628D01*
X126607374Y-111892616D01*
X126607383Y-111892625D01*
X126722371Y-111980858D01*
X126722378Y-111980863D01*
X126814792Y-112019141D01*
X126856291Y-112036330D01*
X127000000Y-112055250D01*
X127143709Y-112036330D01*
X127143714Y-112036328D01*
X127277621Y-111980863D01*
X127277622Y-111980862D01*
X127277625Y-111980861D01*
X127392621Y-111892621D01*
X127480861Y-111777625D01*
X127493997Y-111745913D01*
X127536328Y-111643714D01*
X127536328Y-111643713D01*
X127536330Y-111643709D01*
X127555250Y-111500000D01*
X127536330Y-111356291D01*
X127536328Y-111356285D01*
X127480863Y-111222378D01*
X127480858Y-111222371D01*
X127392625Y-111107383D01*
X127392616Y-111107374D01*
X127277628Y-111019141D01*
X127277621Y-111019136D01*
X127143713Y-110963671D01*
X127143710Y-110963670D01*
X127143709Y-110963670D01*
X127000000Y-110944750D01*
X126856291Y-110963670D01*
X126856289Y-110963670D01*
X126856287Y-110963671D01*
X126856285Y-110963671D01*
X126722378Y-111019136D01*
X126722371Y-111019141D01*
X126607383Y-111107374D01*
X126607374Y-111107383D01*
X126519141Y-111222371D01*
X126519136Y-111222378D01*
X126463671Y-111356285D01*
X126463671Y-111356287D01*
X126463670Y-111356289D01*
X126463670Y-111356291D01*
X126444750Y-111500000D01*
X125555250Y-111500000D01*
X125536330Y-111356291D01*
X125536328Y-111356285D01*
X125480863Y-111222378D01*
X125480858Y-111222371D01*
X125392625Y-111107383D01*
X125392616Y-111107374D01*
X125277628Y-111019141D01*
X125277621Y-111019136D01*
X125143713Y-110963671D01*
X125143710Y-110963670D01*
X125143709Y-110963670D01*
X125000000Y-110944750D01*
X124856291Y-110963670D01*
X124856289Y-110963670D01*
X124856287Y-110963671D01*
X124856285Y-110963671D01*
X124722378Y-111019136D01*
X124722371Y-111019141D01*
X124607383Y-111107374D01*
X124607374Y-111107383D01*
X124519141Y-111222371D01*
X124519136Y-111222378D01*
X124463671Y-111356285D01*
X124463671Y-111356287D01*
X124463670Y-111356289D01*
X124463670Y-111356291D01*
X124444750Y-111500000D01*
X123555250Y-111500000D01*
X123536330Y-111356291D01*
X123536328Y-111356285D01*
X123480863Y-111222378D01*
X123480858Y-111222371D01*
X123392625Y-111107383D01*
X123392616Y-111107374D01*
X123277628Y-111019141D01*
X123277621Y-111019136D01*
X123143713Y-110963671D01*
X123143710Y-110963670D01*
X123143709Y-110963670D01*
X123000000Y-110944750D01*
X122856291Y-110963670D01*
X122856289Y-110963670D01*
X122856287Y-110963671D01*
X122856285Y-110963671D01*
X122722378Y-111019136D01*
X122722371Y-111019141D01*
X122607383Y-111107374D01*
X122607374Y-111107383D01*
X122519141Y-111222371D01*
X122519136Y-111222378D01*
X122463671Y-111356285D01*
X122463671Y-111356287D01*
X122463670Y-111356289D01*
X122463670Y-111356291D01*
X122444750Y-111500000D01*
X121555250Y-111500000D01*
X121536330Y-111356291D01*
X121536328Y-111356285D01*
X121480863Y-111222378D01*
X121480858Y-111222371D01*
X121392625Y-111107383D01*
X121392616Y-111107374D01*
X121277628Y-111019141D01*
X121277621Y-111019136D01*
X121143713Y-110963671D01*
X121143710Y-110963670D01*
X121143709Y-110963670D01*
X121000000Y-110944750D01*
X120856291Y-110963670D01*
X120856289Y-110963670D01*
X120856287Y-110963671D01*
X120856285Y-110963671D01*
X120722378Y-111019136D01*
X120722371Y-111019141D01*
X120607383Y-111107374D01*
X120607374Y-111107383D01*
X120519141Y-111222371D01*
X120519136Y-111222378D01*
X120463671Y-111356285D01*
X120463671Y-111356287D01*
X120463670Y-111356289D01*
X120463670Y-111356291D01*
X120444750Y-111500000D01*
X119555250Y-111500000D01*
X119536330Y-111356291D01*
X119536328Y-111356285D01*
X119480863Y-111222378D01*
X119480858Y-111222371D01*
X119392625Y-111107383D01*
X119392616Y-111107374D01*
X119277628Y-111019141D01*
X119277621Y-111019136D01*
X119143713Y-110963671D01*
X119143710Y-110963670D01*
X119143709Y-110963670D01*
X119000000Y-110944750D01*
X118856291Y-110963670D01*
X118856289Y-110963670D01*
X118856287Y-110963671D01*
X118856285Y-110963671D01*
X118722378Y-111019136D01*
X118722371Y-111019141D01*
X118607383Y-111107374D01*
X118607374Y-111107383D01*
X118519141Y-111222371D01*
X118519136Y-111222378D01*
X118463671Y-111356285D01*
X118463671Y-111356287D01*
X118463670Y-111356289D01*
X118463670Y-111356291D01*
X118444750Y-111500000D01*
X116407539Y-111500000D01*
X116467246Y-111316243D01*
X116492721Y-111155401D01*
X116500499Y-111106296D01*
X116500500Y-111106284D01*
X116500500Y-110893715D01*
X116500499Y-110893703D01*
X116467246Y-110683759D01*
X116467246Y-110683757D01*
X116401557Y-110481588D01*
X116305051Y-110292184D01*
X116180104Y-110120208D01*
X116029792Y-109969896D01*
X115857816Y-109844949D01*
X115668412Y-109748443D01*
X115668409Y-109748442D01*
X115668407Y-109748441D01*
X115466240Y-109682753D01*
X115256296Y-109649500D01*
X115256287Y-109649500D01*
X114743713Y-109649500D01*
X114743703Y-109649500D01*
X114533759Y-109682753D01*
X114331592Y-109748441D01*
X114142182Y-109844950D01*
X113970206Y-109969897D01*
X113819897Y-110120206D01*
X113694950Y-110292182D01*
X113598441Y-110481592D01*
X113532753Y-110683759D01*
X113499500Y-110893703D01*
X101000499Y-110893703D01*
X100967246Y-110683759D01*
X100967246Y-110683757D01*
X100901557Y-110481588D01*
X100805051Y-110292184D01*
X100680104Y-110120208D01*
X100559896Y-110000000D01*
X101944750Y-110000000D01*
X101963670Y-110143709D01*
X101963670Y-110143711D01*
X101963671Y-110143712D01*
X101963671Y-110143714D01*
X102019136Y-110277621D01*
X102019141Y-110277628D01*
X102107374Y-110392616D01*
X102107383Y-110392625D01*
X102222371Y-110480858D01*
X102222378Y-110480863D01*
X102356286Y-110536328D01*
X102356291Y-110536330D01*
X102500000Y-110555250D01*
X102643709Y-110536330D01*
X102643714Y-110536328D01*
X102777621Y-110480863D01*
X102777622Y-110480862D01*
X102777625Y-110480861D01*
X102892621Y-110392621D01*
X102980861Y-110277625D01*
X102995547Y-110242171D01*
X103036328Y-110143714D01*
X103036328Y-110143713D01*
X103036330Y-110143709D01*
X103055250Y-110000000D01*
X104944750Y-110000000D01*
X104963670Y-110143709D01*
X104963670Y-110143711D01*
X104963671Y-110143712D01*
X104963671Y-110143714D01*
X105019136Y-110277621D01*
X105019141Y-110277628D01*
X105107374Y-110392616D01*
X105107383Y-110392625D01*
X105222371Y-110480858D01*
X105222378Y-110480863D01*
X105356286Y-110536328D01*
X105356291Y-110536330D01*
X105500000Y-110555250D01*
X105643709Y-110536330D01*
X105643714Y-110536328D01*
X105777621Y-110480863D01*
X105777622Y-110480862D01*
X105777625Y-110480861D01*
X105892621Y-110392621D01*
X105980861Y-110277625D01*
X105995547Y-110242171D01*
X106036328Y-110143714D01*
X106036328Y-110143713D01*
X106036330Y-110143709D01*
X106055250Y-110000000D01*
X107944750Y-110000000D01*
X107963670Y-110143709D01*
X107963670Y-110143711D01*
X107963671Y-110143712D01*
X107963671Y-110143714D01*
X108019136Y-110277621D01*
X108019141Y-110277628D01*
X108107374Y-110392616D01*
X108107383Y-110392625D01*
X108222371Y-110480858D01*
X108222378Y-110480863D01*
X108356286Y-110536328D01*
X108356291Y-110536330D01*
X108500000Y-110555250D01*
X108643709Y-110536330D01*
X108643714Y-110536328D01*
X108777621Y-110480863D01*
X108777622Y-110480862D01*
X108777625Y-110480861D01*
X108892621Y-110392621D01*
X108980861Y-110277625D01*
X108995547Y-110242171D01*
X109036328Y-110143714D01*
X109036328Y-110143713D01*
X109036330Y-110143709D01*
X109055250Y-110000000D01*
X110944750Y-110000000D01*
X110963670Y-110143709D01*
X110963670Y-110143711D01*
X110963671Y-110143712D01*
X110963671Y-110143714D01*
X111019136Y-110277621D01*
X111019141Y-110277628D01*
X111107374Y-110392616D01*
X111107383Y-110392625D01*
X111222371Y-110480858D01*
X111222378Y-110480863D01*
X111356286Y-110536328D01*
X111356291Y-110536330D01*
X111500000Y-110555250D01*
X111643709Y-110536330D01*
X111643714Y-110536328D01*
X111777621Y-110480863D01*
X111777622Y-110480862D01*
X111777625Y-110480861D01*
X111892621Y-110392621D01*
X111980861Y-110277625D01*
X111995547Y-110242171D01*
X112036328Y-110143714D01*
X112036328Y-110143713D01*
X112036330Y-110143709D01*
X112055250Y-110000000D01*
X112036330Y-109856291D01*
X112031632Y-109844950D01*
X111980862Y-109722377D01*
X111980858Y-109722371D01*
X111892625Y-109607383D01*
X111892616Y-109607374D01*
X111777628Y-109519141D01*
X111777621Y-109519136D01*
X111731421Y-109500000D01*
X118444750Y-109500000D01*
X118463670Y-109643709D01*
X118463670Y-109643711D01*
X118463671Y-109643712D01*
X118463671Y-109643714D01*
X118519136Y-109777621D01*
X118519141Y-109777628D01*
X118607374Y-109892616D01*
X118607383Y-109892625D01*
X118722371Y-109980858D01*
X118722378Y-109980863D01*
X118851378Y-110034295D01*
X118856291Y-110036330D01*
X119000000Y-110055250D01*
X119143709Y-110036330D01*
X119143714Y-110036328D01*
X119277621Y-109980863D01*
X119277622Y-109980862D01*
X119277625Y-109980861D01*
X119392621Y-109892621D01*
X119480861Y-109777625D01*
X119492949Y-109748443D01*
X119536328Y-109643714D01*
X119536328Y-109643713D01*
X119536330Y-109643709D01*
X119555250Y-109500000D01*
X120444750Y-109500000D01*
X120463670Y-109643709D01*
X120463670Y-109643711D01*
X120463671Y-109643712D01*
X120463671Y-109643714D01*
X120519136Y-109777621D01*
X120519141Y-109777628D01*
X120607374Y-109892616D01*
X120607383Y-109892625D01*
X120722371Y-109980858D01*
X120722378Y-109980863D01*
X120851378Y-110034295D01*
X120856291Y-110036330D01*
X121000000Y-110055250D01*
X121143709Y-110036330D01*
X121143714Y-110036328D01*
X121277621Y-109980863D01*
X121277622Y-109980862D01*
X121277625Y-109980861D01*
X121392621Y-109892621D01*
X121480861Y-109777625D01*
X121492949Y-109748443D01*
X121536328Y-109643714D01*
X121536328Y-109643713D01*
X121536330Y-109643709D01*
X121555250Y-109500000D01*
X122444750Y-109500000D01*
X122463670Y-109643709D01*
X122463670Y-109643711D01*
X122463671Y-109643712D01*
X122463671Y-109643714D01*
X122519136Y-109777621D01*
X122519141Y-109777628D01*
X122607374Y-109892616D01*
X122607383Y-109892625D01*
X122722371Y-109980858D01*
X122722378Y-109980863D01*
X122851378Y-110034295D01*
X122856291Y-110036330D01*
X123000000Y-110055250D01*
X123143709Y-110036330D01*
X123143714Y-110036328D01*
X123277621Y-109980863D01*
X123277622Y-109980862D01*
X123277625Y-109980861D01*
X123392621Y-109892621D01*
X123480861Y-109777625D01*
X123492949Y-109748443D01*
X123536328Y-109643714D01*
X123536328Y-109643713D01*
X123536330Y-109643709D01*
X123555250Y-109500000D01*
X124444750Y-109500000D01*
X124463670Y-109643709D01*
X124463670Y-109643711D01*
X124463671Y-109643712D01*
X124463671Y-109643714D01*
X124519136Y-109777621D01*
X124519141Y-109777628D01*
X124607374Y-109892616D01*
X124607383Y-109892625D01*
X124722371Y-109980858D01*
X124722378Y-109980863D01*
X124851378Y-110034295D01*
X124856291Y-110036330D01*
X125000000Y-110055250D01*
X125143709Y-110036330D01*
X125143714Y-110036328D01*
X125277621Y-109980863D01*
X125277622Y-109980862D01*
X125277625Y-109980861D01*
X125392621Y-109892621D01*
X125480861Y-109777625D01*
X125492949Y-109748443D01*
X125536328Y-109643714D01*
X125536328Y-109643713D01*
X125536330Y-109643709D01*
X125555250Y-109500000D01*
X126444750Y-109500000D01*
X126463670Y-109643709D01*
X126463670Y-109643711D01*
X126463671Y-109643712D01*
X126463671Y-109643714D01*
X126519136Y-109777621D01*
X126519141Y-109777628D01*
X126607374Y-109892616D01*
X126607383Y-109892625D01*
X126722371Y-109980858D01*
X126722378Y-109980863D01*
X126851378Y-110034295D01*
X126856291Y-110036330D01*
X127000000Y-110055250D01*
X127143709Y-110036330D01*
X127143714Y-110036328D01*
X127277621Y-109980863D01*
X127277622Y-109980862D01*
X127277625Y-109980861D01*
X127392621Y-109892621D01*
X127480861Y-109777625D01*
X127492949Y-109748443D01*
X127536328Y-109643714D01*
X127536328Y-109643713D01*
X127536330Y-109643709D01*
X127555250Y-109500000D01*
X127536330Y-109356291D01*
X127536328Y-109356285D01*
X127480863Y-109222378D01*
X127480858Y-109222371D01*
X127392625Y-109107383D01*
X127392616Y-109107374D01*
X127277628Y-109019141D01*
X127277621Y-109019136D01*
X127143713Y-108963671D01*
X127143710Y-108963670D01*
X127143709Y-108963670D01*
X127000000Y-108944750D01*
X126856291Y-108963670D01*
X126856289Y-108963670D01*
X126856287Y-108963671D01*
X126856285Y-108963671D01*
X126722378Y-109019136D01*
X126722371Y-109019141D01*
X126607383Y-109107374D01*
X126607374Y-109107383D01*
X126519141Y-109222371D01*
X126519136Y-109222378D01*
X126463671Y-109356285D01*
X126463671Y-109356287D01*
X126463670Y-109356289D01*
X126463670Y-109356291D01*
X126444750Y-109500000D01*
X125555250Y-109500000D01*
X125536330Y-109356291D01*
X125536328Y-109356285D01*
X125480863Y-109222378D01*
X125480858Y-109222371D01*
X125392625Y-109107383D01*
X125392616Y-109107374D01*
X125277628Y-109019141D01*
X125277621Y-109019136D01*
X125143713Y-108963671D01*
X125143710Y-108963670D01*
X125143709Y-108963670D01*
X125000000Y-108944750D01*
X124856291Y-108963670D01*
X124856289Y-108963670D01*
X124856287Y-108963671D01*
X124856285Y-108963671D01*
X124722378Y-109019136D01*
X124722371Y-109019141D01*
X124607383Y-109107374D01*
X124607374Y-109107383D01*
X124519141Y-109222371D01*
X124519136Y-109222378D01*
X124463671Y-109356285D01*
X124463671Y-109356287D01*
X124463670Y-109356289D01*
X124463670Y-109356291D01*
X124444750Y-109500000D01*
X123555250Y-109500000D01*
X123536330Y-109356291D01*
X123536328Y-109356285D01*
X123480863Y-109222378D01*
X123480858Y-109222371D01*
X123392625Y-109107383D01*
X123392616Y-109107374D01*
X123277628Y-109019141D01*
X123277621Y-109019136D01*
X123143713Y-108963671D01*
X123143710Y-108963670D01*
X123143709Y-108963670D01*
X123000000Y-108944750D01*
X122856291Y-108963670D01*
X122856289Y-108963670D01*
X122856287Y-108963671D01*
X122856285Y-108963671D01*
X122722378Y-109019136D01*
X122722371Y-109019141D01*
X122607383Y-109107374D01*
X122607374Y-109107383D01*
X122519141Y-109222371D01*
X122519136Y-109222378D01*
X122463671Y-109356285D01*
X122463671Y-109356287D01*
X122463670Y-109356289D01*
X122463670Y-109356291D01*
X122444750Y-109500000D01*
X121555250Y-109500000D01*
X121536330Y-109356291D01*
X121536328Y-109356285D01*
X121480863Y-109222378D01*
X121480858Y-109222371D01*
X121392625Y-109107383D01*
X121392616Y-109107374D01*
X121277628Y-109019141D01*
X121277621Y-109019136D01*
X121143713Y-108963671D01*
X121143710Y-108963670D01*
X121143709Y-108963670D01*
X121000000Y-108944750D01*
X120856291Y-108963670D01*
X120856289Y-108963670D01*
X120856287Y-108963671D01*
X120856285Y-108963671D01*
X120722378Y-109019136D01*
X120722371Y-109019141D01*
X120607383Y-109107374D01*
X120607374Y-109107383D01*
X120519141Y-109222371D01*
X120519136Y-109222378D01*
X120463671Y-109356285D01*
X120463671Y-109356287D01*
X120463670Y-109356289D01*
X120463670Y-109356291D01*
X120444750Y-109500000D01*
X119555250Y-109500000D01*
X119536330Y-109356291D01*
X119536328Y-109356285D01*
X119480863Y-109222378D01*
X119480858Y-109222371D01*
X119392625Y-109107383D01*
X119392616Y-109107374D01*
X119277628Y-109019141D01*
X119277621Y-109019136D01*
X119143713Y-108963671D01*
X119143710Y-108963670D01*
X119143709Y-108963670D01*
X119000000Y-108944750D01*
X118856291Y-108963670D01*
X118856289Y-108963670D01*
X118856287Y-108963671D01*
X118856285Y-108963671D01*
X118722378Y-109019136D01*
X118722371Y-109019141D01*
X118607383Y-109107374D01*
X118607374Y-109107383D01*
X118519141Y-109222371D01*
X118519136Y-109222378D01*
X118463671Y-109356285D01*
X118463671Y-109356287D01*
X118463670Y-109356289D01*
X118463670Y-109356291D01*
X118444750Y-109500000D01*
X111731421Y-109500000D01*
X111643713Y-109463671D01*
X111643710Y-109463670D01*
X111643709Y-109463670D01*
X111500000Y-109444750D01*
X111356291Y-109463670D01*
X111356289Y-109463670D01*
X111356287Y-109463671D01*
X111356285Y-109463671D01*
X111222378Y-109519136D01*
X111222371Y-109519141D01*
X111107383Y-109607374D01*
X111107374Y-109607383D01*
X111019141Y-109722371D01*
X111019138Y-109722377D01*
X110963671Y-109856285D01*
X110963671Y-109856287D01*
X110963670Y-109856289D01*
X110963670Y-109856291D01*
X110944750Y-110000000D01*
X109055250Y-110000000D01*
X109036330Y-109856291D01*
X109031632Y-109844950D01*
X108980862Y-109722377D01*
X108980858Y-109722371D01*
X108892625Y-109607383D01*
X108892616Y-109607374D01*
X108777628Y-109519141D01*
X108777621Y-109519136D01*
X108643713Y-109463671D01*
X108643710Y-109463670D01*
X108643709Y-109463670D01*
X108500000Y-109444750D01*
X108356291Y-109463670D01*
X108356289Y-109463670D01*
X108356287Y-109463671D01*
X108356285Y-109463671D01*
X108222378Y-109519136D01*
X108222371Y-109519141D01*
X108107383Y-109607374D01*
X108107374Y-109607383D01*
X108019141Y-109722371D01*
X108019138Y-109722377D01*
X107963671Y-109856285D01*
X107963671Y-109856287D01*
X107963670Y-109856289D01*
X107963670Y-109856291D01*
X107944750Y-110000000D01*
X106055250Y-110000000D01*
X106036330Y-109856291D01*
X106031632Y-109844950D01*
X105980862Y-109722377D01*
X105980858Y-109722371D01*
X105892625Y-109607383D01*
X105892616Y-109607374D01*
X105777628Y-109519141D01*
X105777621Y-109519136D01*
X105643713Y-109463671D01*
X105643710Y-109463670D01*
X105643709Y-109463670D01*
X105500000Y-109444750D01*
X105356291Y-109463670D01*
X105356289Y-109463670D01*
X105356287Y-109463671D01*
X105356285Y-109463671D01*
X105222378Y-109519136D01*
X105222371Y-109519141D01*
X105107383Y-109607374D01*
X105107374Y-109607383D01*
X105019141Y-109722371D01*
X105019138Y-109722377D01*
X104963671Y-109856285D01*
X104963671Y-109856287D01*
X104963670Y-109856289D01*
X104963670Y-109856291D01*
X104944750Y-110000000D01*
X103055250Y-110000000D01*
X103036330Y-109856291D01*
X103031632Y-109844950D01*
X102980862Y-109722377D01*
X102980858Y-109722371D01*
X102892625Y-109607383D01*
X102892616Y-109607374D01*
X102777628Y-109519141D01*
X102777621Y-109519136D01*
X102643713Y-109463671D01*
X102643710Y-109463670D01*
X102643709Y-109463670D01*
X102500000Y-109444750D01*
X102356291Y-109463670D01*
X102356289Y-109463670D01*
X102356287Y-109463671D01*
X102356285Y-109463671D01*
X102222378Y-109519136D01*
X102222371Y-109519141D01*
X102107383Y-109607374D01*
X102107374Y-109607383D01*
X102019141Y-109722371D01*
X102019138Y-109722377D01*
X101963671Y-109856285D01*
X101963671Y-109856287D01*
X101963670Y-109856289D01*
X101963670Y-109856291D01*
X101944750Y-110000000D01*
X100559896Y-110000000D01*
X100529792Y-109969896D01*
X100357816Y-109844949D01*
X100168412Y-109748443D01*
X100168409Y-109748442D01*
X100168407Y-109748441D01*
X99966240Y-109682753D01*
X99756296Y-109649500D01*
X99756287Y-109649500D01*
X99243713Y-109649500D01*
X99243703Y-109649500D01*
X99033759Y-109682753D01*
X98831592Y-109748441D01*
X98642182Y-109844950D01*
X98470206Y-109969897D01*
X98319897Y-110120206D01*
X98194950Y-110292182D01*
X98098441Y-110481592D01*
X98032753Y-110683759D01*
X97999500Y-110893703D01*
X95500500Y-110893703D01*
X95500500Y-107500000D01*
X118444750Y-107500000D01*
X118463670Y-107643709D01*
X118463670Y-107643711D01*
X118463671Y-107643712D01*
X118463671Y-107643714D01*
X118519136Y-107777621D01*
X118519141Y-107777628D01*
X118607374Y-107892616D01*
X118607383Y-107892625D01*
X118722371Y-107980858D01*
X118722378Y-107980863D01*
X118839763Y-108029484D01*
X118856291Y-108036330D01*
X119000000Y-108055250D01*
X119143709Y-108036330D01*
X119143714Y-108036328D01*
X119277621Y-107980863D01*
X119277622Y-107980862D01*
X119277625Y-107980861D01*
X119392621Y-107892621D01*
X119406069Y-107875096D01*
X119450021Y-107817816D01*
X119480861Y-107777625D01*
X119536330Y-107643709D01*
X119555250Y-107500000D01*
X120444750Y-107500000D01*
X120463670Y-107643709D01*
X120463670Y-107643711D01*
X120463671Y-107643712D01*
X120463671Y-107643714D01*
X120519136Y-107777621D01*
X120519141Y-107777628D01*
X120607374Y-107892616D01*
X120607383Y-107892625D01*
X120722371Y-107980858D01*
X120722378Y-107980863D01*
X120839763Y-108029484D01*
X120856291Y-108036330D01*
X121000000Y-108055250D01*
X121143709Y-108036330D01*
X121143714Y-108036328D01*
X121277621Y-107980863D01*
X121277622Y-107980862D01*
X121277625Y-107980861D01*
X121392621Y-107892621D01*
X121406069Y-107875096D01*
X121450021Y-107817816D01*
X121480861Y-107777625D01*
X121536330Y-107643709D01*
X121555250Y-107500000D01*
X122444750Y-107500000D01*
X122463670Y-107643709D01*
X122463670Y-107643711D01*
X122463671Y-107643712D01*
X122463671Y-107643714D01*
X122519136Y-107777621D01*
X122519141Y-107777628D01*
X122607374Y-107892616D01*
X122607383Y-107892625D01*
X122722371Y-107980858D01*
X122722378Y-107980863D01*
X122839763Y-108029484D01*
X122856291Y-108036330D01*
X123000000Y-108055250D01*
X123143709Y-108036330D01*
X123143714Y-108036328D01*
X123277621Y-107980863D01*
X123277622Y-107980862D01*
X123277625Y-107980861D01*
X123392621Y-107892621D01*
X123406069Y-107875096D01*
X123450021Y-107817816D01*
X123480861Y-107777625D01*
X123536330Y-107643709D01*
X123555250Y-107500000D01*
X124444750Y-107500000D01*
X124463670Y-107643709D01*
X124463670Y-107643711D01*
X124463671Y-107643712D01*
X124463671Y-107643714D01*
X124519136Y-107777621D01*
X124519141Y-107777628D01*
X124607374Y-107892616D01*
X124607383Y-107892625D01*
X124722371Y-107980858D01*
X124722378Y-107980863D01*
X124839763Y-108029484D01*
X124856291Y-108036330D01*
X125000000Y-108055250D01*
X125143709Y-108036330D01*
X125143714Y-108036328D01*
X125277621Y-107980863D01*
X125277622Y-107980862D01*
X125277625Y-107980861D01*
X125392621Y-107892621D01*
X125406069Y-107875096D01*
X125450021Y-107817816D01*
X125480861Y-107777625D01*
X125536330Y-107643709D01*
X125555250Y-107500000D01*
X126444750Y-107500000D01*
X126463670Y-107643709D01*
X126463670Y-107643711D01*
X126463671Y-107643712D01*
X126463671Y-107643714D01*
X126519136Y-107777621D01*
X126519141Y-107777628D01*
X126607374Y-107892616D01*
X126607383Y-107892625D01*
X126722371Y-107980858D01*
X126722378Y-107980863D01*
X126839763Y-108029484D01*
X126856291Y-108036330D01*
X127000000Y-108055250D01*
X127143709Y-108036330D01*
X127143714Y-108036328D01*
X127277621Y-107980863D01*
X127277622Y-107980862D01*
X127277625Y-107980861D01*
X127392621Y-107892621D01*
X127406069Y-107875096D01*
X127450021Y-107817816D01*
X127480861Y-107777625D01*
X127536330Y-107643709D01*
X127555250Y-107500000D01*
X127536330Y-107356291D01*
X127491511Y-107248086D01*
X127480863Y-107222378D01*
X127480858Y-107222371D01*
X127392625Y-107107383D01*
X127392616Y-107107374D01*
X127277628Y-107019141D01*
X127277621Y-107019136D01*
X127143713Y-106963671D01*
X127143710Y-106963670D01*
X127143709Y-106963670D01*
X127000000Y-106944750D01*
X126856291Y-106963670D01*
X126856289Y-106963670D01*
X126856287Y-106963671D01*
X126856285Y-106963671D01*
X126722378Y-107019136D01*
X126722371Y-107019141D01*
X126607383Y-107107374D01*
X126607374Y-107107383D01*
X126519141Y-107222371D01*
X126519136Y-107222378D01*
X126463671Y-107356285D01*
X126463671Y-107356287D01*
X126463670Y-107356289D01*
X126463670Y-107356291D01*
X126444750Y-107500000D01*
X125555250Y-107500000D01*
X125536330Y-107356291D01*
X125491511Y-107248086D01*
X125480863Y-107222378D01*
X125480858Y-107222371D01*
X125392625Y-107107383D01*
X125392616Y-107107374D01*
X125277628Y-107019141D01*
X125277621Y-107019136D01*
X125143713Y-106963671D01*
X125143710Y-106963670D01*
X125143709Y-106963670D01*
X125000000Y-106944750D01*
X124856291Y-106963670D01*
X124856289Y-106963670D01*
X124856287Y-106963671D01*
X124856285Y-106963671D01*
X124722378Y-107019136D01*
X124722371Y-107019141D01*
X124607383Y-107107374D01*
X124607374Y-107107383D01*
X124519141Y-107222371D01*
X124519136Y-107222378D01*
X124463671Y-107356285D01*
X124463671Y-107356287D01*
X124463670Y-107356289D01*
X124463670Y-107356291D01*
X124444750Y-107500000D01*
X123555250Y-107500000D01*
X123536330Y-107356291D01*
X123491511Y-107248086D01*
X123480863Y-107222378D01*
X123480858Y-107222371D01*
X123392625Y-107107383D01*
X123392616Y-107107374D01*
X123277628Y-107019141D01*
X123277621Y-107019136D01*
X123143713Y-106963671D01*
X123143710Y-106963670D01*
X123143709Y-106963670D01*
X123000000Y-106944750D01*
X122856291Y-106963670D01*
X122856289Y-106963670D01*
X122856287Y-106963671D01*
X122856285Y-106963671D01*
X122722378Y-107019136D01*
X122722371Y-107019141D01*
X122607383Y-107107374D01*
X122607374Y-107107383D01*
X122519141Y-107222371D01*
X122519136Y-107222378D01*
X122463671Y-107356285D01*
X122463671Y-107356287D01*
X122463670Y-107356289D01*
X122463670Y-107356291D01*
X122444750Y-107500000D01*
X121555250Y-107500000D01*
X121536330Y-107356291D01*
X121491511Y-107248086D01*
X121480863Y-107222378D01*
X121480858Y-107222371D01*
X121392625Y-107107383D01*
X121392616Y-107107374D01*
X121277628Y-107019141D01*
X121277621Y-107019136D01*
X121143713Y-106963671D01*
X121143710Y-106963670D01*
X121143709Y-106963670D01*
X121000000Y-106944750D01*
X120856291Y-106963670D01*
X120856289Y-106963670D01*
X120856287Y-106963671D01*
X120856285Y-106963671D01*
X120722378Y-107019136D01*
X120722371Y-107019141D01*
X120607383Y-107107374D01*
X120607374Y-107107383D01*
X120519141Y-107222371D01*
X120519136Y-107222378D01*
X120463671Y-107356285D01*
X120463671Y-107356287D01*
X120463670Y-107356289D01*
X120463670Y-107356291D01*
X120444750Y-107500000D01*
X119555250Y-107500000D01*
X119536330Y-107356291D01*
X119491511Y-107248086D01*
X119480863Y-107222378D01*
X119480858Y-107222371D01*
X119392625Y-107107383D01*
X119392616Y-107107374D01*
X119277628Y-107019141D01*
X119277621Y-107019136D01*
X119143713Y-106963671D01*
X119143710Y-106963670D01*
X119143709Y-106963670D01*
X119000000Y-106944750D01*
X118856291Y-106963670D01*
X118856289Y-106963670D01*
X118856287Y-106963671D01*
X118856285Y-106963671D01*
X118722378Y-107019136D01*
X118722371Y-107019141D01*
X118607383Y-107107374D01*
X118607374Y-107107383D01*
X118519141Y-107222371D01*
X118519136Y-107222378D01*
X118463671Y-107356285D01*
X118463671Y-107356287D01*
X118463670Y-107356289D01*
X118463670Y-107356291D01*
X118444750Y-107500000D01*
X95500500Y-107500000D01*
X95500500Y-101000000D01*
X130844571Y-101000000D01*
X130864243Y-101212306D01*
X130864244Y-101212314D01*
X130922591Y-101417379D01*
X130922595Y-101417388D01*
X131017631Y-101608251D01*
X131017633Y-101608254D01*
X131017634Y-101608255D01*
X131146128Y-101778407D01*
X131271078Y-101892315D01*
X131328727Y-101970515D01*
X131352061Y-102064826D01*
X131337528Y-102160888D01*
X131287340Y-102244076D01*
X131241666Y-102283361D01*
X131157840Y-102339372D01*
X131039371Y-102457841D01*
X130946298Y-102597135D01*
X130946295Y-102597140D01*
X130882185Y-102751913D01*
X130882184Y-102751917D01*
X130882184Y-102751918D01*
X130849500Y-102916233D01*
X130849500Y-103083767D01*
X130874588Y-103209892D01*
X130882185Y-103248086D01*
X130946295Y-103402859D01*
X130946298Y-103402864D01*
X131029662Y-103527628D01*
X131039374Y-103542162D01*
X131157838Y-103660626D01*
X131297137Y-103753703D01*
X131336373Y-103769955D01*
X131417154Y-103823933D01*
X131471129Y-103904715D01*
X131490082Y-104000003D01*
X131471127Y-104095291D01*
X131417149Y-104176072D01*
X131336373Y-104230044D01*
X131316938Y-104238094D01*
X131297134Y-104246298D01*
X131157841Y-104339371D01*
X131039371Y-104457841D01*
X130946298Y-104597135D01*
X130946295Y-104597140D01*
X130882185Y-104751913D01*
X130882184Y-104751917D01*
X130882184Y-104751918D01*
X130849500Y-104916233D01*
X130849500Y-105083767D01*
X130857368Y-105123320D01*
X130882185Y-105248086D01*
X130917817Y-105334107D01*
X130946297Y-105402863D01*
X131039374Y-105542162D01*
X131157838Y-105660626D01*
X131297137Y-105753703D01*
X131336373Y-105769955D01*
X131417154Y-105823933D01*
X131471129Y-105904715D01*
X131490082Y-106000003D01*
X131471127Y-106095291D01*
X131417149Y-106176072D01*
X131336373Y-106230044D01*
X131316938Y-106238094D01*
X131297134Y-106246298D01*
X131157841Y-106339371D01*
X131039371Y-106457841D01*
X130946298Y-106597135D01*
X130946295Y-106597140D01*
X130882185Y-106751913D01*
X130882184Y-106751917D01*
X130882184Y-106751918D01*
X130849500Y-106916233D01*
X130849500Y-107083767D01*
X130877070Y-107222371D01*
X130882185Y-107248086D01*
X130927004Y-107356287D01*
X130946297Y-107402863D01*
X131039374Y-107542162D01*
X131157838Y-107660626D01*
X131157841Y-107660628D01*
X131241664Y-107716637D01*
X131310363Y-107785336D01*
X131347543Y-107875096D01*
X131347542Y-107972251D01*
X131310363Y-108062010D01*
X131271080Y-108107682D01*
X131159442Y-108209454D01*
X131146129Y-108221592D01*
X131017631Y-108391748D01*
X130922595Y-108582611D01*
X130922591Y-108582620D01*
X130864244Y-108787685D01*
X130864243Y-108787693D01*
X130844571Y-109000000D01*
X130864243Y-109212306D01*
X130864244Y-109212314D01*
X130922591Y-109417379D01*
X130922594Y-109417386D01*
X130922595Y-109417389D01*
X130954013Y-109480485D01*
X131017631Y-109608251D01*
X131017633Y-109608254D01*
X131017634Y-109608255D01*
X131146128Y-109778407D01*
X131303698Y-109922052D01*
X131303702Y-109922054D01*
X131303705Y-109922057D01*
X131398681Y-109980863D01*
X131484981Y-110034298D01*
X131683802Y-110111321D01*
X131776231Y-110128599D01*
X131893387Y-110150500D01*
X131893390Y-110150500D01*
X132106613Y-110150500D01*
X132196433Y-110133709D01*
X132316198Y-110111321D01*
X132515019Y-110034298D01*
X132696302Y-109922052D01*
X132853872Y-109778407D01*
X132982366Y-109608255D01*
X133077405Y-109417389D01*
X133135756Y-109212310D01*
X133155429Y-109000000D01*
X133135756Y-108787690D01*
X133077405Y-108582611D01*
X133014307Y-108455892D01*
X132982368Y-108391748D01*
X132982366Y-108391745D01*
X132853872Y-108221593D01*
X132728920Y-108107683D01*
X132671272Y-108029484D01*
X132647938Y-107935173D01*
X132662471Y-107839111D01*
X132712659Y-107755923D01*
X132758336Y-107716637D01*
X132842156Y-107660630D01*
X132842155Y-107660630D01*
X132842162Y-107660626D01*
X132960626Y-107542162D01*
X133053703Y-107402863D01*
X133117816Y-107248082D01*
X133150500Y-107083767D01*
X133150500Y-106916233D01*
X133117816Y-106751918D01*
X133053703Y-106597137D01*
X132960626Y-106457838D01*
X132842162Y-106339374D01*
X132702863Y-106246297D01*
X132663624Y-106230043D01*
X132582847Y-106176069D01*
X132528871Y-106095287D01*
X132509917Y-105999999D01*
X143994659Y-105999999D01*
X144013975Y-106196131D01*
X144071185Y-106384725D01*
X144071188Y-106384733D01*
X144164088Y-106558536D01*
X144195770Y-106597140D01*
X144289117Y-106710883D01*
X144441462Y-106835910D01*
X144467876Y-106850028D01*
X144542976Y-106911659D01*
X144588777Y-106997341D01*
X144599500Y-107069627D01*
X144599500Y-111447273D01*
X144599500Y-111552727D01*
X144626793Y-111654588D01*
X144679520Y-111745913D01*
X146754087Y-113820480D01*
X146841953Y-113871210D01*
X146914996Y-113935268D01*
X146943119Y-113981613D01*
X147015965Y-114137830D01*
X147151505Y-114331401D01*
X147311898Y-114491794D01*
X147365872Y-114572573D01*
X147384826Y-114667861D01*
X147365872Y-114763149D01*
X147311896Y-114843931D01*
X147231114Y-114897907D01*
X147135826Y-114916861D01*
X147096876Y-114913796D01*
X147006614Y-114899500D01*
X147006611Y-114899500D01*
X146833389Y-114899500D01*
X146833386Y-114899500D01*
X146833378Y-114899501D01*
X146662302Y-114926597D01*
X146497562Y-114980124D01*
X146497556Y-114980126D01*
X146343207Y-115058770D01*
X146203077Y-115160581D01*
X146080581Y-115283077D01*
X145978770Y-115423207D01*
X145900126Y-115577556D01*
X145900124Y-115577562D01*
X145846597Y-115742302D01*
X145819501Y-115913378D01*
X145819500Y-115913393D01*
X145819500Y-116086606D01*
X145819501Y-116086621D01*
X145846597Y-116257697D01*
X145900124Y-116422437D01*
X145900126Y-116422443D01*
X145978770Y-116576792D01*
X146080581Y-116716922D01*
X146080583Y-116716924D01*
X146080586Y-116716928D01*
X146203072Y-116839414D01*
X146203075Y-116839416D01*
X146203077Y-116839418D01*
X146343207Y-116941229D01*
X146343209Y-116941230D01*
X146343212Y-116941232D01*
X146497555Y-117019873D01*
X146662299Y-117073402D01*
X146833389Y-117100500D01*
X146833393Y-117100500D01*
X147006607Y-117100500D01*
X147006611Y-117100500D01*
X147177701Y-117073402D01*
X147342445Y-117019873D01*
X147496788Y-116941232D01*
X147636928Y-116839414D01*
X147759414Y-116716928D01*
X147861232Y-116576788D01*
X147939873Y-116422445D01*
X147993402Y-116257701D01*
X148020500Y-116086611D01*
X148020500Y-115913389D01*
X148010855Y-115852493D01*
X149749500Y-115852493D01*
X149749500Y-116147506D01*
X149785696Y-116422445D01*
X149788007Y-116439993D01*
X149809443Y-116519993D01*
X149864360Y-116724950D01*
X149977253Y-116997499D01*
X149977255Y-116997503D01*
X149977257Y-116997507D01*
X150061668Y-117143712D01*
X150124759Y-117252989D01*
X150124762Y-117252994D01*
X150299612Y-117480863D01*
X150304354Y-117487042D01*
X150512958Y-117695646D01*
X150747006Y-117875238D01*
X151002493Y-118022743D01*
X151275048Y-118135639D01*
X151560007Y-118211993D01*
X151779372Y-118240873D01*
X151852493Y-118250500D01*
X151852494Y-118250500D01*
X152147507Y-118250500D01*
X152196253Y-118244082D01*
X152439993Y-118211993D01*
X152724952Y-118135639D01*
X152997507Y-118022743D01*
X153252994Y-117875238D01*
X153487042Y-117695646D01*
X153695646Y-117487042D01*
X153875238Y-117252994D01*
X154022743Y-116997507D01*
X154135639Y-116724952D01*
X154211993Y-116439993D01*
X154250500Y-116147506D01*
X154250500Y-115913393D01*
X155979500Y-115913393D01*
X155979500Y-116086606D01*
X155979501Y-116086621D01*
X156006597Y-116257697D01*
X156060124Y-116422437D01*
X156060126Y-116422443D01*
X156138770Y-116576792D01*
X156240581Y-116716922D01*
X156240583Y-116716924D01*
X156240586Y-116716928D01*
X156363072Y-116839414D01*
X156363075Y-116839416D01*
X156363077Y-116839418D01*
X156503207Y-116941229D01*
X156503209Y-116941230D01*
X156503212Y-116941232D01*
X156657555Y-117019873D01*
X156822299Y-117073402D01*
X156993389Y-117100500D01*
X156993393Y-117100500D01*
X157166607Y-117100500D01*
X157166611Y-117100500D01*
X157337701Y-117073402D01*
X157502445Y-117019873D01*
X157656788Y-116941232D01*
X157796928Y-116839414D01*
X157919414Y-116716928D01*
X158021232Y-116576788D01*
X158099873Y-116422445D01*
X158153402Y-116257701D01*
X158180500Y-116086611D01*
X158180500Y-115993393D01*
X167779500Y-115993393D01*
X167779500Y-116166606D01*
X167779501Y-116166621D01*
X167806597Y-116337697D01*
X167860124Y-116502437D01*
X167860126Y-116502443D01*
X167938770Y-116656792D01*
X168040581Y-116796922D01*
X168040583Y-116796924D01*
X168040586Y-116796928D01*
X168163072Y-116919414D01*
X168163075Y-116919416D01*
X168163077Y-116919418D01*
X168303207Y-117021229D01*
X168303209Y-117021230D01*
X168303212Y-117021232D01*
X168457555Y-117099873D01*
X168622299Y-117153402D01*
X168793389Y-117180500D01*
X168793393Y-117180500D01*
X168966607Y-117180500D01*
X168966611Y-117180500D01*
X169137701Y-117153402D01*
X169302445Y-117099873D01*
X169456788Y-117021232D01*
X169596928Y-116919414D01*
X169719414Y-116796928D01*
X169821232Y-116656788D01*
X169899873Y-116502445D01*
X169953402Y-116337701D01*
X169980500Y-116166611D01*
X169980500Y-115993389D01*
X169970855Y-115932493D01*
X171709500Y-115932493D01*
X171709500Y-116227506D01*
X171748006Y-116519988D01*
X171824360Y-116804950D01*
X171937253Y-117077499D01*
X171937255Y-117077503D01*
X171937257Y-117077507D01*
X171975482Y-117143714D01*
X172084759Y-117332989D01*
X172084762Y-117332994D01*
X172255305Y-117555250D01*
X172264354Y-117567042D01*
X172472958Y-117775646D01*
X172707006Y-117955238D01*
X172962493Y-118102743D01*
X173235048Y-118215639D01*
X173520007Y-118291993D01*
X173739372Y-118320873D01*
X173812493Y-118330500D01*
X173812494Y-118330500D01*
X174107507Y-118330500D01*
X174156253Y-118324082D01*
X174399993Y-118291993D01*
X174684952Y-118215639D01*
X174957507Y-118102743D01*
X175212994Y-117955238D01*
X175447042Y-117775646D01*
X175655646Y-117567042D01*
X175835238Y-117332994D01*
X175982743Y-117077507D01*
X176095639Y-116804952D01*
X176171993Y-116519993D01*
X176210500Y-116227506D01*
X176210500Y-115993393D01*
X177939500Y-115993393D01*
X177939500Y-116166606D01*
X177939501Y-116166621D01*
X177966597Y-116337697D01*
X178020124Y-116502437D01*
X178020126Y-116502443D01*
X178098770Y-116656792D01*
X178200581Y-116796922D01*
X178200583Y-116796924D01*
X178200586Y-116796928D01*
X178323072Y-116919414D01*
X178323075Y-116919416D01*
X178323077Y-116919418D01*
X178463207Y-117021229D01*
X178463209Y-117021230D01*
X178463212Y-117021232D01*
X178617555Y-117099873D01*
X178782299Y-117153402D01*
X178953389Y-117180500D01*
X178953393Y-117180500D01*
X179126607Y-117180500D01*
X179126611Y-117180500D01*
X179297701Y-117153402D01*
X179462445Y-117099873D01*
X179616788Y-117021232D01*
X179756928Y-116919414D01*
X179879414Y-116796928D01*
X179981232Y-116656788D01*
X180059873Y-116502445D01*
X180113402Y-116337701D01*
X180140500Y-116166611D01*
X180140500Y-115993389D01*
X180113402Y-115822299D01*
X180059873Y-115657555D01*
X179981232Y-115503212D01*
X179981230Y-115503209D01*
X179981229Y-115503207D01*
X179879418Y-115363077D01*
X179879416Y-115363075D01*
X179879414Y-115363072D01*
X179756928Y-115240586D01*
X179756924Y-115240583D01*
X179756922Y-115240581D01*
X179616792Y-115138770D01*
X179462443Y-115060126D01*
X179462437Y-115060124D01*
X179336298Y-115019139D01*
X179297701Y-115006598D01*
X179297699Y-115006597D01*
X179297697Y-115006597D01*
X179126621Y-114979501D01*
X179126614Y-114979500D01*
X179126611Y-114979500D01*
X178953389Y-114979500D01*
X178953386Y-114979500D01*
X178953378Y-114979501D01*
X178782302Y-115006597D01*
X178617562Y-115060124D01*
X178617556Y-115060126D01*
X178463207Y-115138770D01*
X178323077Y-115240581D01*
X178200581Y-115363077D01*
X178098770Y-115503207D01*
X178020126Y-115657556D01*
X178020124Y-115657562D01*
X177966597Y-115822302D01*
X177939501Y-115993378D01*
X177939500Y-115993393D01*
X176210500Y-115993393D01*
X176210500Y-115932494D01*
X176171993Y-115640007D01*
X176095639Y-115355048D01*
X175982743Y-115082493D01*
X175835238Y-114827006D01*
X175655646Y-114592958D01*
X175447042Y-114384354D01*
X175447037Y-114384350D01*
X175447036Y-114384349D01*
X175212994Y-114204762D01*
X175212989Y-114204759D01*
X175074424Y-114124759D01*
X174957507Y-114057257D01*
X174957505Y-114057256D01*
X174957503Y-114057255D01*
X174957499Y-114057253D01*
X174684950Y-113944360D01*
X174561555Y-113911297D01*
X174399993Y-113868007D01*
X174399988Y-113868006D01*
X174399989Y-113868006D01*
X174107507Y-113829500D01*
X174107506Y-113829500D01*
X173812494Y-113829500D01*
X173812493Y-113829500D01*
X173520011Y-113868006D01*
X173235049Y-113944360D01*
X172962500Y-114057253D01*
X172962496Y-114057255D01*
X172707010Y-114204759D01*
X172707005Y-114204762D01*
X172472963Y-114384349D01*
X172264349Y-114592963D01*
X172084762Y-114827005D01*
X172084759Y-114827010D01*
X171937255Y-115082496D01*
X171937253Y-115082500D01*
X171824360Y-115355049D01*
X171748006Y-115640011D01*
X171709500Y-115932493D01*
X169970855Y-115932493D01*
X169953402Y-115822299D01*
X169899873Y-115657555D01*
X169821232Y-115503212D01*
X169821230Y-115503209D01*
X169821229Y-115503207D01*
X169719418Y-115363077D01*
X169719416Y-115363075D01*
X169719414Y-115363072D01*
X169638437Y-115282095D01*
X169584464Y-115201317D01*
X169565510Y-115106029D01*
X169584464Y-115010741D01*
X169638440Y-114929959D01*
X169719222Y-114875983D01*
X169814510Y-114857029D01*
X169878950Y-114865513D01*
X169914592Y-114875063D01*
X169914595Y-114875063D01*
X169914598Y-114875064D01*
X170149995Y-114895659D01*
X170150000Y-114895659D01*
X170150005Y-114895659D01*
X170385401Y-114875064D01*
X170385403Y-114875063D01*
X170385408Y-114875063D01*
X170613663Y-114813903D01*
X170827830Y-114714035D01*
X171021401Y-114578495D01*
X171188495Y-114411401D01*
X171324035Y-114217830D01*
X171423903Y-114003663D01*
X171485063Y-113775408D01*
X171485064Y-113775401D01*
X171505659Y-113540005D01*
X171505659Y-113539994D01*
X171485064Y-113304598D01*
X171485063Y-113304595D01*
X171485063Y-113304592D01*
X171423903Y-113076337D01*
X171324035Y-112862171D01*
X171188495Y-112668599D01*
X171021401Y-112501505D01*
X170827830Y-112365965D01*
X170613663Y-112266097D01*
X170613660Y-112266096D01*
X170385401Y-112204935D01*
X170150005Y-112184341D01*
X170149995Y-112184341D01*
X169914598Y-112204935D01*
X169686335Y-112266097D01*
X169686333Y-112266098D01*
X169472177Y-112365961D01*
X169472169Y-112365965D01*
X169278600Y-112501504D01*
X169111504Y-112668600D01*
X168975965Y-112862169D01*
X168975961Y-112862177D01*
X168876098Y-113076333D01*
X168876097Y-113076335D01*
X168814935Y-113304598D01*
X168794341Y-113539994D01*
X168794341Y-113540005D01*
X168814935Y-113775401D01*
X168869021Y-113977257D01*
X168876097Y-114003663D01*
X168932565Y-114124759D01*
X168975965Y-114217830D01*
X169055485Y-114331397D01*
X169111505Y-114411401D01*
X169271898Y-114571794D01*
X169325872Y-114652573D01*
X169344826Y-114747861D01*
X169325872Y-114843149D01*
X169271896Y-114923931D01*
X169191114Y-114977907D01*
X169095826Y-114996861D01*
X169056876Y-114993796D01*
X168966614Y-114979500D01*
X168966611Y-114979500D01*
X168793389Y-114979500D01*
X168793386Y-114979500D01*
X168793378Y-114979501D01*
X168622302Y-115006597D01*
X168457562Y-115060124D01*
X168457556Y-115060126D01*
X168303207Y-115138770D01*
X168163077Y-115240581D01*
X168040581Y-115363077D01*
X167938770Y-115503207D01*
X167860126Y-115657556D01*
X167860124Y-115657562D01*
X167806597Y-115822302D01*
X167779501Y-115993378D01*
X167779500Y-115993393D01*
X158180500Y-115993393D01*
X158180500Y-115913389D01*
X158153402Y-115742299D01*
X158099873Y-115577555D01*
X158021232Y-115423212D01*
X158021230Y-115423209D01*
X158021229Y-115423207D01*
X157919418Y-115283077D01*
X157919416Y-115283075D01*
X157919414Y-115283072D01*
X157796928Y-115160586D01*
X157796924Y-115160583D01*
X157796922Y-115160581D01*
X157656792Y-115058770D01*
X157502443Y-114980126D01*
X157502437Y-114980124D01*
X157408195Y-114949503D01*
X157337701Y-114926598D01*
X157337699Y-114926597D01*
X157337697Y-114926597D01*
X157166621Y-114899501D01*
X157166614Y-114899500D01*
X157166611Y-114899500D01*
X156993389Y-114899500D01*
X156993386Y-114899500D01*
X156993378Y-114899501D01*
X156822302Y-114926597D01*
X156657562Y-114980124D01*
X156657556Y-114980126D01*
X156503207Y-115058770D01*
X156363077Y-115160581D01*
X156240581Y-115283077D01*
X156138770Y-115423207D01*
X156060126Y-115577556D01*
X156060124Y-115577562D01*
X156006597Y-115742302D01*
X155979501Y-115913378D01*
X155979500Y-115913393D01*
X154250500Y-115913393D01*
X154250500Y-115852494D01*
X154211993Y-115560007D01*
X154135639Y-115275048D01*
X154029637Y-115019136D01*
X154022746Y-115002500D01*
X154022744Y-115002496D01*
X154022743Y-115002493D01*
X153875238Y-114747006D01*
X153745936Y-114578497D01*
X153695650Y-114512963D01*
X153695649Y-114512962D01*
X153695646Y-114512958D01*
X153487042Y-114304354D01*
X153487037Y-114304350D01*
X153487036Y-114304349D01*
X153252994Y-114124762D01*
X153252989Y-114124759D01*
X153184526Y-114085232D01*
X152997507Y-113977257D01*
X152997505Y-113977256D01*
X152997503Y-113977255D01*
X152997499Y-113977253D01*
X152724950Y-113864360D01*
X152594848Y-113829500D01*
X152439993Y-113788007D01*
X152439988Y-113788006D01*
X152439989Y-113788006D01*
X152147507Y-113749500D01*
X152147506Y-113749500D01*
X151852494Y-113749500D01*
X151852493Y-113749500D01*
X151560011Y-113788006D01*
X151275049Y-113864360D01*
X151002500Y-113977253D01*
X151002496Y-113977255D01*
X150747010Y-114124759D01*
X150747005Y-114124762D01*
X150512963Y-114304349D01*
X150304349Y-114512963D01*
X150124762Y-114747005D01*
X150124759Y-114747010D01*
X149977255Y-115002496D01*
X149977253Y-115002500D01*
X149864360Y-115275049D01*
X149788006Y-115560011D01*
X149749500Y-115852493D01*
X148010855Y-115852493D01*
X147993402Y-115742299D01*
X147939873Y-115577555D01*
X147861232Y-115423212D01*
X147861230Y-115423209D01*
X147861229Y-115423207D01*
X147759418Y-115283077D01*
X147759416Y-115283075D01*
X147759414Y-115283072D01*
X147678437Y-115202095D01*
X147624464Y-115121317D01*
X147605510Y-115026029D01*
X147624464Y-114930741D01*
X147678440Y-114849959D01*
X147759222Y-114795983D01*
X147854510Y-114777029D01*
X147918950Y-114785513D01*
X147954592Y-114795063D01*
X147954595Y-114795063D01*
X147954598Y-114795064D01*
X148189995Y-114815659D01*
X148190000Y-114815659D01*
X148190005Y-114815659D01*
X148425401Y-114795064D01*
X148425403Y-114795063D01*
X148425408Y-114795063D01*
X148653663Y-114733903D01*
X148867830Y-114634035D01*
X149061401Y-114498495D01*
X149228495Y-114331401D01*
X149364035Y-114137830D01*
X149463903Y-113923663D01*
X149525063Y-113695408D01*
X149529586Y-113643712D01*
X149545659Y-113460005D01*
X149545659Y-113459994D01*
X149525064Y-113224598D01*
X149525063Y-113224595D01*
X149525063Y-113224592D01*
X149463903Y-112996337D01*
X149364035Y-112782171D01*
X149228495Y-112588599D01*
X149061401Y-112421505D01*
X148959995Y-112350500D01*
X148867830Y-112285965D01*
X148801563Y-112255064D01*
X148653663Y-112186097D01*
X148653660Y-112186096D01*
X148425401Y-112124935D01*
X148190005Y-112104341D01*
X148189995Y-112104341D01*
X147954598Y-112124935D01*
X147726335Y-112186097D01*
X147726333Y-112186098D01*
X147512177Y-112285961D01*
X147512169Y-112285965D01*
X147318600Y-112421504D01*
X147151503Y-112588601D01*
X147117229Y-112637550D01*
X147047047Y-112704733D01*
X146956498Y-112739945D01*
X146859366Y-112737825D01*
X146770439Y-112698696D01*
X146737191Y-112670798D01*
X145473430Y-111407037D01*
X145419454Y-111326255D01*
X145400500Y-111230967D01*
X145400500Y-110919994D01*
X153184341Y-110919994D01*
X153184341Y-110920005D01*
X153204935Y-111155401D01*
X153252818Y-111334107D01*
X153266097Y-111383663D01*
X153365965Y-111597830D01*
X153501505Y-111791401D01*
X153668599Y-111958495D01*
X153862170Y-112094035D01*
X154076337Y-112193903D01*
X154304592Y-112255063D01*
X154304595Y-112255063D01*
X154304598Y-112255064D01*
X154539995Y-112275659D01*
X154540000Y-112275659D01*
X154540005Y-112275659D01*
X154775401Y-112255064D01*
X154775403Y-112255063D01*
X154775408Y-112255063D01*
X155003663Y-112193903D01*
X155217830Y-112094035D01*
X155411401Y-111958495D01*
X155578495Y-111791401D01*
X155714035Y-111597830D01*
X155813903Y-111383663D01*
X155875063Y-111155408D01*
X155879361Y-111106284D01*
X155888661Y-110999994D01*
X175144341Y-110999994D01*
X175144341Y-111000005D01*
X175164935Y-111235401D01*
X175204660Y-111383660D01*
X175226097Y-111463663D01*
X175310056Y-111643714D01*
X175325965Y-111677830D01*
X175405485Y-111791397D01*
X175461505Y-111871401D01*
X175628599Y-112038495D01*
X175822170Y-112174035D01*
X176036337Y-112273903D01*
X176264592Y-112335063D01*
X176264595Y-112335063D01*
X176264598Y-112335064D01*
X176499995Y-112355659D01*
X176500000Y-112355659D01*
X176500005Y-112355659D01*
X176735401Y-112335064D01*
X176735403Y-112335063D01*
X176735408Y-112335063D01*
X176963663Y-112273903D01*
X177177830Y-112174035D01*
X177371401Y-112038495D01*
X177538495Y-111871401D01*
X177674035Y-111677830D01*
X177773903Y-111463663D01*
X177835063Y-111235408D01*
X177836203Y-111222378D01*
X177855659Y-111000005D01*
X177855659Y-110999994D01*
X177835064Y-110764598D01*
X177835063Y-110764595D01*
X177835063Y-110764592D01*
X177773903Y-110536337D01*
X177733955Y-110450670D01*
X177674038Y-110322177D01*
X177674034Y-110322169D01*
X177553830Y-110150500D01*
X177538495Y-110128599D01*
X177371401Y-109961505D01*
X177315063Y-109922057D01*
X177177830Y-109825965D01*
X177177821Y-109825961D01*
X176963663Y-109726097D01*
X176963660Y-109726096D01*
X176735401Y-109664935D01*
X176500005Y-109644341D01*
X176499995Y-109644341D01*
X176264598Y-109664935D01*
X176036335Y-109726097D01*
X176036333Y-109726098D01*
X175822177Y-109825961D01*
X175822169Y-109825965D01*
X175628600Y-109961504D01*
X175461504Y-110128600D01*
X175325965Y-110322169D01*
X175325961Y-110322177D01*
X175226098Y-110536333D01*
X175226097Y-110536335D01*
X175164935Y-110764598D01*
X175144341Y-110999994D01*
X155888661Y-110999994D01*
X155895659Y-110920005D01*
X155895659Y-110919994D01*
X155875064Y-110684598D01*
X155875063Y-110684595D01*
X155875063Y-110684592D01*
X155813903Y-110456337D01*
X155714035Y-110242171D01*
X155578495Y-110048599D01*
X155411401Y-109881505D01*
X155217830Y-109745965D01*
X155003663Y-109646097D01*
X155003660Y-109646096D01*
X154775401Y-109584935D01*
X154540005Y-109564341D01*
X154539995Y-109564341D01*
X154304598Y-109584935D01*
X154076335Y-109646097D01*
X154076333Y-109646098D01*
X153862177Y-109745961D01*
X153862169Y-109745965D01*
X153668600Y-109881504D01*
X153501504Y-110048600D01*
X153365965Y-110242169D01*
X153365961Y-110242177D01*
X153266098Y-110456333D01*
X153266097Y-110456335D01*
X153204935Y-110684598D01*
X153184341Y-110919994D01*
X145400500Y-110919994D01*
X145400500Y-107069627D01*
X145419454Y-106974339D01*
X145473430Y-106893557D01*
X145532122Y-106850029D01*
X145558538Y-106835910D01*
X145710883Y-106710883D01*
X145835910Y-106558538D01*
X145928814Y-106384727D01*
X145986024Y-106196132D01*
X146005341Y-106000000D01*
X145986024Y-105803868D01*
X145928814Y-105615273D01*
X145928812Y-105615270D01*
X145928811Y-105615266D01*
X145835911Y-105441463D01*
X145800955Y-105398870D01*
X145710883Y-105289117D01*
X145558538Y-105164090D01*
X145558539Y-105164090D01*
X145558536Y-105164088D01*
X145384733Y-105071188D01*
X145384725Y-105071185D01*
X145196131Y-105013975D01*
X145000000Y-104994659D01*
X144803868Y-105013975D01*
X144615274Y-105071185D01*
X144615266Y-105071188D01*
X144441463Y-105164088D01*
X144289120Y-105289114D01*
X144289114Y-105289120D01*
X144164088Y-105441463D01*
X144071188Y-105615266D01*
X144071185Y-105615274D01*
X144013975Y-105803868D01*
X143994659Y-105999999D01*
X132509917Y-105999999D01*
X132528871Y-105904711D01*
X132582848Y-105823930D01*
X132663624Y-105769956D01*
X132702863Y-105753703D01*
X132842162Y-105660626D01*
X132960626Y-105542162D01*
X133053703Y-105402863D01*
X133117816Y-105248082D01*
X133150500Y-105083767D01*
X133150500Y-104916233D01*
X133117816Y-104751918D01*
X133053703Y-104597137D01*
X132960626Y-104457838D01*
X132842162Y-104339374D01*
X132792937Y-104306483D01*
X132702866Y-104246299D01*
X132702865Y-104246298D01*
X132702863Y-104246297D01*
X132663624Y-104230043D01*
X132582847Y-104176069D01*
X132528871Y-104095287D01*
X132509917Y-103999999D01*
X132528871Y-103904711D01*
X132582848Y-103823930D01*
X132663624Y-103769956D01*
X132702863Y-103753703D01*
X132842162Y-103660626D01*
X132960626Y-103542162D01*
X133053703Y-103402863D01*
X133117816Y-103248082D01*
X133150500Y-103083767D01*
X133150500Y-102916233D01*
X133117816Y-102751918D01*
X133053703Y-102597137D01*
X132960626Y-102457838D01*
X132842162Y-102339374D01*
X132842158Y-102339371D01*
X132842157Y-102339370D01*
X132758334Y-102283361D01*
X132689636Y-102214662D01*
X132652456Y-102124903D01*
X132652457Y-102027748D01*
X132689637Y-101937988D01*
X132728915Y-101892320D01*
X132853872Y-101778407D01*
X132982366Y-101608255D01*
X133077405Y-101417389D01*
X133135756Y-101212310D01*
X133155429Y-101000000D01*
X133135756Y-100787690D01*
X133135755Y-100787685D01*
X133077408Y-100582620D01*
X133077406Y-100582617D01*
X133077405Y-100582611D01*
X133001176Y-100429520D01*
X132982368Y-100391748D01*
X132982366Y-100391745D01*
X132853872Y-100221593D01*
X132696302Y-100077948D01*
X132696297Y-100077945D01*
X132696294Y-100077942D01*
X132515022Y-99965704D01*
X132515019Y-99965702D01*
X132408485Y-99924431D01*
X132316198Y-99888679D01*
X132316195Y-99888678D01*
X132316194Y-99888678D01*
X132106613Y-99849500D01*
X132106610Y-99849500D01*
X131893390Y-99849500D01*
X131893387Y-99849500D01*
X131683805Y-99888678D01*
X131484980Y-99965702D01*
X131484977Y-99965704D01*
X131303705Y-100077942D01*
X131146129Y-100221592D01*
X131017631Y-100391748D01*
X130922595Y-100582611D01*
X130922591Y-100582620D01*
X130864244Y-100787685D01*
X130864243Y-100787693D01*
X130844571Y-101000000D01*
X95500500Y-101000000D01*
X95500500Y-91348754D01*
X95500500Y-91348748D01*
X95464037Y-91048449D01*
X95391643Y-90754734D01*
X95284373Y-90471887D01*
X95161903Y-90238540D01*
X95143799Y-90204045D01*
X95143795Y-90204040D01*
X95143792Y-90204033D01*
X95084588Y-90118262D01*
X95044076Y-90059568D01*
X95005546Y-89970380D01*
X95000000Y-89918121D01*
X95000000Y-89665335D01*
X95018954Y-89570047D01*
X95061794Y-89501156D01*
X95062808Y-89500000D01*
X95066193Y-89496140D01*
X95066196Y-89496135D01*
X95066202Y-89496129D01*
X95125757Y-89418516D01*
X95125767Y-89418500D01*
X95125776Y-89418490D01*
X95144343Y-89390702D01*
X95160528Y-89362669D01*
X95175310Y-89332693D01*
X95212766Y-89242266D01*
X95223509Y-89210620D01*
X95231887Y-89179353D01*
X95238407Y-89146576D01*
X95252253Y-89041412D01*
X95253892Y-89024772D01*
X95254953Y-89008586D01*
X95255500Y-88991874D01*
X95255500Y-88500000D01*
X96944750Y-88500000D01*
X96963670Y-88643709D01*
X96963670Y-88643711D01*
X96963671Y-88643712D01*
X96963671Y-88643714D01*
X97019136Y-88777621D01*
X97019141Y-88777628D01*
X97107374Y-88892616D01*
X97107383Y-88892625D01*
X97222371Y-88980858D01*
X97222378Y-88980863D01*
X97328370Y-89024765D01*
X97356291Y-89036330D01*
X97500000Y-89055250D01*
X97643709Y-89036330D01*
X97643714Y-89036328D01*
X97777621Y-88980863D01*
X97777621Y-88980862D01*
X97777625Y-88980861D01*
X97815297Y-88951953D01*
X97902433Y-88908984D01*
X97966878Y-88900500D01*
X122230968Y-88900500D01*
X122326256Y-88919454D01*
X122407037Y-88973430D01*
X123170819Y-89737211D01*
X123170824Y-89737217D01*
X123170825Y-89737217D01*
X123179518Y-89745910D01*
X123179520Y-89745913D01*
X123254087Y-89820480D01*
X123315667Y-89856033D01*
X123345413Y-89873207D01*
X123447273Y-89900501D01*
X123567988Y-89900501D01*
X123568004Y-89900500D01*
X126533122Y-89900500D01*
X126628410Y-89919454D01*
X126684702Y-89951953D01*
X126722375Y-89980861D01*
X126722376Y-89980861D01*
X126722378Y-89980863D01*
X126856286Y-90036328D01*
X126856291Y-90036330D01*
X127000000Y-90055250D01*
X127143709Y-90036330D01*
X127143714Y-90036328D01*
X127277621Y-89980863D01*
X127277622Y-89980862D01*
X127277625Y-89980861D01*
X127392621Y-89892621D01*
X127480861Y-89777625D01*
X127493997Y-89745913D01*
X127536328Y-89643714D01*
X127536328Y-89643713D01*
X127536330Y-89643709D01*
X127555250Y-89500000D01*
X127546297Y-89431998D01*
X127552651Y-89335056D01*
X127595621Y-89247920D01*
X127668665Y-89183861D01*
X127760664Y-89152630D01*
X127793167Y-89150500D01*
X136283122Y-89150500D01*
X136378410Y-89169454D01*
X136434702Y-89201953D01*
X136472375Y-89230861D01*
X136472376Y-89230861D01*
X136472378Y-89230863D01*
X136606286Y-89286328D01*
X136606291Y-89286330D01*
X136750000Y-89305250D01*
X136893709Y-89286330D01*
X136893714Y-89286328D01*
X137027621Y-89230863D01*
X137027622Y-89230862D01*
X137027625Y-89230861D01*
X137142621Y-89142621D01*
X137230861Y-89027625D01*
X137238264Y-89009754D01*
X137286328Y-88893714D01*
X137286328Y-88893713D01*
X137286330Y-88893709D01*
X137305250Y-88750000D01*
X137286330Y-88606291D01*
X137239344Y-88492857D01*
X137220391Y-88397569D01*
X137239345Y-88302281D01*
X137293322Y-88221500D01*
X137317800Y-88200033D01*
X137392621Y-88142621D01*
X137480861Y-88027625D01*
X137484000Y-88020048D01*
X137536328Y-87893714D01*
X137536328Y-87893713D01*
X137536330Y-87893709D01*
X137555250Y-87750000D01*
X137536330Y-87606291D01*
X137536328Y-87606285D01*
X137480863Y-87472378D01*
X137480858Y-87472371D01*
X137392625Y-87357383D01*
X137392616Y-87357374D01*
X137277628Y-87269141D01*
X137277621Y-87269136D01*
X137143713Y-87213671D01*
X137143710Y-87213670D01*
X137143709Y-87213670D01*
X137000000Y-87194750D01*
X136856291Y-87213670D01*
X136856289Y-87213670D01*
X136856287Y-87213671D01*
X136856285Y-87213671D01*
X136707297Y-87275384D01*
X136706439Y-87273312D01*
X136635568Y-87297370D01*
X136603069Y-87299500D01*
X124469033Y-87299500D01*
X124373745Y-87280546D01*
X124292963Y-87226570D01*
X123066393Y-86000000D01*
X139994659Y-86000000D01*
X140013975Y-86196131D01*
X140071185Y-86384725D01*
X140071188Y-86384733D01*
X140164088Y-86558536D01*
X140228706Y-86637272D01*
X140289117Y-86710883D01*
X140322817Y-86738540D01*
X140441463Y-86835911D01*
X140589476Y-86915026D01*
X140664578Y-86976661D01*
X140669638Y-86983036D01*
X140679518Y-86995911D01*
X141261672Y-87578066D01*
X141315648Y-87658847D01*
X141332471Y-87721629D01*
X141338670Y-87768710D01*
X141338670Y-87768711D01*
X141394138Y-87902623D01*
X141394141Y-87902628D01*
X141482374Y-88017616D01*
X141482383Y-88017625D01*
X141597371Y-88105858D01*
X141597378Y-88105863D01*
X141731286Y-88161328D01*
X141731291Y-88161330D01*
X141875000Y-88180250D01*
X142018709Y-88161330D01*
X142018714Y-88161328D01*
X142152621Y-88105863D01*
X142152622Y-88105862D01*
X142152625Y-88105861D01*
X142254589Y-88027621D01*
X142267616Y-88017625D01*
X142267616Y-88017624D01*
X142267621Y-88017621D01*
X142355861Y-87902625D01*
X142411330Y-87768709D01*
X142430250Y-87625000D01*
X142411330Y-87481291D01*
X142409173Y-87476083D01*
X142355863Y-87347378D01*
X142355858Y-87347371D01*
X142267625Y-87232383D01*
X142267616Y-87232374D01*
X142152628Y-87144141D01*
X142152623Y-87144138D01*
X142018711Y-87088670D01*
X141971629Y-87082471D01*
X141879631Y-87051240D01*
X141828065Y-87011672D01*
X141787701Y-86971308D01*
X141733725Y-86890526D01*
X141714771Y-86795238D01*
X141733725Y-86699950D01*
X141771289Y-86637277D01*
X141835910Y-86558538D01*
X141928814Y-86384727D01*
X141986024Y-86196132D01*
X142005341Y-86000000D01*
X141986024Y-85803868D01*
X141928814Y-85615273D01*
X141928812Y-85615270D01*
X141928811Y-85615266D01*
X141835911Y-85441463D01*
X141778909Y-85372007D01*
X141710883Y-85289117D01*
X141622859Y-85216877D01*
X141558536Y-85164088D01*
X141384733Y-85071188D01*
X141384725Y-85071185D01*
X141196131Y-85013975D01*
X141000000Y-84994659D01*
X140803868Y-85013975D01*
X140615274Y-85071185D01*
X140615266Y-85071188D01*
X140441463Y-85164088D01*
X140289120Y-85289114D01*
X140289114Y-85289120D01*
X140164088Y-85441463D01*
X140071188Y-85615266D01*
X140071185Y-85615274D01*
X140013975Y-85803868D01*
X139994659Y-86000000D01*
X123066393Y-86000000D01*
X122613327Y-85546934D01*
X122559351Y-85466152D01*
X122542527Y-85403363D01*
X122536330Y-85356289D01*
X122480863Y-85222378D01*
X122480858Y-85222371D01*
X122392625Y-85107383D01*
X122392616Y-85107374D01*
X122277628Y-85019141D01*
X122277621Y-85019136D01*
X122143713Y-84963671D01*
X122143710Y-84963670D01*
X122143709Y-84963670D01*
X122000000Y-84944750D01*
X121856291Y-84963670D01*
X121856289Y-84963670D01*
X121856287Y-84963671D01*
X121856285Y-84963671D01*
X121722378Y-85019136D01*
X121722371Y-85019141D01*
X121607383Y-85107374D01*
X121607374Y-85107383D01*
X121519141Y-85222371D01*
X121510979Y-85236509D01*
X121509207Y-85235486D01*
X121467060Y-85298554D01*
X121386275Y-85352524D01*
X121290985Y-85371471D01*
X121195699Y-85352510D01*
X121114934Y-85298541D01*
X121058426Y-85242033D01*
X121004450Y-85161251D01*
X120985496Y-85065963D01*
X121004450Y-84970675D01*
X121007351Y-84963671D01*
X121036330Y-84893709D01*
X121055250Y-84750000D01*
X121036330Y-84606291D01*
X121036328Y-84606285D01*
X120980863Y-84472378D01*
X120980858Y-84472371D01*
X120892625Y-84357383D01*
X120892616Y-84357374D01*
X120777628Y-84269141D01*
X120777621Y-84269136D01*
X120643713Y-84213671D01*
X120643710Y-84213670D01*
X120643709Y-84213670D01*
X120500000Y-84194750D01*
X120356291Y-84213670D01*
X120356289Y-84213670D01*
X120356287Y-84213671D01*
X120356285Y-84213671D01*
X120222378Y-84269136D01*
X120222371Y-84269141D01*
X120107383Y-84357374D01*
X120107374Y-84357383D01*
X120019141Y-84472371D01*
X120019136Y-84472378D01*
X119963671Y-84606285D01*
X119963671Y-84606287D01*
X119963670Y-84606289D01*
X119963670Y-84606291D01*
X119952230Y-84693186D01*
X119944750Y-84750000D01*
X119963670Y-84893710D01*
X119990541Y-84958582D01*
X120019139Y-85027625D01*
X120048044Y-85065294D01*
X120091015Y-85152427D01*
X120099500Y-85216877D01*
X120099500Y-85302727D01*
X120126792Y-85404585D01*
X120126793Y-85404588D01*
X120179520Y-85495913D01*
X122358037Y-87674430D01*
X122412013Y-87755212D01*
X122430967Y-87850500D01*
X122412013Y-87945788D01*
X122358037Y-88026570D01*
X122277255Y-88080546D01*
X122181967Y-88099500D01*
X97966878Y-88099500D01*
X97871590Y-88080546D01*
X97815297Y-88048046D01*
X97805911Y-88040844D01*
X97777625Y-88019139D01*
X97777623Y-88019138D01*
X97777621Y-88019136D01*
X97643713Y-87963671D01*
X97643710Y-87963670D01*
X97643709Y-87963670D01*
X97500000Y-87944750D01*
X97356291Y-87963670D01*
X97356289Y-87963670D01*
X97356287Y-87963671D01*
X97356285Y-87963671D01*
X97222378Y-88019136D01*
X97222371Y-88019141D01*
X97107383Y-88107374D01*
X97107374Y-88107383D01*
X97019141Y-88222371D01*
X97019136Y-88222378D01*
X96963671Y-88356285D01*
X96963671Y-88356287D01*
X96963670Y-88356289D01*
X96963670Y-88356291D01*
X96944750Y-88500000D01*
X95255500Y-88500000D01*
X95255500Y-85008125D01*
X95254953Y-84991413D01*
X95253892Y-84975227D01*
X95252253Y-84958587D01*
X95238407Y-84853423D01*
X95231887Y-84820646D01*
X95227570Y-84804536D01*
X95223516Y-84789404D01*
X95223514Y-84789398D01*
X95223509Y-84789379D01*
X95212766Y-84757733D01*
X95175310Y-84667306D01*
X95160528Y-84637330D01*
X95144343Y-84609297D01*
X95143088Y-84607419D01*
X95125788Y-84581526D01*
X95125757Y-84581482D01*
X95066202Y-84503869D01*
X95066196Y-84503862D01*
X95061784Y-84498831D01*
X95013210Y-84414689D01*
X95000000Y-84334663D01*
X95000000Y-84081877D01*
X95018954Y-83986589D01*
X95044077Y-83940429D01*
X95096837Y-83863993D01*
X95143792Y-83795967D01*
X95284373Y-83528113D01*
X95391643Y-83245266D01*
X95464037Y-82951551D01*
X95500500Y-82651252D01*
X95500500Y-82500000D01*
X95500500Y-82434108D01*
X95500500Y-78893703D01*
X97999500Y-78893703D01*
X97999500Y-79106296D01*
X98032753Y-79316240D01*
X98087086Y-79483461D01*
X98098443Y-79518412D01*
X98194949Y-79707816D01*
X98319896Y-79879792D01*
X98470208Y-80030104D01*
X98642184Y-80155051D01*
X98831588Y-80251557D01*
X99033757Y-80317246D01*
X99107601Y-80328941D01*
X99243703Y-80350499D01*
X99243710Y-80350499D01*
X99243713Y-80350500D01*
X99243716Y-80350500D01*
X99756284Y-80350500D01*
X99756287Y-80350500D01*
X99756290Y-80350499D01*
X99756296Y-80350499D01*
X99855476Y-80334789D01*
X99966243Y-80317246D01*
X100168412Y-80251557D01*
X100357816Y-80155051D01*
X100529792Y-80030104D01*
X100680104Y-79879792D01*
X100805051Y-79707816D01*
X100901557Y-79518412D01*
X100967246Y-79316243D01*
X101000500Y-79106287D01*
X101000500Y-78893713D01*
X101000499Y-78893710D01*
X101000499Y-78893703D01*
X113499500Y-78893703D01*
X113499500Y-79106296D01*
X113532753Y-79316240D01*
X113587086Y-79483461D01*
X113598443Y-79518412D01*
X113694949Y-79707816D01*
X113819896Y-79879792D01*
X113970208Y-80030104D01*
X114142184Y-80155051D01*
X114331588Y-80251557D01*
X114533757Y-80317246D01*
X114607601Y-80328941D01*
X114743703Y-80350499D01*
X114743710Y-80350499D01*
X114743713Y-80350500D01*
X114743716Y-80350500D01*
X115256284Y-80350500D01*
X115256287Y-80350500D01*
X115256290Y-80350499D01*
X115256296Y-80350499D01*
X115355476Y-80334789D01*
X115466243Y-80317246D01*
X115668412Y-80251557D01*
X115857816Y-80155051D01*
X116029792Y-80030104D01*
X116180104Y-79879792D01*
X116305051Y-79707816D01*
X116401557Y-79518412D01*
X116467246Y-79316243D01*
X116500500Y-79106287D01*
X116500500Y-78893713D01*
X116500499Y-78893710D01*
X116500499Y-78893703D01*
X116467246Y-78683759D01*
X116467246Y-78683757D01*
X116401557Y-78481588D01*
X116305051Y-78292184D01*
X116180104Y-78120208D01*
X116029792Y-77969896D01*
X115857816Y-77844949D01*
X115668412Y-77748443D01*
X115668409Y-77748442D01*
X115668407Y-77748441D01*
X115466240Y-77682753D01*
X115256296Y-77649500D01*
X115256287Y-77649500D01*
X114743713Y-77649500D01*
X114743703Y-77649500D01*
X114533759Y-77682753D01*
X114331592Y-77748441D01*
X114142182Y-77844950D01*
X113970206Y-77969897D01*
X113819897Y-78120206D01*
X113694950Y-78292182D01*
X113598441Y-78481592D01*
X113532753Y-78683759D01*
X113499500Y-78893703D01*
X101000499Y-78893703D01*
X100967246Y-78683759D01*
X100967246Y-78683757D01*
X100901557Y-78481588D01*
X100805051Y-78292184D01*
X100680104Y-78120208D01*
X100529792Y-77969896D01*
X100357816Y-77844949D01*
X100168412Y-77748443D01*
X100168409Y-77748442D01*
X100168407Y-77748441D01*
X99966240Y-77682753D01*
X99756296Y-77649500D01*
X99756287Y-77649500D01*
X99243713Y-77649500D01*
X99243703Y-77649500D01*
X99033759Y-77682753D01*
X98831592Y-77748441D01*
X98642182Y-77844950D01*
X98470206Y-77969897D01*
X98319897Y-78120206D01*
X98194950Y-78292182D01*
X98098441Y-78481592D01*
X98032753Y-78683759D01*
X97999500Y-78893703D01*
X95500500Y-78893703D01*
X95500500Y-75434108D01*
X95500500Y-75348748D01*
X95464037Y-75048449D01*
X95391643Y-74754734D01*
X95311612Y-74543709D01*
X95284375Y-74471892D01*
X95284367Y-74471875D01*
X95143799Y-74204045D01*
X95143795Y-74204040D01*
X95143792Y-74204033D01*
X95080495Y-74112331D01*
X95044076Y-74059568D01*
X95005546Y-73970380D01*
X95000000Y-73918121D01*
X95000000Y-73665335D01*
X95018954Y-73570047D01*
X95061794Y-73501156D01*
X95065135Y-73497346D01*
X95066193Y-73496140D01*
X95066196Y-73496135D01*
X95066202Y-73496129D01*
X95125757Y-73418516D01*
X95125767Y-73418500D01*
X95125776Y-73418490D01*
X95144343Y-73390702D01*
X95160528Y-73362669D01*
X95175310Y-73332693D01*
X95212766Y-73242266D01*
X95223509Y-73210620D01*
X95231887Y-73179353D01*
X95238407Y-73146576D01*
X95252253Y-73041412D01*
X95253892Y-73024772D01*
X95254953Y-73008586D01*
X95255500Y-72991874D01*
X95255500Y-69008125D01*
X95254953Y-68991413D01*
X95253892Y-68975227D01*
X95252253Y-68958587D01*
X95238407Y-68853423D01*
X95231887Y-68820646D01*
X95223509Y-68789379D01*
X95212766Y-68757733D01*
X95175310Y-68667306D01*
X95160528Y-68637330D01*
X95144343Y-68609297D01*
X95139813Y-68602517D01*
X95125788Y-68581526D01*
X95125757Y-68581482D01*
X95066202Y-68503869D01*
X95066196Y-68503862D01*
X95061784Y-68498831D01*
X95013210Y-68414689D01*
X95000000Y-68334663D01*
X95000000Y-68081877D01*
X95018954Y-67986589D01*
X95044077Y-67940429D01*
X95102156Y-67856287D01*
X95143792Y-67795967D01*
X95284373Y-67528113D01*
X95391643Y-67245266D01*
X95464037Y-66951551D01*
X95500500Y-66651252D01*
X95500500Y-66500000D01*
X95500500Y-66434108D01*
X95500500Y-62893703D01*
X97999500Y-62893703D01*
X97999500Y-63106296D01*
X98032753Y-63316240D01*
X98032754Y-63316243D01*
X98098443Y-63518412D01*
X98194949Y-63707816D01*
X98319896Y-63879792D01*
X98470208Y-64030104D01*
X98642184Y-64155051D01*
X98831588Y-64251557D01*
X99033757Y-64317246D01*
X99107601Y-64328941D01*
X99243703Y-64350499D01*
X99243710Y-64350499D01*
X99243713Y-64350500D01*
X99243716Y-64350500D01*
X99756284Y-64350500D01*
X99756287Y-64350500D01*
X99756290Y-64350499D01*
X99756296Y-64350499D01*
X99855476Y-64334789D01*
X99966243Y-64317246D01*
X100168412Y-64251557D01*
X100357816Y-64155051D01*
X100529792Y-64030104D01*
X100680104Y-63879792D01*
X100805051Y-63707816D01*
X100901557Y-63518412D01*
X100967246Y-63316243D01*
X101000500Y-63106287D01*
X101000500Y-62893713D01*
X101000499Y-62893710D01*
X101000499Y-62893703D01*
X113499500Y-62893703D01*
X113499500Y-63106296D01*
X113532753Y-63316240D01*
X113532754Y-63316243D01*
X113598443Y-63518412D01*
X113694949Y-63707816D01*
X113819896Y-63879792D01*
X113970208Y-64030104D01*
X114142184Y-64155051D01*
X114331588Y-64251557D01*
X114533757Y-64317246D01*
X114607601Y-64328941D01*
X114743703Y-64350499D01*
X114743710Y-64350499D01*
X114743713Y-64350500D01*
X114743716Y-64350500D01*
X115256284Y-64350500D01*
X115256287Y-64350500D01*
X115256290Y-64350499D01*
X115256296Y-64350499D01*
X115355476Y-64334789D01*
X115466243Y-64317246D01*
X115668412Y-64251557D01*
X115857816Y-64155051D01*
X116029792Y-64030104D01*
X116180104Y-63879792D01*
X116305051Y-63707816D01*
X116401557Y-63518412D01*
X116467246Y-63316243D01*
X116500500Y-63106287D01*
X116500500Y-62893713D01*
X116500499Y-62893710D01*
X116500499Y-62893703D01*
X116467246Y-62683759D01*
X116467246Y-62683757D01*
X116401557Y-62481588D01*
X116305051Y-62292184D01*
X116180104Y-62120208D01*
X116029792Y-61969896D01*
X115857816Y-61844949D01*
X115668412Y-61748443D01*
X115668409Y-61748442D01*
X115668407Y-61748441D01*
X115466240Y-61682753D01*
X115256296Y-61649500D01*
X115256287Y-61649500D01*
X114743713Y-61649500D01*
X114743703Y-61649500D01*
X114533759Y-61682753D01*
X114331592Y-61748441D01*
X114142182Y-61844950D01*
X113970206Y-61969897D01*
X113819897Y-62120206D01*
X113694950Y-62292182D01*
X113598441Y-62481592D01*
X113532753Y-62683759D01*
X113499500Y-62893703D01*
X101000499Y-62893703D01*
X100967246Y-62683759D01*
X100967246Y-62683757D01*
X100901557Y-62481588D01*
X100805051Y-62292184D01*
X100680104Y-62120208D01*
X100529792Y-61969896D01*
X100357816Y-61844949D01*
X100168412Y-61748443D01*
X100168409Y-61748442D01*
X100168407Y-61748441D01*
X99966240Y-61682753D01*
X99756296Y-61649500D01*
X99756287Y-61649500D01*
X99243713Y-61649500D01*
X99243703Y-61649500D01*
X99033759Y-61682753D01*
X98831592Y-61748441D01*
X98642182Y-61844950D01*
X98470206Y-61969897D01*
X98319897Y-62120206D01*
X98194950Y-62292182D01*
X98098441Y-62481592D01*
X98032753Y-62683759D01*
X97999500Y-62893703D01*
X95500500Y-62893703D01*
X95500500Y-60147272D01*
X122399500Y-60147272D01*
X122399500Y-73102727D01*
X122426792Y-73204585D01*
X122426793Y-73204588D01*
X122479520Y-73295913D01*
X123026570Y-73842963D01*
X123080546Y-73923745D01*
X123099500Y-74019033D01*
X123099500Y-79283122D01*
X123080546Y-79378410D01*
X123048046Y-79434703D01*
X123019138Y-79472376D01*
X123019136Y-79472378D01*
X122963671Y-79606285D01*
X122963671Y-79606287D01*
X122963670Y-79606289D01*
X122963670Y-79606291D01*
X122944750Y-79750000D01*
X122963670Y-79893709D01*
X122963670Y-79893711D01*
X122963671Y-79893712D01*
X122963671Y-79893714D01*
X123019136Y-80027621D01*
X123019141Y-80027628D01*
X123107374Y-80142616D01*
X123107383Y-80142625D01*
X123222371Y-80230858D01*
X123222378Y-80230863D01*
X123356286Y-80286328D01*
X123356291Y-80286330D01*
X123500000Y-80305250D01*
X123643709Y-80286330D01*
X123643714Y-80286328D01*
X123777621Y-80230863D01*
X123777622Y-80230862D01*
X123777625Y-80230861D01*
X123892621Y-80142621D01*
X123980861Y-80027625D01*
X123982175Y-80024454D01*
X124036328Y-79893714D01*
X124036328Y-79893713D01*
X124036330Y-79893709D01*
X124055250Y-79750000D01*
X124036330Y-79606291D01*
X124036328Y-79606285D01*
X123980863Y-79472378D01*
X123980861Y-79472376D01*
X123980861Y-79472375D01*
X123951953Y-79434702D01*
X123908984Y-79347567D01*
X123900500Y-79283122D01*
X123900500Y-77068031D01*
X123919454Y-76972743D01*
X123973430Y-76891961D01*
X124054212Y-76837985D01*
X124149500Y-76819031D01*
X124244788Y-76837985D01*
X124325564Y-76891957D01*
X124973268Y-77539660D01*
X124973270Y-77539663D01*
X125047837Y-77614230D01*
X125047839Y-77614231D01*
X125062188Y-77622515D01*
X125062194Y-77622519D01*
X125139160Y-77666956D01*
X125139163Y-77666957D01*
X125241023Y-77694251D01*
X125361738Y-77694251D01*
X125361754Y-77694250D01*
X127758977Y-77694250D01*
X127860838Y-77666957D01*
X127952163Y-77614230D01*
X132995910Y-72570481D01*
X132995913Y-72570480D01*
X133070480Y-72495913D01*
X133123207Y-72404587D01*
X133150501Y-72302727D01*
X133150501Y-72197273D01*
X133150501Y-72182013D01*
X133150500Y-72181995D01*
X133150500Y-68466877D01*
X133169454Y-68371589D01*
X133201954Y-68315295D01*
X133230861Y-68277625D01*
X133286330Y-68143709D01*
X133305250Y-68000000D01*
X133286330Y-67856291D01*
X133286328Y-67856285D01*
X133230863Y-67722378D01*
X133230858Y-67722371D01*
X133142625Y-67607383D01*
X133142616Y-67607374D01*
X133027628Y-67519141D01*
X133027621Y-67519136D01*
X132893713Y-67463671D01*
X132893710Y-67463670D01*
X132893709Y-67463670D01*
X132750000Y-67444750D01*
X132749998Y-67444750D01*
X132749997Y-67444750D01*
X132733679Y-67444750D01*
X132733679Y-67442964D01*
X132656679Y-67437916D01*
X132569544Y-67394944D01*
X132505486Y-67321898D01*
X132474259Y-67229898D01*
X132480615Y-67132952D01*
X132523587Y-67045817D01*
X132545061Y-67021331D01*
X132592964Y-66973429D01*
X132673746Y-66919453D01*
X132769032Y-66900500D01*
X134952727Y-66900500D01*
X135054588Y-66873207D01*
X135145913Y-66820480D01*
X135520480Y-66445913D01*
X135573207Y-66354588D01*
X135600500Y-66252727D01*
X135600500Y-66199499D01*
X135619454Y-66104211D01*
X135673430Y-66023429D01*
X135754212Y-65969453D01*
X135849496Y-65950499D01*
X136397872Y-65950499D01*
X136457483Y-65944091D01*
X136592331Y-65893796D01*
X136707546Y-65807546D01*
X136793796Y-65692331D01*
X136844091Y-65557483D01*
X136850500Y-65497873D01*
X136850499Y-64502128D01*
X136844091Y-64442517D01*
X136793796Y-64307669D01*
X136707546Y-64192454D01*
X136592331Y-64106204D01*
X136504341Y-64073386D01*
X136457481Y-64055908D01*
X136397873Y-64049500D01*
X135652134Y-64049500D01*
X135652130Y-64049500D01*
X135652128Y-64049501D01*
X135639314Y-64050878D01*
X135592519Y-64055908D01*
X135592515Y-64055909D01*
X135457670Y-64106203D01*
X135342455Y-64192453D01*
X135342453Y-64192455D01*
X135256204Y-64307669D01*
X135233299Y-64369079D01*
X135182239Y-64451735D01*
X135103435Y-64508559D01*
X135008884Y-64530901D01*
X134912980Y-64515360D01*
X134830324Y-64464300D01*
X134773500Y-64385496D01*
X134766708Y-64369101D01*
X134743796Y-64307669D01*
X134657546Y-64192454D01*
X134542331Y-64106204D01*
X134454341Y-64073386D01*
X134407481Y-64055908D01*
X134347873Y-64049500D01*
X133602134Y-64049500D01*
X133602130Y-64049500D01*
X133602128Y-64049501D01*
X133589314Y-64050878D01*
X133542519Y-64055908D01*
X133542515Y-64055909D01*
X133407670Y-64106203D01*
X133292455Y-64192453D01*
X133292453Y-64192455D01*
X133206204Y-64307669D01*
X133155908Y-64442518D01*
X133149500Y-64502123D01*
X133149500Y-64550500D01*
X133130546Y-64645788D01*
X133076570Y-64726570D01*
X132995788Y-64780546D01*
X132900500Y-64799500D01*
X127050526Y-64799500D01*
X126955238Y-64780546D01*
X126874456Y-64726570D01*
X126820480Y-64645788D01*
X126817225Y-64637515D01*
X126806548Y-64608889D01*
X126768796Y-64507669D01*
X126682546Y-64392454D01*
X126567331Y-64306204D01*
X126439296Y-64258450D01*
X126432481Y-64255908D01*
X126372873Y-64249500D01*
X125577134Y-64249500D01*
X125577130Y-64249500D01*
X125577128Y-64249501D01*
X125564314Y-64250878D01*
X125517519Y-64255908D01*
X125517515Y-64255909D01*
X125382670Y-64306203D01*
X125267455Y-64392453D01*
X125267449Y-64392459D01*
X125174333Y-64516846D01*
X125102055Y-64581769D01*
X125010434Y-64614090D01*
X124913418Y-64608889D01*
X124825778Y-64566957D01*
X124775667Y-64516846D01*
X124682550Y-64392459D01*
X124682548Y-64392457D01*
X124682546Y-64392454D01*
X124567331Y-64306204D01*
X124439296Y-64258450D01*
X124432481Y-64255908D01*
X124372873Y-64249500D01*
X123577134Y-64249500D01*
X123577130Y-64249500D01*
X123577128Y-64249501D01*
X123558002Y-64251557D01*
X123517513Y-64255909D01*
X123506762Y-64258450D01*
X123409669Y-64261918D01*
X123318640Y-64227965D01*
X123247533Y-64161762D01*
X123207174Y-64073386D01*
X123200500Y-64016124D01*
X123200500Y-60469031D01*
X123219454Y-60373743D01*
X123273426Y-60292966D01*
X123542965Y-60023426D01*
X123623744Y-59969453D01*
X123719032Y-59950499D01*
X124397866Y-59950499D01*
X124397872Y-59950499D01*
X124457483Y-59944091D01*
X124592331Y-59893796D01*
X124707546Y-59807546D01*
X124793796Y-59692331D01*
X124793795Y-59692331D01*
X124800666Y-59683154D01*
X124872944Y-59618231D01*
X124964565Y-59585909D01*
X125061581Y-59591110D01*
X125149221Y-59633041D01*
X125199334Y-59683154D01*
X125206204Y-59692331D01*
X125292454Y-59807546D01*
X125407669Y-59893796D01*
X125542517Y-59944091D01*
X125602127Y-59950500D01*
X126397872Y-59950499D01*
X126457483Y-59944091D01*
X126592331Y-59893796D01*
X126707546Y-59807546D01*
X126793796Y-59692331D01*
X126816049Y-59632666D01*
X126842227Y-59562483D01*
X126893285Y-59479827D01*
X126972089Y-59423002D01*
X127066640Y-59400659D01*
X127075527Y-59400500D01*
X132924474Y-59400500D01*
X133019762Y-59419454D01*
X133100544Y-59473430D01*
X133154520Y-59554212D01*
X133157767Y-59562466D01*
X133206204Y-59692331D01*
X133292454Y-59807546D01*
X133407669Y-59893796D01*
X133542517Y-59944091D01*
X133602127Y-59950500D01*
X134347872Y-59950499D01*
X134407483Y-59944091D01*
X134542331Y-59893796D01*
X134657546Y-59807546D01*
X134743796Y-59692331D01*
X134794091Y-59557483D01*
X134800500Y-59497873D01*
X134800499Y-58502128D01*
X134794091Y-58442517D01*
X134743796Y-58307669D01*
X134657546Y-58192454D01*
X134542331Y-58106204D01*
X134462117Y-58076286D01*
X134407481Y-58055908D01*
X134347873Y-58049500D01*
X133602134Y-58049500D01*
X133602130Y-58049500D01*
X133602128Y-58049501D01*
X133589314Y-58050878D01*
X133542519Y-58055908D01*
X133542515Y-58055909D01*
X133407670Y-58106203D01*
X133292455Y-58192453D01*
X133292453Y-58192455D01*
X133206203Y-58307670D01*
X133157773Y-58437517D01*
X133106715Y-58520173D01*
X133027911Y-58576998D01*
X132933360Y-58599341D01*
X132924473Y-58599500D01*
X127075526Y-58599500D01*
X126980238Y-58580546D01*
X126899456Y-58526570D01*
X126845480Y-58445788D01*
X126842225Y-58437515D01*
X126831548Y-58408889D01*
X126793796Y-58307669D01*
X126707546Y-58192454D01*
X126592331Y-58106204D01*
X126512117Y-58076286D01*
X126457481Y-58055908D01*
X126397873Y-58049500D01*
X125602134Y-58049500D01*
X125602130Y-58049500D01*
X125602128Y-58049501D01*
X125589314Y-58050878D01*
X125542519Y-58055908D01*
X125542515Y-58055909D01*
X125407670Y-58106203D01*
X125292455Y-58192453D01*
X125292449Y-58192459D01*
X125199333Y-58316846D01*
X125127055Y-58381769D01*
X125035434Y-58414090D01*
X124938418Y-58408889D01*
X124850778Y-58366957D01*
X124800667Y-58316846D01*
X124707550Y-58192459D01*
X124707548Y-58192457D01*
X124707546Y-58192454D01*
X124592331Y-58106204D01*
X124512117Y-58076286D01*
X124457481Y-58055908D01*
X124397873Y-58049500D01*
X123602134Y-58049500D01*
X123602130Y-58049500D01*
X123602128Y-58049501D01*
X123589314Y-58050878D01*
X123542519Y-58055908D01*
X123542515Y-58055909D01*
X123407670Y-58106203D01*
X123292455Y-58192453D01*
X123292453Y-58192455D01*
X123206204Y-58307669D01*
X123155908Y-58442518D01*
X123149500Y-58502123D01*
X123149500Y-59180967D01*
X123130546Y-59276255D01*
X123076570Y-59357036D01*
X122479519Y-59954087D01*
X122426793Y-60045411D01*
X122426793Y-60045413D01*
X122399500Y-60147272D01*
X95500500Y-60147272D01*
X95500500Y-52008899D01*
X95501134Y-51991136D01*
X95505213Y-51934108D01*
X95514493Y-51804352D01*
X95519546Y-51769208D01*
X95557457Y-51594931D01*
X95567461Y-51560860D01*
X95629785Y-51393766D01*
X95644540Y-51361457D01*
X95702815Y-51254734D01*
X95730009Y-51204931D01*
X95749207Y-51175058D01*
X95856085Y-51032287D01*
X95879336Y-51005453D01*
X96005453Y-50879336D01*
X96032287Y-50856085D01*
X96175058Y-50749207D01*
X96204931Y-50730009D01*
X96361462Y-50644537D01*
X96393766Y-50629785D01*
X96560860Y-50567461D01*
X96594931Y-50557457D01*
X96769208Y-50519546D01*
X96804352Y-50514493D01*
X96966158Y-50502920D01*
X96991137Y-50501134D01*
X97008900Y-50500500D01*
X97065892Y-50500500D01*
X192934108Y-50500500D01*
X192991100Y-50500500D01*
X193008863Y-50501134D01*
G37*
G04 #@! TD.AperFunction*
G04 #@! TA.AperFunction,Conductor*
G36*
X148023472Y-87410199D02*
G01*
X148046709Y-87476068D01*
X148046712Y-87476074D01*
X148046715Y-87476083D01*
X148113402Y-87603573D01*
X148113403Y-87603574D01*
X148116220Y-87608959D01*
X148143590Y-87702179D01*
X148133204Y-87798777D01*
X148093127Y-87875950D01*
X148019140Y-87972372D01*
X148019136Y-87972378D01*
X148000000Y-88018577D01*
X148000000Y-87292195D01*
X148023472Y-87410199D01*
G37*
G04 #@! TD.AperFunction*
M02*
