G04 #@! TF.GenerationSoftware,KiCad,Pcbnew,8.0.8*
G04 #@! TF.CreationDate,2025-03-13T20:56:52-04:00*
G04 #@! TF.ProjectId,h_bridge_driver,685f6272-6964-4676-955f-647269766572,rev?*
G04 #@! TF.SameCoordinates,Original*
G04 #@! TF.FileFunction,Paste,Top*
G04 #@! TF.FilePolarity,Positive*
%FSLAX46Y46*%
G04 Gerber Fmt 4.6, Leading zero omitted, Abs format (unit mm)*
G04 Created by KiCad (PCBNEW 8.0.8) date 2025-03-13 20:56:52*
%MOMM*%
%LPD*%
G01*
G04 APERTURE LIST*
G04 Aperture macros list*
%AMRoundRect*
0 Rectangle with rounded corners*
0 $1 Rounding radius*
0 $2 $3 $4 $5 $6 $7 $8 $9 X,Y pos of 4 corners*
0 Add a 4 corners polygon primitive as box body*
4,1,4,$2,$3,$4,$5,$6,$7,$8,$9,$2,$3,0*
0 Add four circle primitives for the rounded corners*
1,1,$1+$1,$2,$3*
1,1,$1+$1,$4,$5*
1,1,$1+$1,$6,$7*
1,1,$1+$1,$8,$9*
0 Add four rect primitives between the rounded corners*
20,1,$1+$1,$2,$3,$4,$5,0*
20,1,$1+$1,$4,$5,$6,$7,0*
20,1,$1+$1,$6,$7,$8,$9,0*
20,1,$1+$1,$8,$9,$2,$3,0*%
G04 Aperture macros list end*
%ADD10RoundRect,0.250000X0.850000X0.350000X-0.850000X0.350000X-0.850000X-0.350000X0.850000X-0.350000X0*%
%ADD11RoundRect,0.250000X1.275000X1.125000X-1.275000X1.125000X-1.275000X-1.125000X1.275000X-1.125000X0*%
%ADD12RoundRect,0.250000X0.350000X0.450000X-0.350000X0.450000X-0.350000X-0.450000X0.350000X-0.450000X0*%
%ADD13RoundRect,0.100000X0.225000X0.100000X-0.225000X0.100000X-0.225000X-0.100000X0.225000X-0.100000X0*%
%ADD14RoundRect,0.250000X-0.850000X-0.350000X0.850000X-0.350000X0.850000X0.350000X-0.850000X0.350000X0*%
%ADD15RoundRect,0.250000X-1.275000X-1.125000X1.275000X-1.125000X1.275000X1.125000X-1.275000X1.125000X0*%
%ADD16RoundRect,0.250000X0.325000X0.450000X-0.325000X0.450000X-0.325000X-0.450000X0.325000X-0.450000X0*%
%ADD17RoundRect,0.249999X-1.075001X0.450001X-1.075001X-0.450001X1.075001X-0.450001X1.075001X0.450001X0*%
%ADD18RoundRect,0.250000X-0.350000X-0.450000X0.350000X-0.450000X0.350000X0.450000X-0.350000X0.450000X0*%
G04 APERTURE END LIST*
D10*
X167500000Y-69060000D03*
D11*
X162875000Y-68305000D03*
X162875000Y-65255000D03*
X159525000Y-68305000D03*
X159525000Y-65255000D03*
D10*
X167500000Y-64500000D03*
D12*
X125975000Y-65200000D03*
X123975000Y-65200000D03*
D13*
X174450000Y-104650000D03*
X174450000Y-104000000D03*
X174450000Y-103350000D03*
X172550000Y-103350000D03*
X172550000Y-104000000D03*
X172550000Y-104650000D03*
D14*
X159250000Y-82500000D03*
D15*
X163875000Y-83255000D03*
X163875000Y-86305000D03*
X167225000Y-83255000D03*
X167225000Y-86305000D03*
D14*
X159250000Y-87060000D03*
X159260000Y-73520000D03*
D15*
X163885000Y-74275000D03*
X163885000Y-77325000D03*
X167235000Y-74275000D03*
X167235000Y-77325000D03*
D14*
X159260000Y-78080000D03*
D10*
X167575000Y-95110000D03*
D11*
X162950000Y-94355000D03*
X162950000Y-91305000D03*
X159600000Y-94355000D03*
X159600000Y-91305000D03*
D10*
X167575000Y-90550000D03*
D13*
X153000000Y-104650000D03*
X153000000Y-104000000D03*
X153000000Y-103350000D03*
X151100000Y-103350000D03*
X151100000Y-104000000D03*
X151100000Y-104650000D03*
D16*
X136025000Y-59000000D03*
X133975000Y-59000000D03*
D17*
X145875000Y-76905000D03*
X145875000Y-81705000D03*
D18*
X124000000Y-59000000D03*
X126000000Y-59000000D03*
D16*
X136025000Y-65000000D03*
X133975000Y-65000000D03*
M02*
