G04 #@! TF.GenerationSoftware,KiCad,Pcbnew,8.0.8*
G04 #@! TF.CreationDate,2025-03-16T18:35:58-04:00*
G04 #@! TF.ProjectId,h_bridge_driver,685f6272-6964-4676-955f-647269766572,rev?*
G04 #@! TF.SameCoordinates,Original*
G04 #@! TF.FileFunction,Soldermask,Bot*
G04 #@! TF.FilePolarity,Negative*
%FSLAX46Y46*%
G04 Gerber Fmt 4.6, Leading zero omitted, Abs format (unit mm)*
G04 Created by KiCad (PCBNEW 8.0.8) date 2025-03-16 18:35:58*
%MOMM*%
%LPD*%
G01*
G04 APERTURE LIST*
G04 Aperture macros list*
%AMRoundRect*
0 Rectangle with rounded corners*
0 $1 Rounding radius*
0 $2 $3 $4 $5 $6 $7 $8 $9 X,Y pos of 4 corners*
0 Add a 4 corners polygon primitive as box body*
4,1,4,$2,$3,$4,$5,$6,$7,$8,$9,$2,$3,0*
0 Add four circle primitives for the rounded corners*
1,1,$1+$1,$2,$3*
1,1,$1+$1,$4,$5*
1,1,$1+$1,$6,$7*
1,1,$1+$1,$8,$9*
0 Add four rect primitives between the rounded corners*
20,1,$1+$1,$2,$3,$4,$5,0*
20,1,$1+$1,$4,$5,$6,$7,0*
20,1,$1+$1,$6,$7,$8,$9,0*
20,1,$1+$1,$8,$9,$2,$3,0*%
G04 Aperture macros list end*
%ADD10C,0.100000*%
%ADD11RoundRect,0.250000X-0.450000X0.350000X-0.450000X-0.350000X0.450000X-0.350000X0.450000X0.350000X0*%
%ADD12RoundRect,0.250000X1.250000X0.550000X-1.250000X0.550000X-1.250000X-0.550000X1.250000X-0.550000X0*%
%ADD13C,1.700000*%
%ADD14C,4.000000*%
%ADD15C,2.200000*%
%ADD16C,2.600000*%
%ADD17C,3.800000*%
%ADD18R,2.400000X2.400000*%
%ADD19C,2.400000*%
%ADD20O,2.500000X2.200000*%
%ADD21C,3.600000*%
%ADD22C,5.600000*%
%ADD23O,1.800000X1.200000*%
%ADD24RoundRect,0.250000X0.475000X-0.337500X0.475000X0.337500X-0.475000X0.337500X-0.475000X-0.337500X0*%
%ADD25RoundRect,0.250000X-0.350000X-0.450000X0.350000X-0.450000X0.350000X0.450000X-0.350000X0.450000X0*%
%ADD26RoundRect,0.250000X0.350000X0.450000X-0.350000X0.450000X-0.350000X-0.450000X0.350000X-0.450000X0*%
%ADD27RoundRect,0.250000X0.450000X-0.350000X0.450000X0.350000X-0.450000X0.350000X-0.450000X-0.350000X0*%
%ADD28RoundRect,0.250000X-0.850000X-0.350000X0.850000X-0.350000X0.850000X0.350000X-0.850000X0.350000X0*%
%ADD29RoundRect,0.249997X-2.950003X-2.650003X2.950003X-2.650003X2.950003X2.650003X-2.950003X2.650003X0*%
%ADD30RoundRect,0.250000X0.337500X0.475000X-0.337500X0.475000X-0.337500X-0.475000X0.337500X-0.475000X0*%
%ADD31RoundRect,0.150000X0.587500X0.150000X-0.587500X0.150000X-0.587500X-0.150000X0.587500X-0.150000X0*%
%ADD32C,1.500000*%
%ADD33RoundRect,0.250000X1.000000X0.650000X-1.000000X0.650000X-1.000000X-0.650000X1.000000X-0.650000X0*%
%ADD34RoundRect,0.375000X-0.375000X0.625000X-0.375000X-0.625000X0.375000X-0.625000X0.375000X0.625000X0*%
%ADD35RoundRect,0.500000X-1.400000X0.500000X-1.400000X-0.500000X1.400000X-0.500000X1.400000X0.500000X0*%
%ADD36RoundRect,0.250000X-0.475000X0.337500X-0.475000X-0.337500X0.475000X-0.337500X0.475000X0.337500X0*%
%ADD37RoundRect,0.250000X-0.337500X-0.475000X0.337500X-0.475000X0.337500X0.475000X-0.337500X0.475000X0*%
%ADD38RoundRect,0.150000X0.150000X-0.587500X0.150000X0.587500X-0.150000X0.587500X-0.150000X-0.587500X0*%
%ADD39R,0.850000X0.300000*%
%ADD40R,0.300000X0.850000*%
%ADD41R,3.550000X3.550000*%
G04 APERTURE END LIST*
D10*
X195000000Y-97000000D02*
X205000000Y-97000000D01*
X205000000Y-102000000D01*
X195000000Y-102000000D01*
X195000000Y-97000000D01*
G36*
X195000000Y-97000000D02*
G01*
X205000000Y-97000000D01*
X205000000Y-102000000D01*
X195000000Y-102000000D01*
X195000000Y-97000000D01*
G37*
X85000000Y-84500000D02*
X95000000Y-84500000D01*
X95000000Y-89500000D01*
X85000000Y-89500000D01*
X85000000Y-84500000D01*
G36*
X85000000Y-84500000D02*
G01*
X95000000Y-84500000D01*
X95000000Y-89500000D01*
X85000000Y-89500000D01*
X85000000Y-84500000D01*
G37*
X195000000Y-81000000D02*
X205000000Y-81000000D01*
X205000000Y-86000000D01*
X195000000Y-86000000D01*
X195000000Y-81000000D01*
G36*
X195000000Y-81000000D02*
G01*
X205000000Y-81000000D01*
X205000000Y-86000000D01*
X195000000Y-86000000D01*
X195000000Y-81000000D01*
G37*
X85000000Y-68500000D02*
X95000000Y-68500000D01*
X95000000Y-73500000D01*
X85000000Y-73500000D01*
X85000000Y-68500000D01*
G36*
X85000000Y-68500000D02*
G01*
X95000000Y-68500000D01*
X95000000Y-73500000D01*
X85000000Y-73500000D01*
X85000000Y-68500000D01*
G37*
D11*
X123400000Y-65000000D03*
X123400000Y-67000000D03*
X123500000Y-69000000D03*
X123500000Y-71000000D03*
D12*
X131900000Y-91500000D03*
X127500000Y-91500000D03*
D13*
X146920000Y-116000000D03*
D14*
X152000000Y-116000000D03*
D13*
X157080000Y-116000000D03*
D15*
X154540000Y-110920000D03*
X148190000Y-113460000D03*
D16*
X90000000Y-87000000D03*
D17*
X90000000Y-87000000D03*
D18*
X150823959Y-93000000D03*
D19*
X145823959Y-93000000D03*
D20*
X191000000Y-75500000D03*
X175500000Y-75500000D03*
D16*
X90000000Y-71000000D03*
D17*
X90000000Y-71000000D03*
D21*
X100000000Y-55000000D03*
D22*
X100000000Y-55000000D03*
D16*
X200000000Y-99500000D03*
D17*
X200000000Y-99500000D03*
D16*
X200000000Y-83500000D03*
D17*
X200000000Y-83500000D03*
D21*
X190000000Y-125000000D03*
D22*
X190000000Y-125000000D03*
D20*
X99500000Y-63000000D03*
X115000000Y-63000000D03*
X99500000Y-79000000D03*
X115000000Y-79000000D03*
D21*
X190000000Y-55000000D03*
D22*
X190000000Y-55000000D03*
D20*
X99500000Y-111000000D03*
X115000000Y-111000000D03*
D18*
X150823959Y-66500000D03*
D19*
X145823959Y-66500000D03*
D23*
X132000000Y-107000000D03*
X132000000Y-105000000D03*
X132000000Y-103000000D03*
D13*
X168880000Y-116080000D03*
D14*
X173960000Y-116080000D03*
D13*
X179040000Y-116080000D03*
D15*
X176500000Y-111000000D03*
X170150000Y-113540000D03*
D20*
X191000000Y-91500000D03*
X175500000Y-91500000D03*
X99500000Y-95000000D03*
X115000000Y-95000000D03*
D21*
X100000000Y-125000000D03*
D22*
X100000000Y-125000000D03*
D24*
X124750000Y-84537500D03*
X124750000Y-82462500D03*
D25*
X114500000Y-86500000D03*
X116500000Y-86500000D03*
D26*
X116500000Y-70500000D03*
X114500000Y-70500000D03*
D24*
X134000000Y-71037500D03*
X134000000Y-68962500D03*
D11*
X131500000Y-69000000D03*
X131500000Y-71000000D03*
D27*
X136500000Y-71000000D03*
X136500000Y-69000000D03*
D28*
X112460000Y-123280000D03*
D29*
X118760000Y-121000000D03*
D28*
X112460000Y-118720000D03*
D11*
X129000000Y-65000000D03*
X129000000Y-67000000D03*
D30*
X129537500Y-86537500D03*
X127462500Y-86537500D03*
D31*
X103437500Y-104550000D03*
X103437500Y-106450000D03*
X101562500Y-105500000D03*
D11*
X108500000Y-116500000D03*
X108500000Y-118500000D03*
D24*
X126250000Y-71037500D03*
X126250000Y-68962500D03*
D11*
X129000000Y-69000000D03*
X129000000Y-71000000D03*
D32*
X119500000Y-70500000D03*
D27*
X136500000Y-67000000D03*
X136500000Y-65000000D03*
D33*
X116000000Y-104500000D03*
X112000000Y-104500000D03*
D11*
X131500000Y-65000000D03*
X131500000Y-67000000D03*
D34*
X129200000Y-115237500D03*
X131500000Y-115237500D03*
D35*
X131500000Y-121537500D03*
D34*
X133800000Y-115237500D03*
D36*
X124500000Y-115500000D03*
X124500000Y-117575000D03*
D32*
X119500000Y-86500000D03*
D36*
X138500000Y-115500000D03*
X138500000Y-117575000D03*
D11*
X106000000Y-104500000D03*
X106000000Y-106500000D03*
D37*
X131962500Y-86537500D03*
X134037500Y-86537500D03*
D38*
X122450000Y-78437500D03*
X120550000Y-78437500D03*
X121500000Y-76562500D03*
D39*
X128600000Y-79537500D03*
X128600000Y-79037500D03*
X128600000Y-78537500D03*
X128600000Y-78037500D03*
X128600000Y-77537500D03*
X128600000Y-77037500D03*
X128600000Y-76537500D03*
X128600000Y-76037500D03*
D40*
X129300000Y-75337500D03*
X129800000Y-75337500D03*
X130300000Y-75337500D03*
X130800000Y-75337500D03*
X131300000Y-75337500D03*
X131800000Y-75337500D03*
X132300000Y-75337500D03*
X132800000Y-75337500D03*
D39*
X133500000Y-76037500D03*
X133500000Y-76537500D03*
X133500000Y-77037500D03*
X133500000Y-77537500D03*
X133500000Y-78037500D03*
X133500000Y-78537500D03*
X133500000Y-79037500D03*
X133500000Y-79537500D03*
D40*
X132800000Y-80237500D03*
X132300000Y-80237500D03*
X131800000Y-80237500D03*
X131300000Y-80237500D03*
X130800000Y-80237500D03*
X130300000Y-80237500D03*
X129800000Y-80237500D03*
X129300000Y-80237500D03*
D41*
X131050000Y-77787500D03*
M02*
