G04 #@! TF.GenerationSoftware,KiCad,Pcbnew,8.0.8*
G04 #@! TF.CreationDate,2025-03-16T18:35:58-04:00*
G04 #@! TF.ProjectId,h_bridge_driver,685f6272-6964-4676-955f-647269766572,rev?*
G04 #@! TF.SameCoordinates,Original*
G04 #@! TF.FileFunction,Soldermask,Top*
G04 #@! TF.FilePolarity,Negative*
%FSLAX46Y46*%
G04 Gerber Fmt 4.6, Leading zero omitted, Abs format (unit mm)*
G04 Created by KiCad (PCBNEW 8.0.8) date 2025-03-16 18:35:58*
%MOMM*%
%LPD*%
G01*
G04 APERTURE LIST*
G04 Aperture macros list*
%AMRoundRect*
0 Rectangle with rounded corners*
0 $1 Rounding radius*
0 $2 $3 $4 $5 $6 $7 $8 $9 X,Y pos of 4 corners*
0 Add a 4 corners polygon primitive as box body*
4,1,4,$2,$3,$4,$5,$6,$7,$8,$9,$2,$3,0*
0 Add four circle primitives for the rounded corners*
1,1,$1+$1,$2,$3*
1,1,$1+$1,$4,$5*
1,1,$1+$1,$6,$7*
1,1,$1+$1,$8,$9*
0 Add four rect primitives between the rounded corners*
20,1,$1+$1,$2,$3,$4,$5,0*
20,1,$1+$1,$4,$5,$6,$7,0*
20,1,$1+$1,$6,$7,$8,$9,0*
20,1,$1+$1,$8,$9,$2,$3,0*%
%AMFreePoly0*
4,1,19,0.500000,-0.750000,0.000000,-0.750000,0.000000,-0.744911,-0.071157,-0.744911,-0.207708,-0.704816,-0.327430,-0.627875,-0.420627,-0.520320,-0.479746,-0.390866,-0.500000,-0.250000,-0.500000,0.250000,-0.479746,0.390866,-0.420627,0.520320,-0.327430,0.627875,-0.207708,0.704816,-0.071157,0.744911,0.000000,0.744911,0.000000,0.750000,0.500000,0.750000,0.500000,-0.750000,0.500000,-0.750000,
$1*%
%AMFreePoly1*
4,1,19,0.000000,0.744911,0.071157,0.744911,0.207708,0.704816,0.327430,0.627875,0.420627,0.520320,0.479746,0.390866,0.500000,0.250000,0.500000,-0.250000,0.479746,-0.390866,0.420627,-0.520320,0.327430,-0.627875,0.207708,-0.704816,0.071157,-0.744911,0.000000,-0.744911,0.000000,-0.750000,-0.500000,-0.750000,-0.500000,0.750000,0.000000,0.750000,0.000000,0.744911,0.000000,0.744911,
$1*%
G04 Aperture macros list end*
%ADD10C,0.100000*%
%ADD11FreePoly0,0.000000*%
%ADD12FreePoly1,0.000000*%
%ADD13C,1.500000*%
%ADD14RoundRect,0.250000X0.850000X0.350000X-0.850000X0.350000X-0.850000X-0.350000X0.850000X-0.350000X0*%
%ADD15RoundRect,0.249997X2.950003X2.650003X-2.950003X2.650003X-2.950003X-2.650003X2.950003X-2.650003X0*%
%ADD16RoundRect,0.250000X0.350000X0.450000X-0.350000X0.450000X-0.350000X-0.450000X0.350000X-0.450000X0*%
%ADD17RoundRect,0.100000X0.225000X0.100000X-0.225000X0.100000X-0.225000X-0.100000X0.225000X-0.100000X0*%
%ADD18C,1.700000*%
%ADD19C,4.000000*%
%ADD20C,2.200000*%
%ADD21C,2.600000*%
%ADD22C,3.800000*%
%ADD23R,2.400000X2.400000*%
%ADD24C,2.400000*%
%ADD25O,2.500000X2.200000*%
%ADD26C,3.600000*%
%ADD27C,5.600000*%
%ADD28RoundRect,0.250000X-0.850000X-0.350000X0.850000X-0.350000X0.850000X0.350000X-0.850000X0.350000X0*%
%ADD29RoundRect,0.249997X-2.950003X-2.650003X2.950003X-2.650003X2.950003X2.650003X-2.950003X2.650003X0*%
%ADD30O,1.800000X1.200000*%
%ADD31RoundRect,0.250000X0.325000X0.450000X-0.325000X0.450000X-0.325000X-0.450000X0.325000X-0.450000X0*%
%ADD32RoundRect,0.249999X-1.075001X0.450001X-1.075001X-0.450001X1.075001X-0.450001X1.075001X0.450001X0*%
%ADD33RoundRect,0.250000X-0.350000X-0.450000X0.350000X-0.450000X0.350000X0.450000X-0.350000X0.450000X0*%
G04 APERTURE END LIST*
D10*
X85000000Y-84500000D02*
X95000000Y-84500000D01*
X95000000Y-89500000D01*
X85000000Y-89500000D01*
X85000000Y-84500000D01*
G36*
X85000000Y-84500000D02*
G01*
X95000000Y-84500000D01*
X95000000Y-89500000D01*
X85000000Y-89500000D01*
X85000000Y-84500000D01*
G37*
X195000000Y-97000000D02*
X205000000Y-97000000D01*
X205000000Y-102000000D01*
X195000000Y-102000000D01*
X195000000Y-97000000D01*
G36*
X195000000Y-97000000D02*
G01*
X205000000Y-97000000D01*
X205000000Y-102000000D01*
X195000000Y-102000000D01*
X195000000Y-97000000D01*
G37*
X195000000Y-81000000D02*
X205000000Y-81000000D01*
X205000000Y-86000000D01*
X195000000Y-86000000D01*
X195000000Y-81000000D01*
G36*
X195000000Y-81000000D02*
G01*
X205000000Y-81000000D01*
X205000000Y-86000000D01*
X195000000Y-86000000D01*
X195000000Y-81000000D01*
G37*
X85000000Y-68500000D02*
X95000000Y-68500000D01*
X95000000Y-73500000D01*
X85000000Y-73500000D01*
X85000000Y-68500000D01*
G36*
X85000000Y-68500000D02*
G01*
X95000000Y-68500000D01*
X95000000Y-73500000D01*
X85000000Y-73500000D01*
X85000000Y-68500000D01*
G37*
D11*
X156700000Y-103600000D03*
D12*
X158000000Y-103600000D03*
D11*
X178400000Y-103600000D03*
D12*
X179700000Y-103600000D03*
D13*
X140400000Y-63000000D03*
D14*
X167500000Y-69060000D03*
D15*
X161200000Y-66780000D03*
D14*
X167500000Y-64500000D03*
D16*
X125975000Y-65200000D03*
X123975000Y-65200000D03*
D17*
X174450000Y-104650000D03*
X174450000Y-104000000D03*
X174450000Y-103350000D03*
X172550000Y-103350000D03*
X172550000Y-104000000D03*
X172550000Y-104650000D03*
D18*
X146920000Y-116000000D03*
D19*
X152000000Y-116000000D03*
D18*
X157080000Y-116000000D03*
D20*
X154540000Y-110920000D03*
X148190000Y-113460000D03*
D21*
X90000000Y-87000000D03*
D22*
X90000000Y-87000000D03*
D13*
X145000000Y-106000000D03*
D23*
X150823959Y-93000000D03*
D24*
X145823959Y-93000000D03*
D25*
X191000000Y-75500000D03*
X175500000Y-75500000D03*
D21*
X90000000Y-71000000D03*
D22*
X90000000Y-71000000D03*
D26*
X100000000Y-55000000D03*
D27*
X100000000Y-55000000D03*
D13*
X143000000Y-74000000D03*
D21*
X200000000Y-99500000D03*
D22*
X200000000Y-99500000D03*
D28*
X159250000Y-82500000D03*
D29*
X165550000Y-84780000D03*
D28*
X159250000Y-87060000D03*
D21*
X200000000Y-83500000D03*
D22*
X200000000Y-83500000D03*
D26*
X190000000Y-125000000D03*
D27*
X190000000Y-125000000D03*
D13*
X167500000Y-98500000D03*
D25*
X99500000Y-63000000D03*
X115000000Y-63000000D03*
X99500000Y-79000000D03*
X115000000Y-79000000D03*
D26*
X190000000Y-55000000D03*
D27*
X190000000Y-55000000D03*
D28*
X159260000Y-73520000D03*
D29*
X165560000Y-75800000D03*
D28*
X159260000Y-78080000D03*
D25*
X99500000Y-111000000D03*
X115000000Y-111000000D03*
D23*
X150823959Y-66500000D03*
D24*
X145823959Y-66500000D03*
D14*
X167575000Y-95110000D03*
D15*
X161275000Y-92830000D03*
D14*
X167575000Y-90550000D03*
D30*
X132000000Y-107000000D03*
X132000000Y-105000000D03*
X132000000Y-103000000D03*
D17*
X153000000Y-104650000D03*
X153000000Y-104000000D03*
X153000000Y-103350000D03*
X151100000Y-103350000D03*
X151100000Y-104000000D03*
X151100000Y-104650000D03*
D18*
X168880000Y-116080000D03*
D19*
X173960000Y-116080000D03*
D18*
X179040000Y-116080000D03*
D20*
X176500000Y-111000000D03*
X170150000Y-113540000D03*
D13*
X140500000Y-71000000D03*
X141000000Y-86000000D03*
D31*
X136025000Y-59000000D03*
X133975000Y-59000000D03*
D25*
X191000000Y-91500000D03*
X175500000Y-91500000D03*
X99500000Y-95000000D03*
X115000000Y-95000000D03*
D32*
X145875000Y-76905000D03*
X145875000Y-81705000D03*
D33*
X124000000Y-59000000D03*
X126000000Y-59000000D03*
D26*
X100000000Y-125000000D03*
D27*
X100000000Y-125000000D03*
D31*
X136025000Y-65000000D03*
X133975000Y-65000000D03*
M02*
