M48
; DRILL file {KiCad 8.0.8} date 2025-03-16T18:36:02-0400
; FORMAT={-:-/ absolute / metric / decimal}
; #@! TF.CreationDate,2025-03-16T18:36:02-04:00
; #@! TF.GenerationSoftware,Kicad,Pcbnew,8.0.8
; #@! TF.FileFunction,Plated,1,4,PTH
FMAT,2
METRIC
; #@! TA.AperFunction,Plated,PTH,ViaDrill
T1C0.400
; #@! TA.AperFunction,Plated,PTH,ComponentDrill
T2C0.800
; #@! TA.AperFunction,Plated,PTH,ComponentDrill
T3C1.200
; #@! TA.AperFunction,Plated,PTH,ComponentDrill
T4C1.500
; #@! TA.AperFunction,Plated,PTH,ComponentDrill
T5C2.200
; #@! TA.AperFunction,Plated,PTH,ComponentDrill
T6C3.200
%
G90
G05
T1
X85.9Y-70.9
X85.9Y-86.9
X86.1Y-69.8
X86.1Y-72.1
X86.1Y-85.8
X86.1Y-88.1
X87.1Y-69.3
X87.1Y-72.7
X87.1Y-85.3
X87.1Y-88.7
X88.1Y-69.3
X88.1Y-72.7
X88.1Y-85.3
X88.1Y-88.7
X91.6Y-69.3
X91.6Y-72.7
X91.6Y-85.3
X91.6Y-88.7
X92.6Y-69.3
X92.6Y-72.7
X92.6Y-85.3
X92.6Y-88.7
X93.6Y-69.3
X93.6Y-72.7
X93.6Y-85.3
X93.6Y-88.7
X94.6Y-68.9
X94.6Y-73.1
X94.6Y-84.9
X94.6Y-89.1
X97.5Y-88.5
X102.5Y-110.0
X102.5Y-112.5
X103.0Y-90.0
X103.0Y-92.0
X103.0Y-94.0
X103.0Y-96.0
X103.0Y-97.5
X103.0Y-99.5
X104.5Y-90.0
X104.5Y-92.0
X104.5Y-94.0
X104.5Y-96.0
X104.5Y-97.5
X104.5Y-99.5
X105.5Y-110.0
X105.5Y-112.5
X106.0Y-90.0
X106.0Y-92.0
X106.0Y-94.0
X106.0Y-96.0
X106.0Y-97.5
X106.0Y-99.5
X107.5Y-52.5
X107.5Y-90.0
X107.5Y-92.0
X107.5Y-94.0
X107.5Y-96.0
X107.5Y-97.5
X107.5Y-99.5
X107.5Y-127.5
X108.5Y-110.0
X108.5Y-112.5
X109.0Y-90.0
X109.0Y-92.0
X109.0Y-94.0
X109.0Y-96.0
X109.0Y-97.5
X109.0Y-99.5
X110.5Y-90.0
X110.5Y-92.0
X110.5Y-94.0
X110.5Y-96.0
X110.5Y-97.5
X110.5Y-99.5
X111.0Y-115.0
X111.0Y-117.0
X111.5Y-110.0
X111.5Y-112.5
X113.5Y-115.0
X113.5Y-117.0
X115.0Y-52.5
X115.0Y-127.5
X119.0Y-107.5
X119.0Y-109.5
X119.0Y-111.5
X119.0Y-113.5
X119.0Y-115.5
X120.5Y-84.75
X121.0Y-107.5
X121.0Y-109.5
X121.0Y-111.5
X121.0Y-113.5
X121.0Y-115.5
X121.5Y-75.0
X122.0Y-85.5
X122.5Y-52.5
X122.5Y-127.5
X123.0Y-107.5
X123.0Y-109.5
X123.0Y-111.5
X123.0Y-113.5
X123.0Y-115.5
X123.5Y-79.75
X124.15Y-75.5
X124.5Y-91.0
X124.5Y-93.5
X124.5Y-96.0
X124.6Y-76.4
X124.8Y-71.0
X125.0Y-107.5
X125.0Y-109.5
X125.0Y-111.5
X125.0Y-113.5
X125.1Y-77.919
X125.6Y-76.5
X125.75Y-80.0
X125.9Y-74.7
X126.0Y-93.5
X126.0Y-96.0
X127.0Y-89.5
X127.0Y-107.5
X127.0Y-109.5
X127.0Y-111.5
X127.0Y-113.5
X127.0Y-115.5
X127.5Y-93.5
X127.5Y-96.0
X127.6Y-71.8
X127.75Y-74.0
X127.8Y-75.2
X129.241Y-73.753
X130.0Y-52.5
X130.0Y-127.5
X131.2Y-72.5
X132.75Y-68.0
X133.0Y-96.25
X133.0Y-97.75
X133.5Y-95.5
X133.5Y-97.0
X134.25Y-96.25
X134.25Y-97.75
X135.0Y-95.5
X135.0Y-97.0
X135.4Y-74.6
X135.5Y-96.25
X135.5Y-97.75
X135.75Y-114.25
X136.75Y-88.75
X137.0Y-75.0
X137.0Y-87.75
X137.5Y-52.5
X137.5Y-127.5
X138.5Y-114.25
X139.25Y-101.25
X139.3Y-64.1
X139.5Y-74.4
X140.25Y-100.75
X140.95Y-74.95
X141.0Y-99.0
X141.875Y-87.625
X142.0Y-100.0
X142.5Y-64.0
X142.5Y-65.5
X142.5Y-67.5
X142.5Y-69.0
X143.5Y-76.0
X144.0Y-83.5
X144.0Y-85.0
X144.0Y-86.0
X144.0Y-87.0
X144.0Y-90.5
X144.5Y-64.0
X144.5Y-69.0
X145.0Y-52.5
X145.0Y-127.5
X145.5Y-85.0
X145.5Y-86.0
X145.5Y-87.0
X145.5Y-90.5
X146.5Y-64.0
X146.5Y-69.0
X147.0Y-85.0
X147.0Y-86.0
X147.0Y-87.0
X147.0Y-90.5
X148.25Y-103.25
X148.5Y-88.25
X149.316Y-88.6
X149.5Y-84.0
X152.5Y-52.5
X152.5Y-127.5
X153.0Y-64.0
X153.0Y-66.0
X153.0Y-68.0
X153.0Y-70.0
X153.0Y-90.0
X153.0Y-92.0
X153.0Y-94.0
X153.0Y-96.0
X155.0Y-64.0
X155.0Y-66.0
X155.0Y-68.0
X155.0Y-70.0
X155.0Y-90.0
X155.0Y-92.0
X155.0Y-94.0
X155.0Y-96.0
X157.0Y-64.0
X157.0Y-66.0
X157.0Y-68.0
X157.0Y-70.0
X157.0Y-82.5
X157.0Y-88.0
X157.0Y-90.0
X157.0Y-92.0
X157.0Y-94.0
X157.0Y-96.0
X159.8Y-103.6
X160.0Y-52.5
X160.0Y-127.5
X164.4Y-102.0
X164.4Y-103.6
X164.4Y-105.2
X167.4Y-102.0
X167.4Y-103.6
X167.4Y-105.2
X167.5Y-52.5
X167.5Y-127.5
X169.8Y-84.4
X169.8Y-86.0
X169.8Y-87.8
X169.8Y-89.4
X169.8Y-91.0
X169.8Y-92.6
X170.0Y-74.4
X170.0Y-76.0
X170.0Y-77.6
X170.0Y-79.2
X170.1Y-63.4
X170.1Y-65.0
X170.1Y-66.6
X170.1Y-68.4
X170.25Y-103.5
X171.3Y-83.4
X171.3Y-85.0
X171.3Y-86.8
X171.3Y-88.4
X171.3Y-90.2
X171.3Y-92.0
X171.5Y-73.4
X171.5Y-75.0
X171.5Y-76.8
X171.5Y-78.6
X171.6Y-64.0
X171.6Y-65.8
X171.6Y-67.6
X171.6Y-69.2
X172.8Y-84.2
X172.8Y-86.0
X172.8Y-87.6
X172.8Y-89.4
X172.8Y-91.0
X172.8Y-92.6
X173.0Y-74.2
X173.0Y-76.0
X173.0Y-77.6
X173.0Y-79.2
X173.1Y-63.4
X173.1Y-65.0
X173.1Y-66.6
X173.1Y-68.2
X174.5Y-106.0
X175.0Y-52.5
X175.0Y-127.5
X176.5Y-104.0
X195.4Y-81.4
X195.4Y-85.6
X195.4Y-97.4
X195.4Y-101.6
X196.4Y-81.8
X196.4Y-85.2
X196.4Y-97.8
X196.4Y-101.2
X197.4Y-81.8
X197.4Y-85.2
X197.4Y-97.8
X197.4Y-101.2
X198.4Y-81.8
X198.4Y-85.2
X198.4Y-97.8
X198.4Y-101.2
X201.9Y-81.8
X201.9Y-85.2
X201.9Y-97.8
X201.9Y-101.2
X202.9Y-81.9
X202.9Y-85.1
X202.9Y-97.9
X202.9Y-101.1
X203.9Y-82.5
X203.9Y-84.7
X203.9Y-98.5
X203.9Y-100.7
X204.1Y-83.6
X204.1Y-99.6
T2
X132.0Y-103.0
X132.0Y-105.0
X132.0Y-107.0
T3
X145.824Y-66.5
X145.824Y-93.0
X150.824Y-66.5
X150.824Y-93.0
T4
X99.5Y-63.0
X99.5Y-79.0
X99.5Y-95.0
X99.5Y-111.0
X115.0Y-63.0
X115.0Y-79.0
X115.0Y-95.0
X115.0Y-111.0
X148.19Y-113.46
X154.54Y-110.92
X170.15Y-113.54
X175.5Y-75.5
X175.5Y-91.5
X176.5Y-111.0
X191.0Y-75.5
X191.0Y-91.5
T5
X90.0Y-71.0
X90.0Y-87.0
X200.0Y-83.5
X200.0Y-99.5
T6
X100.0Y-55.0
X100.0Y-125.0
X190.0Y-55.0
X190.0Y-125.0
M30
