G04 #@! TF.GenerationSoftware,KiCad,Pcbnew,8.0.8*
G04 #@! TF.CreationDate,2025-03-16T18:35:58-04:00*
G04 #@! TF.ProjectId,h_bridge_driver,685f6272-6964-4676-955f-647269766572,rev?*
G04 #@! TF.SameCoordinates,Original*
G04 #@! TF.FileFunction,Copper,L3,Inr*
G04 #@! TF.FilePolarity,Positive*
%FSLAX46Y46*%
G04 Gerber Fmt 4.6, Leading zero omitted, Abs format (unit mm)*
G04 Created by KiCad (PCBNEW 8.0.8) date 2025-03-16 18:35:58*
%MOMM*%
%LPD*%
G01*
G04 APERTURE LIST*
G04 #@! TA.AperFunction,ComponentPad*
%ADD10C,2.200000*%
G04 #@! TD*
G04 #@! TA.AperFunction,ComponentPad*
%ADD11C,2.600000*%
G04 #@! TD*
G04 #@! TA.AperFunction,ComponentPad*
%ADD12R,2.400000X2.400000*%
G04 #@! TD*
G04 #@! TA.AperFunction,ComponentPad*
%ADD13C,2.400000*%
G04 #@! TD*
G04 #@! TA.AperFunction,ComponentPad*
%ADD14O,2.500000X2.200000*%
G04 #@! TD*
G04 #@! TA.AperFunction,ComponentPad*
%ADD15C,3.600000*%
G04 #@! TD*
G04 #@! TA.AperFunction,ComponentPad*
%ADD16O,1.800000X1.200000*%
G04 #@! TD*
G04 #@! TA.AperFunction,ViaPad*
%ADD17C,0.600000*%
G04 #@! TD*
G04 APERTURE END LIST*
D10*
X154540000Y-110920000D03*
X148190000Y-113460000D03*
D11*
X90000000Y-87000000D03*
D12*
X150823959Y-93000000D03*
D13*
X145823959Y-93000000D03*
D14*
X191000000Y-75500000D03*
X175500000Y-75500000D03*
D11*
X90000000Y-71000000D03*
D15*
X100000000Y-55000000D03*
D11*
X200000000Y-99500000D03*
X200000000Y-83500000D03*
D15*
X190000000Y-125000000D03*
D14*
X99500000Y-63000000D03*
X115000000Y-63000000D03*
X99500000Y-79000000D03*
X115000000Y-79000000D03*
D15*
X190000000Y-55000000D03*
D14*
X99500000Y-111000000D03*
X115000000Y-111000000D03*
D12*
X150823959Y-66500000D03*
D13*
X145823959Y-66500000D03*
D16*
X132000000Y-107000000D03*
X132000000Y-105000000D03*
X132000000Y-103000000D03*
D10*
X176500000Y-111000000D03*
X170150000Y-113540000D03*
D14*
X191000000Y-91500000D03*
X175500000Y-91500000D03*
X99500000Y-95000000D03*
X115000000Y-95000000D03*
D15*
X100000000Y-125000000D03*
D17*
X164400000Y-105200000D03*
X167400000Y-105200000D03*
X164400000Y-103600000D03*
X167400000Y-103600000D03*
X167400000Y-102000000D03*
X164400000Y-102000000D03*
X176500000Y-104000000D03*
X159800000Y-103600000D03*
X139300000Y-64100000D03*
X135400000Y-74600000D03*
X124500000Y-96000000D03*
X134250000Y-96250000D03*
X127000000Y-115500000D03*
X155000000Y-68000000D03*
X133000000Y-96250000D03*
X157000000Y-70000000D03*
X157000000Y-90000000D03*
X155000000Y-64000000D03*
X123000000Y-113500000D03*
X141000000Y-99000000D03*
X133000000Y-97750000D03*
X119000000Y-107500000D03*
X119000000Y-115500000D03*
X121000000Y-115500000D03*
X121000000Y-113500000D03*
X119000000Y-113500000D03*
X153000000Y-94000000D03*
X125000000Y-113500000D03*
X133500000Y-97000000D03*
X153000000Y-96000000D03*
X153000000Y-90000000D03*
X123000000Y-107500000D03*
X155000000Y-96000000D03*
X133500000Y-95500000D03*
X121000000Y-111500000D03*
X135000000Y-95500000D03*
X125000000Y-107500000D03*
X127000000Y-107500000D03*
X153000000Y-64000000D03*
X123000000Y-115500000D03*
X119000000Y-109500000D03*
X157000000Y-68000000D03*
X155000000Y-92000000D03*
X157000000Y-94000000D03*
X155000000Y-90000000D03*
X155000000Y-94000000D03*
X134250000Y-97750000D03*
X157000000Y-96000000D03*
X155000000Y-66000000D03*
X155000000Y-70000000D03*
X127000000Y-111500000D03*
X119000000Y-111500000D03*
X135000000Y-97000000D03*
X157000000Y-64000000D03*
X125000000Y-111500000D03*
X135500000Y-97750000D03*
X153000000Y-68000000D03*
X123000000Y-111500000D03*
X153000000Y-66000000D03*
X135500000Y-96250000D03*
X127000000Y-109500000D03*
X123000000Y-109500000D03*
X121000000Y-109500000D03*
X157000000Y-92000000D03*
X121000000Y-107500000D03*
X153000000Y-70000000D03*
X127000000Y-113500000D03*
X153000000Y-92000000D03*
X157000000Y-66000000D03*
X125000000Y-109500000D03*
X103000000Y-97500000D03*
X124500000Y-91000000D03*
X115000000Y-127500000D03*
X104500000Y-96000000D03*
X107500000Y-96000000D03*
X106000000Y-99500000D03*
X147000000Y-87000000D03*
X145500000Y-87000000D03*
X160000000Y-127500000D03*
X103000000Y-90000000D03*
X104500000Y-97500000D03*
X146500000Y-64000000D03*
X110500000Y-92000000D03*
X103000000Y-92000000D03*
X142500000Y-65500000D03*
X122500000Y-52500000D03*
X131200000Y-72500000D03*
X110500000Y-90000000D03*
X126000000Y-93500000D03*
X142500000Y-67500000D03*
X144000000Y-85000000D03*
X130000000Y-52500000D03*
X127800000Y-75200000D03*
X110500000Y-97500000D03*
X109000000Y-96000000D03*
X104500000Y-94000000D03*
X144000000Y-87000000D03*
X104500000Y-99500000D03*
X145000000Y-127500000D03*
X137500000Y-127500000D03*
X106000000Y-97500000D03*
X107500000Y-97500000D03*
X107500000Y-127500000D03*
X107500000Y-94000000D03*
X109000000Y-90000000D03*
X145000000Y-52500000D03*
X144500000Y-64000000D03*
X109000000Y-94000000D03*
X144000000Y-86000000D03*
X104500000Y-92000000D03*
X174500000Y-106000000D03*
X124150000Y-75500000D03*
X145500000Y-86000000D03*
X107500000Y-92000000D03*
X110500000Y-94000000D03*
X144000000Y-83500000D03*
X106000000Y-94000000D03*
X160000000Y-52500000D03*
X115000000Y-52500000D03*
X109000000Y-92000000D03*
X137500000Y-52500000D03*
X147000000Y-86000000D03*
X106000000Y-90000000D03*
X104500000Y-90000000D03*
X167500000Y-52500000D03*
X107500000Y-52500000D03*
X110500000Y-99500000D03*
X175000000Y-52500000D03*
X167500000Y-127500000D03*
X130000000Y-127500000D03*
X127750000Y-74000000D03*
X127500000Y-93500000D03*
X147000000Y-90500000D03*
X175000000Y-127500000D03*
X127500000Y-96000000D03*
X146500000Y-69000000D03*
X121500000Y-75000000D03*
X109000000Y-99500000D03*
X109000000Y-97500000D03*
X107500000Y-99500000D03*
X106000000Y-92000000D03*
X145500000Y-90500000D03*
X152500000Y-52500000D03*
X142500000Y-69000000D03*
X103000000Y-94000000D03*
X106000000Y-96000000D03*
X145500000Y-85000000D03*
X125100000Y-77919485D03*
X124500000Y-93500000D03*
X110500000Y-96000000D03*
X125750000Y-80000000D03*
X107500000Y-90000000D03*
X122500000Y-127500000D03*
X103000000Y-99500000D03*
X126000000Y-96000000D03*
X144500000Y-69000000D03*
X147000000Y-85000000D03*
X152500000Y-127500000D03*
X142500000Y-64000000D03*
X144000000Y-90500000D03*
X103000000Y-96000000D03*
X127000000Y-89500000D03*
X97500000Y-88500000D03*
X124800000Y-71000000D03*
X170250000Y-103500000D03*
X138500000Y-114250000D03*
X148250000Y-103250000D03*
X135750000Y-114250000D03*
X129241051Y-73752983D03*
X123500000Y-79750000D03*
X125900000Y-74700000D03*
X140950000Y-74950000D03*
X124600000Y-76400000D03*
X132750000Y-68000000D03*
X142000000Y-100000000D03*
X125600000Y-76500000D03*
X127600000Y-71800000D03*
X170100000Y-66600000D03*
X171500000Y-76800000D03*
X173000000Y-74200000D03*
X170000000Y-74400000D03*
X173100000Y-63400000D03*
X173100000Y-65000000D03*
X171600000Y-65800000D03*
X171500000Y-78600000D03*
X171600000Y-64000000D03*
X203900000Y-84700000D03*
X195400000Y-85600000D03*
X198400000Y-85200000D03*
X171600000Y-69200000D03*
X173100000Y-68200000D03*
X170100000Y-68400000D03*
X170000000Y-79200000D03*
X173000000Y-77600000D03*
X195400000Y-81400000D03*
X139500000Y-74400000D03*
X170100000Y-63400000D03*
X173000000Y-79200000D03*
X196400000Y-81800000D03*
X198400000Y-81800000D03*
X171500000Y-73400000D03*
X171600000Y-67600000D03*
X173100000Y-66600000D03*
X170000000Y-76000000D03*
X171500000Y-75000000D03*
X170100000Y-65000000D03*
X196400000Y-85200000D03*
X204100000Y-83600000D03*
X202900000Y-85100000D03*
X170000000Y-77600000D03*
X203900000Y-82500000D03*
X201900000Y-81800000D03*
X201900000Y-85200000D03*
X197400000Y-81800000D03*
X197400000Y-85200000D03*
X173000000Y-76000000D03*
X202900000Y-81900000D03*
X143500000Y-76000000D03*
X149500000Y-84000000D03*
X197400000Y-101200000D03*
X197400000Y-97800000D03*
X171300000Y-85000000D03*
X169800000Y-91000000D03*
X201900000Y-101200000D03*
X169800000Y-92600000D03*
X171300000Y-90200000D03*
X195400000Y-97400000D03*
X149315687Y-88600000D03*
X172800000Y-92600000D03*
X169800000Y-86000000D03*
X203900000Y-98500000D03*
X202900000Y-97900000D03*
X171300000Y-88400000D03*
X172800000Y-91000000D03*
X169800000Y-87800000D03*
X169800000Y-89400000D03*
X203900000Y-100700000D03*
X201900000Y-97800000D03*
X198400000Y-97800000D03*
X204100000Y-99600000D03*
X172800000Y-84200000D03*
X202900000Y-101100000D03*
X172800000Y-87600000D03*
X171300000Y-83400000D03*
X196400000Y-101200000D03*
X198400000Y-101200000D03*
X196400000Y-97800000D03*
X195400000Y-101600000D03*
X171300000Y-92000000D03*
X172800000Y-86000000D03*
X169800000Y-84400000D03*
X172800000Y-89400000D03*
X171300000Y-86800000D03*
X137000000Y-75000000D03*
X157000000Y-88000000D03*
X157000000Y-82500000D03*
X141875000Y-87625000D03*
X148500000Y-88250000D03*
X122000000Y-85500000D03*
X140250000Y-100750000D03*
X137000000Y-87750000D03*
X139250000Y-101250000D03*
X136750000Y-88750000D03*
X120500000Y-84750000D03*
X92600000Y-85300000D03*
X91600000Y-85300000D03*
X94600000Y-84900000D03*
X86100000Y-88100000D03*
X86100000Y-85800000D03*
X88100000Y-88700000D03*
X87100000Y-88700000D03*
X91600000Y-88700000D03*
X94600000Y-89100000D03*
X92600000Y-88700000D03*
X87100000Y-85300000D03*
X93600000Y-88700000D03*
X85900000Y-86900000D03*
X88100000Y-85300000D03*
X93600000Y-85300000D03*
X94600000Y-68900000D03*
X94600000Y-73100000D03*
X88100000Y-69300000D03*
X86100000Y-72100000D03*
X93600000Y-69300000D03*
X85900000Y-70900000D03*
X92600000Y-69300000D03*
X91600000Y-69300000D03*
X91600000Y-72700000D03*
X87100000Y-72700000D03*
X87100000Y-69300000D03*
X88100000Y-72700000D03*
X92600000Y-72700000D03*
X86100000Y-69800000D03*
X93600000Y-72700000D03*
X105500000Y-112500000D03*
X111500000Y-112500000D03*
X108500000Y-110000000D03*
X113500000Y-115000000D03*
X108500000Y-112500000D03*
X111500000Y-110000000D03*
X111000000Y-115000000D03*
X111000000Y-117000000D03*
X102500000Y-112500000D03*
X102500000Y-110000000D03*
X105500000Y-110000000D03*
X113500000Y-117000000D03*
G04 #@! TA.AperFunction,Conductor*
G36*
X194442539Y-62519685D02*
G01*
X194488294Y-62572489D01*
X194499500Y-62624000D01*
X194499500Y-78934108D01*
X194499500Y-79000000D01*
X194499500Y-79151252D01*
X194535963Y-79451551D01*
X194578200Y-79622915D01*
X194608358Y-79745272D01*
X194715628Y-80028117D01*
X194770805Y-80133246D01*
X194856208Y-80295967D01*
X194978050Y-80472487D01*
X194999933Y-80538840D01*
X195000000Y-80542925D01*
X195000000Y-81000000D01*
X195457074Y-81000000D01*
X195524113Y-81019685D01*
X195527507Y-81021945D01*
X195704033Y-81143792D01*
X195832408Y-81211168D01*
X195971882Y-81284371D01*
X196254727Y-81391641D01*
X196254731Y-81391642D01*
X196254734Y-81391643D01*
X196548449Y-81464037D01*
X196799661Y-81494539D01*
X196848746Y-81500500D01*
X196848748Y-81500500D01*
X196934108Y-81500500D01*
X202934108Y-81500500D01*
X202995572Y-81500500D01*
X203004418Y-81500816D01*
X203204561Y-81515130D01*
X203222063Y-81517647D01*
X203413797Y-81559355D01*
X203430755Y-81564334D01*
X203614609Y-81632909D01*
X203630701Y-81640259D01*
X203802904Y-81734288D01*
X203817784Y-81743849D01*
X203974867Y-81861441D01*
X203988237Y-81873027D01*
X204126972Y-82011762D01*
X204138558Y-82025132D01*
X204256146Y-82182210D01*
X204265711Y-82197095D01*
X204359740Y-82369298D01*
X204367090Y-82385390D01*
X204435662Y-82569236D01*
X204440646Y-82586212D01*
X204482351Y-82777931D01*
X204484869Y-82795442D01*
X204499184Y-82995580D01*
X204499500Y-83004427D01*
X204499500Y-83995572D01*
X204499184Y-84004419D01*
X204484869Y-84204557D01*
X204482351Y-84222068D01*
X204440646Y-84413787D01*
X204435662Y-84430763D01*
X204367090Y-84614609D01*
X204359740Y-84630701D01*
X204265711Y-84802904D01*
X204256146Y-84817789D01*
X204138558Y-84974867D01*
X204126972Y-84988237D01*
X203988237Y-85126972D01*
X203974867Y-85138558D01*
X203817789Y-85256146D01*
X203802904Y-85265711D01*
X203630701Y-85359740D01*
X203614609Y-85367090D01*
X203430763Y-85435662D01*
X203413787Y-85440646D01*
X203222068Y-85482351D01*
X203204557Y-85484869D01*
X203023779Y-85497799D01*
X203004417Y-85499184D01*
X202995572Y-85499500D01*
X196848746Y-85499500D01*
X196698598Y-85517731D01*
X196548449Y-85535963D01*
X196429602Y-85565255D01*
X196254727Y-85608358D01*
X195971882Y-85715628D01*
X195704036Y-85856206D01*
X195704033Y-85856207D01*
X195704033Y-85856208D01*
X195531642Y-85975201D01*
X195527514Y-85978050D01*
X195461159Y-85999933D01*
X195457074Y-86000000D01*
X195112822Y-86000000D01*
X195053205Y-85984728D01*
X195026378Y-85970018D01*
X195026376Y-85970017D01*
X195026374Y-85970016D01*
X195026372Y-85970015D01*
X180781329Y-80628124D01*
X179198538Y-80034578D01*
X179111250Y-80010507D01*
X179111228Y-80010502D01*
X179067715Y-80002612D01*
X179067706Y-80002611D01*
X179067702Y-80002610D01*
X179067696Y-80002610D01*
X178977517Y-79994500D01*
X178977514Y-79994500D01*
X161629500Y-79994500D01*
X161562461Y-79974815D01*
X161516706Y-79922011D01*
X161505500Y-79870500D01*
X161505500Y-76006108D01*
X161505350Y-75999998D01*
X161504891Y-75981292D01*
X161504294Y-75969138D01*
X161502469Y-75944389D01*
X161500597Y-75925382D01*
X161500000Y-75913229D01*
X161500000Y-71874000D01*
X161519685Y-71806961D01*
X161572489Y-71761206D01*
X161624000Y-71750000D01*
X169500000Y-71750000D01*
X169500000Y-67500000D01*
X165629500Y-67500000D01*
X165562461Y-67480315D01*
X165516706Y-67427511D01*
X165505500Y-67376000D01*
X165505500Y-62624000D01*
X165525185Y-62556961D01*
X165577989Y-62511206D01*
X165629500Y-62500000D01*
X194375500Y-62500000D01*
X194442539Y-62519685D01*
G37*
G04 #@! TD.AperFunction*
G04 #@! TA.AperFunction,Conductor*
G36*
X164943039Y-62519685D02*
G01*
X164988794Y-62572489D01*
X165000000Y-62624000D01*
X165000000Y-70376000D01*
X164980315Y-70443039D01*
X164927511Y-70488794D01*
X164876000Y-70500000D01*
X148624000Y-70500000D01*
X148556961Y-70480315D01*
X148511206Y-70427511D01*
X148500000Y-70376000D01*
X148500000Y-62624000D01*
X148519685Y-62556961D01*
X148572489Y-62511206D01*
X148624000Y-62500000D01*
X164876000Y-62500000D01*
X164943039Y-62519685D01*
G37*
G04 #@! TD.AperFunction*
G04 #@! TA.AperFunction,Conductor*
G36*
X179021053Y-80507895D02*
G01*
X180603836Y-81101438D01*
X194848885Y-86443332D01*
X194904743Y-86485301D01*
X194929044Y-86550808D01*
X194914071Y-86619055D01*
X194907395Y-86629874D01*
X194856210Y-86704029D01*
X194856206Y-86704035D01*
X194715628Y-86971882D01*
X194608358Y-87254727D01*
X194578200Y-87377085D01*
X194535963Y-87548449D01*
X194499500Y-87848748D01*
X194499500Y-87934108D01*
X194499500Y-94934108D01*
X194499500Y-95000000D01*
X194499500Y-95151252D01*
X194535963Y-95451551D01*
X194578200Y-95622915D01*
X194608358Y-95745272D01*
X194715628Y-96028117D01*
X194770805Y-96133246D01*
X194856208Y-96295967D01*
X194978050Y-96472487D01*
X194999933Y-96538840D01*
X195000000Y-96542925D01*
X195000000Y-97000000D01*
X195457074Y-97000000D01*
X195524113Y-97019685D01*
X195527507Y-97021945D01*
X195704033Y-97143792D01*
X195832408Y-97211168D01*
X195971882Y-97284371D01*
X196254727Y-97391641D01*
X196254731Y-97391642D01*
X196254734Y-97391643D01*
X196548449Y-97464037D01*
X196799661Y-97494539D01*
X196848746Y-97500500D01*
X196848748Y-97500500D01*
X196934108Y-97500500D01*
X202934108Y-97500500D01*
X202995572Y-97500500D01*
X203004418Y-97500816D01*
X203204561Y-97515130D01*
X203222063Y-97517647D01*
X203413797Y-97559355D01*
X203430755Y-97564334D01*
X203614609Y-97632909D01*
X203630701Y-97640259D01*
X203802904Y-97734288D01*
X203817784Y-97743849D01*
X203974867Y-97861441D01*
X203988237Y-97873027D01*
X204126972Y-98011762D01*
X204138558Y-98025132D01*
X204256146Y-98182210D01*
X204265711Y-98197095D01*
X204359740Y-98369298D01*
X204367090Y-98385390D01*
X204435662Y-98569236D01*
X204440646Y-98586212D01*
X204482351Y-98777931D01*
X204484869Y-98795442D01*
X204499184Y-98995580D01*
X204499500Y-99004427D01*
X204499500Y-99995572D01*
X204499184Y-100004419D01*
X204484869Y-100204557D01*
X204482351Y-100222068D01*
X204440646Y-100413787D01*
X204435662Y-100430763D01*
X204367090Y-100614609D01*
X204359740Y-100630701D01*
X204265711Y-100802904D01*
X204256146Y-100817789D01*
X204138558Y-100974867D01*
X204126972Y-100988237D01*
X203988237Y-101126972D01*
X203974867Y-101138558D01*
X203817789Y-101256146D01*
X203802904Y-101265711D01*
X203630701Y-101359740D01*
X203614609Y-101367090D01*
X203430763Y-101435662D01*
X203413787Y-101440646D01*
X203222068Y-101482351D01*
X203204557Y-101484869D01*
X203024636Y-101497738D01*
X203004417Y-101499184D01*
X202995572Y-101499500D01*
X196848746Y-101499500D01*
X196698598Y-101517731D01*
X196548449Y-101535963D01*
X196429602Y-101565255D01*
X196254727Y-101608358D01*
X195971882Y-101715628D01*
X195704036Y-101856206D01*
X195527514Y-101978050D01*
X195461159Y-101999933D01*
X195457074Y-102000000D01*
X195018925Y-102000000D01*
X194981939Y-101994356D01*
X194604137Y-101876293D01*
X179000000Y-97000000D01*
X170124000Y-97000000D01*
X170056961Y-96980315D01*
X170011206Y-96927511D01*
X170000000Y-96876000D01*
X170000000Y-93500000D01*
X165824000Y-93500000D01*
X165756961Y-93480315D01*
X165711206Y-93427511D01*
X165700000Y-93376000D01*
X165700000Y-88000000D01*
X161624000Y-88000000D01*
X161556961Y-87980315D01*
X161511206Y-87927511D01*
X161500000Y-87876000D01*
X161500000Y-80624000D01*
X161519685Y-80556961D01*
X161572489Y-80511206D01*
X161624000Y-80500000D01*
X178977514Y-80500000D01*
X179021053Y-80507895D01*
G37*
G04 #@! TD.AperFunction*
G04 #@! TA.AperFunction,Conductor*
G36*
X183723314Y-99005643D02*
G01*
X194453359Y-102358783D01*
X194820043Y-102473371D01*
X194878157Y-102512155D01*
X194906080Y-102576203D01*
X194894942Y-102645179D01*
X194885107Y-102662164D01*
X194856208Y-102704032D01*
X194856206Y-102704035D01*
X194715628Y-102971882D01*
X194608358Y-103254727D01*
X194603556Y-103274211D01*
X194535963Y-103548449D01*
X194529704Y-103599996D01*
X194499500Y-103848745D01*
X194499500Y-127995572D01*
X194499184Y-128004419D01*
X194484869Y-128204557D01*
X194482351Y-128222068D01*
X194440646Y-128413787D01*
X194435662Y-128430763D01*
X194367090Y-128614609D01*
X194359740Y-128630701D01*
X194265711Y-128802904D01*
X194256146Y-128817789D01*
X194138558Y-128974867D01*
X194126972Y-128988237D01*
X193988237Y-129126972D01*
X193974867Y-129138558D01*
X193817789Y-129256146D01*
X193802904Y-129265711D01*
X193630701Y-129359740D01*
X193614609Y-129367090D01*
X193430763Y-129435662D01*
X193413787Y-129440646D01*
X193222068Y-129482351D01*
X193204557Y-129484869D01*
X193023779Y-129497799D01*
X193004417Y-129499184D01*
X192995572Y-129499500D01*
X128083297Y-129499500D01*
X128016258Y-129479815D01*
X127970503Y-129427011D01*
X127960559Y-129357853D01*
X127963013Y-129345371D01*
X127973028Y-129305388D01*
X127977770Y-129281547D01*
X127985048Y-129232483D01*
X128002469Y-129055610D01*
X128004294Y-129030861D01*
X128004891Y-129018707D01*
X128005500Y-128993907D01*
X128005500Y-127499996D01*
X129194435Y-127499996D01*
X129194435Y-127500003D01*
X129214630Y-127679249D01*
X129214631Y-127679254D01*
X129274211Y-127849523D01*
X129327360Y-127934108D01*
X129370184Y-128002262D01*
X129497738Y-128129816D01*
X129588080Y-128186582D01*
X129630762Y-128213401D01*
X129650478Y-128225789D01*
X129820745Y-128285368D01*
X129820750Y-128285369D01*
X129999996Y-128305565D01*
X130000000Y-128305565D01*
X130000004Y-128305565D01*
X130179249Y-128285369D01*
X130179252Y-128285368D01*
X130179255Y-128285368D01*
X130349522Y-128225789D01*
X130502262Y-128129816D01*
X130629816Y-128002262D01*
X130725789Y-127849522D01*
X130785368Y-127679255D01*
X130795137Y-127592554D01*
X130805565Y-127500003D01*
X130805565Y-127499996D01*
X136694435Y-127499996D01*
X136694435Y-127500003D01*
X136714630Y-127679249D01*
X136714631Y-127679254D01*
X136774211Y-127849523D01*
X136827360Y-127934108D01*
X136870184Y-128002262D01*
X136997738Y-128129816D01*
X137088080Y-128186582D01*
X137130762Y-128213401D01*
X137150478Y-128225789D01*
X137320745Y-128285368D01*
X137320750Y-128285369D01*
X137499996Y-128305565D01*
X137500000Y-128305565D01*
X137500004Y-128305565D01*
X137679249Y-128285369D01*
X137679252Y-128285368D01*
X137679255Y-128285368D01*
X137849522Y-128225789D01*
X138002262Y-128129816D01*
X138129816Y-128002262D01*
X138225789Y-127849522D01*
X138285368Y-127679255D01*
X138295137Y-127592554D01*
X138305565Y-127500003D01*
X138305565Y-127499996D01*
X144194435Y-127499996D01*
X144194435Y-127500003D01*
X144214630Y-127679249D01*
X144214631Y-127679254D01*
X144274211Y-127849523D01*
X144327360Y-127934108D01*
X144370184Y-128002262D01*
X144497738Y-128129816D01*
X144588080Y-128186582D01*
X144630762Y-128213401D01*
X144650478Y-128225789D01*
X144820745Y-128285368D01*
X144820750Y-128285369D01*
X144999996Y-128305565D01*
X145000000Y-128305565D01*
X145000004Y-128305565D01*
X145179249Y-128285369D01*
X145179252Y-128285368D01*
X145179255Y-128285368D01*
X145349522Y-128225789D01*
X145502262Y-128129816D01*
X145629816Y-128002262D01*
X145725789Y-127849522D01*
X145785368Y-127679255D01*
X145795137Y-127592554D01*
X145805565Y-127500003D01*
X145805565Y-127499996D01*
X151694435Y-127499996D01*
X151694435Y-127500003D01*
X151714630Y-127679249D01*
X151714631Y-127679254D01*
X151774211Y-127849523D01*
X151827360Y-127934108D01*
X151870184Y-128002262D01*
X151997738Y-128129816D01*
X152088080Y-128186582D01*
X152130762Y-128213401D01*
X152150478Y-128225789D01*
X152320745Y-128285368D01*
X152320750Y-128285369D01*
X152499996Y-128305565D01*
X152500000Y-128305565D01*
X152500004Y-128305565D01*
X152679249Y-128285369D01*
X152679252Y-128285368D01*
X152679255Y-128285368D01*
X152849522Y-128225789D01*
X153002262Y-128129816D01*
X153129816Y-128002262D01*
X153225789Y-127849522D01*
X153285368Y-127679255D01*
X153295137Y-127592554D01*
X153305565Y-127500003D01*
X153305565Y-127499996D01*
X159194435Y-127499996D01*
X159194435Y-127500003D01*
X159214630Y-127679249D01*
X159214631Y-127679254D01*
X159274211Y-127849523D01*
X159327360Y-127934108D01*
X159370184Y-128002262D01*
X159497738Y-128129816D01*
X159588080Y-128186582D01*
X159630762Y-128213401D01*
X159650478Y-128225789D01*
X159820745Y-128285368D01*
X159820750Y-128285369D01*
X159999996Y-128305565D01*
X160000000Y-128305565D01*
X160000004Y-128305565D01*
X160179249Y-128285369D01*
X160179252Y-128285368D01*
X160179255Y-128285368D01*
X160349522Y-128225789D01*
X160502262Y-128129816D01*
X160629816Y-128002262D01*
X160725789Y-127849522D01*
X160785368Y-127679255D01*
X160795137Y-127592554D01*
X160805565Y-127500003D01*
X160805565Y-127499996D01*
X166694435Y-127499996D01*
X166694435Y-127500003D01*
X166714630Y-127679249D01*
X166714631Y-127679254D01*
X166774211Y-127849523D01*
X166827360Y-127934108D01*
X166870184Y-128002262D01*
X166997738Y-128129816D01*
X167088080Y-128186582D01*
X167130762Y-128213401D01*
X167150478Y-128225789D01*
X167320745Y-128285368D01*
X167320750Y-128285369D01*
X167499996Y-128305565D01*
X167500000Y-128305565D01*
X167500004Y-128305565D01*
X167679249Y-128285369D01*
X167679252Y-128285368D01*
X167679255Y-128285368D01*
X167849522Y-128225789D01*
X168002262Y-128129816D01*
X168129816Y-128002262D01*
X168225789Y-127849522D01*
X168285368Y-127679255D01*
X168295137Y-127592554D01*
X168305565Y-127500003D01*
X168305565Y-127499996D01*
X174194435Y-127499996D01*
X174194435Y-127500003D01*
X174214630Y-127679249D01*
X174214631Y-127679254D01*
X174274211Y-127849523D01*
X174327360Y-127934108D01*
X174370184Y-128002262D01*
X174497738Y-128129816D01*
X174588080Y-128186582D01*
X174630762Y-128213401D01*
X174650478Y-128225789D01*
X174820745Y-128285368D01*
X174820750Y-128285369D01*
X174999996Y-128305565D01*
X175000000Y-128305565D01*
X175000004Y-128305565D01*
X175179249Y-128285369D01*
X175179252Y-128285368D01*
X175179255Y-128285368D01*
X175349522Y-128225789D01*
X175502262Y-128129816D01*
X175629816Y-128002262D01*
X175725789Y-127849522D01*
X175785368Y-127679255D01*
X175795137Y-127592554D01*
X175805565Y-127500003D01*
X175805565Y-127499996D01*
X175785369Y-127320750D01*
X175785368Y-127320745D01*
X175773109Y-127285711D01*
X175725789Y-127150478D01*
X175629816Y-126997738D01*
X175502262Y-126870184D01*
X175349523Y-126774211D01*
X175179254Y-126714631D01*
X175179249Y-126714630D01*
X175000004Y-126694435D01*
X174999996Y-126694435D01*
X174820750Y-126714630D01*
X174820745Y-126714631D01*
X174650476Y-126774211D01*
X174497737Y-126870184D01*
X174370184Y-126997737D01*
X174274211Y-127150476D01*
X174214631Y-127320745D01*
X174214630Y-127320750D01*
X174194435Y-127499996D01*
X168305565Y-127499996D01*
X168285369Y-127320750D01*
X168285368Y-127320745D01*
X168273109Y-127285711D01*
X168225789Y-127150478D01*
X168129816Y-126997738D01*
X168002262Y-126870184D01*
X167849523Y-126774211D01*
X167679254Y-126714631D01*
X167679249Y-126714630D01*
X167500004Y-126694435D01*
X167499996Y-126694435D01*
X167320750Y-126714630D01*
X167320745Y-126714631D01*
X167150476Y-126774211D01*
X166997737Y-126870184D01*
X166870184Y-126997737D01*
X166774211Y-127150476D01*
X166714631Y-127320745D01*
X166714630Y-127320750D01*
X166694435Y-127499996D01*
X160805565Y-127499996D01*
X160785369Y-127320750D01*
X160785368Y-127320745D01*
X160773109Y-127285711D01*
X160725789Y-127150478D01*
X160629816Y-126997738D01*
X160502262Y-126870184D01*
X160349523Y-126774211D01*
X160179254Y-126714631D01*
X160179249Y-126714630D01*
X160000004Y-126694435D01*
X159999996Y-126694435D01*
X159820750Y-126714630D01*
X159820745Y-126714631D01*
X159650476Y-126774211D01*
X159497737Y-126870184D01*
X159370184Y-126997737D01*
X159274211Y-127150476D01*
X159214631Y-127320745D01*
X159214630Y-127320750D01*
X159194435Y-127499996D01*
X153305565Y-127499996D01*
X153285369Y-127320750D01*
X153285368Y-127320745D01*
X153273109Y-127285711D01*
X153225789Y-127150478D01*
X153129816Y-126997738D01*
X153002262Y-126870184D01*
X152849523Y-126774211D01*
X152679254Y-126714631D01*
X152679249Y-126714630D01*
X152500004Y-126694435D01*
X152499996Y-126694435D01*
X152320750Y-126714630D01*
X152320745Y-126714631D01*
X152150476Y-126774211D01*
X151997737Y-126870184D01*
X151870184Y-126997737D01*
X151774211Y-127150476D01*
X151714631Y-127320745D01*
X151714630Y-127320750D01*
X151694435Y-127499996D01*
X145805565Y-127499996D01*
X145785369Y-127320750D01*
X145785368Y-127320745D01*
X145773109Y-127285711D01*
X145725789Y-127150478D01*
X145629816Y-126997738D01*
X145502262Y-126870184D01*
X145349523Y-126774211D01*
X145179254Y-126714631D01*
X145179249Y-126714630D01*
X145000004Y-126694435D01*
X144999996Y-126694435D01*
X144820750Y-126714630D01*
X144820745Y-126714631D01*
X144650476Y-126774211D01*
X144497737Y-126870184D01*
X144370184Y-126997737D01*
X144274211Y-127150476D01*
X144214631Y-127320745D01*
X144214630Y-127320750D01*
X144194435Y-127499996D01*
X138305565Y-127499996D01*
X138285369Y-127320750D01*
X138285368Y-127320745D01*
X138273109Y-127285711D01*
X138225789Y-127150478D01*
X138129816Y-126997738D01*
X138002262Y-126870184D01*
X137849523Y-126774211D01*
X137679254Y-126714631D01*
X137679249Y-126714630D01*
X137500004Y-126694435D01*
X137499996Y-126694435D01*
X137320750Y-126714630D01*
X137320745Y-126714631D01*
X137150476Y-126774211D01*
X136997737Y-126870184D01*
X136870184Y-126997737D01*
X136774211Y-127150476D01*
X136714631Y-127320745D01*
X136714630Y-127320750D01*
X136694435Y-127499996D01*
X130805565Y-127499996D01*
X130785369Y-127320750D01*
X130785368Y-127320745D01*
X130773109Y-127285711D01*
X130725789Y-127150478D01*
X130629816Y-126997738D01*
X130502262Y-126870184D01*
X130349523Y-126774211D01*
X130179254Y-126714631D01*
X130179249Y-126714630D01*
X130000004Y-126694435D01*
X129999996Y-126694435D01*
X129820750Y-126714630D01*
X129820745Y-126714631D01*
X129650476Y-126774211D01*
X129497737Y-126870184D01*
X129370184Y-126997737D01*
X129274211Y-127150476D01*
X129214631Y-127320745D01*
X129214630Y-127320750D01*
X129194435Y-127499996D01*
X128005500Y-127499996D01*
X128005500Y-125000000D01*
X187694564Y-125000000D01*
X187714287Y-125300918D01*
X187714288Y-125300930D01*
X187773118Y-125596683D01*
X187773122Y-125596698D01*
X187870053Y-125882247D01*
X187870062Y-125882268D01*
X188003431Y-126152713D01*
X188003435Y-126152720D01*
X188170973Y-126403459D01*
X188369810Y-126630189D01*
X188596540Y-126829026D01*
X188847279Y-126996564D01*
X188847286Y-126996568D01*
X189117731Y-127129937D01*
X189117736Y-127129939D01*
X189117748Y-127129945D01*
X189403309Y-127226880D01*
X189603251Y-127266651D01*
X189699069Y-127285711D01*
X189699070Y-127285711D01*
X189699080Y-127285713D01*
X190000000Y-127305436D01*
X190300920Y-127285713D01*
X190596691Y-127226880D01*
X190882252Y-127129945D01*
X191152718Y-126996566D01*
X191403461Y-126829025D01*
X191630189Y-126630189D01*
X191829025Y-126403461D01*
X191996566Y-126152718D01*
X192129945Y-125882252D01*
X192226880Y-125596691D01*
X192285713Y-125300920D01*
X192305436Y-125000000D01*
X192285713Y-124699080D01*
X192226880Y-124403309D01*
X192129945Y-124117748D01*
X191996566Y-123847282D01*
X191829025Y-123596539D01*
X191630189Y-123369810D01*
X191403459Y-123170973D01*
X191152720Y-123003435D01*
X191152713Y-123003431D01*
X190882268Y-122870062D01*
X190882247Y-122870053D01*
X190596698Y-122773122D01*
X190596692Y-122773120D01*
X190596691Y-122773120D01*
X190596689Y-122773119D01*
X190596683Y-122773118D01*
X190300930Y-122714288D01*
X190300921Y-122714287D01*
X190300920Y-122714287D01*
X190000000Y-122694564D01*
X189699080Y-122714287D01*
X189699079Y-122714287D01*
X189699069Y-122714288D01*
X189403316Y-122773118D01*
X189403301Y-122773122D01*
X189117752Y-122870053D01*
X189117731Y-122870062D01*
X188847286Y-123003431D01*
X188847279Y-123003435D01*
X188596540Y-123170973D01*
X188369810Y-123369810D01*
X188170973Y-123596540D01*
X188003435Y-123847279D01*
X188003431Y-123847286D01*
X187870062Y-124117731D01*
X187870053Y-124117752D01*
X187773122Y-124403301D01*
X187773118Y-124403316D01*
X187714288Y-124699069D01*
X187714287Y-124699081D01*
X187694564Y-125000000D01*
X128005500Y-125000000D01*
X128005500Y-115913389D01*
X145819500Y-115913389D01*
X145819500Y-116086610D01*
X145841816Y-116227513D01*
X145846598Y-116257701D01*
X145900127Y-116422445D01*
X145978768Y-116576788D01*
X146080586Y-116716928D01*
X146203072Y-116839414D01*
X146343212Y-116941232D01*
X146497555Y-117019873D01*
X146662299Y-117073402D01*
X146833389Y-117100500D01*
X146833390Y-117100500D01*
X147006610Y-117100500D01*
X147006611Y-117100500D01*
X147177701Y-117073402D01*
X147342445Y-117019873D01*
X147496788Y-116941232D01*
X147636928Y-116839414D01*
X147759414Y-116716928D01*
X147861232Y-116576788D01*
X147939873Y-116422445D01*
X147993402Y-116257701D01*
X148020500Y-116086611D01*
X148020500Y-115913389D01*
X148010854Y-115852486D01*
X149749500Y-115852486D01*
X149749500Y-116147513D01*
X149774539Y-116337697D01*
X149788007Y-116439993D01*
X149862212Y-116716930D01*
X149864361Y-116724951D01*
X149864364Y-116724961D01*
X149977254Y-116997500D01*
X149977258Y-116997510D01*
X150124761Y-117252993D01*
X150304352Y-117487040D01*
X150304358Y-117487047D01*
X150512952Y-117695641D01*
X150512959Y-117695647D01*
X150747006Y-117875238D01*
X151002489Y-118022741D01*
X151002490Y-118022741D01*
X151002493Y-118022743D01*
X151275048Y-118135639D01*
X151560007Y-118211993D01*
X151852494Y-118250500D01*
X151852501Y-118250500D01*
X152147499Y-118250500D01*
X152147506Y-118250500D01*
X152439993Y-118211993D01*
X152724952Y-118135639D01*
X152997507Y-118022743D01*
X153252994Y-117875238D01*
X153487042Y-117695646D01*
X153695646Y-117487042D01*
X153875238Y-117252994D01*
X154022743Y-116997507D01*
X154135639Y-116724952D01*
X154211993Y-116439993D01*
X154250500Y-116147506D01*
X154250500Y-115913389D01*
X155979500Y-115913389D01*
X155979500Y-116086610D01*
X156001816Y-116227513D01*
X156006598Y-116257701D01*
X156060127Y-116422445D01*
X156138768Y-116576788D01*
X156240586Y-116716928D01*
X156363072Y-116839414D01*
X156503212Y-116941232D01*
X156657555Y-117019873D01*
X156822299Y-117073402D01*
X156993389Y-117100500D01*
X156993390Y-117100500D01*
X157166610Y-117100500D01*
X157166611Y-117100500D01*
X157337701Y-117073402D01*
X157502445Y-117019873D01*
X157656788Y-116941232D01*
X157796928Y-116839414D01*
X157919414Y-116716928D01*
X158021232Y-116576788D01*
X158099873Y-116422445D01*
X158153402Y-116257701D01*
X158180500Y-116086611D01*
X158180500Y-115993389D01*
X167779500Y-115993389D01*
X167779500Y-116166610D01*
X167793926Y-116257697D01*
X167806598Y-116337701D01*
X167860127Y-116502445D01*
X167938768Y-116656788D01*
X168040586Y-116796928D01*
X168163072Y-116919414D01*
X168303212Y-117021232D01*
X168457555Y-117099873D01*
X168622299Y-117153402D01*
X168793389Y-117180500D01*
X168793390Y-117180500D01*
X168966610Y-117180500D01*
X168966611Y-117180500D01*
X169137701Y-117153402D01*
X169302445Y-117099873D01*
X169456788Y-117021232D01*
X169596928Y-116919414D01*
X169719414Y-116796928D01*
X169821232Y-116656788D01*
X169899873Y-116502445D01*
X169953402Y-116337701D01*
X169980500Y-116166611D01*
X169980500Y-115993389D01*
X169970854Y-115932486D01*
X171709500Y-115932486D01*
X171709500Y-116227513D01*
X171737475Y-116439993D01*
X171748007Y-116519993D01*
X171822212Y-116796930D01*
X171824361Y-116804951D01*
X171824364Y-116804961D01*
X171937254Y-117077500D01*
X171937258Y-117077510D01*
X172084761Y-117332993D01*
X172264352Y-117567040D01*
X172264358Y-117567047D01*
X172472952Y-117775641D01*
X172472959Y-117775647D01*
X172707006Y-117955238D01*
X172962489Y-118102741D01*
X172962490Y-118102741D01*
X172962493Y-118102743D01*
X173173296Y-118190060D01*
X173226245Y-118211993D01*
X173235048Y-118215639D01*
X173520007Y-118291993D01*
X173812494Y-118330500D01*
X173812501Y-118330500D01*
X174107499Y-118330500D01*
X174107506Y-118330500D01*
X174399993Y-118291993D01*
X174684952Y-118215639D01*
X174957507Y-118102743D01*
X175212994Y-117955238D01*
X175447042Y-117775646D01*
X175655646Y-117567042D01*
X175835238Y-117332994D01*
X175982743Y-117077507D01*
X176095639Y-116804952D01*
X176171993Y-116519993D01*
X176210500Y-116227506D01*
X176210500Y-115993389D01*
X177939500Y-115993389D01*
X177939500Y-116166610D01*
X177953926Y-116257697D01*
X177966598Y-116337701D01*
X178020127Y-116502445D01*
X178098768Y-116656788D01*
X178200586Y-116796928D01*
X178323072Y-116919414D01*
X178463212Y-117021232D01*
X178617555Y-117099873D01*
X178782299Y-117153402D01*
X178953389Y-117180500D01*
X178953390Y-117180500D01*
X179126610Y-117180500D01*
X179126611Y-117180500D01*
X179297701Y-117153402D01*
X179462445Y-117099873D01*
X179616788Y-117021232D01*
X179756928Y-116919414D01*
X179879414Y-116796928D01*
X179981232Y-116656788D01*
X180059873Y-116502445D01*
X180113402Y-116337701D01*
X180140500Y-116166611D01*
X180140500Y-115993389D01*
X180113402Y-115822299D01*
X180059873Y-115657555D01*
X179981232Y-115503212D01*
X179879414Y-115363072D01*
X179756928Y-115240586D01*
X179616788Y-115138768D01*
X179462445Y-115060127D01*
X179297701Y-115006598D01*
X179297699Y-115006597D01*
X179297698Y-115006597D01*
X179149271Y-114983089D01*
X179126611Y-114979500D01*
X178953389Y-114979500D01*
X178930729Y-114983089D01*
X178782302Y-115006597D01*
X178617552Y-115060128D01*
X178463211Y-115138768D01*
X178415822Y-115173199D01*
X178323072Y-115240586D01*
X178323070Y-115240588D01*
X178323069Y-115240588D01*
X178200588Y-115363069D01*
X178200588Y-115363070D01*
X178200586Y-115363072D01*
X178156892Y-115423211D01*
X178098768Y-115503211D01*
X178020128Y-115657552D01*
X177966597Y-115822302D01*
X177939500Y-115993389D01*
X176210500Y-115993389D01*
X176210500Y-115932494D01*
X176171993Y-115640007D01*
X176095639Y-115355048D01*
X175982743Y-115082493D01*
X175973449Y-115066396D01*
X175835238Y-114827006D01*
X175655647Y-114592959D01*
X175655641Y-114592952D01*
X175447047Y-114384358D01*
X175447040Y-114384352D01*
X175212993Y-114204761D01*
X174957510Y-114057258D01*
X174957500Y-114057254D01*
X174684961Y-113944364D01*
X174684954Y-113944362D01*
X174684952Y-113944361D01*
X174399993Y-113868007D01*
X174351113Y-113861571D01*
X174107513Y-113829500D01*
X174107506Y-113829500D01*
X173812494Y-113829500D01*
X173812486Y-113829500D01*
X173547678Y-113864364D01*
X173520007Y-113868007D01*
X173258426Y-113938097D01*
X173235048Y-113944361D01*
X173235038Y-113944364D01*
X172962499Y-114057254D01*
X172962489Y-114057258D01*
X172707006Y-114204761D01*
X172472959Y-114384352D01*
X172472952Y-114384358D01*
X172264358Y-114592952D01*
X172264352Y-114592959D01*
X172084761Y-114827006D01*
X171937258Y-115082489D01*
X171937254Y-115082499D01*
X171824364Y-115355038D01*
X171824361Y-115355048D01*
X171748008Y-115640004D01*
X171748006Y-115640015D01*
X171709500Y-115932486D01*
X169970854Y-115932486D01*
X169953402Y-115822299D01*
X169899873Y-115657555D01*
X169821232Y-115503212D01*
X169719414Y-115363072D01*
X169660556Y-115304214D01*
X169627071Y-115242891D01*
X169632055Y-115173199D01*
X169673927Y-115117266D01*
X169739391Y-115092849D01*
X169777184Y-115095959D01*
X169898928Y-115125187D01*
X170150000Y-115144947D01*
X170401072Y-115125187D01*
X170645956Y-115066396D01*
X170878631Y-114970019D01*
X171093361Y-114838432D01*
X171093363Y-114838430D01*
X171094180Y-114837732D01*
X170474025Y-114217578D01*
X170505258Y-114204641D01*
X170628097Y-114122563D01*
X170732563Y-114018097D01*
X170814641Y-113895258D01*
X170827578Y-113864025D01*
X171447732Y-114484180D01*
X171448430Y-114483363D01*
X171448432Y-114483361D01*
X171580019Y-114268631D01*
X171676396Y-114035956D01*
X171735187Y-113791072D01*
X171754947Y-113540000D01*
X171735187Y-113288927D01*
X171676396Y-113044043D01*
X171580019Y-112811368D01*
X171448429Y-112596634D01*
X171447733Y-112595819D01*
X171447732Y-112595819D01*
X170827577Y-113215973D01*
X170814641Y-113184742D01*
X170732563Y-113061903D01*
X170628097Y-112957437D01*
X170505258Y-112875359D01*
X170474023Y-112862421D01*
X171094179Y-112242266D01*
X171093362Y-112241568D01*
X170878631Y-112109980D01*
X170645956Y-112013603D01*
X170401072Y-111954812D01*
X170150000Y-111935052D01*
X169898927Y-111954812D01*
X169654043Y-112013603D01*
X169421368Y-112109980D01*
X169206637Y-112241567D01*
X169205818Y-112242266D01*
X169825974Y-112862421D01*
X169794742Y-112875359D01*
X169671903Y-112957437D01*
X169567437Y-113061903D01*
X169485359Y-113184742D01*
X169472421Y-113215974D01*
X168852266Y-112595818D01*
X168851567Y-112596637D01*
X168719980Y-112811368D01*
X168623603Y-113044043D01*
X168564812Y-113288927D01*
X168545052Y-113540000D01*
X168564812Y-113791072D01*
X168623603Y-114035956D01*
X168719980Y-114268631D01*
X168851568Y-114483362D01*
X168852266Y-114484179D01*
X169472421Y-113864024D01*
X169485359Y-113895258D01*
X169567437Y-114018097D01*
X169671903Y-114122563D01*
X169794742Y-114204641D01*
X169825974Y-114217577D01*
X169205819Y-114837732D01*
X169206989Y-114867539D01*
X169189948Y-114935299D01*
X169138980Y-114983089D01*
X169070264Y-114995738D01*
X169063686Y-114994875D01*
X168989271Y-114983089D01*
X168966611Y-114979500D01*
X168793389Y-114979500D01*
X168770729Y-114983089D01*
X168622302Y-115006597D01*
X168457552Y-115060128D01*
X168303211Y-115138768D01*
X168255822Y-115173199D01*
X168163072Y-115240586D01*
X168163070Y-115240588D01*
X168163069Y-115240588D01*
X168040588Y-115363069D01*
X168040588Y-115363070D01*
X168040586Y-115363072D01*
X167996892Y-115423211D01*
X167938768Y-115503211D01*
X167860128Y-115657552D01*
X167806597Y-115822302D01*
X167779500Y-115993389D01*
X158180500Y-115993389D01*
X158180500Y-115913389D01*
X158153402Y-115742299D01*
X158099873Y-115577555D01*
X158021232Y-115423212D01*
X157919414Y-115283072D01*
X157796928Y-115160586D01*
X157656788Y-115058768D01*
X157502445Y-114980127D01*
X157337701Y-114926598D01*
X157337699Y-114926597D01*
X157337698Y-114926597D01*
X157189271Y-114903089D01*
X157166611Y-114899500D01*
X156993389Y-114899500D01*
X156970729Y-114903089D01*
X156822302Y-114926597D01*
X156657552Y-114980128D01*
X156503211Y-115058768D01*
X156455822Y-115093199D01*
X156363072Y-115160586D01*
X156363070Y-115160588D01*
X156363069Y-115160588D01*
X156240588Y-115283069D01*
X156240588Y-115283070D01*
X156240586Y-115283072D01*
X156196859Y-115343256D01*
X156138768Y-115423211D01*
X156060128Y-115577552D01*
X156006597Y-115742302D01*
X155979500Y-115913389D01*
X154250500Y-115913389D01*
X154250500Y-115852494D01*
X154211993Y-115560007D01*
X154135639Y-115275048D01*
X154022743Y-115002493D01*
X154013449Y-114986396D01*
X153875238Y-114747006D01*
X153695647Y-114512959D01*
X153695641Y-114512952D01*
X153487047Y-114304358D01*
X153487040Y-114304352D01*
X153252993Y-114124761D01*
X152997510Y-113977258D01*
X152997500Y-113977254D01*
X152724961Y-113864364D01*
X152724954Y-113864362D01*
X152724952Y-113864361D01*
X152439993Y-113788007D01*
X152391113Y-113781571D01*
X152147513Y-113749500D01*
X152147506Y-113749500D01*
X151852494Y-113749500D01*
X151852486Y-113749500D01*
X151574085Y-113786153D01*
X151560007Y-113788007D01*
X151405152Y-113829500D01*
X151275048Y-113864361D01*
X151275038Y-113864364D01*
X151002499Y-113977254D01*
X151002489Y-113977258D01*
X150747006Y-114124761D01*
X150512959Y-114304352D01*
X150512952Y-114304358D01*
X150304358Y-114512952D01*
X150304352Y-114512959D01*
X150124761Y-114747006D01*
X149977258Y-115002489D01*
X149977254Y-115002499D01*
X149864364Y-115275038D01*
X149864361Y-115275048D01*
X149788008Y-115560004D01*
X149788006Y-115560015D01*
X149749500Y-115852486D01*
X148010854Y-115852486D01*
X147993402Y-115742299D01*
X147939873Y-115577555D01*
X147861232Y-115423212D01*
X147759414Y-115283072D01*
X147700556Y-115224214D01*
X147667071Y-115162891D01*
X147672055Y-115093199D01*
X147713927Y-115037266D01*
X147779391Y-115012849D01*
X147817184Y-115015959D01*
X147938928Y-115045187D01*
X148190000Y-115064947D01*
X148441072Y-115045187D01*
X148685956Y-114986396D01*
X148918631Y-114890019D01*
X149133361Y-114758432D01*
X149133363Y-114758430D01*
X149134180Y-114757732D01*
X148514025Y-114137578D01*
X148545258Y-114124641D01*
X148668097Y-114042563D01*
X148772563Y-113938097D01*
X148854641Y-113815258D01*
X148867577Y-113784025D01*
X149487732Y-114404180D01*
X149488430Y-114403363D01*
X149488432Y-114403361D01*
X149620019Y-114188631D01*
X149716396Y-113955956D01*
X149775187Y-113711072D01*
X149794947Y-113460000D01*
X149775187Y-113208927D01*
X149716396Y-112964043D01*
X149620019Y-112731368D01*
X149488429Y-112516634D01*
X149487733Y-112515819D01*
X149487732Y-112515819D01*
X148867577Y-113135973D01*
X148854641Y-113104742D01*
X148772563Y-112981903D01*
X148668097Y-112877437D01*
X148545258Y-112795359D01*
X148514023Y-112782421D01*
X149134179Y-112162266D01*
X149133362Y-112161568D01*
X148918631Y-112029980D01*
X148685956Y-111933603D01*
X148441072Y-111874812D01*
X148190000Y-111855052D01*
X147938927Y-111874812D01*
X147694043Y-111933603D01*
X147461368Y-112029980D01*
X147246637Y-112161567D01*
X147245818Y-112162266D01*
X147865974Y-112782421D01*
X147834742Y-112795359D01*
X147711903Y-112877437D01*
X147607437Y-112981903D01*
X147525359Y-113104742D01*
X147512421Y-113135974D01*
X146892266Y-112515818D01*
X146891567Y-112516637D01*
X146759980Y-112731368D01*
X146663603Y-112964043D01*
X146604812Y-113208927D01*
X146585052Y-113460000D01*
X146604812Y-113711072D01*
X146663603Y-113955956D01*
X146759980Y-114188631D01*
X146891568Y-114403362D01*
X146892266Y-114404179D01*
X147512421Y-113784024D01*
X147525359Y-113815258D01*
X147607437Y-113938097D01*
X147711903Y-114042563D01*
X147834742Y-114124641D01*
X147865974Y-114137577D01*
X147245819Y-114757732D01*
X147246989Y-114787539D01*
X147229948Y-114855299D01*
X147178980Y-114903089D01*
X147110264Y-114915738D01*
X147103686Y-114914875D01*
X147029271Y-114903089D01*
X147006611Y-114899500D01*
X146833389Y-114899500D01*
X146810729Y-114903089D01*
X146662302Y-114926597D01*
X146497552Y-114980128D01*
X146343211Y-115058768D01*
X146295822Y-115093199D01*
X146203072Y-115160586D01*
X146203070Y-115160588D01*
X146203069Y-115160588D01*
X146080588Y-115283069D01*
X146080588Y-115283070D01*
X146080586Y-115283072D01*
X146036859Y-115343256D01*
X145978768Y-115423211D01*
X145900128Y-115577552D01*
X145846597Y-115742302D01*
X145819500Y-115913389D01*
X128005500Y-115913389D01*
X128005500Y-110920000D01*
X152934551Y-110920000D01*
X152954317Y-111171151D01*
X153013126Y-111416110D01*
X153109533Y-111648859D01*
X153241160Y-111863653D01*
X153241161Y-111863656D01*
X153296604Y-111928571D01*
X153404776Y-112055224D01*
X153498443Y-112135223D01*
X153596343Y-112218838D01*
X153596346Y-112218839D01*
X153811140Y-112350466D01*
X154004279Y-112430466D01*
X154043889Y-112446873D01*
X154288852Y-112505683D01*
X154540000Y-112525449D01*
X154791148Y-112505683D01*
X155036111Y-112446873D01*
X155268859Y-112350466D01*
X155483659Y-112218836D01*
X155675224Y-112055224D01*
X155838836Y-111863659D01*
X155970466Y-111648859D01*
X156066873Y-111416111D01*
X156125683Y-111171148D01*
X156139153Y-111000000D01*
X174894551Y-111000000D01*
X174914317Y-111251151D01*
X174973126Y-111496110D01*
X175069533Y-111728859D01*
X175201160Y-111943653D01*
X175201161Y-111943656D01*
X175256604Y-112008571D01*
X175364776Y-112135224D01*
X175462677Y-112218839D01*
X175556343Y-112298838D01*
X175556346Y-112298839D01*
X175771140Y-112430466D01*
X175977200Y-112515818D01*
X176003889Y-112526873D01*
X176248852Y-112585683D01*
X176500000Y-112605449D01*
X176751148Y-112585683D01*
X176996111Y-112526873D01*
X177228859Y-112430466D01*
X177443659Y-112298836D01*
X177635224Y-112135224D01*
X177798836Y-111943659D01*
X177930466Y-111728859D01*
X178026873Y-111496111D01*
X178085683Y-111251148D01*
X178105449Y-111000000D01*
X178085683Y-110748852D01*
X178026873Y-110503889D01*
X177930466Y-110271141D01*
X177930466Y-110271140D01*
X177798839Y-110056346D01*
X177798838Y-110056343D01*
X177730511Y-109976343D01*
X177635224Y-109864776D01*
X177508571Y-109756604D01*
X177443656Y-109701161D01*
X177443653Y-109701160D01*
X177228859Y-109569533D01*
X176996110Y-109473126D01*
X176751151Y-109414317D01*
X176500000Y-109394551D01*
X176248848Y-109414317D01*
X176003889Y-109473126D01*
X175771140Y-109569533D01*
X175556346Y-109701160D01*
X175556343Y-109701161D01*
X175364776Y-109864776D01*
X175201161Y-110056343D01*
X175201160Y-110056346D01*
X175069533Y-110271140D01*
X174973126Y-110503889D01*
X174914317Y-110748848D01*
X174894551Y-111000000D01*
X156139153Y-111000000D01*
X156145449Y-110920000D01*
X156125683Y-110668852D01*
X156066873Y-110423889D01*
X155970466Y-110191141D01*
X155970466Y-110191140D01*
X155838839Y-109976346D01*
X155838838Y-109976343D01*
X155743550Y-109864776D01*
X155675224Y-109784776D01*
X155548571Y-109676604D01*
X155483656Y-109621161D01*
X155483653Y-109621160D01*
X155268859Y-109489533D01*
X155036110Y-109393126D01*
X154791151Y-109334317D01*
X154540000Y-109314551D01*
X154288848Y-109334317D01*
X154043889Y-109393126D01*
X153811140Y-109489533D01*
X153596346Y-109621160D01*
X153596343Y-109621161D01*
X153404776Y-109784776D01*
X153241161Y-109976343D01*
X153241160Y-109976346D01*
X153109533Y-110191140D01*
X153013126Y-110423889D01*
X152954317Y-110668848D01*
X152934551Y-110920000D01*
X128005500Y-110920000D01*
X128005500Y-102913389D01*
X130599500Y-102913389D01*
X130599500Y-103086610D01*
X130625453Y-103250476D01*
X130626598Y-103257701D01*
X130680127Y-103422445D01*
X130758768Y-103576788D01*
X130860586Y-103716928D01*
X130983072Y-103839414D01*
X130983078Y-103839418D01*
X131066023Y-103899683D01*
X131108689Y-103955013D01*
X131114667Y-104024626D01*
X131082061Y-104086421D01*
X131066023Y-104100317D01*
X130983078Y-104160581D01*
X130983069Y-104160588D01*
X130860588Y-104283069D01*
X130860588Y-104283070D01*
X130860586Y-104283072D01*
X130833933Y-104319757D01*
X130758768Y-104423211D01*
X130680128Y-104577552D01*
X130626597Y-104742302D01*
X130599500Y-104913389D01*
X130599500Y-105086610D01*
X130619776Y-105214632D01*
X130626598Y-105257701D01*
X130680127Y-105422445D01*
X130758768Y-105576788D01*
X130860586Y-105716928D01*
X130983072Y-105839414D01*
X131123212Y-105941232D01*
X131277555Y-106019873D01*
X131391257Y-106056817D01*
X131440618Y-106087066D01*
X131953552Y-106600000D01*
X131947339Y-106600000D01*
X131845606Y-106627259D01*
X131754394Y-106679920D01*
X131679920Y-106754394D01*
X131627259Y-106845606D01*
X131600000Y-106947339D01*
X131600000Y-106953552D01*
X130895406Y-106248958D01*
X130895405Y-106248958D01*
X130860969Y-106283395D01*
X130860963Y-106283402D01*
X130759198Y-106423471D01*
X130680591Y-106577742D01*
X130627085Y-106742415D01*
X130600000Y-106913428D01*
X130600000Y-107086571D01*
X130627085Y-107257584D01*
X130680591Y-107422257D01*
X130759195Y-107576524D01*
X130860967Y-107716602D01*
X130895406Y-107751041D01*
X131600000Y-107046447D01*
X131600000Y-107052661D01*
X131627259Y-107154394D01*
X131679920Y-107245606D01*
X131754394Y-107320080D01*
X131845606Y-107372741D01*
X131947339Y-107400000D01*
X131953552Y-107400000D01*
X131305964Y-108047587D01*
X131305541Y-108056048D01*
X131271998Y-108106846D01*
X131146127Y-108221593D01*
X131017632Y-108391746D01*
X130922596Y-108582605D01*
X130922596Y-108582607D01*
X130922595Y-108582611D01*
X130864244Y-108787690D01*
X130844571Y-109000000D01*
X130864244Y-109212310D01*
X130915691Y-109393126D01*
X130922596Y-109417392D01*
X130922596Y-109417394D01*
X131017632Y-109608253D01*
X131087793Y-109701160D01*
X131146128Y-109778407D01*
X131303698Y-109922052D01*
X131484981Y-110034298D01*
X131683802Y-110111321D01*
X131893390Y-110150500D01*
X131893392Y-110150500D01*
X132106608Y-110150500D01*
X132106610Y-110150500D01*
X132316198Y-110111321D01*
X132515019Y-110034298D01*
X132696302Y-109922052D01*
X132853872Y-109778407D01*
X132982366Y-109608255D01*
X133001647Y-109569533D01*
X133077403Y-109417394D01*
X133077403Y-109417393D01*
X133077405Y-109417389D01*
X133135756Y-109212310D01*
X133155429Y-109000000D01*
X133135756Y-108787690D01*
X133077405Y-108582611D01*
X133077403Y-108582606D01*
X133077403Y-108582605D01*
X132982367Y-108391746D01*
X132853872Y-108221593D01*
X132728001Y-108106846D01*
X132691720Y-108047134D01*
X132691696Y-108045247D01*
X132046448Y-107400000D01*
X132052661Y-107400000D01*
X132154394Y-107372741D01*
X132245606Y-107320080D01*
X132320080Y-107245606D01*
X132372741Y-107154394D01*
X132400000Y-107052661D01*
X132400000Y-107046448D01*
X133104592Y-107751041D01*
X133104593Y-107751041D01*
X133139035Y-107716599D01*
X133240801Y-107576528D01*
X133319408Y-107422257D01*
X133372914Y-107257584D01*
X133400000Y-107086571D01*
X133400000Y-106913428D01*
X133372914Y-106742415D01*
X133319408Y-106577742D01*
X133240804Y-106423475D01*
X133139032Y-106283397D01*
X133104593Y-106248958D01*
X133104592Y-106248958D01*
X132400000Y-106953550D01*
X132400000Y-106947339D01*
X132372741Y-106845606D01*
X132320080Y-106754394D01*
X132245606Y-106679920D01*
X132154394Y-106627259D01*
X132052661Y-106600000D01*
X132046449Y-106600000D01*
X132559380Y-106087066D01*
X132608740Y-106056818D01*
X132722445Y-106019873D01*
X132876788Y-105941232D01*
X133016928Y-105839414D01*
X133139414Y-105716928D01*
X133241232Y-105576788D01*
X133319873Y-105422445D01*
X133373402Y-105257701D01*
X133400500Y-105086611D01*
X133400500Y-104913389D01*
X133373402Y-104742299D01*
X133319873Y-104577555D01*
X133241232Y-104423212D01*
X133139414Y-104283072D01*
X133016928Y-104160586D01*
X132933975Y-104100317D01*
X132891311Y-104044988D01*
X132885332Y-103975374D01*
X132917938Y-103913579D01*
X132933976Y-103899682D01*
X133016928Y-103839414D01*
X133139414Y-103716928D01*
X133224370Y-103599996D01*
X158994435Y-103599996D01*
X158994435Y-103600003D01*
X159014630Y-103779249D01*
X159014631Y-103779254D01*
X159074211Y-103949523D01*
X159170184Y-104102262D01*
X159297738Y-104229816D01*
X159450478Y-104325789D01*
X159620745Y-104385368D01*
X159620750Y-104385369D01*
X159799996Y-104405565D01*
X159800000Y-104405565D01*
X159800004Y-104405565D01*
X159979249Y-104385369D01*
X159979252Y-104385368D01*
X159979255Y-104385368D01*
X160149522Y-104325789D01*
X160302262Y-104229816D01*
X160429816Y-104102262D01*
X160525789Y-103949522D01*
X160585368Y-103779255D01*
X160585369Y-103779249D01*
X160605565Y-103600003D01*
X160605565Y-103599996D01*
X160585369Y-103420750D01*
X160585368Y-103420745D01*
X160567676Y-103370184D01*
X160525789Y-103250478D01*
X160503265Y-103214632D01*
X160429815Y-103097737D01*
X160302262Y-102970184D01*
X160149523Y-102874211D01*
X159979254Y-102814631D01*
X159979249Y-102814630D01*
X159800004Y-102794435D01*
X159799996Y-102794435D01*
X159620750Y-102814630D01*
X159620745Y-102814631D01*
X159450476Y-102874211D01*
X159297737Y-102970184D01*
X159170184Y-103097737D01*
X159074211Y-103250476D01*
X159014631Y-103420745D01*
X159014630Y-103420750D01*
X158994435Y-103599996D01*
X133224370Y-103599996D01*
X133241232Y-103576788D01*
X133319873Y-103422445D01*
X133373402Y-103257701D01*
X133400500Y-103086611D01*
X133400500Y-102913389D01*
X133373402Y-102742299D01*
X133319873Y-102577555D01*
X133241232Y-102423212D01*
X133139414Y-102283072D01*
X133016928Y-102160586D01*
X132876788Y-102058768D01*
X132870502Y-102055565D01*
X132824510Y-102032131D01*
X132773714Y-101984156D01*
X132756919Y-101916335D01*
X132779457Y-101850200D01*
X132797259Y-101830016D01*
X132853872Y-101778407D01*
X132982366Y-101608255D01*
X133026024Y-101520578D01*
X133077403Y-101417394D01*
X133077403Y-101417393D01*
X133077405Y-101417389D01*
X133125033Y-101249996D01*
X138444435Y-101249996D01*
X138444435Y-101250003D01*
X138464630Y-101429249D01*
X138464631Y-101429254D01*
X138524211Y-101599523D01*
X138593239Y-101709379D01*
X138620184Y-101752262D01*
X138747738Y-101879816D01*
X138900478Y-101975789D01*
X139019324Y-102017375D01*
X139070745Y-102035368D01*
X139070750Y-102035369D01*
X139249996Y-102055565D01*
X139250000Y-102055565D01*
X139250004Y-102055565D01*
X139429249Y-102035369D01*
X139429252Y-102035368D01*
X139429255Y-102035368D01*
X139530342Y-101999996D01*
X163594435Y-101999996D01*
X163594435Y-102000003D01*
X163614630Y-102179249D01*
X163614631Y-102179254D01*
X163674211Y-102349523D01*
X163747645Y-102466392D01*
X163770184Y-102502262D01*
X163897738Y-102629816D01*
X163976696Y-102679428D01*
X164001487Y-102695006D01*
X164047778Y-102747341D01*
X164058426Y-102816395D01*
X164030051Y-102880243D01*
X164001487Y-102904994D01*
X163897737Y-102970184D01*
X163770184Y-103097737D01*
X163674211Y-103250476D01*
X163614631Y-103420745D01*
X163614630Y-103420750D01*
X163594435Y-103599996D01*
X163594435Y-103600003D01*
X163614630Y-103779249D01*
X163614631Y-103779254D01*
X163674211Y-103949523D01*
X163770184Y-104102262D01*
X163897738Y-104229816D01*
X163976696Y-104279428D01*
X164001487Y-104295006D01*
X164047778Y-104347341D01*
X164058426Y-104416395D01*
X164030051Y-104480243D01*
X164001487Y-104504994D01*
X163897737Y-104570184D01*
X163770184Y-104697737D01*
X163674211Y-104850476D01*
X163614631Y-105020745D01*
X163614630Y-105020750D01*
X163594435Y-105199996D01*
X163594435Y-105200003D01*
X163614630Y-105379249D01*
X163614631Y-105379254D01*
X163674211Y-105549523D01*
X163737646Y-105650478D01*
X163770184Y-105702262D01*
X163897738Y-105829816D01*
X164050478Y-105925789D01*
X164094609Y-105941231D01*
X164220745Y-105985368D01*
X164220750Y-105985369D01*
X164399996Y-106005565D01*
X164400000Y-106005565D01*
X164400004Y-106005565D01*
X164579249Y-105985369D01*
X164579252Y-105985368D01*
X164579255Y-105985368D01*
X164749522Y-105925789D01*
X164902262Y-105829816D01*
X165029816Y-105702262D01*
X165125789Y-105549522D01*
X165185368Y-105379255D01*
X165199064Y-105257701D01*
X165205565Y-105200003D01*
X165205565Y-105199996D01*
X165185369Y-105020750D01*
X165185368Y-105020745D01*
X165125789Y-104850478D01*
X165029816Y-104697738D01*
X164902262Y-104570184D01*
X164798510Y-104504992D01*
X164752221Y-104452659D01*
X164741573Y-104383606D01*
X164769948Y-104319757D01*
X164798509Y-104295007D01*
X164902262Y-104229816D01*
X165029816Y-104102262D01*
X165125789Y-103949522D01*
X165185368Y-103779255D01*
X165185369Y-103779249D01*
X165205565Y-103600003D01*
X165205565Y-103599996D01*
X165185369Y-103420750D01*
X165185368Y-103420745D01*
X165167676Y-103370184D01*
X165125789Y-103250478D01*
X165103265Y-103214632D01*
X165029815Y-103097737D01*
X164902262Y-102970184D01*
X164811873Y-102913389D01*
X164798510Y-102904992D01*
X164752221Y-102852659D01*
X164741573Y-102783606D01*
X164769948Y-102719757D01*
X164798509Y-102695007D01*
X164902262Y-102629816D01*
X165029816Y-102502262D01*
X165125789Y-102349522D01*
X165185368Y-102179255D01*
X165185369Y-102179249D01*
X165205565Y-102000003D01*
X165205565Y-101999996D01*
X166594435Y-101999996D01*
X166594435Y-102000003D01*
X166614630Y-102179249D01*
X166614631Y-102179254D01*
X166674211Y-102349523D01*
X166747645Y-102466392D01*
X166770184Y-102502262D01*
X166897738Y-102629816D01*
X166976696Y-102679428D01*
X167001487Y-102695006D01*
X167047778Y-102747341D01*
X167058426Y-102816395D01*
X167030051Y-102880243D01*
X167001487Y-102904994D01*
X166897737Y-102970184D01*
X166770184Y-103097737D01*
X166674211Y-103250476D01*
X166614631Y-103420745D01*
X166614630Y-103420750D01*
X166594435Y-103599996D01*
X166594435Y-103600003D01*
X166614630Y-103779249D01*
X166614631Y-103779254D01*
X166674211Y-103949523D01*
X166770184Y-104102262D01*
X166897738Y-104229816D01*
X166976696Y-104279428D01*
X167001487Y-104295006D01*
X167047778Y-104347341D01*
X167058426Y-104416395D01*
X167030051Y-104480243D01*
X167001487Y-104504994D01*
X166897737Y-104570184D01*
X166770184Y-104697737D01*
X166674211Y-104850476D01*
X166614631Y-105020745D01*
X166614630Y-105020750D01*
X166594435Y-105199996D01*
X166594435Y-105200003D01*
X166614630Y-105379249D01*
X166614631Y-105379254D01*
X166674211Y-105549523D01*
X166737646Y-105650478D01*
X166770184Y-105702262D01*
X166897738Y-105829816D01*
X167050478Y-105925789D01*
X167094609Y-105941231D01*
X167220745Y-105985368D01*
X167220750Y-105985369D01*
X167399996Y-106005565D01*
X167400000Y-106005565D01*
X167400004Y-106005565D01*
X167449430Y-105999996D01*
X173694435Y-105999996D01*
X173694435Y-106000003D01*
X173714630Y-106179249D01*
X173714631Y-106179254D01*
X173774211Y-106349523D01*
X173870184Y-106502262D01*
X173997738Y-106629816D01*
X174150478Y-106725789D01*
X174320745Y-106785368D01*
X174320750Y-106785369D01*
X174499996Y-106805565D01*
X174500000Y-106805565D01*
X174500004Y-106805565D01*
X174679249Y-106785369D01*
X174679252Y-106785368D01*
X174679255Y-106785368D01*
X174849522Y-106725789D01*
X175002262Y-106629816D01*
X175129816Y-106502262D01*
X175225789Y-106349522D01*
X175285368Y-106179255D01*
X175285369Y-106179249D01*
X175305565Y-106000003D01*
X175305565Y-105999996D01*
X175285369Y-105820750D01*
X175285368Y-105820745D01*
X175225789Y-105650478D01*
X175129816Y-105497738D01*
X175002262Y-105370184D01*
X174849523Y-105274211D01*
X174679254Y-105214631D01*
X174679249Y-105214630D01*
X174500004Y-105194435D01*
X174499996Y-105194435D01*
X174320750Y-105214630D01*
X174320745Y-105214631D01*
X174150476Y-105274211D01*
X173997737Y-105370184D01*
X173870184Y-105497737D01*
X173774211Y-105650476D01*
X173714631Y-105820745D01*
X173714630Y-105820750D01*
X173694435Y-105999996D01*
X167449430Y-105999996D01*
X167579249Y-105985369D01*
X167579252Y-105985368D01*
X167579255Y-105985368D01*
X167749522Y-105925789D01*
X167902262Y-105829816D01*
X168029816Y-105702262D01*
X168125789Y-105549522D01*
X168185368Y-105379255D01*
X168199064Y-105257701D01*
X168205565Y-105200003D01*
X168205565Y-105199996D01*
X168185369Y-105020750D01*
X168185368Y-105020745D01*
X168125789Y-104850478D01*
X168029816Y-104697738D01*
X167902262Y-104570184D01*
X167798510Y-104504992D01*
X167752221Y-104452659D01*
X167741573Y-104383606D01*
X167769948Y-104319757D01*
X167798509Y-104295007D01*
X167902262Y-104229816D01*
X168029816Y-104102262D01*
X168094074Y-103999996D01*
X175694435Y-103999996D01*
X175694435Y-104000003D01*
X175714630Y-104179249D01*
X175714631Y-104179254D01*
X175774211Y-104349523D01*
X175870184Y-104502262D01*
X175997738Y-104629816D01*
X176088080Y-104686582D01*
X176105833Y-104697737D01*
X176150478Y-104725789D01*
X176320745Y-104785368D01*
X176320750Y-104785369D01*
X176499996Y-104805565D01*
X176500000Y-104805565D01*
X176500004Y-104805565D01*
X176679249Y-104785369D01*
X176679252Y-104785368D01*
X176679255Y-104785368D01*
X176849522Y-104725789D01*
X177002262Y-104629816D01*
X177129816Y-104502262D01*
X177225789Y-104349522D01*
X177285368Y-104179255D01*
X177285369Y-104179249D01*
X177305565Y-104000003D01*
X177305565Y-103999996D01*
X177285369Y-103820750D01*
X177285368Y-103820745D01*
X177270848Y-103779249D01*
X177225789Y-103650478D01*
X177129816Y-103497738D01*
X177002262Y-103370184D01*
X176849523Y-103274211D01*
X176679254Y-103214631D01*
X176679249Y-103214630D01*
X176500004Y-103194435D01*
X176499996Y-103194435D01*
X176320750Y-103214630D01*
X176320745Y-103214631D01*
X176150476Y-103274211D01*
X175997737Y-103370184D01*
X175870184Y-103497737D01*
X175774211Y-103650476D01*
X175714631Y-103820745D01*
X175714630Y-103820750D01*
X175694435Y-103999996D01*
X168094074Y-103999996D01*
X168125789Y-103949522D01*
X168185368Y-103779255D01*
X168185369Y-103779249D01*
X168205565Y-103600003D01*
X168205565Y-103599996D01*
X168185369Y-103420750D01*
X168185368Y-103420745D01*
X168167676Y-103370184D01*
X168125789Y-103250478D01*
X168103265Y-103214632D01*
X168029815Y-103097737D01*
X167902262Y-102970184D01*
X167811873Y-102913389D01*
X167798510Y-102904992D01*
X167752221Y-102852659D01*
X167741573Y-102783606D01*
X167769948Y-102719757D01*
X167798509Y-102695007D01*
X167902262Y-102629816D01*
X168029816Y-102502262D01*
X168125789Y-102349522D01*
X168185368Y-102179255D01*
X168185369Y-102179249D01*
X168205565Y-102000003D01*
X168205565Y-101999996D01*
X168185369Y-101820750D01*
X168185368Y-101820745D01*
X168184949Y-101819548D01*
X168125789Y-101650478D01*
X168029816Y-101497738D01*
X167902262Y-101370184D01*
X167821254Y-101319283D01*
X167749523Y-101274211D01*
X167579254Y-101214631D01*
X167579249Y-101214630D01*
X167400004Y-101194435D01*
X167399996Y-101194435D01*
X167220750Y-101214630D01*
X167220745Y-101214631D01*
X167050476Y-101274211D01*
X166897737Y-101370184D01*
X166770184Y-101497737D01*
X166674211Y-101650476D01*
X166614631Y-101820745D01*
X166614630Y-101820750D01*
X166594435Y-101999996D01*
X165205565Y-101999996D01*
X165185369Y-101820750D01*
X165185368Y-101820745D01*
X165184949Y-101819548D01*
X165125789Y-101650478D01*
X165029816Y-101497738D01*
X164902262Y-101370184D01*
X164821254Y-101319283D01*
X164749523Y-101274211D01*
X164579254Y-101214631D01*
X164579249Y-101214630D01*
X164400004Y-101194435D01*
X164399996Y-101194435D01*
X164220750Y-101214630D01*
X164220745Y-101214631D01*
X164050476Y-101274211D01*
X163897737Y-101370184D01*
X163770184Y-101497737D01*
X163674211Y-101650476D01*
X163614631Y-101820745D01*
X163614630Y-101820750D01*
X163594435Y-101999996D01*
X139530342Y-101999996D01*
X139599522Y-101975789D01*
X139752262Y-101879816D01*
X139879816Y-101752262D01*
X139975789Y-101599522D01*
X139975789Y-101599519D01*
X139978259Y-101595590D01*
X140030594Y-101549299D01*
X140097136Y-101538342D01*
X140249996Y-101555565D01*
X140250000Y-101555565D01*
X140250004Y-101555565D01*
X140429249Y-101535369D01*
X140429252Y-101535368D01*
X140429255Y-101535368D01*
X140599522Y-101475789D01*
X140752262Y-101379816D01*
X140879816Y-101252262D01*
X140975789Y-101099522D01*
X141035368Y-100929255D01*
X141035369Y-100929249D01*
X141055565Y-100750003D01*
X141055565Y-100749996D01*
X141035369Y-100570750D01*
X141035368Y-100570745D01*
X141011405Y-100502262D01*
X140975789Y-100400478D01*
X140970302Y-100391746D01*
X140897892Y-100276506D01*
X140879816Y-100247738D01*
X140752262Y-100120184D01*
X140685044Y-100077948D01*
X140599523Y-100024211D01*
X140429254Y-99964631D01*
X140429249Y-99964630D01*
X140250004Y-99944435D01*
X140249996Y-99944435D01*
X140070750Y-99964630D01*
X140070745Y-99964631D01*
X139900476Y-100024211D01*
X139747737Y-100120184D01*
X139620182Y-100247739D01*
X139521739Y-100404410D01*
X139469405Y-100450700D01*
X139402863Y-100461657D01*
X139250004Y-100444435D01*
X139249996Y-100444435D01*
X139070750Y-100464630D01*
X139070745Y-100464631D01*
X138900476Y-100524211D01*
X138747737Y-100620184D01*
X138620184Y-100747737D01*
X138524211Y-100900476D01*
X138464631Y-101070745D01*
X138464630Y-101070750D01*
X138444435Y-101249996D01*
X133125033Y-101249996D01*
X133135756Y-101212310D01*
X133155429Y-101000000D01*
X133135756Y-100787690D01*
X133077405Y-100582611D01*
X133077403Y-100582606D01*
X133077403Y-100582605D01*
X132982367Y-100391746D01*
X132853872Y-100221593D01*
X132696302Y-100077948D01*
X132515019Y-99965702D01*
X132515017Y-99965701D01*
X132410723Y-99925298D01*
X132316198Y-99888679D01*
X132106610Y-99849500D01*
X131893390Y-99849500D01*
X131683802Y-99888679D01*
X131683799Y-99888679D01*
X131683799Y-99888680D01*
X131484982Y-99965701D01*
X131484980Y-99965702D01*
X131303699Y-100077947D01*
X131146127Y-100221593D01*
X131017632Y-100391746D01*
X130922596Y-100582605D01*
X130922596Y-100582607D01*
X130864244Y-100787689D01*
X130844571Y-100999999D01*
X130844571Y-101000000D01*
X130864244Y-101212310D01*
X130922596Y-101417392D01*
X130922596Y-101417394D01*
X131017632Y-101608253D01*
X131057329Y-101660819D01*
X131146126Y-101778405D01*
X131146129Y-101778408D01*
X131202732Y-101830009D01*
X131239014Y-101889720D01*
X131237253Y-101959568D01*
X131198010Y-102017375D01*
X131175490Y-102032130D01*
X131123214Y-102058766D01*
X131053142Y-102109677D01*
X130983072Y-102160586D01*
X130983070Y-102160588D01*
X130983069Y-102160588D01*
X130860588Y-102283069D01*
X130860588Y-102283070D01*
X130860586Y-102283072D01*
X130842973Y-102307314D01*
X130758768Y-102423211D01*
X130680128Y-102577552D01*
X130626597Y-102742302D01*
X130599500Y-102913389D01*
X128005500Y-102913389D01*
X128005500Y-99530924D01*
X128006097Y-99518772D01*
X128016202Y-99416160D01*
X128020942Y-99392325D01*
X128041862Y-99323362D01*
X128051155Y-99300928D01*
X128085111Y-99237401D01*
X128098612Y-99217196D01*
X128144321Y-99161498D01*
X128161498Y-99144321D01*
X128217198Y-99098610D01*
X128237399Y-99085112D01*
X128300926Y-99051156D01*
X128323370Y-99041860D01*
X128340886Y-99036546D01*
X128340887Y-99036547D01*
X128392328Y-99020941D01*
X128416154Y-99016202D01*
X128501390Y-99007809D01*
X128501392Y-99007809D01*
X128518774Y-99006097D01*
X128530927Y-99005500D01*
X140084241Y-99005500D01*
X140151280Y-99025185D01*
X140197035Y-99077989D01*
X140207461Y-99115616D01*
X140214630Y-99179250D01*
X140214631Y-99179254D01*
X140274211Y-99349523D01*
X140316082Y-99416160D01*
X140370184Y-99502262D01*
X140497738Y-99629816D01*
X140650478Y-99725789D01*
X140820745Y-99785368D01*
X140820750Y-99785369D01*
X140999996Y-99805565D01*
X141000000Y-99805565D01*
X141000002Y-99805565D01*
X141029449Y-99802246D01*
X141064610Y-99798285D01*
X141133432Y-99810339D01*
X141184811Y-99857688D01*
X141202436Y-99925298D01*
X141201714Y-99935388D01*
X141194435Y-99999995D01*
X141194435Y-100000003D01*
X141214630Y-100179249D01*
X141214631Y-100179254D01*
X141274211Y-100349523D01*
X141308699Y-100404410D01*
X141370184Y-100502262D01*
X141497738Y-100629816D01*
X141650478Y-100725789D01*
X141719678Y-100750003D01*
X141820745Y-100785368D01*
X141820750Y-100785369D01*
X141999996Y-100805565D01*
X142000000Y-100805565D01*
X142000004Y-100805565D01*
X142179249Y-100785369D01*
X142179252Y-100785368D01*
X142179255Y-100785368D01*
X142349522Y-100725789D01*
X142502262Y-100629816D01*
X142629816Y-100502262D01*
X142725789Y-100349522D01*
X142785368Y-100179255D01*
X142792024Y-100120184D01*
X142805565Y-100000003D01*
X142805565Y-99999996D01*
X142785369Y-99820750D01*
X142785368Y-99820745D01*
X142725788Y-99650476D01*
X142650668Y-99530924D01*
X142629816Y-99497738D01*
X142502262Y-99370184D01*
X142349522Y-99274211D01*
X142349519Y-99274209D01*
X142270449Y-99246541D01*
X142213673Y-99205820D01*
X142187926Y-99140867D01*
X142201382Y-99072305D01*
X142249770Y-99021903D01*
X142311404Y-99005500D01*
X159993890Y-99005500D01*
X159993907Y-99005500D01*
X160018707Y-99004891D01*
X160030861Y-99004294D01*
X160055610Y-99002469D01*
X160072274Y-99000827D01*
X160074617Y-99000597D01*
X160086770Y-99000000D01*
X183686329Y-99000000D01*
X183723314Y-99005643D01*
G37*
G04 #@! TD.AperFunction*
G04 #@! TA.AperFunction,Conductor*
G36*
X120852612Y-75019685D02*
G01*
X120898367Y-75072489D01*
X120908511Y-75107813D01*
X120911206Y-75128281D01*
X120914956Y-75156761D01*
X120914956Y-75156762D01*
X120975253Y-75302333D01*
X120975464Y-75302841D01*
X121071718Y-75428282D01*
X121197159Y-75524536D01*
X121343238Y-75585044D01*
X121421619Y-75595363D01*
X121499999Y-75605682D01*
X121500000Y-75605682D01*
X121500001Y-75605682D01*
X121552254Y-75598802D01*
X121656762Y-75585044D01*
X121802841Y-75524536D01*
X121928282Y-75428282D01*
X122024536Y-75302841D01*
X122085044Y-75156762D01*
X122091488Y-75107813D01*
X122119755Y-75043918D01*
X122178079Y-75005447D01*
X122214427Y-75000000D01*
X123525302Y-75000000D01*
X123592341Y-75019685D01*
X123638096Y-75072489D01*
X123648040Y-75141647D01*
X123627996Y-75189234D01*
X123629528Y-75190119D01*
X123625465Y-75197156D01*
X123564956Y-75343237D01*
X123564955Y-75343239D01*
X123544318Y-75499998D01*
X123544318Y-75500001D01*
X123564955Y-75656760D01*
X123564956Y-75656762D01*
X123621480Y-75793224D01*
X123625464Y-75802841D01*
X123721718Y-75928282D01*
X123847159Y-76024536D01*
X123953145Y-76068437D01*
X124007548Y-76112276D01*
X124029613Y-76178570D01*
X124020254Y-76230448D01*
X124014956Y-76243238D01*
X124014955Y-76243239D01*
X123994318Y-76399998D01*
X123994318Y-76400001D01*
X124014955Y-76556760D01*
X124014956Y-76556762D01*
X124056376Y-76656760D01*
X124075464Y-76702841D01*
X124171718Y-76828282D01*
X124297159Y-76924536D01*
X124443238Y-76985044D01*
X124521619Y-76995363D01*
X124599999Y-77005682D01*
X124600000Y-77005682D01*
X124600001Y-77005682D01*
X124652254Y-76998802D01*
X124756762Y-76985044D01*
X124902841Y-76924536D01*
X124971890Y-76871552D01*
X125037058Y-76846358D01*
X125105503Y-76860396D01*
X125145752Y-76894442D01*
X125168843Y-76924536D01*
X125171718Y-76928282D01*
X125297159Y-77024536D01*
X125443238Y-77085044D01*
X125521619Y-77095363D01*
X125599999Y-77105682D01*
X125600000Y-77105682D01*
X125600001Y-77105682D01*
X125652254Y-77098802D01*
X125756762Y-77085044D01*
X125902841Y-77024536D01*
X126028282Y-76928282D01*
X126124536Y-76802841D01*
X126185044Y-76656762D01*
X126205682Y-76500000D01*
X126185044Y-76343238D01*
X126124536Y-76197159D01*
X126028282Y-76071718D01*
X125934814Y-75999998D01*
X142894318Y-75999998D01*
X142894318Y-76000001D01*
X142914955Y-76156760D01*
X142914956Y-76156762D01*
X142950775Y-76243238D01*
X142975464Y-76302841D01*
X143071718Y-76428282D01*
X143197159Y-76524536D01*
X143343238Y-76585044D01*
X143421619Y-76595363D01*
X143499999Y-76605682D01*
X143500000Y-76605682D01*
X143500001Y-76605682D01*
X143552254Y-76598802D01*
X143656762Y-76585044D01*
X143802841Y-76524536D01*
X143928282Y-76428282D01*
X144024536Y-76302841D01*
X144085044Y-76156762D01*
X144104880Y-76006092D01*
X144105682Y-76000001D01*
X144105682Y-75999998D01*
X144085044Y-75843239D01*
X144085044Y-75843238D01*
X144024536Y-75697159D01*
X143928282Y-75571718D01*
X143802841Y-75475464D01*
X143753907Y-75455195D01*
X143656762Y-75414956D01*
X143656760Y-75414955D01*
X143500001Y-75394318D01*
X143499999Y-75394318D01*
X143343239Y-75414955D01*
X143343237Y-75414956D01*
X143197160Y-75475463D01*
X143071718Y-75571718D01*
X142975463Y-75697160D01*
X142914956Y-75843237D01*
X142914955Y-75843239D01*
X142894318Y-75999998D01*
X125934814Y-75999998D01*
X125902841Y-75975464D01*
X125893802Y-75971720D01*
X125756762Y-75914956D01*
X125756760Y-75914955D01*
X125600001Y-75894318D01*
X125599999Y-75894318D01*
X125443239Y-75914955D01*
X125443237Y-75914956D01*
X125297158Y-75975464D01*
X125228108Y-76028447D01*
X125162939Y-76053640D01*
X125094494Y-76039601D01*
X125054248Y-76005557D01*
X125031156Y-75975464D01*
X125028282Y-75971718D01*
X124902841Y-75875464D01*
X124825038Y-75843237D01*
X124796855Y-75831563D01*
X124742452Y-75787722D01*
X124720387Y-75721428D01*
X124729747Y-75669549D01*
X124735044Y-75656762D01*
X124755682Y-75500000D01*
X124735044Y-75343238D01*
X124674536Y-75197159D01*
X124674534Y-75197156D01*
X124670472Y-75190119D01*
X124672293Y-75189067D01*
X124651128Y-75134314D01*
X124665168Y-75065870D01*
X124713983Y-75015881D01*
X124774698Y-75000000D01*
X125312134Y-75000000D01*
X125379173Y-75019685D01*
X125410507Y-75048510D01*
X125471718Y-75128282D01*
X125597159Y-75224536D01*
X125743238Y-75285044D01*
X125821619Y-75295363D01*
X125899999Y-75305682D01*
X125900000Y-75305682D01*
X125900001Y-75305682D01*
X125952254Y-75298802D01*
X126056762Y-75285044D01*
X126202841Y-75224536D01*
X126328282Y-75128282D01*
X126389491Y-75048511D01*
X126445918Y-75007311D01*
X126487866Y-75000000D01*
X127079254Y-75000000D01*
X127146293Y-75019685D01*
X127192048Y-75072489D01*
X127202192Y-75140184D01*
X127199219Y-75162772D01*
X127194318Y-75200000D01*
X127194318Y-75200001D01*
X127214955Y-75356760D01*
X127214956Y-75356762D01*
X127274287Y-75500001D01*
X127275464Y-75502841D01*
X127371718Y-75628282D01*
X127497159Y-75724536D01*
X127643238Y-75785044D01*
X127721619Y-75795363D01*
X127799999Y-75805682D01*
X127800000Y-75805682D01*
X127800001Y-75805682D01*
X127852254Y-75798802D01*
X127956762Y-75785044D01*
X128102841Y-75724536D01*
X128228282Y-75628282D01*
X128324536Y-75502841D01*
X128385044Y-75356762D01*
X128405682Y-75200000D01*
X128397807Y-75140184D01*
X128408572Y-75071151D01*
X128454952Y-75018895D01*
X128520746Y-75000000D01*
X134892767Y-75000000D01*
X134959806Y-75019685D01*
X134968253Y-75025624D01*
X135097157Y-75124535D01*
X135097158Y-75124535D01*
X135097159Y-75124536D01*
X135243238Y-75185044D01*
X135281787Y-75190119D01*
X135399999Y-75205682D01*
X135400000Y-75205682D01*
X135400001Y-75205682D01*
X135464762Y-75197156D01*
X135556762Y-75185044D01*
X135702841Y-75124536D01*
X135736235Y-75098912D01*
X135831747Y-75025624D01*
X135896916Y-75000430D01*
X135907233Y-75000000D01*
X136285573Y-75000000D01*
X136352612Y-75019685D01*
X136398367Y-75072489D01*
X136408511Y-75107813D01*
X136411206Y-75128281D01*
X136414956Y-75156761D01*
X136414956Y-75156762D01*
X136475253Y-75302333D01*
X136475464Y-75302841D01*
X136571718Y-75428282D01*
X136697159Y-75524536D01*
X136843238Y-75585044D01*
X136921619Y-75595363D01*
X136999999Y-75605682D01*
X137000000Y-75605682D01*
X137000001Y-75605682D01*
X137052254Y-75598802D01*
X137156762Y-75585044D01*
X137302841Y-75524536D01*
X137428282Y-75428282D01*
X137524536Y-75302841D01*
X137585044Y-75156762D01*
X137591488Y-75107813D01*
X137619755Y-75043918D01*
X137678079Y-75005447D01*
X137714427Y-75000000D01*
X139448715Y-75000000D01*
X139464898Y-75001060D01*
X139500000Y-75005682D01*
X139535101Y-75001060D01*
X139551285Y-75000000D01*
X140242156Y-75000000D01*
X140309195Y-75019685D01*
X140354950Y-75072489D01*
X140362560Y-75098990D01*
X140362853Y-75098912D01*
X140364956Y-75106762D01*
X140403576Y-75200000D01*
X140425464Y-75252841D01*
X140521718Y-75378282D01*
X140647159Y-75474536D01*
X140793238Y-75535044D01*
X140871619Y-75545363D01*
X140949999Y-75555682D01*
X140950000Y-75555682D01*
X140950001Y-75555682D01*
X141002254Y-75548802D01*
X141106762Y-75535044D01*
X141252841Y-75474536D01*
X141378282Y-75378282D01*
X141474536Y-75252841D01*
X141535044Y-75106762D01*
X141535044Y-75106754D01*
X141537147Y-75098912D01*
X141538664Y-75099318D01*
X141563169Y-75043921D01*
X141621492Y-75005448D01*
X141657844Y-75000000D01*
X159993907Y-75000000D01*
X160006061Y-75000597D01*
X160182941Y-75018018D01*
X160206769Y-75022757D01*
X160371001Y-75072576D01*
X160393453Y-75081877D01*
X160533552Y-75156761D01*
X160544798Y-75162772D01*
X160565008Y-75176276D01*
X160593918Y-75200001D01*
X160697666Y-75285145D01*
X160714854Y-75302333D01*
X160823722Y-75434989D01*
X160837227Y-75455201D01*
X160918121Y-75606543D01*
X160927424Y-75629001D01*
X160977240Y-75793224D01*
X160981982Y-75817065D01*
X160999403Y-75993938D01*
X161000000Y-76006092D01*
X161000000Y-97493907D01*
X160999403Y-97506061D01*
X160981982Y-97682934D01*
X160977240Y-97706775D01*
X160927424Y-97870998D01*
X160918121Y-97893456D01*
X160837227Y-98044798D01*
X160823722Y-98065010D01*
X160714854Y-98197666D01*
X160697666Y-98214854D01*
X160565010Y-98323722D01*
X160544798Y-98337227D01*
X160393456Y-98418121D01*
X160370998Y-98427424D01*
X160206775Y-98477240D01*
X160182934Y-98481982D01*
X160006061Y-98499403D01*
X159993907Y-98500000D01*
X128500000Y-98500000D01*
X128451844Y-98504743D01*
X128304911Y-98519214D01*
X128194149Y-98552813D01*
X128117317Y-98576120D01*
X128117314Y-98576121D01*
X128117312Y-98576122D01*
X128117309Y-98576123D01*
X127944435Y-98668526D01*
X127944428Y-98668531D01*
X127792892Y-98792892D01*
X127668531Y-98944428D01*
X127668526Y-98944435D01*
X127576123Y-99117309D01*
X127576122Y-99117312D01*
X127519214Y-99304911D01*
X127500000Y-99500003D01*
X127500000Y-128993907D01*
X127499403Y-129006061D01*
X127481982Y-129182934D01*
X127477240Y-129206775D01*
X127427424Y-129370998D01*
X127418122Y-129393454D01*
X127396477Y-129433951D01*
X127347516Y-129483796D01*
X127287118Y-129499500D01*
X117712882Y-129499500D01*
X117645843Y-129479815D01*
X117603524Y-129433953D01*
X117581878Y-129393456D01*
X117572575Y-129370998D01*
X117522757Y-129206769D01*
X117518018Y-129182941D01*
X117500597Y-129006061D01*
X117500000Y-128993907D01*
X117500000Y-127499998D01*
X121894318Y-127499998D01*
X121894318Y-127500001D01*
X121914955Y-127656760D01*
X121914956Y-127656762D01*
X121975464Y-127802841D01*
X122071718Y-127928282D01*
X122197159Y-128024536D01*
X122343238Y-128085044D01*
X122421619Y-128095363D01*
X122499999Y-128105682D01*
X122500000Y-128105682D01*
X122500001Y-128105682D01*
X122552254Y-128098802D01*
X122656762Y-128085044D01*
X122802841Y-128024536D01*
X122928282Y-127928282D01*
X123024536Y-127802841D01*
X123085044Y-127656762D01*
X123105682Y-127500000D01*
X123085044Y-127343238D01*
X123024536Y-127197159D01*
X122928282Y-127071718D01*
X122802841Y-126975464D01*
X122656762Y-126914956D01*
X122656760Y-126914955D01*
X122500001Y-126894318D01*
X122499999Y-126894318D01*
X122343239Y-126914955D01*
X122343237Y-126914956D01*
X122197160Y-126975463D01*
X122071718Y-127071718D01*
X121975463Y-127197160D01*
X121914956Y-127343237D01*
X121914955Y-127343239D01*
X121894318Y-127499998D01*
X117500000Y-127499998D01*
X117500000Y-95999998D01*
X123894318Y-95999998D01*
X123894318Y-96000001D01*
X123914955Y-96156760D01*
X123914956Y-96156762D01*
X123975464Y-96302841D01*
X124071718Y-96428282D01*
X124197159Y-96524536D01*
X124343238Y-96585044D01*
X124421619Y-96595363D01*
X124499999Y-96605682D01*
X124500000Y-96605682D01*
X124500001Y-96605682D01*
X124552254Y-96598802D01*
X124656762Y-96585044D01*
X124802841Y-96524536D01*
X124928282Y-96428282D01*
X125024536Y-96302841D01*
X125085044Y-96156762D01*
X125105682Y-96000000D01*
X125105682Y-95999998D01*
X125394318Y-95999998D01*
X125394318Y-96000001D01*
X125414955Y-96156760D01*
X125414956Y-96156762D01*
X125475464Y-96302841D01*
X125571718Y-96428282D01*
X125697159Y-96524536D01*
X125843238Y-96585044D01*
X125921619Y-96595363D01*
X125999999Y-96605682D01*
X126000000Y-96605682D01*
X126000001Y-96605682D01*
X126052254Y-96598802D01*
X126156762Y-96585044D01*
X126302841Y-96524536D01*
X126428282Y-96428282D01*
X126524536Y-96302841D01*
X126585044Y-96156762D01*
X126605682Y-96000000D01*
X126605682Y-95999998D01*
X126894318Y-95999998D01*
X126894318Y-96000001D01*
X126914955Y-96156760D01*
X126914956Y-96156762D01*
X126975464Y-96302841D01*
X127071718Y-96428282D01*
X127197159Y-96524536D01*
X127343238Y-96585044D01*
X127421619Y-96595363D01*
X127499999Y-96605682D01*
X127500000Y-96605682D01*
X127500001Y-96605682D01*
X127552254Y-96598802D01*
X127656762Y-96585044D01*
X127802841Y-96524536D01*
X127928282Y-96428282D01*
X128024536Y-96302841D01*
X128085044Y-96156762D01*
X128105682Y-96000000D01*
X128085044Y-95843238D01*
X128024536Y-95697159D01*
X127928282Y-95571718D01*
X127802841Y-95475464D01*
X127656762Y-95414956D01*
X127656760Y-95414955D01*
X127500001Y-95394318D01*
X127499999Y-95394318D01*
X127343239Y-95414955D01*
X127343237Y-95414956D01*
X127197160Y-95475463D01*
X127071718Y-95571718D01*
X126975463Y-95697160D01*
X126914956Y-95843237D01*
X126914955Y-95843239D01*
X126894318Y-95999998D01*
X126605682Y-95999998D01*
X126585044Y-95843238D01*
X126524536Y-95697159D01*
X126428282Y-95571718D01*
X126302841Y-95475464D01*
X126156762Y-95414956D01*
X126156760Y-95414955D01*
X126000001Y-95394318D01*
X125999999Y-95394318D01*
X125843239Y-95414955D01*
X125843237Y-95414956D01*
X125697160Y-95475463D01*
X125571718Y-95571718D01*
X125475463Y-95697160D01*
X125414956Y-95843237D01*
X125414955Y-95843239D01*
X125394318Y-95999998D01*
X125105682Y-95999998D01*
X125085044Y-95843238D01*
X125024536Y-95697159D01*
X124928282Y-95571718D01*
X124802841Y-95475464D01*
X124656762Y-95414956D01*
X124656760Y-95414955D01*
X124500001Y-95394318D01*
X124499999Y-95394318D01*
X124343239Y-95414955D01*
X124343237Y-95414956D01*
X124197160Y-95475463D01*
X124071718Y-95571718D01*
X123975463Y-95697160D01*
X123914956Y-95843237D01*
X123914955Y-95843239D01*
X123894318Y-95999998D01*
X117500000Y-95999998D01*
X117500000Y-93499998D01*
X123894318Y-93499998D01*
X123894318Y-93500001D01*
X123914955Y-93656760D01*
X123914956Y-93656762D01*
X123975464Y-93802841D01*
X124071718Y-93928282D01*
X124197159Y-94024536D01*
X124343238Y-94085044D01*
X124421619Y-94095363D01*
X124499999Y-94105682D01*
X124500000Y-94105682D01*
X124500001Y-94105682D01*
X124552254Y-94098802D01*
X124656762Y-94085044D01*
X124802841Y-94024536D01*
X124928282Y-93928282D01*
X125024536Y-93802841D01*
X125085044Y-93656762D01*
X125105682Y-93500000D01*
X125105682Y-93499998D01*
X125394318Y-93499998D01*
X125394318Y-93500001D01*
X125414955Y-93656760D01*
X125414956Y-93656762D01*
X125475464Y-93802841D01*
X125571718Y-93928282D01*
X125697159Y-94024536D01*
X125843238Y-94085044D01*
X125921619Y-94095363D01*
X125999999Y-94105682D01*
X126000000Y-94105682D01*
X126000001Y-94105682D01*
X126052254Y-94098802D01*
X126156762Y-94085044D01*
X126302841Y-94024536D01*
X126428282Y-93928282D01*
X126524536Y-93802841D01*
X126585044Y-93656762D01*
X126605682Y-93500000D01*
X126605682Y-93499998D01*
X126894318Y-93499998D01*
X126894318Y-93500001D01*
X126914955Y-93656760D01*
X126914956Y-93656762D01*
X126975464Y-93802841D01*
X127071718Y-93928282D01*
X127197159Y-94024536D01*
X127343238Y-94085044D01*
X127421619Y-94095363D01*
X127499999Y-94105682D01*
X127500000Y-94105682D01*
X127500001Y-94105682D01*
X127552254Y-94098802D01*
X127656762Y-94085044D01*
X127802841Y-94024536D01*
X127928282Y-93928282D01*
X128024536Y-93802841D01*
X128085044Y-93656762D01*
X128105682Y-93500000D01*
X128085044Y-93343238D01*
X128024536Y-93197159D01*
X127928282Y-93071718D01*
X127834809Y-92999994D01*
X144318316Y-92999994D01*
X144318316Y-93000005D01*
X144338849Y-93247812D01*
X144338851Y-93247824D01*
X144399895Y-93488881D01*
X144499785Y-93716606D01*
X144635792Y-93924782D01*
X144635795Y-93924785D01*
X144804215Y-94107738D01*
X145000450Y-94260474D01*
X145219149Y-94378828D01*
X145454345Y-94459571D01*
X145699624Y-94500500D01*
X145948294Y-94500500D01*
X146193573Y-94459571D01*
X146428769Y-94378828D01*
X146647468Y-94260474D01*
X146843703Y-94107738D01*
X147012123Y-93924785D01*
X147148132Y-93716607D01*
X147248022Y-93488881D01*
X147309067Y-93247821D01*
X147313265Y-93197159D01*
X147329602Y-93000005D01*
X147329602Y-92999994D01*
X147309068Y-92752187D01*
X147309066Y-92752175D01*
X147248022Y-92511118D01*
X147148132Y-92283393D01*
X147012125Y-92075217D01*
X146990516Y-92051744D01*
X146843703Y-91892262D01*
X146647468Y-91739526D01*
X146647466Y-91739525D01*
X146647465Y-91739524D01*
X146428770Y-91621172D01*
X146428761Y-91621169D01*
X146193575Y-91540429D01*
X145948294Y-91499500D01*
X145699624Y-91499500D01*
X145454342Y-91540429D01*
X145219156Y-91621169D01*
X145219147Y-91621172D01*
X145000452Y-91739524D01*
X144804216Y-91892261D01*
X144635792Y-92075217D01*
X144499785Y-92283393D01*
X144399895Y-92511118D01*
X144338851Y-92752175D01*
X144338849Y-92752187D01*
X144318316Y-92999994D01*
X127834809Y-92999994D01*
X127802841Y-92975464D01*
X127656762Y-92914956D01*
X127656760Y-92914955D01*
X127500001Y-92894318D01*
X127499999Y-92894318D01*
X127343239Y-92914955D01*
X127343237Y-92914956D01*
X127197160Y-92975463D01*
X127071718Y-93071718D01*
X126975463Y-93197160D01*
X126914956Y-93343237D01*
X126914955Y-93343239D01*
X126894318Y-93499998D01*
X126605682Y-93499998D01*
X126585044Y-93343238D01*
X126524536Y-93197159D01*
X126428282Y-93071718D01*
X126302841Y-92975464D01*
X126156762Y-92914956D01*
X126156760Y-92914955D01*
X126000001Y-92894318D01*
X125999999Y-92894318D01*
X125843239Y-92914955D01*
X125843237Y-92914956D01*
X125697160Y-92975463D01*
X125571718Y-93071718D01*
X125475463Y-93197160D01*
X125414956Y-93343237D01*
X125414955Y-93343239D01*
X125394318Y-93499998D01*
X125105682Y-93499998D01*
X125085044Y-93343238D01*
X125024536Y-93197159D01*
X124928282Y-93071718D01*
X124802841Y-92975464D01*
X124656762Y-92914956D01*
X124656760Y-92914955D01*
X124500001Y-92894318D01*
X124499999Y-92894318D01*
X124343239Y-92914955D01*
X124343237Y-92914956D01*
X124197160Y-92975463D01*
X124071718Y-93071718D01*
X123975463Y-93197160D01*
X123914956Y-93343237D01*
X123914955Y-93343239D01*
X123894318Y-93499998D01*
X117500000Y-93499998D01*
X117500000Y-90999998D01*
X123894318Y-90999998D01*
X123894318Y-91000001D01*
X123914955Y-91156760D01*
X123914956Y-91156762D01*
X123975464Y-91302841D01*
X124071718Y-91428282D01*
X124197159Y-91524536D01*
X124343238Y-91585044D01*
X124421619Y-91595363D01*
X124499999Y-91605682D01*
X124500000Y-91605682D01*
X124500001Y-91605682D01*
X124552254Y-91598802D01*
X124656762Y-91585044D01*
X124802841Y-91524536D01*
X124928282Y-91428282D01*
X125024536Y-91302841D01*
X125085044Y-91156762D01*
X125105682Y-91000000D01*
X125085044Y-90843238D01*
X125024536Y-90697159D01*
X124928282Y-90571718D01*
X124834814Y-90499998D01*
X143394318Y-90499998D01*
X143394318Y-90500001D01*
X143414955Y-90656760D01*
X143414956Y-90656762D01*
X143475464Y-90802841D01*
X143571718Y-90928282D01*
X143697159Y-91024536D01*
X143843238Y-91085044D01*
X143921619Y-91095363D01*
X143999999Y-91105682D01*
X144000000Y-91105682D01*
X144000001Y-91105682D01*
X144052254Y-91098802D01*
X144156762Y-91085044D01*
X144302841Y-91024536D01*
X144428282Y-90928282D01*
X144524536Y-90802841D01*
X144585044Y-90656762D01*
X144605682Y-90500000D01*
X144605682Y-90499998D01*
X144894318Y-90499998D01*
X144894318Y-90500001D01*
X144914955Y-90656760D01*
X144914956Y-90656762D01*
X144975464Y-90802841D01*
X145071718Y-90928282D01*
X145197159Y-91024536D01*
X145343238Y-91085044D01*
X145421619Y-91095363D01*
X145499999Y-91105682D01*
X145500000Y-91105682D01*
X145500001Y-91105682D01*
X145552254Y-91098802D01*
X145656762Y-91085044D01*
X145802841Y-91024536D01*
X145928282Y-90928282D01*
X146024536Y-90802841D01*
X146085044Y-90656762D01*
X146105682Y-90500000D01*
X146105682Y-90499998D01*
X146394318Y-90499998D01*
X146394318Y-90500001D01*
X146414955Y-90656760D01*
X146414956Y-90656762D01*
X146475464Y-90802841D01*
X146571718Y-90928282D01*
X146697159Y-91024536D01*
X146843238Y-91085044D01*
X146921619Y-91095363D01*
X146999999Y-91105682D01*
X147000000Y-91105682D01*
X147000001Y-91105682D01*
X147052254Y-91098802D01*
X147156762Y-91085044D01*
X147302841Y-91024536D01*
X147428282Y-90928282D01*
X147524536Y-90802841D01*
X147585044Y-90656762D01*
X147605682Y-90500000D01*
X147585044Y-90343238D01*
X147524536Y-90197159D01*
X147428282Y-90071718D01*
X147302841Y-89975464D01*
X147156762Y-89914956D01*
X147156760Y-89914955D01*
X147000001Y-89894318D01*
X146999999Y-89894318D01*
X146843239Y-89914955D01*
X146843237Y-89914956D01*
X146697160Y-89975463D01*
X146571718Y-90071718D01*
X146475463Y-90197160D01*
X146414956Y-90343237D01*
X146414955Y-90343239D01*
X146394318Y-90499998D01*
X146105682Y-90499998D01*
X146085044Y-90343238D01*
X146024536Y-90197159D01*
X145928282Y-90071718D01*
X145802841Y-89975464D01*
X145656762Y-89914956D01*
X145656760Y-89914955D01*
X145500001Y-89894318D01*
X145499999Y-89894318D01*
X145343239Y-89914955D01*
X145343237Y-89914956D01*
X145197160Y-89975463D01*
X145071718Y-90071718D01*
X144975463Y-90197160D01*
X144914956Y-90343237D01*
X144914955Y-90343239D01*
X144894318Y-90499998D01*
X144605682Y-90499998D01*
X144585044Y-90343238D01*
X144524536Y-90197159D01*
X144428282Y-90071718D01*
X144302841Y-89975464D01*
X144156762Y-89914956D01*
X144156760Y-89914955D01*
X144000001Y-89894318D01*
X143999999Y-89894318D01*
X143843239Y-89914955D01*
X143843237Y-89914956D01*
X143697160Y-89975463D01*
X143571718Y-90071718D01*
X143475463Y-90197160D01*
X143414956Y-90343237D01*
X143414955Y-90343239D01*
X143394318Y-90499998D01*
X124834814Y-90499998D01*
X124802841Y-90475464D01*
X124656762Y-90414956D01*
X124656760Y-90414955D01*
X124500001Y-90394318D01*
X124499999Y-90394318D01*
X124343239Y-90414955D01*
X124343237Y-90414956D01*
X124197160Y-90475463D01*
X124071718Y-90571718D01*
X123975463Y-90697160D01*
X123914956Y-90843237D01*
X123914955Y-90843239D01*
X123894318Y-90999998D01*
X117500000Y-90999998D01*
X117500000Y-89499998D01*
X126394318Y-89499998D01*
X126394318Y-89500001D01*
X126414955Y-89656760D01*
X126414956Y-89656762D01*
X126475464Y-89802841D01*
X126571718Y-89928282D01*
X126697159Y-90024536D01*
X126843238Y-90085044D01*
X126921619Y-90095363D01*
X126999999Y-90105682D01*
X127000000Y-90105682D01*
X127000001Y-90105682D01*
X127052254Y-90098802D01*
X127156762Y-90085044D01*
X127302841Y-90024536D01*
X127428282Y-89928282D01*
X127524536Y-89802841D01*
X127585044Y-89656762D01*
X127605682Y-89500000D01*
X127585044Y-89343238D01*
X127524536Y-89197159D01*
X127428282Y-89071718D01*
X127302841Y-88975464D01*
X127156762Y-88914956D01*
X127156760Y-88914955D01*
X127000001Y-88894318D01*
X126999999Y-88894318D01*
X126843239Y-88914955D01*
X126843237Y-88914956D01*
X126697160Y-88975463D01*
X126571718Y-89071718D01*
X126475463Y-89197160D01*
X126414956Y-89343237D01*
X126414955Y-89343239D01*
X126394318Y-89499998D01*
X117500000Y-89499998D01*
X117500000Y-88749998D01*
X136144318Y-88749998D01*
X136144318Y-88750001D01*
X136164955Y-88906760D01*
X136164956Y-88906762D01*
X136225464Y-89052841D01*
X136321718Y-89178282D01*
X136447159Y-89274536D01*
X136593238Y-89335044D01*
X136655478Y-89343238D01*
X136749999Y-89355682D01*
X136750000Y-89355682D01*
X136750001Y-89355682D01*
X136844514Y-89343239D01*
X136906762Y-89335044D01*
X137052841Y-89274536D01*
X137178282Y-89178282D01*
X137274536Y-89052841D01*
X137335044Y-88906762D01*
X137355682Y-88750000D01*
X137335044Y-88593238D01*
X137274536Y-88447159D01*
X137274534Y-88447157D01*
X137270474Y-88440124D01*
X137272628Y-88438880D01*
X137251947Y-88385388D01*
X137265984Y-88316943D01*
X137300031Y-88276692D01*
X137302841Y-88274536D01*
X137334820Y-88249998D01*
X147894318Y-88249998D01*
X147894318Y-88250001D01*
X147914955Y-88406760D01*
X147914956Y-88406762D01*
X147975464Y-88552841D01*
X148071718Y-88678282D01*
X148197159Y-88774536D01*
X148343238Y-88835044D01*
X148418528Y-88844956D01*
X148499999Y-88855682D01*
X148500000Y-88855682D01*
X148656762Y-88835044D01*
X148656764Y-88835042D01*
X148663235Y-88834191D01*
X148732271Y-88844956D01*
X148784527Y-88891336D01*
X148786891Y-88895917D01*
X148787088Y-88895804D01*
X148791147Y-88902836D01*
X148791151Y-88902841D01*
X148887405Y-89028282D01*
X149012846Y-89124536D01*
X149158925Y-89185044D01*
X149237306Y-89195363D01*
X149315686Y-89205682D01*
X149315687Y-89205682D01*
X149315688Y-89205682D01*
X149380426Y-89197159D01*
X149472449Y-89185044D01*
X149618528Y-89124536D01*
X149743969Y-89028282D01*
X149840223Y-88902841D01*
X149900731Y-88756762D01*
X149921369Y-88600000D01*
X149915160Y-88552841D01*
X149900731Y-88443239D01*
X149900731Y-88443238D01*
X149840223Y-88297159D01*
X149743969Y-88171718D01*
X149618528Y-88075464D01*
X149580907Y-88059881D01*
X149472449Y-88014956D01*
X149472447Y-88014955D01*
X149358833Y-87999998D01*
X156394318Y-87999998D01*
X156394318Y-88000001D01*
X156414955Y-88156760D01*
X156414956Y-88156762D01*
X156453576Y-88250000D01*
X156475464Y-88302841D01*
X156571718Y-88428282D01*
X156697159Y-88524536D01*
X156843238Y-88585044D01*
X156905478Y-88593238D01*
X156999999Y-88605682D01*
X157000000Y-88605682D01*
X157000001Y-88605682D01*
X157094514Y-88593239D01*
X157156762Y-88585044D01*
X157302841Y-88524536D01*
X157428282Y-88428282D01*
X157524536Y-88302841D01*
X157585044Y-88156762D01*
X157605682Y-88000000D01*
X157598725Y-87947159D01*
X157585044Y-87843239D01*
X157585044Y-87843238D01*
X157524536Y-87697159D01*
X157428282Y-87571718D01*
X157302841Y-87475464D01*
X157285398Y-87468239D01*
X157156762Y-87414956D01*
X157156760Y-87414955D01*
X157000001Y-87394318D01*
X156999999Y-87394318D01*
X156843239Y-87414955D01*
X156843237Y-87414956D01*
X156697160Y-87475463D01*
X156571718Y-87571718D01*
X156475463Y-87697160D01*
X156414956Y-87843237D01*
X156414955Y-87843239D01*
X156394318Y-87999998D01*
X149358833Y-87999998D01*
X149315688Y-87994318D01*
X149315686Y-87994318D01*
X149152450Y-88015808D01*
X149083415Y-88005042D01*
X149031159Y-87958662D01*
X149028797Y-87954081D01*
X149028599Y-87954196D01*
X149024539Y-87947163D01*
X148993538Y-87906762D01*
X148928282Y-87821718D01*
X148802841Y-87725464D01*
X148656762Y-87664956D01*
X148656760Y-87664955D01*
X148500001Y-87644318D01*
X148499999Y-87644318D01*
X148343239Y-87664955D01*
X148343237Y-87664956D01*
X148197160Y-87725463D01*
X148071718Y-87821718D01*
X147975463Y-87947160D01*
X147914956Y-88093237D01*
X147914955Y-88093239D01*
X147894318Y-88249998D01*
X137334820Y-88249998D01*
X137428282Y-88178282D01*
X137524536Y-88052841D01*
X137585044Y-87906762D01*
X137598802Y-87802254D01*
X137605682Y-87750001D01*
X137605682Y-87749998D01*
X137589226Y-87625001D01*
X137589226Y-87624998D01*
X141269318Y-87624998D01*
X141269318Y-87625001D01*
X141289955Y-87781760D01*
X141289956Y-87781762D01*
X141350464Y-87927841D01*
X141446718Y-88053282D01*
X141572159Y-88149536D01*
X141718238Y-88210044D01*
X141796619Y-88220363D01*
X141874999Y-88230682D01*
X141875000Y-88230682D01*
X141875001Y-88230682D01*
X141931027Y-88223306D01*
X142031762Y-88210044D01*
X142177841Y-88149536D01*
X142303282Y-88053282D01*
X142399536Y-87927841D01*
X142460044Y-87781762D01*
X142480682Y-87625000D01*
X142476500Y-87593238D01*
X142460044Y-87468239D01*
X142460044Y-87468238D01*
X142399536Y-87322159D01*
X142303282Y-87196718D01*
X142177841Y-87100464D01*
X142031762Y-87039956D01*
X142031760Y-87039955D01*
X141875001Y-87019318D01*
X141874999Y-87019318D01*
X141718239Y-87039955D01*
X141718237Y-87039956D01*
X141572160Y-87100463D01*
X141446718Y-87196718D01*
X141350463Y-87322160D01*
X141289956Y-87468237D01*
X141289955Y-87468239D01*
X141269318Y-87624998D01*
X137589226Y-87624998D01*
X137585044Y-87593238D01*
X137524536Y-87447159D01*
X137428282Y-87321718D01*
X137302841Y-87225464D01*
X137156762Y-87164956D01*
X137156760Y-87164955D01*
X137000001Y-87144318D01*
X136999999Y-87144318D01*
X136843239Y-87164955D01*
X136843237Y-87164956D01*
X136697160Y-87225463D01*
X136571718Y-87321718D01*
X136475463Y-87447160D01*
X136414956Y-87593237D01*
X136414955Y-87593239D01*
X136394318Y-87749998D01*
X136394318Y-87750001D01*
X136414955Y-87906760D01*
X136414956Y-87906762D01*
X136460124Y-88015808D01*
X136475465Y-88052843D01*
X136479528Y-88059881D01*
X136477373Y-88061125D01*
X136498052Y-88114611D01*
X136484015Y-88183056D01*
X136449969Y-88223306D01*
X136321720Y-88321715D01*
X136225463Y-88447160D01*
X136164956Y-88593237D01*
X136164955Y-88593239D01*
X136144318Y-88749998D01*
X117500000Y-88749998D01*
X117500000Y-85499998D01*
X121394318Y-85499998D01*
X121394318Y-85500001D01*
X121414955Y-85656760D01*
X121414956Y-85656762D01*
X121475464Y-85802841D01*
X121571718Y-85928282D01*
X121697159Y-86024536D01*
X121843238Y-86085044D01*
X121921619Y-86095363D01*
X121999999Y-86105682D01*
X122000000Y-86105682D01*
X122000001Y-86105682D01*
X122052254Y-86098802D01*
X122156762Y-86085044D01*
X122302841Y-86024536D01*
X122428282Y-85928282D01*
X122524536Y-85802841D01*
X122585044Y-85656762D01*
X122605682Y-85500000D01*
X122598029Y-85441873D01*
X122585044Y-85343239D01*
X122585044Y-85343238D01*
X122524536Y-85197159D01*
X122428282Y-85071718D01*
X122334814Y-84999998D01*
X143394318Y-84999998D01*
X143394318Y-85000001D01*
X143414955Y-85156760D01*
X143414956Y-85156762D01*
X143475464Y-85302842D01*
X143568826Y-85424514D01*
X143594020Y-85489683D01*
X143579981Y-85558128D01*
X143568826Y-85575486D01*
X143475464Y-85697157D01*
X143414956Y-85843237D01*
X143414955Y-85843239D01*
X143394318Y-85999998D01*
X143394318Y-86000001D01*
X143414955Y-86156760D01*
X143414956Y-86156762D01*
X143475464Y-86302842D01*
X143568826Y-86424514D01*
X143594020Y-86489683D01*
X143579981Y-86558128D01*
X143568826Y-86575486D01*
X143475464Y-86697157D01*
X143414956Y-86843237D01*
X143414955Y-86843239D01*
X143394318Y-86999998D01*
X143394318Y-87000001D01*
X143414955Y-87156760D01*
X143414956Y-87156762D01*
X143475464Y-87302841D01*
X143571718Y-87428282D01*
X143697159Y-87524536D01*
X143843238Y-87585044D01*
X143905478Y-87593238D01*
X143999999Y-87605682D01*
X144000000Y-87605682D01*
X144000001Y-87605682D01*
X144094514Y-87593239D01*
X144156762Y-87585044D01*
X144302841Y-87524536D01*
X144428282Y-87428282D01*
X144524536Y-87302841D01*
X144585044Y-87156762D01*
X144605682Y-87000000D01*
X144585044Y-86843238D01*
X144524536Y-86697159D01*
X144431171Y-86575484D01*
X144405979Y-86510317D01*
X144420017Y-86441873D01*
X144431167Y-86424521D01*
X144524536Y-86302841D01*
X144585044Y-86156762D01*
X144605682Y-86000000D01*
X144585044Y-85843238D01*
X144524536Y-85697159D01*
X144431171Y-85575484D01*
X144405979Y-85510317D01*
X144420017Y-85441873D01*
X144431167Y-85424521D01*
X144524536Y-85302841D01*
X144585044Y-85156762D01*
X144605682Y-85000000D01*
X144605682Y-84999998D01*
X144894318Y-84999998D01*
X144894318Y-85000001D01*
X144914955Y-85156760D01*
X144914956Y-85156762D01*
X144975464Y-85302842D01*
X145068826Y-85424514D01*
X145094020Y-85489683D01*
X145079981Y-85558128D01*
X145068826Y-85575486D01*
X144975464Y-85697157D01*
X144914956Y-85843237D01*
X144914955Y-85843239D01*
X144894318Y-85999998D01*
X144894318Y-86000001D01*
X144914955Y-86156760D01*
X144914956Y-86156762D01*
X144975464Y-86302842D01*
X145068826Y-86424514D01*
X145094020Y-86489683D01*
X145079981Y-86558128D01*
X145068826Y-86575486D01*
X144975464Y-86697157D01*
X144914956Y-86843237D01*
X144914955Y-86843239D01*
X144894318Y-86999998D01*
X144894318Y-87000001D01*
X144914955Y-87156760D01*
X144914956Y-87156762D01*
X144975464Y-87302841D01*
X145071718Y-87428282D01*
X145197159Y-87524536D01*
X145343238Y-87585044D01*
X145405478Y-87593238D01*
X145499999Y-87605682D01*
X145500000Y-87605682D01*
X145500001Y-87605682D01*
X145594514Y-87593239D01*
X145656762Y-87585044D01*
X145802841Y-87524536D01*
X145928282Y-87428282D01*
X146024536Y-87302841D01*
X146085044Y-87156762D01*
X146105682Y-87000000D01*
X146085044Y-86843238D01*
X146024536Y-86697159D01*
X145931171Y-86575484D01*
X145905979Y-86510317D01*
X145920017Y-86441873D01*
X145931167Y-86424521D01*
X146024536Y-86302841D01*
X146085044Y-86156762D01*
X146105682Y-86000000D01*
X146085044Y-85843238D01*
X146024536Y-85697159D01*
X145931171Y-85575484D01*
X145905979Y-85510317D01*
X145920017Y-85441873D01*
X145931167Y-85424521D01*
X146024536Y-85302841D01*
X146085044Y-85156762D01*
X146105682Y-85000000D01*
X146105682Y-84999998D01*
X146394318Y-84999998D01*
X146394318Y-85000001D01*
X146414955Y-85156760D01*
X146414956Y-85156762D01*
X146475464Y-85302842D01*
X146568826Y-85424514D01*
X146594020Y-85489683D01*
X146579981Y-85558128D01*
X146568826Y-85575486D01*
X146475464Y-85697157D01*
X146414956Y-85843237D01*
X146414955Y-85843239D01*
X146394318Y-85999998D01*
X146394318Y-86000001D01*
X146414955Y-86156760D01*
X146414956Y-86156762D01*
X146475464Y-86302842D01*
X146568826Y-86424514D01*
X146594020Y-86489683D01*
X146579981Y-86558128D01*
X146568826Y-86575486D01*
X146475464Y-86697157D01*
X146414956Y-86843237D01*
X146414955Y-86843239D01*
X146394318Y-86999998D01*
X146394318Y-87000001D01*
X146414955Y-87156760D01*
X146414956Y-87156762D01*
X146475464Y-87302841D01*
X146571718Y-87428282D01*
X146697159Y-87524536D01*
X146843238Y-87585044D01*
X146905478Y-87593238D01*
X146999999Y-87605682D01*
X147000000Y-87605682D01*
X147000001Y-87605682D01*
X147094514Y-87593239D01*
X147156762Y-87585044D01*
X147302841Y-87524536D01*
X147428282Y-87428282D01*
X147524536Y-87302841D01*
X147585044Y-87156762D01*
X147605682Y-87000000D01*
X147585044Y-86843238D01*
X147524536Y-86697159D01*
X147431171Y-86575484D01*
X147405979Y-86510317D01*
X147420017Y-86441873D01*
X147431167Y-86424521D01*
X147524536Y-86302841D01*
X147585044Y-86156762D01*
X147605682Y-86000000D01*
X147585044Y-85843238D01*
X147524536Y-85697159D01*
X147431171Y-85575484D01*
X147405979Y-85510317D01*
X147420017Y-85441873D01*
X147431167Y-85424521D01*
X147524536Y-85302841D01*
X147585044Y-85156762D01*
X147605682Y-85000000D01*
X147585044Y-84843238D01*
X147524536Y-84697159D01*
X147428282Y-84571718D01*
X147302841Y-84475464D01*
X147156762Y-84414956D01*
X147156760Y-84414955D01*
X147000001Y-84394318D01*
X146999999Y-84394318D01*
X146843239Y-84414955D01*
X146843237Y-84414956D01*
X146697160Y-84475463D01*
X146571718Y-84571718D01*
X146475463Y-84697160D01*
X146414956Y-84843237D01*
X146414955Y-84843239D01*
X146394318Y-84999998D01*
X146105682Y-84999998D01*
X146085044Y-84843238D01*
X146024536Y-84697159D01*
X145928282Y-84571718D01*
X145802841Y-84475464D01*
X145656762Y-84414956D01*
X145656760Y-84414955D01*
X145500001Y-84394318D01*
X145499999Y-84394318D01*
X145343239Y-84414955D01*
X145343237Y-84414956D01*
X145197160Y-84475463D01*
X145071718Y-84571718D01*
X144975463Y-84697160D01*
X144914956Y-84843237D01*
X144914955Y-84843239D01*
X144894318Y-84999998D01*
X144605682Y-84999998D01*
X144585044Y-84843238D01*
X144524536Y-84697159D01*
X144428282Y-84571718D01*
X144302841Y-84475464D01*
X144156762Y-84414956D01*
X144156760Y-84414955D01*
X144000001Y-84394318D01*
X143999999Y-84394318D01*
X143843239Y-84414955D01*
X143843237Y-84414956D01*
X143697160Y-84475463D01*
X143571718Y-84571718D01*
X143475463Y-84697160D01*
X143414956Y-84843237D01*
X143414955Y-84843239D01*
X143394318Y-84999998D01*
X122334814Y-84999998D01*
X122302841Y-84975464D01*
X122156762Y-84914956D01*
X122156760Y-84914955D01*
X122000001Y-84894318D01*
X121999999Y-84894318D01*
X121843239Y-84914955D01*
X121843237Y-84914956D01*
X121697160Y-84975463D01*
X121571718Y-85071718D01*
X121475463Y-85197160D01*
X121414956Y-85343237D01*
X121414955Y-85343239D01*
X121394318Y-85499998D01*
X117500000Y-85499998D01*
X117500000Y-84749998D01*
X119894318Y-84749998D01*
X119894318Y-84750001D01*
X119914955Y-84906760D01*
X119914956Y-84906762D01*
X119953576Y-85000000D01*
X119975464Y-85052841D01*
X120071718Y-85178282D01*
X120197159Y-85274536D01*
X120343238Y-85335044D01*
X120405478Y-85343238D01*
X120499999Y-85355682D01*
X120500000Y-85355682D01*
X120500001Y-85355682D01*
X120594514Y-85343239D01*
X120656762Y-85335044D01*
X120802841Y-85274536D01*
X120928282Y-85178282D01*
X121024536Y-85052841D01*
X121085044Y-84906762D01*
X121105682Y-84750000D01*
X121098725Y-84697159D01*
X121085044Y-84593239D01*
X121085044Y-84593238D01*
X121024536Y-84447159D01*
X120928282Y-84321718D01*
X120802841Y-84225464D01*
X120656762Y-84164956D01*
X120656760Y-84164955D01*
X120500001Y-84144318D01*
X120499999Y-84144318D01*
X120343239Y-84164955D01*
X120343237Y-84164956D01*
X120197160Y-84225463D01*
X120071718Y-84321718D01*
X119975463Y-84447160D01*
X119914956Y-84593237D01*
X119914955Y-84593239D01*
X119894318Y-84749998D01*
X117500000Y-84749998D01*
X117500000Y-83499998D01*
X143394318Y-83499998D01*
X143394318Y-83500001D01*
X143414955Y-83656760D01*
X143414956Y-83656762D01*
X143475464Y-83802841D01*
X143571718Y-83928282D01*
X143697159Y-84024536D01*
X143843238Y-84085044D01*
X143921619Y-84095363D01*
X143999999Y-84105682D01*
X144000000Y-84105682D01*
X144000001Y-84105682D01*
X144052254Y-84098802D01*
X144156762Y-84085044D01*
X144302841Y-84024536D01*
X144334820Y-83999998D01*
X148894318Y-83999998D01*
X148894318Y-84000001D01*
X148914955Y-84156760D01*
X148914956Y-84156762D01*
X148975464Y-84302841D01*
X149071718Y-84428282D01*
X149197159Y-84524536D01*
X149343238Y-84585044D01*
X149405478Y-84593238D01*
X149499999Y-84605682D01*
X149500000Y-84605682D01*
X149500001Y-84605682D01*
X149594514Y-84593239D01*
X149656762Y-84585044D01*
X149802841Y-84524536D01*
X149928282Y-84428282D01*
X150024536Y-84302841D01*
X150085044Y-84156762D01*
X150105682Y-84000000D01*
X150085044Y-83843238D01*
X150024536Y-83697159D01*
X149928282Y-83571718D01*
X149802841Y-83475464D01*
X149656762Y-83414956D01*
X149656760Y-83414955D01*
X149500001Y-83394318D01*
X149499999Y-83394318D01*
X149343239Y-83414955D01*
X149343237Y-83414956D01*
X149197160Y-83475463D01*
X149071718Y-83571718D01*
X148975463Y-83697160D01*
X148914956Y-83843237D01*
X148914955Y-83843239D01*
X148894318Y-83999998D01*
X144334820Y-83999998D01*
X144428282Y-83928282D01*
X144524536Y-83802841D01*
X144585044Y-83656762D01*
X144605682Y-83500000D01*
X144585044Y-83343238D01*
X144524536Y-83197159D01*
X144428282Y-83071718D01*
X144302841Y-82975464D01*
X144156762Y-82914956D01*
X144156760Y-82914955D01*
X144000001Y-82894318D01*
X143999999Y-82894318D01*
X143843239Y-82914955D01*
X143843237Y-82914956D01*
X143697160Y-82975463D01*
X143571718Y-83071718D01*
X143475463Y-83197160D01*
X143414956Y-83343237D01*
X143414955Y-83343239D01*
X143394318Y-83499998D01*
X117500000Y-83499998D01*
X117500000Y-82499998D01*
X156394318Y-82499998D01*
X156394318Y-82500001D01*
X156414955Y-82656760D01*
X156414956Y-82656762D01*
X156475464Y-82802841D01*
X156571718Y-82928282D01*
X156697159Y-83024536D01*
X156843238Y-83085044D01*
X156921619Y-83095363D01*
X156999999Y-83105682D01*
X157000000Y-83105682D01*
X157000001Y-83105682D01*
X157052254Y-83098802D01*
X157156762Y-83085044D01*
X157302841Y-83024536D01*
X157428282Y-82928282D01*
X157524536Y-82802841D01*
X157585044Y-82656762D01*
X157605682Y-82500000D01*
X157585044Y-82343238D01*
X157524536Y-82197159D01*
X157428282Y-82071718D01*
X157302841Y-81975464D01*
X157156762Y-81914956D01*
X157156760Y-81914955D01*
X157000001Y-81894318D01*
X156999999Y-81894318D01*
X156843239Y-81914955D01*
X156843237Y-81914956D01*
X156697160Y-81975463D01*
X156571718Y-82071718D01*
X156475463Y-82197160D01*
X156414956Y-82343237D01*
X156414955Y-82343239D01*
X156394318Y-82499998D01*
X117500000Y-82499998D01*
X117500000Y-79749998D01*
X122894318Y-79749998D01*
X122894318Y-79750001D01*
X122914955Y-79906760D01*
X122914956Y-79906762D01*
X122953576Y-80000000D01*
X122975464Y-80052841D01*
X123071718Y-80178282D01*
X123197159Y-80274536D01*
X123343238Y-80335044D01*
X123421619Y-80345363D01*
X123499999Y-80355682D01*
X123500000Y-80355682D01*
X123500001Y-80355682D01*
X123552254Y-80348802D01*
X123656762Y-80335044D01*
X123802841Y-80274536D01*
X123928282Y-80178282D01*
X124024536Y-80052841D01*
X124046424Y-79999998D01*
X125144318Y-79999998D01*
X125144318Y-80000001D01*
X125164955Y-80156760D01*
X125164956Y-80156762D01*
X125225464Y-80302841D01*
X125321718Y-80428282D01*
X125447159Y-80524536D01*
X125593238Y-80585044D01*
X125671619Y-80595363D01*
X125749999Y-80605682D01*
X125750000Y-80605682D01*
X125750001Y-80605682D01*
X125802254Y-80598802D01*
X125906762Y-80585044D01*
X126052841Y-80524536D01*
X126178282Y-80428282D01*
X126274536Y-80302841D01*
X126335044Y-80156762D01*
X126355682Y-80000000D01*
X126335044Y-79843238D01*
X126274536Y-79697159D01*
X126178282Y-79571718D01*
X126052841Y-79475464D01*
X125906762Y-79414956D01*
X125906760Y-79414955D01*
X125750001Y-79394318D01*
X125749999Y-79394318D01*
X125593239Y-79414955D01*
X125593237Y-79414956D01*
X125447160Y-79475463D01*
X125321718Y-79571718D01*
X125225463Y-79697160D01*
X125164956Y-79843237D01*
X125164955Y-79843239D01*
X125144318Y-79999998D01*
X124046424Y-79999998D01*
X124085044Y-79906762D01*
X124105682Y-79750000D01*
X124098725Y-79697159D01*
X124085044Y-79593239D01*
X124085044Y-79593238D01*
X124024536Y-79447159D01*
X123928282Y-79321718D01*
X123802841Y-79225464D01*
X123656762Y-79164956D01*
X123656760Y-79164955D01*
X123500001Y-79144318D01*
X123499999Y-79144318D01*
X123343239Y-79164955D01*
X123343237Y-79164956D01*
X123197160Y-79225463D01*
X123071718Y-79321718D01*
X122975463Y-79447160D01*
X122914956Y-79593237D01*
X122914955Y-79593239D01*
X122894318Y-79749998D01*
X117500000Y-79749998D01*
X117500000Y-77919483D01*
X124494318Y-77919483D01*
X124494318Y-77919486D01*
X124514955Y-78076245D01*
X124514956Y-78076247D01*
X124575464Y-78222326D01*
X124671718Y-78347767D01*
X124797159Y-78444021D01*
X124943238Y-78504529D01*
X125021619Y-78514848D01*
X125099999Y-78525167D01*
X125100000Y-78525167D01*
X125100001Y-78525167D01*
X125152254Y-78518287D01*
X125256762Y-78504529D01*
X125402841Y-78444021D01*
X125528282Y-78347767D01*
X125624536Y-78222326D01*
X125685044Y-78076247D01*
X125705682Y-77919485D01*
X125685044Y-77762723D01*
X125624536Y-77616644D01*
X125528282Y-77491203D01*
X125402841Y-77394949D01*
X125256762Y-77334441D01*
X125256760Y-77334440D01*
X125100001Y-77313803D01*
X125099999Y-77313803D01*
X124943239Y-77334440D01*
X124943237Y-77334441D01*
X124797160Y-77394948D01*
X124671718Y-77491203D01*
X124575463Y-77616645D01*
X124514956Y-77762722D01*
X124514955Y-77762724D01*
X124494318Y-77919483D01*
X117500000Y-77919483D01*
X117500000Y-76006092D01*
X117500597Y-75993938D01*
X117518018Y-75817056D01*
X117522757Y-75793232D01*
X117572577Y-75628994D01*
X117581875Y-75606549D01*
X117662775Y-75455195D01*
X117676272Y-75434995D01*
X117785149Y-75302328D01*
X117802328Y-75285149D01*
X117934995Y-75176272D01*
X117955195Y-75162775D01*
X118106549Y-75081875D01*
X118128994Y-75072577D01*
X118293232Y-75022757D01*
X118317056Y-75018018D01*
X118493939Y-75000597D01*
X118506093Y-75000000D01*
X120785573Y-75000000D01*
X120852612Y-75019685D01*
G37*
G04 #@! TD.AperFunction*
G04 #@! TA.AperFunction,Conductor*
G36*
X116937539Y-108519685D02*
G01*
X116983294Y-108572489D01*
X116994500Y-108624000D01*
X116994500Y-128993890D01*
X116995109Y-129018714D01*
X116995707Y-129030876D01*
X116997530Y-129055598D01*
X117014950Y-129232474D01*
X117014952Y-129232494D01*
X117022227Y-129281541D01*
X117026964Y-129305358D01*
X117026969Y-129305380D01*
X117036986Y-129345374D01*
X117034178Y-129415187D01*
X116994073Y-129472400D01*
X116929402Y-129498848D01*
X116916701Y-129499500D01*
X97004428Y-129499500D01*
X96995582Y-129499184D01*
X96973622Y-129497613D01*
X96795442Y-129484869D01*
X96777931Y-129482351D01*
X96586212Y-129440646D01*
X96569236Y-129435662D01*
X96385390Y-129367090D01*
X96369298Y-129359740D01*
X96197095Y-129265711D01*
X96182210Y-129256146D01*
X96025132Y-129138558D01*
X96011762Y-129126972D01*
X95873027Y-128988237D01*
X95861441Y-128974867D01*
X95743849Y-128817784D01*
X95734288Y-128802904D01*
X95640259Y-128630701D01*
X95632909Y-128614609D01*
X95572091Y-128451551D01*
X95564334Y-128430755D01*
X95559355Y-128413797D01*
X95517647Y-128222063D01*
X95515130Y-128204556D01*
X95509784Y-128129815D01*
X95500816Y-128004418D01*
X95500500Y-127995572D01*
X95500500Y-127499996D01*
X106694435Y-127499996D01*
X106694435Y-127500003D01*
X106714630Y-127679249D01*
X106714631Y-127679254D01*
X106774211Y-127849523D01*
X106827360Y-127934108D01*
X106870184Y-128002262D01*
X106997738Y-128129816D01*
X107088080Y-128186582D01*
X107130762Y-128213401D01*
X107150478Y-128225789D01*
X107320745Y-128285368D01*
X107320750Y-128285369D01*
X107499996Y-128305565D01*
X107500000Y-128305565D01*
X107500004Y-128305565D01*
X107679249Y-128285369D01*
X107679252Y-128285368D01*
X107679255Y-128285368D01*
X107849522Y-128225789D01*
X108002262Y-128129816D01*
X108129816Y-128002262D01*
X108225789Y-127849522D01*
X108285368Y-127679255D01*
X108295137Y-127592554D01*
X108305565Y-127500003D01*
X108305565Y-127499996D01*
X114194435Y-127499996D01*
X114194435Y-127500003D01*
X114214630Y-127679249D01*
X114214631Y-127679254D01*
X114274211Y-127849523D01*
X114327360Y-127934108D01*
X114370184Y-128002262D01*
X114497738Y-128129816D01*
X114588080Y-128186582D01*
X114630762Y-128213401D01*
X114650478Y-128225789D01*
X114820745Y-128285368D01*
X114820750Y-128285369D01*
X114999996Y-128305565D01*
X115000000Y-128305565D01*
X115000004Y-128305565D01*
X115179249Y-128285369D01*
X115179252Y-128285368D01*
X115179255Y-128285368D01*
X115349522Y-128225789D01*
X115502262Y-128129816D01*
X115629816Y-128002262D01*
X115725789Y-127849522D01*
X115785368Y-127679255D01*
X115795137Y-127592554D01*
X115805565Y-127500003D01*
X115805565Y-127499996D01*
X115785369Y-127320750D01*
X115785368Y-127320745D01*
X115773109Y-127285711D01*
X115725789Y-127150478D01*
X115629816Y-126997738D01*
X115502262Y-126870184D01*
X115349523Y-126774211D01*
X115179254Y-126714631D01*
X115179249Y-126714630D01*
X115000004Y-126694435D01*
X114999996Y-126694435D01*
X114820750Y-126714630D01*
X114820745Y-126714631D01*
X114650476Y-126774211D01*
X114497737Y-126870184D01*
X114370184Y-126997737D01*
X114274211Y-127150476D01*
X114214631Y-127320745D01*
X114214630Y-127320750D01*
X114194435Y-127499996D01*
X108305565Y-127499996D01*
X108285369Y-127320750D01*
X108285368Y-127320745D01*
X108273109Y-127285711D01*
X108225789Y-127150478D01*
X108129816Y-126997738D01*
X108002262Y-126870184D01*
X107849523Y-126774211D01*
X107679254Y-126714631D01*
X107679249Y-126714630D01*
X107500004Y-126694435D01*
X107499996Y-126694435D01*
X107320750Y-126714630D01*
X107320745Y-126714631D01*
X107150476Y-126774211D01*
X106997737Y-126870184D01*
X106870184Y-126997737D01*
X106774211Y-127150476D01*
X106714631Y-127320745D01*
X106714630Y-127320750D01*
X106694435Y-127499996D01*
X95500500Y-127499996D01*
X95500500Y-125000000D01*
X97694564Y-125000000D01*
X97714287Y-125300918D01*
X97714288Y-125300930D01*
X97773118Y-125596683D01*
X97773122Y-125596698D01*
X97870053Y-125882247D01*
X97870062Y-125882268D01*
X98003431Y-126152713D01*
X98003435Y-126152720D01*
X98170973Y-126403459D01*
X98369810Y-126630189D01*
X98596540Y-126829026D01*
X98847279Y-126996564D01*
X98847286Y-126996568D01*
X99117731Y-127129937D01*
X99117736Y-127129939D01*
X99117748Y-127129945D01*
X99403309Y-127226880D01*
X99603251Y-127266651D01*
X99699069Y-127285711D01*
X99699070Y-127285711D01*
X99699080Y-127285713D01*
X100000000Y-127305436D01*
X100300920Y-127285713D01*
X100596691Y-127226880D01*
X100882252Y-127129945D01*
X101152718Y-126996566D01*
X101403461Y-126829025D01*
X101630189Y-126630189D01*
X101829025Y-126403461D01*
X101996566Y-126152718D01*
X102129945Y-125882252D01*
X102226880Y-125596691D01*
X102285713Y-125300920D01*
X102305436Y-125000000D01*
X102285713Y-124699080D01*
X102226880Y-124403309D01*
X102129945Y-124117748D01*
X101996566Y-123847282D01*
X101829025Y-123596539D01*
X101630189Y-123369810D01*
X101403459Y-123170973D01*
X101152720Y-123003435D01*
X101152713Y-123003431D01*
X100882268Y-122870062D01*
X100882247Y-122870053D01*
X100596698Y-122773122D01*
X100596692Y-122773120D01*
X100596691Y-122773120D01*
X100596689Y-122773119D01*
X100596683Y-122773118D01*
X100300930Y-122714288D01*
X100300921Y-122714287D01*
X100300920Y-122714287D01*
X100000000Y-122694564D01*
X99699080Y-122714287D01*
X99699079Y-122714287D01*
X99699069Y-122714288D01*
X99403316Y-122773118D01*
X99403301Y-122773122D01*
X99117752Y-122870053D01*
X99117731Y-122870062D01*
X98847286Y-123003431D01*
X98847279Y-123003435D01*
X98596540Y-123170973D01*
X98369810Y-123369810D01*
X98170973Y-123596540D01*
X98003435Y-123847279D01*
X98003431Y-123847286D01*
X97870062Y-124117731D01*
X97870053Y-124117752D01*
X97773122Y-124403301D01*
X97773118Y-124403316D01*
X97714288Y-124699069D01*
X97714287Y-124699081D01*
X97694564Y-125000000D01*
X95500500Y-125000000D01*
X95500500Y-108624000D01*
X95520185Y-108556961D01*
X95572989Y-108511206D01*
X95624500Y-108500000D01*
X116870500Y-108500000D01*
X116937539Y-108519685D01*
G37*
G04 #@! TD.AperFunction*
M02*
