%TF.GenerationSoftware,KiCad,Pcbnew,8.0.8*%
%TF.CreationDate,2025-03-16T18:36:03-04:00*%
%TF.ProjectId,h_bridge_driver,685f6272-6964-4676-955f-647269766572,rev?*%
%TF.SameCoordinates,Original*%
%TF.FileFunction,Drillmap*%
%TF.FilePolarity,Positive*%
%FSLAX45Y45*%
G04 Gerber Fmt 4.5, Leading zero omitted, Abs format (unit mm)*
G04 Created by KiCad (PCBNEW 8.0.8) date 2025-03-16 18:36:03*
%MOMM*%
%LPD*%
G01*
G04 APERTURE LIST*
%ADD10C,0.050000*%
%ADD11C,0.200000*%
%ADD12C,0.170000*%
%ADD13C,0.400000*%
G04 APERTURE END LIST*
D10*
X20500000Y-8400000D02*
X20500000Y-8300000D01*
X8500000Y-8650000D02*
G75*
G02*
X8700000Y-8450000I200000J0D01*
G01*
X9500000Y-12000000D02*
X9500000Y-12550000D01*
X19500000Y-12800000D02*
X19500000Y-10400000D01*
X8500000Y-7050000D02*
X8500000Y-7150000D01*
X20300000Y-9700000D02*
G75*
G02*
X20500000Y-9900000I0J-200000D01*
G01*
X19500000Y-8800000D02*
G75*
G02*
X19700000Y-8600000I200000J0D01*
G01*
X19300000Y-5000000D02*
G75*
G02*
X19500000Y-5200000I0J-200000D01*
G01*
X9500000Y-10050000D02*
X9500000Y-10550000D01*
X20300000Y-9700000D02*
X19700000Y-9700000D01*
X9300000Y-6850000D02*
X8700000Y-6850000D01*
X9500000Y-9150000D02*
X9500000Y-10050000D01*
X19500000Y-9500000D02*
X19500000Y-8800000D01*
X20500000Y-8400000D02*
G75*
G02*
X20300000Y-8600000I-200000J0D01*
G01*
X19700000Y-8100000D02*
G75*
G02*
X19500000Y-7900000I0J200000D01*
G01*
X20500000Y-10000000D02*
G75*
G02*
X20300000Y-10200000I-200000J0D01*
G01*
X9700000Y-13000000D02*
G75*
G02*
X9500000Y-12800000I0J200000D01*
G01*
X19700000Y-10200000D02*
X20300000Y-10200000D01*
X9500000Y-12550000D02*
X9500000Y-12800000D01*
X9500000Y-7550000D02*
X9500000Y-8250000D01*
X8700000Y-7350000D02*
G75*
G02*
X8500000Y-7150000I0J200000D01*
G01*
X19500000Y-7900000D02*
X19500000Y-5200000D01*
X9300000Y-8950000D02*
G75*
G02*
X9500000Y-9150000I0J-200000D01*
G01*
X9500000Y-5200000D02*
X9500000Y-6650000D01*
X8700000Y-8950000D02*
G75*
G02*
X8500000Y-8750000I0J200000D01*
G01*
X19700000Y-9700000D02*
G75*
G02*
X19500000Y-9500000I0J200000D01*
G01*
X8500000Y-8650000D02*
X8500000Y-8750000D01*
X9300000Y-7350000D02*
G75*
G02*
X9500000Y-7550000I0J-200000D01*
G01*
X9700000Y-13000000D02*
X19300000Y-13000000D01*
X19500000Y-10400000D02*
G75*
G02*
X19700000Y-10200000I200000J0D01*
G01*
X8700000Y-8950000D02*
X9300000Y-8950000D01*
X9500000Y-10550000D02*
X9500000Y-12000000D01*
X20300000Y-8100000D02*
G75*
G02*
X20500000Y-8300000I0J-200000D01*
G01*
X8700000Y-7350000D02*
X9300000Y-7350000D01*
X19500000Y-12800000D02*
G75*
G02*
X19300000Y-13000000I-200000J0D01*
G01*
X9500000Y-8250000D02*
G75*
G02*
X9300000Y-8450000I-200000J0D01*
G01*
X19300000Y-5000000D02*
X9700000Y-5000000D01*
X19700000Y-8600000D02*
X20300000Y-8600000D01*
X20500000Y-10000000D02*
X20500000Y-9900000D01*
X9500000Y-6650000D02*
G75*
G02*
X9300000Y-6850000I-200000J0D01*
G01*
X20300000Y-8100000D02*
X19700000Y-8100000D01*
X8500000Y-7050000D02*
G75*
G02*
X8700000Y-6850000I200000J0D01*
G01*
X9300000Y-8450000D02*
X8700000Y-8450000D01*
X9500000Y-5200000D02*
G75*
G02*
X9700000Y-5000000I200000J0D01*
G01*
X13265000Y-10100000D02*
G75*
G02*
X13135000Y-10100000I-65000J0D01*
G01*
X13135000Y-10100000D02*
G75*
G02*
X13265000Y-10100000I65000J0D01*
G01*
X13265000Y-10900000D02*
G75*
G02*
X13135000Y-10900000I-65000J0D01*
G01*
X13135000Y-10900000D02*
G75*
G02*
X13265000Y-10900000I65000J0D01*
G01*
D11*
D12*
X14607000Y-11515000D02*
X14777000Y-11685000D01*
X14777000Y-11515000D02*
X14607000Y-11685000D01*
X15623000Y-11515000D02*
X15793000Y-11685000D01*
X15793000Y-11515000D02*
X15623000Y-11685000D01*
X16803000Y-11523000D02*
X16973000Y-11693000D01*
X16973000Y-11523000D02*
X16803000Y-11693000D01*
X17819000Y-11523000D02*
X17989000Y-11693000D01*
X17989000Y-11523000D02*
X17819000Y-11693000D01*
D13*
X15400000Y-11600000D02*
G75*
G02*
X15000000Y-11600000I-200000J0D01*
G01*
X15000000Y-11600000D02*
G75*
G02*
X15400000Y-11600000I200000J0D01*
G01*
X17596000Y-11608000D02*
G75*
G02*
X17196000Y-11608000I-200000J0D01*
G01*
X17196000Y-11608000D02*
G75*
G02*
X17596000Y-11608000I200000J0D01*
G01*
D11*
X8758277Y-13313984D02*
X8758277Y-13113984D01*
X8758277Y-13113984D02*
X8805896Y-13113984D01*
X8805896Y-13113984D02*
X8834467Y-13123508D01*
X8834467Y-13123508D02*
X8853515Y-13142555D01*
X8853515Y-13142555D02*
X8863039Y-13161603D01*
X8863039Y-13161603D02*
X8872563Y-13199698D01*
X8872563Y-13199698D02*
X8872563Y-13228269D01*
X8872563Y-13228269D02*
X8863039Y-13266365D01*
X8863039Y-13266365D02*
X8853515Y-13285412D01*
X8853515Y-13285412D02*
X8834467Y-13304460D01*
X8834467Y-13304460D02*
X8805896Y-13313984D01*
X8805896Y-13313984D02*
X8758277Y-13313984D01*
X8958277Y-13313984D02*
X8958277Y-13180650D01*
X8958277Y-13218746D02*
X8967801Y-13199698D01*
X8967801Y-13199698D02*
X8977324Y-13190174D01*
X8977324Y-13190174D02*
X8996372Y-13180650D01*
X8996372Y-13180650D02*
X9015420Y-13180650D01*
X9082086Y-13313984D02*
X9082086Y-13180650D01*
X9082086Y-13113984D02*
X9072563Y-13123508D01*
X9072563Y-13123508D02*
X9082086Y-13133031D01*
X9082086Y-13133031D02*
X9091610Y-13123508D01*
X9091610Y-13123508D02*
X9082086Y-13113984D01*
X9082086Y-13113984D02*
X9082086Y-13133031D01*
X9205896Y-13313984D02*
X9186848Y-13304460D01*
X9186848Y-13304460D02*
X9177324Y-13285412D01*
X9177324Y-13285412D02*
X9177324Y-13113984D01*
X9310658Y-13313984D02*
X9291610Y-13304460D01*
X9291610Y-13304460D02*
X9282086Y-13285412D01*
X9282086Y-13285412D02*
X9282086Y-13113984D01*
X9539229Y-13313984D02*
X9539229Y-13113984D01*
X9539229Y-13113984D02*
X9605896Y-13256841D01*
X9605896Y-13256841D02*
X9672563Y-13113984D01*
X9672563Y-13113984D02*
X9672563Y-13313984D01*
X9853515Y-13313984D02*
X9853515Y-13209222D01*
X9853515Y-13209222D02*
X9843991Y-13190174D01*
X9843991Y-13190174D02*
X9824944Y-13180650D01*
X9824944Y-13180650D02*
X9786848Y-13180650D01*
X9786848Y-13180650D02*
X9767801Y-13190174D01*
X9853515Y-13304460D02*
X9834467Y-13313984D01*
X9834467Y-13313984D02*
X9786848Y-13313984D01*
X9786848Y-13313984D02*
X9767801Y-13304460D01*
X9767801Y-13304460D02*
X9758277Y-13285412D01*
X9758277Y-13285412D02*
X9758277Y-13266365D01*
X9758277Y-13266365D02*
X9767801Y-13247317D01*
X9767801Y-13247317D02*
X9786848Y-13237793D01*
X9786848Y-13237793D02*
X9834467Y-13237793D01*
X9834467Y-13237793D02*
X9853515Y-13228269D01*
X9948753Y-13180650D02*
X9948753Y-13380650D01*
X9948753Y-13190174D02*
X9967801Y-13180650D01*
X9967801Y-13180650D02*
X10005896Y-13180650D01*
X10005896Y-13180650D02*
X10024944Y-13190174D01*
X10024944Y-13190174D02*
X10034467Y-13199698D01*
X10034467Y-13199698D02*
X10043991Y-13218746D01*
X10043991Y-13218746D02*
X10043991Y-13275888D01*
X10043991Y-13275888D02*
X10034467Y-13294936D01*
X10034467Y-13294936D02*
X10024944Y-13304460D01*
X10024944Y-13304460D02*
X10005896Y-13313984D01*
X10005896Y-13313984D02*
X9967801Y-13313984D01*
X9967801Y-13313984D02*
X9948753Y-13304460D01*
X10129705Y-13294936D02*
X10139229Y-13304460D01*
X10139229Y-13304460D02*
X10129705Y-13313984D01*
X10129705Y-13313984D02*
X10120182Y-13304460D01*
X10120182Y-13304460D02*
X10129705Y-13294936D01*
X10129705Y-13294936D02*
X10129705Y-13313984D01*
X10129705Y-13190174D02*
X10139229Y-13199698D01*
X10139229Y-13199698D02*
X10129705Y-13209222D01*
X10129705Y-13209222D02*
X10120182Y-13199698D01*
X10120182Y-13199698D02*
X10129705Y-13190174D01*
X10129705Y-13190174D02*
X10129705Y-13209222D01*
D12*
X8327500Y-13557500D02*
X8497500Y-13727500D01*
X8497500Y-13557500D02*
X8327500Y-13727500D01*
D11*
X8863039Y-13733984D02*
X8748753Y-13733984D01*
X8805896Y-13733984D02*
X8805896Y-13533984D01*
X8805896Y-13533984D02*
X8786848Y-13562555D01*
X8786848Y-13562555D02*
X8767801Y-13581603D01*
X8767801Y-13581603D02*
X8748753Y-13591127D01*
X8948753Y-13714936D02*
X8958277Y-13724460D01*
X8958277Y-13724460D02*
X8948753Y-13733984D01*
X8948753Y-13733984D02*
X8939229Y-13724460D01*
X8939229Y-13724460D02*
X8948753Y-13714936D01*
X8948753Y-13714936D02*
X8948753Y-13733984D01*
X9024944Y-13533984D02*
X9158277Y-13533984D01*
X9158277Y-13533984D02*
X9072563Y-13733984D01*
X9272563Y-13533984D02*
X9291610Y-13533984D01*
X9291610Y-13533984D02*
X9310658Y-13543508D01*
X9310658Y-13543508D02*
X9320182Y-13553031D01*
X9320182Y-13553031D02*
X9329705Y-13572079D01*
X9329705Y-13572079D02*
X9339229Y-13610174D01*
X9339229Y-13610174D02*
X9339229Y-13657793D01*
X9339229Y-13657793D02*
X9329705Y-13695888D01*
X9329705Y-13695888D02*
X9320182Y-13714936D01*
X9320182Y-13714936D02*
X9310658Y-13724460D01*
X9310658Y-13724460D02*
X9291610Y-13733984D01*
X9291610Y-13733984D02*
X9272563Y-13733984D01*
X9272563Y-13733984D02*
X9253515Y-13724460D01*
X9253515Y-13724460D02*
X9243991Y-13714936D01*
X9243991Y-13714936D02*
X9234467Y-13695888D01*
X9234467Y-13695888D02*
X9224944Y-13657793D01*
X9224944Y-13657793D02*
X9224944Y-13610174D01*
X9224944Y-13610174D02*
X9234467Y-13572079D01*
X9234467Y-13572079D02*
X9243991Y-13553031D01*
X9243991Y-13553031D02*
X9253515Y-13543508D01*
X9253515Y-13543508D02*
X9272563Y-13533984D01*
X9463039Y-13533984D02*
X9482086Y-13533984D01*
X9482086Y-13533984D02*
X9501134Y-13543508D01*
X9501134Y-13543508D02*
X9510658Y-13553031D01*
X9510658Y-13553031D02*
X9520182Y-13572079D01*
X9520182Y-13572079D02*
X9529705Y-13610174D01*
X9529705Y-13610174D02*
X9529705Y-13657793D01*
X9529705Y-13657793D02*
X9520182Y-13695888D01*
X9520182Y-13695888D02*
X9510658Y-13714936D01*
X9510658Y-13714936D02*
X9501134Y-13724460D01*
X9501134Y-13724460D02*
X9482086Y-13733984D01*
X9482086Y-13733984D02*
X9463039Y-13733984D01*
X9463039Y-13733984D02*
X9443991Y-13724460D01*
X9443991Y-13724460D02*
X9434467Y-13714936D01*
X9434467Y-13714936D02*
X9424944Y-13695888D01*
X9424944Y-13695888D02*
X9415420Y-13657793D01*
X9415420Y-13657793D02*
X9415420Y-13610174D01*
X9415420Y-13610174D02*
X9424944Y-13572079D01*
X9424944Y-13572079D02*
X9434467Y-13553031D01*
X9434467Y-13553031D02*
X9443991Y-13543508D01*
X9443991Y-13543508D02*
X9463039Y-13533984D01*
X9615420Y-13733984D02*
X9615420Y-13600650D01*
X9615420Y-13619698D02*
X9624944Y-13610174D01*
X9624944Y-13610174D02*
X9643991Y-13600650D01*
X9643991Y-13600650D02*
X9672563Y-13600650D01*
X9672563Y-13600650D02*
X9691610Y-13610174D01*
X9691610Y-13610174D02*
X9701134Y-13629222D01*
X9701134Y-13629222D02*
X9701134Y-13733984D01*
X9701134Y-13629222D02*
X9710658Y-13610174D01*
X9710658Y-13610174D02*
X9729705Y-13600650D01*
X9729705Y-13600650D02*
X9758277Y-13600650D01*
X9758277Y-13600650D02*
X9777325Y-13610174D01*
X9777325Y-13610174D02*
X9786848Y-13629222D01*
X9786848Y-13629222D02*
X9786848Y-13733984D01*
X9882086Y-13733984D02*
X9882086Y-13600650D01*
X9882086Y-13619698D02*
X9891610Y-13610174D01*
X9891610Y-13610174D02*
X9910658Y-13600650D01*
X9910658Y-13600650D02*
X9939229Y-13600650D01*
X9939229Y-13600650D02*
X9958277Y-13610174D01*
X9958277Y-13610174D02*
X9967801Y-13629222D01*
X9967801Y-13629222D02*
X9967801Y-13733984D01*
X9967801Y-13629222D02*
X9977325Y-13610174D01*
X9977325Y-13610174D02*
X9996372Y-13600650D01*
X9996372Y-13600650D02*
X10024944Y-13600650D01*
X10024944Y-13600650D02*
X10043991Y-13610174D01*
X10043991Y-13610174D02*
X10053515Y-13629222D01*
X10053515Y-13629222D02*
X10053515Y-13733984D01*
X10443991Y-13524460D02*
X10272563Y-13781603D01*
X10701134Y-13533984D02*
X10720182Y-13533984D01*
X10720182Y-13533984D02*
X10739229Y-13543508D01*
X10739229Y-13543508D02*
X10748753Y-13553031D01*
X10748753Y-13553031D02*
X10758277Y-13572079D01*
X10758277Y-13572079D02*
X10767801Y-13610174D01*
X10767801Y-13610174D02*
X10767801Y-13657793D01*
X10767801Y-13657793D02*
X10758277Y-13695888D01*
X10758277Y-13695888D02*
X10748753Y-13714936D01*
X10748753Y-13714936D02*
X10739229Y-13724460D01*
X10739229Y-13724460D02*
X10720182Y-13733984D01*
X10720182Y-13733984D02*
X10701134Y-13733984D01*
X10701134Y-13733984D02*
X10682087Y-13724460D01*
X10682087Y-13724460D02*
X10672563Y-13714936D01*
X10672563Y-13714936D02*
X10663039Y-13695888D01*
X10663039Y-13695888D02*
X10653515Y-13657793D01*
X10653515Y-13657793D02*
X10653515Y-13610174D01*
X10653515Y-13610174D02*
X10663039Y-13572079D01*
X10663039Y-13572079D02*
X10672563Y-13553031D01*
X10672563Y-13553031D02*
X10682087Y-13543508D01*
X10682087Y-13543508D02*
X10701134Y-13533984D01*
X10853515Y-13714936D02*
X10863039Y-13724460D01*
X10863039Y-13724460D02*
X10853515Y-13733984D01*
X10853515Y-13733984D02*
X10843991Y-13724460D01*
X10843991Y-13724460D02*
X10853515Y-13714936D01*
X10853515Y-13714936D02*
X10853515Y-13733984D01*
X10986848Y-13533984D02*
X11005896Y-13533984D01*
X11005896Y-13533984D02*
X11024944Y-13543508D01*
X11024944Y-13543508D02*
X11034468Y-13553031D01*
X11034468Y-13553031D02*
X11043991Y-13572079D01*
X11043991Y-13572079D02*
X11053515Y-13610174D01*
X11053515Y-13610174D02*
X11053515Y-13657793D01*
X11053515Y-13657793D02*
X11043991Y-13695888D01*
X11043991Y-13695888D02*
X11034468Y-13714936D01*
X11034468Y-13714936D02*
X11024944Y-13724460D01*
X11024944Y-13724460D02*
X11005896Y-13733984D01*
X11005896Y-13733984D02*
X10986848Y-13733984D01*
X10986848Y-13733984D02*
X10967801Y-13724460D01*
X10967801Y-13724460D02*
X10958277Y-13714936D01*
X10958277Y-13714936D02*
X10948753Y-13695888D01*
X10948753Y-13695888D02*
X10939229Y-13657793D01*
X10939229Y-13657793D02*
X10939229Y-13610174D01*
X10939229Y-13610174D02*
X10948753Y-13572079D01*
X10948753Y-13572079D02*
X10958277Y-13553031D01*
X10958277Y-13553031D02*
X10967801Y-13543508D01*
X10967801Y-13543508D02*
X10986848Y-13533984D01*
X11224944Y-13533984D02*
X11186848Y-13533984D01*
X11186848Y-13533984D02*
X11167801Y-13543508D01*
X11167801Y-13543508D02*
X11158277Y-13553031D01*
X11158277Y-13553031D02*
X11139229Y-13581603D01*
X11139229Y-13581603D02*
X11129706Y-13619698D01*
X11129706Y-13619698D02*
X11129706Y-13695888D01*
X11129706Y-13695888D02*
X11139229Y-13714936D01*
X11139229Y-13714936D02*
X11148753Y-13724460D01*
X11148753Y-13724460D02*
X11167801Y-13733984D01*
X11167801Y-13733984D02*
X11205896Y-13733984D01*
X11205896Y-13733984D02*
X11224944Y-13724460D01*
X11224944Y-13724460D02*
X11234467Y-13714936D01*
X11234467Y-13714936D02*
X11243991Y-13695888D01*
X11243991Y-13695888D02*
X11243991Y-13648269D01*
X11243991Y-13648269D02*
X11234467Y-13629222D01*
X11234467Y-13629222D02*
X11224944Y-13619698D01*
X11224944Y-13619698D02*
X11205896Y-13610174D01*
X11205896Y-13610174D02*
X11167801Y-13610174D01*
X11167801Y-13610174D02*
X11148753Y-13619698D01*
X11148753Y-13619698D02*
X11139229Y-13629222D01*
X11139229Y-13629222D02*
X11129706Y-13648269D01*
X11415420Y-13533984D02*
X11377325Y-13533984D01*
X11377325Y-13533984D02*
X11358277Y-13543508D01*
X11358277Y-13543508D02*
X11348753Y-13553031D01*
X11348753Y-13553031D02*
X11329706Y-13581603D01*
X11329706Y-13581603D02*
X11320182Y-13619698D01*
X11320182Y-13619698D02*
X11320182Y-13695888D01*
X11320182Y-13695888D02*
X11329706Y-13714936D01*
X11329706Y-13714936D02*
X11339229Y-13724460D01*
X11339229Y-13724460D02*
X11358277Y-13733984D01*
X11358277Y-13733984D02*
X11396372Y-13733984D01*
X11396372Y-13733984D02*
X11415420Y-13724460D01*
X11415420Y-13724460D02*
X11424944Y-13714936D01*
X11424944Y-13714936D02*
X11434467Y-13695888D01*
X11434467Y-13695888D02*
X11434467Y-13648269D01*
X11434467Y-13648269D02*
X11424944Y-13629222D01*
X11424944Y-13629222D02*
X11415420Y-13619698D01*
X11415420Y-13619698D02*
X11396372Y-13610174D01*
X11396372Y-13610174D02*
X11358277Y-13610174D01*
X11358277Y-13610174D02*
X11339229Y-13619698D01*
X11339229Y-13619698D02*
X11329706Y-13629222D01*
X11329706Y-13629222D02*
X11320182Y-13648269D01*
X11529706Y-13733984D02*
X11567801Y-13733984D01*
X11567801Y-13733984D02*
X11586848Y-13724460D01*
X11586848Y-13724460D02*
X11596372Y-13714936D01*
X11596372Y-13714936D02*
X11615420Y-13686365D01*
X11615420Y-13686365D02*
X11624944Y-13648269D01*
X11624944Y-13648269D02*
X11624944Y-13572079D01*
X11624944Y-13572079D02*
X11615420Y-13553031D01*
X11615420Y-13553031D02*
X11605896Y-13543508D01*
X11605896Y-13543508D02*
X11586848Y-13533984D01*
X11586848Y-13533984D02*
X11548753Y-13533984D01*
X11548753Y-13533984D02*
X11529706Y-13543508D01*
X11529706Y-13543508D02*
X11520182Y-13553031D01*
X11520182Y-13553031D02*
X11510658Y-13572079D01*
X11510658Y-13572079D02*
X11510658Y-13619698D01*
X11510658Y-13619698D02*
X11520182Y-13638746D01*
X11520182Y-13638746D02*
X11529706Y-13648269D01*
X11529706Y-13648269D02*
X11548753Y-13657793D01*
X11548753Y-13657793D02*
X11586848Y-13657793D01*
X11586848Y-13657793D02*
X11605896Y-13648269D01*
X11605896Y-13648269D02*
X11615420Y-13638746D01*
X11615420Y-13638746D02*
X11624944Y-13619698D01*
X11701134Y-13533984D02*
X11701134Y-13572079D01*
X11777325Y-13533984D02*
X11777325Y-13572079D01*
X12072563Y-13810174D02*
X12063039Y-13800650D01*
X12063039Y-13800650D02*
X12043991Y-13772079D01*
X12043991Y-13772079D02*
X12034468Y-13753031D01*
X12034468Y-13753031D02*
X12024944Y-13724460D01*
X12024944Y-13724460D02*
X12015420Y-13676841D01*
X12015420Y-13676841D02*
X12015420Y-13638746D01*
X12015420Y-13638746D02*
X12024944Y-13591127D01*
X12024944Y-13591127D02*
X12034468Y-13562555D01*
X12034468Y-13562555D02*
X12043991Y-13543508D01*
X12043991Y-13543508D02*
X12063039Y-13514936D01*
X12063039Y-13514936D02*
X12072563Y-13505412D01*
X12234468Y-13600650D02*
X12234468Y-13733984D01*
X12186848Y-13524460D02*
X12139229Y-13667317D01*
X12139229Y-13667317D02*
X12263039Y-13667317D01*
X12491610Y-13733984D02*
X12491610Y-13533984D01*
X12577325Y-13733984D02*
X12577325Y-13629222D01*
X12577325Y-13629222D02*
X12567801Y-13610174D01*
X12567801Y-13610174D02*
X12548753Y-13600650D01*
X12548753Y-13600650D02*
X12520182Y-13600650D01*
X12520182Y-13600650D02*
X12501134Y-13610174D01*
X12501134Y-13610174D02*
X12491610Y-13619698D01*
X12701134Y-13733984D02*
X12682087Y-13724460D01*
X12682087Y-13724460D02*
X12672563Y-13714936D01*
X12672563Y-13714936D02*
X12663039Y-13695888D01*
X12663039Y-13695888D02*
X12663039Y-13638746D01*
X12663039Y-13638746D02*
X12672563Y-13619698D01*
X12672563Y-13619698D02*
X12682087Y-13610174D01*
X12682087Y-13610174D02*
X12701134Y-13600650D01*
X12701134Y-13600650D02*
X12729706Y-13600650D01*
X12729706Y-13600650D02*
X12748753Y-13610174D01*
X12748753Y-13610174D02*
X12758277Y-13619698D01*
X12758277Y-13619698D02*
X12767801Y-13638746D01*
X12767801Y-13638746D02*
X12767801Y-13695888D01*
X12767801Y-13695888D02*
X12758277Y-13714936D01*
X12758277Y-13714936D02*
X12748753Y-13724460D01*
X12748753Y-13724460D02*
X12729706Y-13733984D01*
X12729706Y-13733984D02*
X12701134Y-13733984D01*
X12882087Y-13733984D02*
X12863039Y-13724460D01*
X12863039Y-13724460D02*
X12853515Y-13705412D01*
X12853515Y-13705412D02*
X12853515Y-13533984D01*
X13034468Y-13724460D02*
X13015420Y-13733984D01*
X13015420Y-13733984D02*
X12977325Y-13733984D01*
X12977325Y-13733984D02*
X12958277Y-13724460D01*
X12958277Y-13724460D02*
X12948753Y-13705412D01*
X12948753Y-13705412D02*
X12948753Y-13629222D01*
X12948753Y-13629222D02*
X12958277Y-13610174D01*
X12958277Y-13610174D02*
X12977325Y-13600650D01*
X12977325Y-13600650D02*
X13015420Y-13600650D01*
X13015420Y-13600650D02*
X13034468Y-13610174D01*
X13034468Y-13610174D02*
X13043991Y-13629222D01*
X13043991Y-13629222D02*
X13043991Y-13648269D01*
X13043991Y-13648269D02*
X12948753Y-13667317D01*
X13120182Y-13724460D02*
X13139230Y-13733984D01*
X13139230Y-13733984D02*
X13177325Y-13733984D01*
X13177325Y-13733984D02*
X13196372Y-13724460D01*
X13196372Y-13724460D02*
X13205896Y-13705412D01*
X13205896Y-13705412D02*
X13205896Y-13695888D01*
X13205896Y-13695888D02*
X13196372Y-13676841D01*
X13196372Y-13676841D02*
X13177325Y-13667317D01*
X13177325Y-13667317D02*
X13148753Y-13667317D01*
X13148753Y-13667317D02*
X13129706Y-13657793D01*
X13129706Y-13657793D02*
X13120182Y-13638746D01*
X13120182Y-13638746D02*
X13120182Y-13629222D01*
X13120182Y-13629222D02*
X13129706Y-13610174D01*
X13129706Y-13610174D02*
X13148753Y-13600650D01*
X13148753Y-13600650D02*
X13177325Y-13600650D01*
X13177325Y-13600650D02*
X13196372Y-13610174D01*
X13272563Y-13810174D02*
X13282087Y-13800650D01*
X13282087Y-13800650D02*
X13301134Y-13772079D01*
X13301134Y-13772079D02*
X13310658Y-13753031D01*
X13310658Y-13753031D02*
X13320182Y-13724460D01*
X13320182Y-13724460D02*
X13329706Y-13676841D01*
X13329706Y-13676841D02*
X13329706Y-13638746D01*
X13329706Y-13638746D02*
X13320182Y-13591127D01*
X13320182Y-13591127D02*
X13310658Y-13562555D01*
X13310658Y-13562555D02*
X13301134Y-13543508D01*
X13301134Y-13543508D02*
X13282087Y-13514936D01*
X13282087Y-13514936D02*
X13272563Y-13505412D01*
X13634468Y-13810174D02*
X13624944Y-13800650D01*
X13624944Y-13800650D02*
X13605896Y-13772079D01*
X13605896Y-13772079D02*
X13596372Y-13753031D01*
X13596372Y-13753031D02*
X13586849Y-13724460D01*
X13586849Y-13724460D02*
X13577325Y-13676841D01*
X13577325Y-13676841D02*
X13577325Y-13638746D01*
X13577325Y-13638746D02*
X13586849Y-13591127D01*
X13586849Y-13591127D02*
X13596372Y-13562555D01*
X13596372Y-13562555D02*
X13605896Y-13543508D01*
X13605896Y-13543508D02*
X13624944Y-13514936D01*
X13624944Y-13514936D02*
X13634468Y-13505412D01*
X13710658Y-13600650D02*
X13710658Y-13733984D01*
X13710658Y-13619698D02*
X13720182Y-13610174D01*
X13720182Y-13610174D02*
X13739230Y-13600650D01*
X13739230Y-13600650D02*
X13767801Y-13600650D01*
X13767801Y-13600650D02*
X13786849Y-13610174D01*
X13786849Y-13610174D02*
X13796372Y-13629222D01*
X13796372Y-13629222D02*
X13796372Y-13733984D01*
X13920182Y-13733984D02*
X13901134Y-13724460D01*
X13901134Y-13724460D02*
X13891611Y-13714936D01*
X13891611Y-13714936D02*
X13882087Y-13695888D01*
X13882087Y-13695888D02*
X13882087Y-13638746D01*
X13882087Y-13638746D02*
X13891611Y-13619698D01*
X13891611Y-13619698D02*
X13901134Y-13610174D01*
X13901134Y-13610174D02*
X13920182Y-13600650D01*
X13920182Y-13600650D02*
X13948753Y-13600650D01*
X13948753Y-13600650D02*
X13967801Y-13610174D01*
X13967801Y-13610174D02*
X13977325Y-13619698D01*
X13977325Y-13619698D02*
X13986849Y-13638746D01*
X13986849Y-13638746D02*
X13986849Y-13695888D01*
X13986849Y-13695888D02*
X13977325Y-13714936D01*
X13977325Y-13714936D02*
X13967801Y-13724460D01*
X13967801Y-13724460D02*
X13948753Y-13733984D01*
X13948753Y-13733984D02*
X13920182Y-13733984D01*
X14043992Y-13600650D02*
X14120182Y-13600650D01*
X14072563Y-13533984D02*
X14072563Y-13705412D01*
X14072563Y-13705412D02*
X14082087Y-13724460D01*
X14082087Y-13724460D02*
X14101134Y-13733984D01*
X14101134Y-13733984D02*
X14120182Y-13733984D01*
X14339230Y-13600650D02*
X14339230Y-13800650D01*
X14339230Y-13610174D02*
X14358277Y-13600650D01*
X14358277Y-13600650D02*
X14396373Y-13600650D01*
X14396373Y-13600650D02*
X14415420Y-13610174D01*
X14415420Y-13610174D02*
X14424944Y-13619698D01*
X14424944Y-13619698D02*
X14434468Y-13638746D01*
X14434468Y-13638746D02*
X14434468Y-13695888D01*
X14434468Y-13695888D02*
X14424944Y-13714936D01*
X14424944Y-13714936D02*
X14415420Y-13724460D01*
X14415420Y-13724460D02*
X14396373Y-13733984D01*
X14396373Y-13733984D02*
X14358277Y-13733984D01*
X14358277Y-13733984D02*
X14339230Y-13724460D01*
X14548753Y-13733984D02*
X14529706Y-13724460D01*
X14529706Y-13724460D02*
X14520182Y-13705412D01*
X14520182Y-13705412D02*
X14520182Y-13533984D01*
X14710658Y-13733984D02*
X14710658Y-13629222D01*
X14710658Y-13629222D02*
X14701134Y-13610174D01*
X14701134Y-13610174D02*
X14682087Y-13600650D01*
X14682087Y-13600650D02*
X14643992Y-13600650D01*
X14643992Y-13600650D02*
X14624944Y-13610174D01*
X14710658Y-13724460D02*
X14691611Y-13733984D01*
X14691611Y-13733984D02*
X14643992Y-13733984D01*
X14643992Y-13733984D02*
X14624944Y-13724460D01*
X14624944Y-13724460D02*
X14615420Y-13705412D01*
X14615420Y-13705412D02*
X14615420Y-13686365D01*
X14615420Y-13686365D02*
X14624944Y-13667317D01*
X14624944Y-13667317D02*
X14643992Y-13657793D01*
X14643992Y-13657793D02*
X14691611Y-13657793D01*
X14691611Y-13657793D02*
X14710658Y-13648269D01*
X14777325Y-13600650D02*
X14853515Y-13600650D01*
X14805896Y-13533984D02*
X14805896Y-13705412D01*
X14805896Y-13705412D02*
X14815420Y-13724460D01*
X14815420Y-13724460D02*
X14834468Y-13733984D01*
X14834468Y-13733984D02*
X14853515Y-13733984D01*
X14996373Y-13724460D02*
X14977325Y-13733984D01*
X14977325Y-13733984D02*
X14939230Y-13733984D01*
X14939230Y-13733984D02*
X14920182Y-13724460D01*
X14920182Y-13724460D02*
X14910658Y-13705412D01*
X14910658Y-13705412D02*
X14910658Y-13629222D01*
X14910658Y-13629222D02*
X14920182Y-13610174D01*
X14920182Y-13610174D02*
X14939230Y-13600650D01*
X14939230Y-13600650D02*
X14977325Y-13600650D01*
X14977325Y-13600650D02*
X14996373Y-13610174D01*
X14996373Y-13610174D02*
X15005896Y-13629222D01*
X15005896Y-13629222D02*
X15005896Y-13648269D01*
X15005896Y-13648269D02*
X14910658Y-13667317D01*
X15177325Y-13733984D02*
X15177325Y-13533984D01*
X15177325Y-13724460D02*
X15158277Y-13733984D01*
X15158277Y-13733984D02*
X15120182Y-13733984D01*
X15120182Y-13733984D02*
X15101134Y-13724460D01*
X15101134Y-13724460D02*
X15091611Y-13714936D01*
X15091611Y-13714936D02*
X15082087Y-13695888D01*
X15082087Y-13695888D02*
X15082087Y-13638746D01*
X15082087Y-13638746D02*
X15091611Y-13619698D01*
X15091611Y-13619698D02*
X15101134Y-13610174D01*
X15101134Y-13610174D02*
X15120182Y-13600650D01*
X15120182Y-13600650D02*
X15158277Y-13600650D01*
X15158277Y-13600650D02*
X15177325Y-13610174D01*
X15253515Y-13810174D02*
X15263039Y-13800650D01*
X15263039Y-13800650D02*
X15282087Y-13772079D01*
X15282087Y-13772079D02*
X15291611Y-13753031D01*
X15291611Y-13753031D02*
X15301134Y-13724460D01*
X15301134Y-13724460D02*
X15310658Y-13676841D01*
X15310658Y-13676841D02*
X15310658Y-13638746D01*
X15310658Y-13638746D02*
X15301134Y-13591127D01*
X15301134Y-13591127D02*
X15291611Y-13562555D01*
X15291611Y-13562555D02*
X15282087Y-13543508D01*
X15282087Y-13543508D02*
X15263039Y-13514936D01*
X15263039Y-13514936D02*
X15253515Y-13505412D01*
X8497500Y-13932500D02*
G75*
G02*
X8297500Y-13932500I-100000J0D01*
G01*
X8297500Y-13932500D02*
G75*
G02*
X8497500Y-13932500I100000J0D01*
G01*
X8843991Y-13890650D02*
X8843991Y-14023984D01*
X8796372Y-13814460D02*
X8748753Y-13957317D01*
X8748753Y-13957317D02*
X8872563Y-13957317D01*
X8948753Y-14004936D02*
X8958277Y-14014460D01*
X8958277Y-14014460D02*
X8948753Y-14023984D01*
X8948753Y-14023984D02*
X8939229Y-14014460D01*
X8939229Y-14014460D02*
X8948753Y-14004936D01*
X8948753Y-14004936D02*
X8948753Y-14023984D01*
X9082086Y-13823984D02*
X9101134Y-13823984D01*
X9101134Y-13823984D02*
X9120182Y-13833508D01*
X9120182Y-13833508D02*
X9129705Y-13843031D01*
X9129705Y-13843031D02*
X9139229Y-13862079D01*
X9139229Y-13862079D02*
X9148753Y-13900174D01*
X9148753Y-13900174D02*
X9148753Y-13947793D01*
X9148753Y-13947793D02*
X9139229Y-13985888D01*
X9139229Y-13985888D02*
X9129705Y-14004936D01*
X9129705Y-14004936D02*
X9120182Y-14014460D01*
X9120182Y-14014460D02*
X9101134Y-14023984D01*
X9101134Y-14023984D02*
X9082086Y-14023984D01*
X9082086Y-14023984D02*
X9063039Y-14014460D01*
X9063039Y-14014460D02*
X9053515Y-14004936D01*
X9053515Y-14004936D02*
X9043991Y-13985888D01*
X9043991Y-13985888D02*
X9034467Y-13947793D01*
X9034467Y-13947793D02*
X9034467Y-13900174D01*
X9034467Y-13900174D02*
X9043991Y-13862079D01*
X9043991Y-13862079D02*
X9053515Y-13843031D01*
X9053515Y-13843031D02*
X9063039Y-13833508D01*
X9063039Y-13833508D02*
X9082086Y-13823984D01*
X9272563Y-13823984D02*
X9291610Y-13823984D01*
X9291610Y-13823984D02*
X9310658Y-13833508D01*
X9310658Y-13833508D02*
X9320182Y-13843031D01*
X9320182Y-13843031D02*
X9329705Y-13862079D01*
X9329705Y-13862079D02*
X9339229Y-13900174D01*
X9339229Y-13900174D02*
X9339229Y-13947793D01*
X9339229Y-13947793D02*
X9329705Y-13985888D01*
X9329705Y-13985888D02*
X9320182Y-14004936D01*
X9320182Y-14004936D02*
X9310658Y-14014460D01*
X9310658Y-14014460D02*
X9291610Y-14023984D01*
X9291610Y-14023984D02*
X9272563Y-14023984D01*
X9272563Y-14023984D02*
X9253515Y-14014460D01*
X9253515Y-14014460D02*
X9243991Y-14004936D01*
X9243991Y-14004936D02*
X9234467Y-13985888D01*
X9234467Y-13985888D02*
X9224944Y-13947793D01*
X9224944Y-13947793D02*
X9224944Y-13900174D01*
X9224944Y-13900174D02*
X9234467Y-13862079D01*
X9234467Y-13862079D02*
X9243991Y-13843031D01*
X9243991Y-13843031D02*
X9253515Y-13833508D01*
X9253515Y-13833508D02*
X9272563Y-13823984D01*
X9463039Y-13823984D02*
X9482086Y-13823984D01*
X9482086Y-13823984D02*
X9501134Y-13833508D01*
X9501134Y-13833508D02*
X9510658Y-13843031D01*
X9510658Y-13843031D02*
X9520182Y-13862079D01*
X9520182Y-13862079D02*
X9529705Y-13900174D01*
X9529705Y-13900174D02*
X9529705Y-13947793D01*
X9529705Y-13947793D02*
X9520182Y-13985888D01*
X9520182Y-13985888D02*
X9510658Y-14004936D01*
X9510658Y-14004936D02*
X9501134Y-14014460D01*
X9501134Y-14014460D02*
X9482086Y-14023984D01*
X9482086Y-14023984D02*
X9463039Y-14023984D01*
X9463039Y-14023984D02*
X9443991Y-14014460D01*
X9443991Y-14014460D02*
X9434467Y-14004936D01*
X9434467Y-14004936D02*
X9424944Y-13985888D01*
X9424944Y-13985888D02*
X9415420Y-13947793D01*
X9415420Y-13947793D02*
X9415420Y-13900174D01*
X9415420Y-13900174D02*
X9424944Y-13862079D01*
X9424944Y-13862079D02*
X9434467Y-13843031D01*
X9434467Y-13843031D02*
X9443991Y-13833508D01*
X9443991Y-13833508D02*
X9463039Y-13823984D01*
X9615420Y-14023984D02*
X9615420Y-13890650D01*
X9615420Y-13909698D02*
X9624944Y-13900174D01*
X9624944Y-13900174D02*
X9643991Y-13890650D01*
X9643991Y-13890650D02*
X9672563Y-13890650D01*
X9672563Y-13890650D02*
X9691610Y-13900174D01*
X9691610Y-13900174D02*
X9701134Y-13919222D01*
X9701134Y-13919222D02*
X9701134Y-14023984D01*
X9701134Y-13919222D02*
X9710658Y-13900174D01*
X9710658Y-13900174D02*
X9729705Y-13890650D01*
X9729705Y-13890650D02*
X9758277Y-13890650D01*
X9758277Y-13890650D02*
X9777325Y-13900174D01*
X9777325Y-13900174D02*
X9786848Y-13919222D01*
X9786848Y-13919222D02*
X9786848Y-14023984D01*
X9882086Y-14023984D02*
X9882086Y-13890650D01*
X9882086Y-13909698D02*
X9891610Y-13900174D01*
X9891610Y-13900174D02*
X9910658Y-13890650D01*
X9910658Y-13890650D02*
X9939229Y-13890650D01*
X9939229Y-13890650D02*
X9958277Y-13900174D01*
X9958277Y-13900174D02*
X9967801Y-13919222D01*
X9967801Y-13919222D02*
X9967801Y-14023984D01*
X9967801Y-13919222D02*
X9977325Y-13900174D01*
X9977325Y-13900174D02*
X9996372Y-13890650D01*
X9996372Y-13890650D02*
X10024944Y-13890650D01*
X10024944Y-13890650D02*
X10043991Y-13900174D01*
X10043991Y-13900174D02*
X10053515Y-13919222D01*
X10053515Y-13919222D02*
X10053515Y-14023984D01*
X10443991Y-13814460D02*
X10272563Y-14071603D01*
X10701134Y-13823984D02*
X10720182Y-13823984D01*
X10720182Y-13823984D02*
X10739229Y-13833508D01*
X10739229Y-13833508D02*
X10748753Y-13843031D01*
X10748753Y-13843031D02*
X10758277Y-13862079D01*
X10758277Y-13862079D02*
X10767801Y-13900174D01*
X10767801Y-13900174D02*
X10767801Y-13947793D01*
X10767801Y-13947793D02*
X10758277Y-13985888D01*
X10758277Y-13985888D02*
X10748753Y-14004936D01*
X10748753Y-14004936D02*
X10739229Y-14014460D01*
X10739229Y-14014460D02*
X10720182Y-14023984D01*
X10720182Y-14023984D02*
X10701134Y-14023984D01*
X10701134Y-14023984D02*
X10682087Y-14014460D01*
X10682087Y-14014460D02*
X10672563Y-14004936D01*
X10672563Y-14004936D02*
X10663039Y-13985888D01*
X10663039Y-13985888D02*
X10653515Y-13947793D01*
X10653515Y-13947793D02*
X10653515Y-13900174D01*
X10653515Y-13900174D02*
X10663039Y-13862079D01*
X10663039Y-13862079D02*
X10672563Y-13843031D01*
X10672563Y-13843031D02*
X10682087Y-13833508D01*
X10682087Y-13833508D02*
X10701134Y-13823984D01*
X10853515Y-14004936D02*
X10863039Y-14014460D01*
X10863039Y-14014460D02*
X10853515Y-14023984D01*
X10853515Y-14023984D02*
X10843991Y-14014460D01*
X10843991Y-14014460D02*
X10853515Y-14004936D01*
X10853515Y-14004936D02*
X10853515Y-14023984D01*
X11053515Y-14023984D02*
X10939229Y-14023984D01*
X10996372Y-14023984D02*
X10996372Y-13823984D01*
X10996372Y-13823984D02*
X10977325Y-13852555D01*
X10977325Y-13852555D02*
X10958277Y-13871603D01*
X10958277Y-13871603D02*
X10939229Y-13881127D01*
X11234467Y-13823984D02*
X11139229Y-13823984D01*
X11139229Y-13823984D02*
X11129706Y-13919222D01*
X11129706Y-13919222D02*
X11139229Y-13909698D01*
X11139229Y-13909698D02*
X11158277Y-13900174D01*
X11158277Y-13900174D02*
X11205896Y-13900174D01*
X11205896Y-13900174D02*
X11224944Y-13909698D01*
X11224944Y-13909698D02*
X11234467Y-13919222D01*
X11234467Y-13919222D02*
X11243991Y-13938269D01*
X11243991Y-13938269D02*
X11243991Y-13985888D01*
X11243991Y-13985888D02*
X11234467Y-14004936D01*
X11234467Y-14004936D02*
X11224944Y-14014460D01*
X11224944Y-14014460D02*
X11205896Y-14023984D01*
X11205896Y-14023984D02*
X11158277Y-14023984D01*
X11158277Y-14023984D02*
X11139229Y-14014460D01*
X11139229Y-14014460D02*
X11129706Y-14004936D01*
X11310658Y-13823984D02*
X11443991Y-13823984D01*
X11443991Y-13823984D02*
X11358277Y-14023984D01*
X11615420Y-13823984D02*
X11520182Y-13823984D01*
X11520182Y-13823984D02*
X11510658Y-13919222D01*
X11510658Y-13919222D02*
X11520182Y-13909698D01*
X11520182Y-13909698D02*
X11539229Y-13900174D01*
X11539229Y-13900174D02*
X11586848Y-13900174D01*
X11586848Y-13900174D02*
X11605896Y-13909698D01*
X11605896Y-13909698D02*
X11615420Y-13919222D01*
X11615420Y-13919222D02*
X11624944Y-13938269D01*
X11624944Y-13938269D02*
X11624944Y-13985888D01*
X11624944Y-13985888D02*
X11615420Y-14004936D01*
X11615420Y-14004936D02*
X11605896Y-14014460D01*
X11605896Y-14014460D02*
X11586848Y-14023984D01*
X11586848Y-14023984D02*
X11539229Y-14023984D01*
X11539229Y-14023984D02*
X11520182Y-14014460D01*
X11520182Y-14014460D02*
X11510658Y-14004936D01*
X11701134Y-13823984D02*
X11701134Y-13862079D01*
X11777325Y-13823984D02*
X11777325Y-13862079D01*
X12072563Y-14100174D02*
X12063039Y-14090650D01*
X12063039Y-14090650D02*
X12043991Y-14062079D01*
X12043991Y-14062079D02*
X12034468Y-14043031D01*
X12034468Y-14043031D02*
X12024944Y-14014460D01*
X12024944Y-14014460D02*
X12015420Y-13966841D01*
X12015420Y-13966841D02*
X12015420Y-13928746D01*
X12015420Y-13928746D02*
X12024944Y-13881127D01*
X12024944Y-13881127D02*
X12034468Y-13852555D01*
X12034468Y-13852555D02*
X12043991Y-13833508D01*
X12043991Y-13833508D02*
X12063039Y-13804936D01*
X12063039Y-13804936D02*
X12072563Y-13795412D01*
X12139229Y-13843031D02*
X12148753Y-13833508D01*
X12148753Y-13833508D02*
X12167801Y-13823984D01*
X12167801Y-13823984D02*
X12215420Y-13823984D01*
X12215420Y-13823984D02*
X12234468Y-13833508D01*
X12234468Y-13833508D02*
X12243991Y-13843031D01*
X12243991Y-13843031D02*
X12253515Y-13862079D01*
X12253515Y-13862079D02*
X12253515Y-13881127D01*
X12253515Y-13881127D02*
X12243991Y-13909698D01*
X12243991Y-13909698D02*
X12129706Y-14023984D01*
X12129706Y-14023984D02*
X12253515Y-14023984D01*
X12491610Y-14023984D02*
X12491610Y-13823984D01*
X12577325Y-14023984D02*
X12577325Y-13919222D01*
X12577325Y-13919222D02*
X12567801Y-13900174D01*
X12567801Y-13900174D02*
X12548753Y-13890650D01*
X12548753Y-13890650D02*
X12520182Y-13890650D01*
X12520182Y-13890650D02*
X12501134Y-13900174D01*
X12501134Y-13900174D02*
X12491610Y-13909698D01*
X12701134Y-14023984D02*
X12682087Y-14014460D01*
X12682087Y-14014460D02*
X12672563Y-14004936D01*
X12672563Y-14004936D02*
X12663039Y-13985888D01*
X12663039Y-13985888D02*
X12663039Y-13928746D01*
X12663039Y-13928746D02*
X12672563Y-13909698D01*
X12672563Y-13909698D02*
X12682087Y-13900174D01*
X12682087Y-13900174D02*
X12701134Y-13890650D01*
X12701134Y-13890650D02*
X12729706Y-13890650D01*
X12729706Y-13890650D02*
X12748753Y-13900174D01*
X12748753Y-13900174D02*
X12758277Y-13909698D01*
X12758277Y-13909698D02*
X12767801Y-13928746D01*
X12767801Y-13928746D02*
X12767801Y-13985888D01*
X12767801Y-13985888D02*
X12758277Y-14004936D01*
X12758277Y-14004936D02*
X12748753Y-14014460D01*
X12748753Y-14014460D02*
X12729706Y-14023984D01*
X12729706Y-14023984D02*
X12701134Y-14023984D01*
X12882087Y-14023984D02*
X12863039Y-14014460D01*
X12863039Y-14014460D02*
X12853515Y-13995412D01*
X12853515Y-13995412D02*
X12853515Y-13823984D01*
X13034468Y-14014460D02*
X13015420Y-14023984D01*
X13015420Y-14023984D02*
X12977325Y-14023984D01*
X12977325Y-14023984D02*
X12958277Y-14014460D01*
X12958277Y-14014460D02*
X12948753Y-13995412D01*
X12948753Y-13995412D02*
X12948753Y-13919222D01*
X12948753Y-13919222D02*
X12958277Y-13900174D01*
X12958277Y-13900174D02*
X12977325Y-13890650D01*
X12977325Y-13890650D02*
X13015420Y-13890650D01*
X13015420Y-13890650D02*
X13034468Y-13900174D01*
X13034468Y-13900174D02*
X13043991Y-13919222D01*
X13043991Y-13919222D02*
X13043991Y-13938269D01*
X13043991Y-13938269D02*
X12948753Y-13957317D01*
X13120182Y-14014460D02*
X13139230Y-14023984D01*
X13139230Y-14023984D02*
X13177325Y-14023984D01*
X13177325Y-14023984D02*
X13196372Y-14014460D01*
X13196372Y-14014460D02*
X13205896Y-13995412D01*
X13205896Y-13995412D02*
X13205896Y-13985888D01*
X13205896Y-13985888D02*
X13196372Y-13966841D01*
X13196372Y-13966841D02*
X13177325Y-13957317D01*
X13177325Y-13957317D02*
X13148753Y-13957317D01*
X13148753Y-13957317D02*
X13129706Y-13947793D01*
X13129706Y-13947793D02*
X13120182Y-13928746D01*
X13120182Y-13928746D02*
X13120182Y-13919222D01*
X13120182Y-13919222D02*
X13129706Y-13900174D01*
X13129706Y-13900174D02*
X13148753Y-13890650D01*
X13148753Y-13890650D02*
X13177325Y-13890650D01*
X13177325Y-13890650D02*
X13196372Y-13900174D01*
X13272563Y-14100174D02*
X13282087Y-14090650D01*
X13282087Y-14090650D02*
X13301134Y-14062079D01*
X13301134Y-14062079D02*
X13310658Y-14043031D01*
X13310658Y-14043031D02*
X13320182Y-14014460D01*
X13320182Y-14014460D02*
X13329706Y-13966841D01*
X13329706Y-13966841D02*
X13329706Y-13928746D01*
X13329706Y-13928746D02*
X13320182Y-13881127D01*
X13320182Y-13881127D02*
X13310658Y-13852555D01*
X13310658Y-13852555D02*
X13301134Y-13833508D01*
X13301134Y-13833508D02*
X13282087Y-13804936D01*
X13282087Y-13804936D02*
X13272563Y-13795412D01*
X13634468Y-14100174D02*
X13624944Y-14090650D01*
X13624944Y-14090650D02*
X13605896Y-14062079D01*
X13605896Y-14062079D02*
X13596372Y-14043031D01*
X13596372Y-14043031D02*
X13586849Y-14014460D01*
X13586849Y-14014460D02*
X13577325Y-13966841D01*
X13577325Y-13966841D02*
X13577325Y-13928746D01*
X13577325Y-13928746D02*
X13586849Y-13881127D01*
X13586849Y-13881127D02*
X13596372Y-13852555D01*
X13596372Y-13852555D02*
X13605896Y-13833508D01*
X13605896Y-13833508D02*
X13624944Y-13804936D01*
X13624944Y-13804936D02*
X13634468Y-13795412D01*
X13710658Y-13890650D02*
X13710658Y-14023984D01*
X13710658Y-13909698D02*
X13720182Y-13900174D01*
X13720182Y-13900174D02*
X13739230Y-13890650D01*
X13739230Y-13890650D02*
X13767801Y-13890650D01*
X13767801Y-13890650D02*
X13786849Y-13900174D01*
X13786849Y-13900174D02*
X13796372Y-13919222D01*
X13796372Y-13919222D02*
X13796372Y-14023984D01*
X13920182Y-14023984D02*
X13901134Y-14014460D01*
X13901134Y-14014460D02*
X13891611Y-14004936D01*
X13891611Y-14004936D02*
X13882087Y-13985888D01*
X13882087Y-13985888D02*
X13882087Y-13928746D01*
X13882087Y-13928746D02*
X13891611Y-13909698D01*
X13891611Y-13909698D02*
X13901134Y-13900174D01*
X13901134Y-13900174D02*
X13920182Y-13890650D01*
X13920182Y-13890650D02*
X13948753Y-13890650D01*
X13948753Y-13890650D02*
X13967801Y-13900174D01*
X13967801Y-13900174D02*
X13977325Y-13909698D01*
X13977325Y-13909698D02*
X13986849Y-13928746D01*
X13986849Y-13928746D02*
X13986849Y-13985888D01*
X13986849Y-13985888D02*
X13977325Y-14004936D01*
X13977325Y-14004936D02*
X13967801Y-14014460D01*
X13967801Y-14014460D02*
X13948753Y-14023984D01*
X13948753Y-14023984D02*
X13920182Y-14023984D01*
X14043992Y-13890650D02*
X14120182Y-13890650D01*
X14072563Y-13823984D02*
X14072563Y-13995412D01*
X14072563Y-13995412D02*
X14082087Y-14014460D01*
X14082087Y-14014460D02*
X14101134Y-14023984D01*
X14101134Y-14023984D02*
X14120182Y-14023984D01*
X14339230Y-13890650D02*
X14339230Y-14090650D01*
X14339230Y-13900174D02*
X14358277Y-13890650D01*
X14358277Y-13890650D02*
X14396373Y-13890650D01*
X14396373Y-13890650D02*
X14415420Y-13900174D01*
X14415420Y-13900174D02*
X14424944Y-13909698D01*
X14424944Y-13909698D02*
X14434468Y-13928746D01*
X14434468Y-13928746D02*
X14434468Y-13985888D01*
X14434468Y-13985888D02*
X14424944Y-14004936D01*
X14424944Y-14004936D02*
X14415420Y-14014460D01*
X14415420Y-14014460D02*
X14396373Y-14023984D01*
X14396373Y-14023984D02*
X14358277Y-14023984D01*
X14358277Y-14023984D02*
X14339230Y-14014460D01*
X14548753Y-14023984D02*
X14529706Y-14014460D01*
X14529706Y-14014460D02*
X14520182Y-13995412D01*
X14520182Y-13995412D02*
X14520182Y-13823984D01*
X14710658Y-14023984D02*
X14710658Y-13919222D01*
X14710658Y-13919222D02*
X14701134Y-13900174D01*
X14701134Y-13900174D02*
X14682087Y-13890650D01*
X14682087Y-13890650D02*
X14643992Y-13890650D01*
X14643992Y-13890650D02*
X14624944Y-13900174D01*
X14710658Y-14014460D02*
X14691611Y-14023984D01*
X14691611Y-14023984D02*
X14643992Y-14023984D01*
X14643992Y-14023984D02*
X14624944Y-14014460D01*
X14624944Y-14014460D02*
X14615420Y-13995412D01*
X14615420Y-13995412D02*
X14615420Y-13976365D01*
X14615420Y-13976365D02*
X14624944Y-13957317D01*
X14624944Y-13957317D02*
X14643992Y-13947793D01*
X14643992Y-13947793D02*
X14691611Y-13947793D01*
X14691611Y-13947793D02*
X14710658Y-13938269D01*
X14777325Y-13890650D02*
X14853515Y-13890650D01*
X14805896Y-13823984D02*
X14805896Y-13995412D01*
X14805896Y-13995412D02*
X14815420Y-14014460D01*
X14815420Y-14014460D02*
X14834468Y-14023984D01*
X14834468Y-14023984D02*
X14853515Y-14023984D01*
X14996373Y-14014460D02*
X14977325Y-14023984D01*
X14977325Y-14023984D02*
X14939230Y-14023984D01*
X14939230Y-14023984D02*
X14920182Y-14014460D01*
X14920182Y-14014460D02*
X14910658Y-13995412D01*
X14910658Y-13995412D02*
X14910658Y-13919222D01*
X14910658Y-13919222D02*
X14920182Y-13900174D01*
X14920182Y-13900174D02*
X14939230Y-13890650D01*
X14939230Y-13890650D02*
X14977325Y-13890650D01*
X14977325Y-13890650D02*
X14996373Y-13900174D01*
X14996373Y-13900174D02*
X15005896Y-13919222D01*
X15005896Y-13919222D02*
X15005896Y-13938269D01*
X15005896Y-13938269D02*
X14910658Y-13957317D01*
X15177325Y-14023984D02*
X15177325Y-13823984D01*
X15177325Y-14014460D02*
X15158277Y-14023984D01*
X15158277Y-14023984D02*
X15120182Y-14023984D01*
X15120182Y-14023984D02*
X15101134Y-14014460D01*
X15101134Y-14014460D02*
X15091611Y-14004936D01*
X15091611Y-14004936D02*
X15082087Y-13985888D01*
X15082087Y-13985888D02*
X15082087Y-13928746D01*
X15082087Y-13928746D02*
X15091611Y-13909698D01*
X15091611Y-13909698D02*
X15101134Y-13900174D01*
X15101134Y-13900174D02*
X15120182Y-13890650D01*
X15120182Y-13890650D02*
X15158277Y-13890650D01*
X15158277Y-13890650D02*
X15177325Y-13900174D01*
X15253515Y-14100174D02*
X15263039Y-14090650D01*
X15263039Y-14090650D02*
X15282087Y-14062079D01*
X15282087Y-14062079D02*
X15291611Y-14043031D01*
X15291611Y-14043031D02*
X15301134Y-14014460D01*
X15301134Y-14014460D02*
X15310658Y-13966841D01*
X15310658Y-13966841D02*
X15310658Y-13928746D01*
X15310658Y-13928746D02*
X15301134Y-13881127D01*
X15301134Y-13881127D02*
X15291611Y-13852555D01*
X15291611Y-13852555D02*
X15282087Y-13833508D01*
X15282087Y-13833508D02*
X15263039Y-13804936D01*
X15263039Y-13804936D02*
X15253515Y-13795412D01*
M02*
